<?xml version="1.0" encoding="UTF-8" standalone="no"?>
<svg
   width="127.42879"
   height="127.60192"
   viewBox="0 0 127.42879 127.60192"
   fill="none"
   version="1.1"
   id="svg858"
   sodipodi:docname="icon.svg"
   inkscape:version="1.1.1 (3bf5ae0d25, 2021-09-20)"
   xmlns:inkscape="http://www.inkscape.org/namespaces/inkscape"
   xmlns:sodipodi="http://sodipodi.sourceforge.net/DTD/sodipodi-0.dtd"
   xmlns="http://www.w3.org/2000/svg"
   xmlns:svg="http://www.w3.org/2000/svg">
  <defs
     id="defs862" />
  <sodipodi:namedview
     id="namedview860"
     pagecolor="#535050"
     bordercolor="#999999"
     borderopacity="1"
     inkscape:pageshadow="0"
     inkscape:pageopacity="0"
     inkscape:pagecheckerboard="0"
     showgrid="false"
     inkscape:zoom="0.78191489"
     inkscape:cx="-160.5034"
     inkscape:cy="125.97279"
     inkscape:window-width="1366"
     inkscape:window-height="715"
     inkscape:window-x="-8"
     inkscape:window-y="-8"
     inkscape:window-maximized="1"
     inkscape:current-layer="svg858" />
  <path
     d="m 0,50.9668 c 0,2.0863 1.6856,3.7777 3.7738,3.7777 h 47.1371 c 2.0882,0 3.7738,-1.6914 3.7738,-3.7777 V 3.77767 C 54.6847,1.69139 52.9991,0 50.9109,0 22.7937,0 0,22.8186 0,50.9668 Z"
     fill="#ffffff"
     id="path844" />
  <path
     fill-rule="evenodd"
     clip-rule="evenodd"
     d="m 80.075,117.138 c 3.406,4.517 8.292,7.974 14.179,9.559 h 0.005 c 14.054,3.769 28.5,-4.579 32.263,-18.653 2.863,-10.6714 -1.252,-21.5717 -9.545,-27.8557 1.565,-5.1316 2.405,-10.581 2.405,-16.2224 0,-30.7014 -24.856,-55.58211 -55.5246,-55.58211 -2.0832,0 -3.7738,1.69141 -3.7738,3.77771 V 60.1883 H 12.1062 c -2.0831,0 -3.7738,1.6914 -3.7738,3.7776 0,30.6959 24.8617,55.5821 55.525,55.5821 5.6405,0 11.0848,-0.843 16.2176,-2.41 z m 22.094,-34.7078 c -8.72,-0.5178 -16.902,5.1396 -19.252,13.9195 v 0.0015 c -1.353,5.0578 -0.513,10.1908 1.943,14.3818 v 10e-4 c 2.41,4.119 6.38,7.328 11.351,8.666 10.029,2.688 20.338,-3.268 23.025,-13.311 v -0.001 c 2.24,-8.3678 -1.524,-16.933 -8.654,-21.1076 l -0.005,-0.0015 c -1.419,-0.8347 -2.969,-1.4874 -4.634,-1.9362 -1.258,-0.337 -2.521,-0.5385 -3.774,-0.6125 z m 7.88,-6.008 c 0.05,0.0171 0.095,0.0347 0.145,0.0519 1.067,-3.9877 1.641,-8.1825 1.641,-12.5082 0,-25.2565 -19.468,-45.9546 -44.2038,-47.8807 v 47.8807 c 0,2.0863 -1.6907,3.7777 -3.7738,3.7777 H 16.0259 c 1.9271,24.7579 22.6075,44.2494 47.8315,44.2494 4.3222,0 8.5136,-0.572 12.4987,-1.646 l -0.015,-0.041 -0.0302,-0.083 -0.0251,-0.068 -0.0152,-0.041 -0.0049,-0.022 c -0.0252,-0.063 -0.0454,-0.126 -0.0706,-0.189 l -0.0049,-0.021 -0.0152,-0.042 -0.0251,-0.07 -0.0253,-0.081 -0.015,-0.041 -0.0051,-0.018 c -0.0201,-0.063 -0.0452,-0.127 -0.0654,-0.19 l -0.01,-0.027 -0.0101,-0.039 -0.0202,-0.059 -0.0299,-0.099 -0.0153,-0.038 v -0.013 c -0.0201,-0.064 -0.0403,-0.128 -0.0604,-0.192 l -0.0101,-0.032 -0.0101,-0.037 -0.0149,-0.048 -0.0403,-0.121 -0.005,-0.03 -0.01,-0.026 -0.0403,-0.131 -0.0101,-0.045 -0.0101,-0.037 -0.01,-0.033 c -0.0202,-0.065 -0.0402,-0.13 -0.0553,-0.194 l -0.0052,-0.011 -0.01,-0.038 -0.0303,-0.105 -0.01,-0.056 -0.015,-0.04 -0.0052,-0.029 c -0.0151,-0.065 -0.035,-0.13 -0.0501,-0.195 l -0.0052,-0.016 -0.01,-0.043 -0.0251,-0.088 -0.0152,-0.068 -0.0101,-0.042 -0.0049,-0.024 c -0.0151,-0.066 -0.0353,-0.131 -0.0504,-0.195 l -0.0049,-0.022 -0.0101,-0.044 -0.0152,-0.074 -0.0202,-0.081 -0.01,-0.044 -0.0049,-0.019 c -0.0151,-0.065 -0.0252,-0.131 -0.0403,-0.196 l -0.0101,-0.027 -0.0049,-0.042 -0.0153,-0.063 -0.0201,-0.097 -0.0101,-0.042 v -0.013 c -0.0151,-0.066 -0.0302,-0.132 -0.0403,-0.198 l -0.0098,-0.033 -0.0052,-0.039 -0.01,-0.052 -0.0251,-0.12 -0.0051,-0.033 -0.005,-0.023 -0.0253,-0.141 -0.0049,-0.045 -0.0101,-0.037 -0.0051,-0.035 -0.0049,-0.042 -0.0302,-0.154 v -0.014 l -0.005,-0.038 -0.0201,-0.112 -0.0101,-0.056 -0.0051,-0.041 -0.005,-0.031 c -0.01,-0.066 -0.0201,-0.133 -0.0302,-0.2 l -0.0051,-0.016 -0.0049,-0.043 -0.0153,-0.094 -0.0049,-0.067 -0.0101,-0.043 v -0.026 c -0.01,-0.067 -0.0201,-0.133 -0.0302,-0.2 v -0.022 l -0.0049,-0.044 -0.0101,-0.079 -0.01,-0.081 -0.0052,-0.044 -0.0049,-0.022 c -0.0051,-0.067 -0.0151,-0.134 -0.0202,-0.201 l -0.0051,-0.027 -0.0049,-0.043 -0.0052,-0.066 -0.0101,-0.097 -0.0049,-0.043 v -0.015 c -0.0101,-0.068 -0.0151,-0.135 -0.0201,-0.203 l -0.0049,-0.032 v -0.041 l -0.0101,-0.055 -0.0052,-0.119 -0.0049,-0.036 v -0.018 l -0.0152,-0.151 v -0.045 l -0.0049,-0.037 v -0.036 l -0.0052,-0.045 -0.0101,-0.151 v -0.018 -0.037 l -0.01,-0.12 v -0.054 l -0.005,-0.041 v -0.033 c -0.005,-0.068 -0.005,-0.136 -0.01,-0.204 v -0.015 -0.043 l -0.0052,-0.099 -0.0049,-0.067 v -0.044 -0.027 c -0.005,-0.068 -0.0052,-0.137 -0.0052,-0.205 v -0.02 -0.045 l -0.0049,-0.083 v -0.081 -0.045 -0.022 c 0,-0.068 0,-0.136 0,-0.205 l -0.0051,-0.026 0.0051,-0.044 -0.0051,-0.07 0.0051,-0.096 v -0.044 -0.016 c 0,-0.069 0,-0.138 0,-0.207 v -0.031 -0.042 l 0.0049,-0.058 v -0.116 -0.038 -0.014 l 0.0052,-0.161 0.0049,-0.044 v -0.036 -0.038 l 0.0052,-0.047 0.0049,-0.147 v -0.023 -0.0341 l 0.0101,-0.1259 v -0.0544 l 0.0051,-0.0403 v -0.0338 c 0.005,-0.069 0.0051,-0.1385 0.0101,-0.2075 l 0.0049,-0.0141 v -0.0423 l 0.0101,-0.1038 v -0.0665 l 0.0051,-0.0433 0.0049,-0.0282 c 0.0051,-0.069 0.0102,-0.138 0.0153,-0.2075 v -0.0202 l 0.0049,-0.0443 0.0101,-0.0871 0.0051,-0.0796 0.0049,-0.0448 v -0.0227 c 0.0101,-0.069 0.0152,-0.1385 0.0202,-0.2075 l 0.0049,-0.0257 0.0052,-0.0443 0.0049,-0.0731 0.0152,-0.0947 0.0049,-0.0443 v -0.0171 c 0.0101,-0.0695 0.0153,-0.139 0.0253,-0.2085 l 0.0049,-0.0308 0.0052,-0.0418 0.0049,-0.0604 0.0152,-0.1154 0.005,-0.0387 0.0051,-0.0111 c 0.0051,-0.07 0.015,-0.14 0.0251,-0.2101 l 0.0049,-0.0352 0.0101,-0.0383 0.0051,-0.0499 0.0202,-0.1435 0.0049,-0.0252 0.0051,-0.0312 0.0202,-0.1325 0.0101,-0.0534 0.0049,-0.0398 0.0051,-0.0337 c 0.0151,-0.07 0.0251,-0.14 0.0352,-0.2096 l 0.0049,-0.0136 0.0051,-0.0408 0.0202,-0.1082 0.015,-0.065 0.0051,-0.0423 0.005,-0.0292 c 0.015,-0.0696 0.0252,-0.1396 0.0402,-0.2091 l 0.0052,-0.0186 0.0098,-0.0443 0.0153,-0.0907 0.015,-0.0776 0.01,-0.0443 0.0052,-0.0237 c 0.0151,-0.0695 0.0301,-0.1395 0.0452,-0.209 l 0.0052,-0.0242 0.01,-0.0443 0.015,-0.0756 0.0202,-0.0937 0.01,-0.0433 0.0049,-0.0181 c 0.0151,-0.0695 0.0304,-0.1395 0.0455,-0.209 l 0.0101,-0.0297 0.01,-0.0419 0.015,-0.0634 0.0251,-0.1123 0.0101,-0.0393 0.0051,-0.0121 c 0.0151,-0.07 0.0353,-0.14 0.0504,-0.2106 l 0.0101,-0.0342 0.01,-0.0383 0.015,-0.0519 0.0352,-0.1395 0.01,-0.0267 C 79.38,80.3792 93.731,72.0416 107.729,75.7014 c 0.06,0.0146 0.116,0.0292 0.166,0.0438 l 0.015,0.003 0.136,0.0373 0.045,0.0126 0.025,0.0076 0.031,0.0075 0.045,0.0131 0.131,0.0368 0.01,0.004 0.005,0.0015 0.146,0.0413 0.04,0.0126 0.025,0.0076 0.03,0.0085 0.051,0.0141 0.12,0.0368 0.015,0.0055 0.006,0.0011 c 0.06,0.0191 0.125,0.0377 0.186,0.0574 l 0.025,0.008 0.03,0.0096 0.045,0.0151 0.116,0.0363 0.02,0.007 0.005,0.002 c 0.06,0.0197 0.126,0.0393 0.181,0.0595 l 0.031,0.0085 0.03,0.0101 0.05,0.0166 0.101,0.0353 0.03,0.0096 0.005,0.0025 c 0.06,0.0201 0.121,0.0403 0.176,0.0609 l 0.03,0.0096 0.03,0.0116 0.051,0.0171 0.095,0.0343 0.031,0.0116 z"
     fill="#ffffff"
     id="path846" />
</svg>
