<?xml version="1.0" encoding="UTF-8"?>
<!DOCTYPE svg  PUBLIC '-//W3C//DTD SVG 1.1//EN'  'http://www.w3.org/Graphics/SVG/1.1/DTD/svg11.dtd'>
<svg clip-rule="evenodd" fill-rule="evenodd" stroke-linejoin="round" stroke-miterlimit="2" version="1.1" viewBox="0 0 427 226" xml:space="preserve" xmlns="http://www.w3.org/2000/svg">
    <g transform="translate(-422.97 -261.66)">
        <g fill="#fff" fill-rule="nonzero">
            <path d="m546.76 384.35c-2.082 0-3.124-0.986-3.124-2.959v-14.961c0-2.192 1.042-3.288 3.124-3.288h15.454c0.986 0 1.726 0.329 2.219 0.986 0.494 0.658 0.74 1.425 0.74 2.302v14.961c0 1.973-0.986 2.959-2.959 2.959h-15.454zm-2.631 102.1v-88.121h20.387v88.121h-20.387z"/>
            <path d="m629.62 487.27c-9.536 0-17.126-1.315-22.77-3.945-5.645-2.631-9.727-7.207-12.248-13.728-2.521-6.522-3.782-15.591-3.782-27.209 0-11.837 1.206-21.016 3.617-27.538 2.412-6.521 6.412-11.097 12.002-13.728 5.59-2.63 13.152-3.945 22.688-3.945 8.439 0 15.207 0.849 20.304 2.548 5.096 1.699 8.823 4.713 11.179 9.042 2.357 4.329 3.535 10.44 3.535 18.331 0 5.59-1.096 10.056-3.288 13.399s-5.343 5.727-9.454 7.152c-4.11 1.425-8.96 2.137-14.549 2.137h-25.812c0.219 5.48 0.959 9.837 2.22 13.07 1.26 3.234 3.562 5.563 6.905 6.987 3.342 1.425 8.247 2.138 14.714 2.138h26.633v12.001c-4.493 0.877-9.234 1.644-14.221 2.302s-10.878 0.986-17.673 0.986zm-18.742-49.814h24.003c3.836 0 6.658-0.74 8.467-2.22 1.808-1.479 2.712-4.192 2.712-8.138 0-3.836-0.548-6.85-1.644-9.042s-2.904-3.754-5.425-4.686c-2.521-0.931-5.809-1.397-9.864-1.397-4.604 0-8.221 0.712-10.851 2.137-2.631 1.425-4.521 3.973-5.672 7.645s-1.726 8.905-1.726 15.701z"/>
            <path d="m724.15 487.43c-5.261 0-10.11-0.685-14.549-2.055s-8.303-3.727-11.591-7.07-5.836-7.919-7.645-13.727c-1.808-5.809-2.712-13.098-2.712-21.866 0-8.988 0.849-16.441 2.548-22.359 1.699-5.919 4.137-10.577 7.316-13.975 3.178-3.397 7.042-5.781 11.59-7.151 4.549-1.37 9.728-2.055 15.537-2.055 4.932 0 9.919 0.246 14.96 0.739 5.042 0.494 10.084 1.398 15.126 2.713v11.673h-24.003c-5.261 0-9.536 0.822-12.824 2.466s-5.754 4.658-7.398 9.042-2.466 10.686-2.466 18.907c0 8.11 0.822 14.275 2.466 18.495s4.137 7.07 7.48 8.549c3.343 1.48 7.645 2.22 12.906 2.22h25.154v11.508c-2.631 0.767-5.699 1.452-9.207 2.055-3.507 0.603-7.206 1.069-11.097 1.398-3.891 0.328-7.754 0.493-11.591 0.493z"/>
            <path d="m815.23 487.27c-9.536 0-17.126-1.315-22.771-3.945-5.644-2.631-9.727-7.207-12.248-13.728-2.521-6.522-3.781-15.591-3.781-27.209 0-11.837 1.206-21.016 3.617-27.538 2.411-6.521 6.412-11.097 12.001-13.728 5.59-2.63 13.153-3.945 22.688-3.945 8.44 0 15.208 0.849 20.304 2.548 5.097 1.699 8.823 4.713 11.18 9.042 2.356 4.329 3.534 10.44 3.534 18.331 0 5.59-1.096 10.056-3.288 13.399s-5.343 5.727-9.453 7.152-8.96 2.137-14.55 2.137h-25.811c0.219 5.48 0.959 9.837 2.219 13.07 1.261 3.234 3.562 5.563 6.905 6.987 3.343 1.425 8.248 2.138 14.714 2.138h26.634v12.001c-4.494 0.877-9.234 1.644-14.221 2.302s-10.878 0.986-17.673 0.986zm-18.743-49.814h24.003c3.837 0 6.659-0.74 8.467-2.22 1.809-1.479 2.713-4.192 2.713-8.138 0-3.836-0.548-6.85-1.644-9.042s-2.905-3.754-5.425-4.686c-2.521-0.931-5.809-1.397-9.865-1.397-4.603 0-8.22 0.712-10.85 2.137-2.631 1.425-4.522 3.973-5.672 7.645-1.151 3.672-1.727 8.905-1.727 15.701z"/>
        </g>
        <g transform="translate(506.83 428.08)">
            <path d="m0-52.573c-0.235 8.074-0.993 13.93-2.607 18.139-1.702 4.435-4.203 7.604-7.387 9.56-3.188 1.955-6.881 2.933-11.081 2.933h-36.063v-60.396h36.932c0.762 0 1.499 0.045 2.225 0.113v-24.229h-65.879v160.33h26.722v-54.747c2.026 0.291 4.742 0.618 8.147 0.976 3.401 0.364 7.095 0.727 11.08 1.087 3.982 0.364 7.82 0.652 11.514 0.869 3.693 0.218 6.769 0.327 9.234 0.327 4.779 0 9.738-0.687 14.881-2.065 5.139-1.375 9.92-3.982 14.339-7.82 4.416-3.837 8.001-9.376 10.754-16.62 2.75-7.241 4.128-16.8 4.128-28.678 0-3.897-0.159-7.511-0.173-11.407h-26.485c0.053 3.842-0.158 7.42-0.281 11.625" fill="#fff" fill-rule="nonzero"/>
        </g>
        <g transform="translate(590.11 269.82)">
            <path d="m0 76.315c-4.06-44.75-39.695-80.384-84.444-84.444-4.59-0.417-8.546 3.216-8.546 7.825v85.165h85.165c4.609 0 8.242-3.956 7.825-8.546" fill="#fff" fill-rule="nonzero"/>
        </g>
    </g>
</svg>
