<svg width="175" height="188" viewBox="0 0 175 188" fill="none" xmlns="http://www.w3.org/2000/svg">
<path d="M23 50.9668C23 53.0531 24.6856 54.7445 26.7738 54.7445H73.9109C75.9991 54.7445 77.6847 53.0531 77.6847 50.9668V3.77767C77.6847 1.69139 75.9991 0 73.9109 0C45.7937 0 23 22.8186 23 50.9668Z" fill="white"/>
<path fill-rule="evenodd" clip-rule="evenodd" d="M103.075 117.138C106.481 121.655 111.367 125.112 117.254 126.697L117.259 126.697C131.313 130.466 145.759 122.118 149.522 108.044C152.385 97.3726 148.27 86.4723 139.977 80.1883C141.542 75.0567 142.382 69.6073 142.382 63.9659C142.382 33.2645 117.526 8.38379 86.8574 8.38379C84.7742 8.38379 83.0836 10.0752 83.0836 12.1615V60.1883H35.1062C33.0231 60.1883 31.3324 61.8797 31.3324 63.9659C31.3324 94.6618 56.1941 119.548 86.8574 119.548C92.4979 119.548 97.9422 118.705 103.075 117.138ZM125.169 82.4302C116.449 81.9124 108.267 87.5698 105.917 96.3497V96.3512C104.564 101.409 105.404 106.542 107.86 110.733V110.734C110.27 114.853 114.24 118.062 119.211 119.4C129.24 122.088 139.549 116.132 142.236 106.089V106.088C144.476 97.7202 140.712 89.155 133.582 84.9804L133.577 84.9789C132.158 84.1442 130.608 83.4915 128.943 83.0427C127.685 82.7057 126.422 82.5042 125.169 82.4302ZM133.049 76.4222C133.099 76.4393 133.144 76.4569 133.194 76.4741C134.261 72.4864 134.835 68.2916 134.835 63.9659C134.835 38.7094 115.367 18.0113 90.6312 16.0852V63.9659C90.6312 66.0522 88.9405 67.7436 86.8574 67.7436H39.0259C40.953 92.5015 61.6334 111.993 86.8574 111.993C91.1796 111.993 95.371 111.421 99.3561 110.347L99.3411 110.306L99.3109 110.223L99.2858 110.155L99.2706 110.114L99.2657 110.092C99.2405 110.029 99.2203 109.966 99.1951 109.903L99.1902 109.882L99.175 109.84L99.1499 109.77L99.1246 109.689L99.1096 109.648L99.1045 109.63C99.0844 109.567 99.0593 109.503 99.0391 109.44L99.0291 109.413L99.019 109.374L98.9988 109.315L98.9689 109.216L98.9536 109.178V109.165C98.9335 109.101 98.9133 109.037 98.8932 108.973L98.8831 108.941L98.873 108.904L98.8581 108.856L98.8178 108.735L98.8128 108.705L98.8028 108.679L98.7625 108.548L98.7524 108.503L98.7423 108.466L98.7323 108.433C98.7121 108.368 98.6921 108.303 98.677 108.239L98.6718 108.228L98.6618 108.19L98.6315 108.085L98.6215 108.029L98.6065 107.989L98.6013 107.96C98.5862 107.895 98.5663 107.83 98.5512 107.765L98.546 107.749L98.536 107.706L98.5109 107.618L98.4957 107.55L98.4856 107.508L98.4807 107.484C98.4656 107.418 98.4454 107.353 98.4303 107.289L98.4254 107.267L98.4153 107.223L98.4001 107.149L98.3799 107.068L98.3699 107.024L98.365 107.005C98.3499 106.94 98.3398 106.874 98.3247 106.809L98.3146 106.782L98.3097 106.74L98.2944 106.677L98.2743 106.58L98.2642 106.538V106.525C98.2491 106.459 98.234 106.393 98.2239 106.327L98.2141 106.294L98.2089 106.255L98.1989 106.203L98.1738 106.083L98.1687 106.05L98.1637 106.027L98.1384 105.886L98.1335 105.841L98.1234 105.804L98.1183 105.769L98.1134 105.727L98.0832 105.573V105.559L98.0782 105.521L98.0581 105.409L98.048 105.353L98.0429 105.312L98.0379 105.281C98.0279 105.215 98.0178 105.148 98.0077 105.081L98.0026 105.065L97.9977 105.022L97.9824 104.928L97.9775 104.861L97.9674 104.818V104.792C97.9574 104.725 97.9473 104.659 97.9372 104.592V104.57L97.9323 104.526L97.9222 104.447L97.9122 104.366L97.907 104.322L97.9021 104.3C97.897 104.233 97.887 104.166 97.8819 104.099L97.8768 104.072L97.8719 104.029L97.8667 103.963L97.8566 103.866L97.8517 103.823V103.808C97.8416 103.74 97.8366 103.673 97.8316 103.605L97.8267 103.573V103.532L97.8166 103.477L97.8114 103.358L97.8065 103.322V103.304L97.7913 103.153V103.108L97.7864 103.071V103.035L97.7812 102.99L97.7711 102.839V102.821V102.784L97.7611 102.664V102.61L97.7561 102.569V102.536C97.7511 102.468 97.7511 102.4 97.7461 102.332V102.317V102.274L97.7409 102.175L97.736 102.108V102.064V102.037C97.731 101.969 97.7308 101.9 97.7308 101.832V101.812V101.767L97.7259 101.684V101.603V101.558V101.536C97.7259 101.468 97.7259 101.4 97.7259 101.331L97.7208 101.305L97.7259 101.261L97.7208 101.191L97.7259 101.095V101.051V101.035C97.7259 100.966 97.7259 100.897 97.7259 100.828V100.797V100.755L97.7308 100.697V100.581V100.543V100.529L97.736 100.368L97.7409 100.324V100.288V100.25L97.7461 100.203L97.751 100.056V100.033V99.9989L97.7611 99.873V99.8186L97.7662 99.7783V99.7445C97.7712 99.6755 97.7713 99.606 97.7763 99.537L97.7812 99.5229V99.4806L97.7913 99.3768V99.3103L97.7964 99.267L97.8013 99.2388C97.8064 99.1698 97.8115 99.1008 97.8166 99.0313V99.0111L97.8215 98.9668L97.8316 98.8797L97.8367 98.8001L97.8416 98.7553V98.7326C97.8517 98.6636 97.8568 98.5941 97.8618 98.5251L97.8667 98.4994L97.8719 98.4551L97.8768 98.382L97.892 98.2873L97.8969 98.243V98.2259C97.907 98.1564 97.9122 98.0869 97.9222 98.0174L97.9271 97.9866L97.9323 97.9448L97.9372 97.8844L97.9524 97.769L97.9574 97.7303L97.9625 97.7192C97.9676 97.6492 97.9775 97.5792 97.9876 97.5091L97.9925 97.4739L98.0026 97.4356L98.0077 97.3857L98.0279 97.2422L98.0328 97.217L98.0379 97.1858L98.0581 97.0533L98.0682 96.9999L98.0731 96.9601L98.0782 96.9264C98.0933 96.8564 98.1033 96.7864 98.1134 96.7168L98.1183 96.7032L98.1234 96.6624L98.1436 96.5542L98.1586 96.4892L98.1637 96.4469L98.1687 96.4177C98.1837 96.3481 98.1939 96.2781 98.2089 96.2086L98.2141 96.19L98.2239 96.1457L98.2392 96.055L98.2542 95.9774L98.2642 95.9331L98.2694 95.9094C98.2845 95.8399 98.2995 95.7699 98.3146 95.7004L98.3198 95.6762L98.3298 95.6319L98.3448 95.5563L98.365 95.4626L98.375 95.4193L98.3799 95.4012C98.395 95.3317 98.4103 95.2617 98.4254 95.1922L98.4355 95.1625L98.4455 95.1206L98.4605 95.0572L98.4856 94.9449L98.4957 94.9056L98.5008 94.8935C98.5159 94.8235 98.5361 94.7535 98.5512 94.6829L98.5613 94.6487L98.5713 94.6104L98.5863 94.5585L98.6215 94.419L98.6315 94.3923C102.38 80.3792 116.731 72.0416 130.729 75.7014C130.789 75.716 130.845 75.7306 130.895 75.7452L130.91 75.7482L131.046 75.7855L131.091 75.7981L131.116 75.8057L131.147 75.8132L131.192 75.8263L131.323 75.8631L131.333 75.8671L131.338 75.8686L131.484 75.9099L131.524 75.9225L131.549 75.9301L131.579 75.9386L131.63 75.9527L131.75 75.9895L131.765 75.995L131.771 75.9961C131.831 76.0152 131.896 76.0338 131.957 76.0535L131.982 76.0615L132.012 76.0711L132.057 76.0862L132.173 76.1225L132.193 76.1295L132.198 76.1315C132.258 76.1512 132.324 76.1708 132.379 76.191L132.41 76.1995L132.44 76.2096L132.49 76.2262L132.591 76.2615L132.621 76.2711L132.626 76.2736C132.686 76.2937 132.747 76.3139 132.802 76.3345L132.832 76.3441L132.862 76.3557L132.913 76.3728L133.008 76.4071L133.039 76.4187L133.049 76.4222Z" fill="white"/>
<path d="M0 153.958V188H4.85295V178.272H12.1444C18.8527 178.272 24.2891 172.83 24.2891 166.115C24.2891 159.4 18.8527 153.958 12.1444 153.958H0ZM4.85295 173.414V158.816H12.1444C16.1791 158.816 19.4362 162.076 19.4362 166.115C19.4362 170.154 16.1791 173.414 12.1444 173.414H4.85295Z" fill="white"/>
<path d="M44.6969 153.958H39.844V188H44.6969V153.958Z" fill="white"/>
<path d="M88.914 158.816V153.958H64.6251V188H88.914V183.142H69.4781V177.056H84.055V172.198H69.4781V158.816H88.914Z" fill="white"/>
<path d="M120.983 183.142C114.278 183.142 108.836 177.693 108.836 170.979C108.836 164.265 114.278 158.816 120.983 158.816C124.968 158.816 128.466 160.713 130.702 163.681L134.54 160.713C131.43 156.63 126.523 153.958 120.983 153.958C111.605 153.958 103.983 161.589 103.983 170.979C103.983 180.369 111.605 188 120.983 188C126.523 188 131.43 185.328 134.54 181.245L130.702 178.277C128.466 181.245 124.968 183.142 120.983 183.142Z" fill="white"/>
<path d="M174.383 158.816V153.958H150.093V188H174.383V183.142H154.947V177.056H169.526V172.198H154.947V158.816H174.383Z" fill="white"/>
</svg>
