<?xml version="1.0" encoding="UTF-8"?>
<svg clip-rule="evenodd" fill-rule="evenodd" stroke-linejoin="round" stroke-miterlimit="2" version="1.1" viewBox="0 0 1366 768" xml:space="preserve" xmlns="http://www.w3.org/2000/svg">
    <rect x="-.0050195" width="1366" height="768" fill="none"/><path d="m231.02 358.52c0 4.142 3.35 7.5 7.5 7.5h93.68c4.15 0 7.5-3.358 7.5-7.5v-93.687c0-4.142-3.35-7.5-7.5-7.5-55.88 0-101.18 45.303-101.18 101.19z" fill="#fff" fill-rule="nonzero"/><path d="m390.16 489.89c6.77 8.967 16.48 15.831 28.18 18.977l0.01 1e-3c27.93 7.482 56.64-9.091 64.12-37.033 5.69-21.187-2.49-42.828-18.97-55.304 3.11-10.188 4.78-21.007 4.78-32.207 0-60.953-49.4-110.35-110.35-110.35-4.14 0-7.5 3.358-7.5 7.5v95.35h-95.35c-4.14 0-7.5 3.358-7.5 7.5 0 60.942 49.41 110.35 110.35 110.35 11.21 0 22.03-1.673 32.23-4.784zm43.91-68.908c-17.33-1.028-33.59 10.204-38.26 27.635v3e-3c-2.69 10.041-1.02 20.232 3.86 28.552v2e-3c4.79 8.178 12.68 14.549 22.56 17.206 19.93 5.336 40.42-6.489 45.76-26.427v-2e-3c4.45-16.613-3.03-33.618-17.2-41.906l-0.01-3e-3c-2.82-1.657-5.9-2.953-9.21-3.844-2.5-0.669-5.01-1.069-7.5-1.216zm15.66-11.928c0.1 0.034 0.19 0.069 0.29 0.103 2.12-7.917 3.26-16.245 3.26-24.833 0-50.143-38.69-91.236-87.85-95.06v95.06c0 4.142-3.36 7.5-7.5 7.5h-95.06c3.83 49.153 44.93 87.85 95.06 87.85 8.59 0 16.92-1.135 24.84-3.268l-0.03-0.08-0.06-0.165-0.05-0.135-0.03-0.081-0.01-0.045c-0.05-0.125-0.09-0.25-0.14-0.374l-0.01-0.043-0.03-0.082-0.05-0.139-0.05-0.161-0.03-0.082-0.01-0.036c-0.04-0.125-0.09-0.251-0.13-0.377l-0.02-0.053-0.02-0.079-0.04-0.117-0.06-0.195-0.03-0.077v-0.025l-0.12-0.381-0.02-0.063-0.02-0.074-0.03-0.096-0.08-0.24-0.01-0.06-0.02-0.05-0.08-0.261-0.02-0.09-0.02-0.072-0.02-0.066c-0.04-0.129-0.08-0.258-0.11-0.386l-0.01-0.021-0.02-0.075-0.06-0.21-0.02-0.111-0.03-0.079-0.01-0.058c-0.03-0.129-0.07-0.257-0.1-0.386l-0.01-0.033-0.02-0.084-0.05-0.175-0.03-0.135-0.02-0.084-0.01-0.048c-0.03-0.13-0.07-0.259-0.1-0.387l-0.01-0.044-0.02-0.086-0.03-0.147-0.04-0.162-0.02-0.086-0.01-0.038c-0.03-0.13-0.05-0.26-0.08-0.39l-0.02-0.054-0.01-0.082-0.03-0.125-0.04-0.194-0.02-0.082v-0.027c-0.03-0.131-0.06-0.262-0.08-0.393l-0.02-0.064-0.01-0.078-0.02-0.103-0.05-0.238-0.01-0.067-0.01-0.045-0.05-0.28-0.01-0.089-0.02-0.073-0.01-0.07-0.01-0.083-0.06-0.307v-0.028l-0.01-0.074-0.04-0.224-0.02-0.111-0.01-0.08-0.01-0.062c-0.02-0.132-0.04-0.264-0.06-0.397l-0.01-0.031-0.01-0.086-0.03-0.186-0.01-0.134-0.02-0.086v-0.051c-0.02-0.133-0.04-0.265-0.06-0.398v-0.043l-0.01-0.088-0.02-0.156-0.02-0.161-0.01-0.088-0.01-0.042c-0.01-0.133-0.03-0.266-0.04-0.399l-0.01-0.054-0.01-0.085-0.01-0.132-0.02-0.193-0.01-0.085v-0.03c-0.02-0.134-0.03-0.268-0.04-0.403l-0.01-0.063v-0.081l-0.02-0.109-0.01-0.236-0.01-0.072v-0.037l-0.03-0.299v-0.089l-0.01-0.073v-0.072l-0.01-0.089-0.02-0.3v-0.109l-0.02-0.238v-0.109l-0.01-0.081v-0.064c-0.01-0.136-0.01-0.271-0.02-0.406v-0.116l-0.01-0.196-0.01-0.133v-0.141c-0.01-0.135-0.01-0.271-0.01-0.406v-0.13l-0.01-0.165v-0.293-0.407l-0.01-0.052 0.01-0.087-0.01-0.139 0.01-0.191v-0.119-0.41-0.145l0.01-0.115v-0.334l0.01-0.32 0.01-0.087v-0.147l0.01-0.094 0.01-0.292v-0.113l0.02-0.25v-0.108l0.01-0.08v-0.067c0.01-0.137 0.01-0.275 0.02-0.412l0.01-0.028v-0.084l0.02-0.206v-0.132l0.01-0.086 0.01-0.056c0.01-0.137 0.02-0.274 0.03-0.412v-0.04l0.01-0.088 0.02-0.173 0.01-0.158 0.01-0.089v-0.045c0.02-0.137 0.03-0.275 0.04-0.412l0.01-0.051 0.01-0.088 0.01-0.145 0.03-0.188 0.01-0.088v-0.034c0.02-0.138 0.03-0.276 0.05-0.414l0.01-0.061 0.01-0.083 0.01-0.12 0.03-0.229 0.01-0.077 0.01-0.022c0.01-0.139 0.03-0.278 0.05-0.417l0.01-0.07 0.02-0.076 0.01-0.099 0.04-0.285 0.01-0.05 0.01-0.062 0.04-0.263 0.02-0.106 0.01-0.079 0.01-0.067c0.03-0.139 0.05-0.278 0.07-0.416l0.01-0.027 0.01-0.081 0.04-0.215 0.03-0.129 0.01-0.084 0.01-0.058c0.03-0.138 0.05-0.277 0.08-0.415l0.01-0.037 0.02-0.088 0.03-0.18 0.03-0.154 0.02-0.088 0.01-0.047c0.03-0.138 0.06-0.277 0.09-0.415l0.01-0.048 0.02-0.088 0.03-0.15 0.04-0.186 0.02-0.086 0.01-0.036c0.03-0.138 0.06-0.277 0.09-0.415l0.02-0.059 0.02-0.083 0.03-0.126 0.05-0.223 0.02-0.078 0.01-0.024c0.03-0.139 0.07-0.278 0.1-0.418l0.02-0.068 0.02-0.076 0.03-0.103 0.07-0.277 0.02-0.053c7.45-27.821 35.97-44.374 63.79-37.108 0.12 0.029 0.23 0.058 0.33 0.087l0.03 6e-3 0.27 0.074 0.09 0.025 0.05 0.015 0.06 0.015 0.09 0.026 0.26 0.073 0.02 8e-3 0.01 3e-3 0.29 0.082 0.08 0.025 0.05 0.015 0.06 0.017 0.1 0.028 0.24 0.073 0.03 0.011 0.01 2e-3c0.12 0.038 0.25 0.075 0.37 0.114l0.05 0.016 0.06 0.019 0.09 0.03 0.23 0.072 0.04 0.014 0.01 4e-3c0.12 0.039 0.25 0.078 0.36 0.118l0.06 0.017 0.06 0.02 0.1 0.033 0.2 0.07 0.06 0.019 0.01 5e-3c0.12 0.04 0.24 0.08 0.35 0.121l0.06 0.019 0.06 0.023 0.1 0.034 0.19 0.068 0.06 0.023z" fill="#fff"/><path d="m551.26 328.49v107.19h15.296v-30.63h22.982c21.144 0 38.279-17.135 38.279-38.278s-17.135-38.278-38.279-38.278zm15.296 61.261v-45.965h22.982c12.717 0 22.983 10.266 22.983 22.983s-10.266 22.982-22.983 22.982z" fill="#fff" fill-rule="nonzero" stroke-width=".56882"/><rect x="676.85" y="328.49" width="15.296" height="107.19" fill="#fff" fill-rule="nonzero" stroke-width=".56882"/><path d="m831.51 343.79v-15.296h-76.556v107.19h76.556v-15.296h-61.26v-19.163h45.945v-15.296h-45.945v-42.136z" fill="#fff" fill-rule="nonzero" stroke-width=".56882"/><path d="m932.59 420.38c-21.135 0-38.288-17.157-38.288-38.297s17.153-38.298 38.288-38.298c12.559 0 23.586 5.9748 30.631 15.319l12.099-9.3446c-9.802-12.858-25.27-21.271-42.73-21.271-29.558 0-53.584 24.028-53.584 53.594 0 29.565 24.026 53.593 53.584 53.593 17.46 0 32.928-8.4128 42.73-21.271l-12.099-9.3443c-7.045 9.3443-18.072 15.319-30.631 15.319z" fill="#fff" fill-rule="nonzero" stroke-width=".56882"/><path d="m1100.9 343.79v-15.296h-76.56v107.19h76.56v-15.296h-61.26v-19.163h45.95v-15.296h-45.95v-42.136z" fill="#fff" fill-rule="nonzero" stroke-width=".56882"/>
</svg>
