<?xml version="1.0" encoding="UTF-8" standalone="no"?>
<!-- Created with Inkscape (http://www.inkscape.org/) -->

<svg
   width="43.640587mm"
   height="43.640728mm"
   viewBox="0 0 43.640587 43.640728"
   version="1.1"
   id="svg26036"
   inkscape:version="1.2 (dc2aedaf03, 2022-05-15)"
   sodipodi:docname="1.svg"
   xmlns:inkscape="http://www.inkscape.org/namespaces/inkscape"
   xmlns:sodipodi="http://sodipodi.sourceforge.net/DTD/sodipodi-0.dtd"
   xmlns="http://www.w3.org/2000/svg"
   xmlns:svg="http://www.w3.org/2000/svg">
  <sodipodi:namedview
     id="namedview26038"
     pagecolor="#505050"
     bordercolor="#eeeeee"
     borderopacity="1"
     inkscape:showpageshadow="0"
     inkscape:pageopacity="0"
     inkscape:pagecheckerboard="0"
     inkscape:deskcolor="#505050"
     inkscape:document-units="mm"
     showgrid="false"
     inkscape:zoom="0.49798681"
     inkscape:cx="188.76002"
     inkscape:cy="196.79236"
     inkscape:window-width="1366"
     inkscape:window-height="699"
     inkscape:window-x="0"
     inkscape:window-y="0"
     inkscape:window-maximized="1"
     inkscape:current-layer="layer1" />
  <defs
     id="defs26033">
    <clipPath
       clipPathUnits="userSpaceOnUse"
       id="clipPath2909">
      <path
         d="m 38.013,402.153 c 0,-34.16 27.692,-61.852 61.853,-61.852 v 0 c 34.16,0 61.852,27.692 61.852,61.852 v 0 c 0,34.161 -27.692,61.853 -61.852,61.853 v 0 c -34.161,0 -61.853,-27.692 -61.853,-61.853"
         id="path2907" />
    </clipPath>
    <clipPath
       clipPathUnits="userSpaceOnUse"
       id="clipPath12579">
      <path
         d="m -161.7186,97.847 h 500 v -500 h -500 z"
         id="path12581"
         style="stroke-width:0.999998" />
    </clipPath>
  </defs>
  <g
     inkscape:label="Layer 1"
     inkscape:groupmode="layer"
     id="layer1"
     transform="translate(-55.219063,-96.660847)">
    <g
       id="g1867"
       transform="matrix(0.35277777,0,0,-0.35277777,98.859649,118.48121)"
       clip-path="url(#clipPath12579)">
      <path
         d="m 0,0 c 0,-34.16 -27.692,-61.853 -61.853,-61.853 -34.16,0 -61.852,27.693 -61.852,61.853 0,34.16 27.692,61.853 61.852,61.853 C -27.692,61.853 0,34.16 0,0"
         style="fill:#dfdfdf;fill-opacity:1;fill-rule:nonzero;stroke:none"
         id="path1869" />
    </g>
    <g
       id="g2903"
       transform="matrix(0.35277777,0,0,-0.35277777,41.808922,260.35185)">
      <g
         id="g2905"
         clip-path="url(#clipPath2909)">
        <g
           id="g2911"
           transform="translate(56.3586,339.6188)">
          <path
             d="m 0,0 c 0.933,-0.06 5.298,-0.36 11.678,-0.813 2.421,3.968 5.375,11.051 4.712,21.3 -0.121,1.697 3.428,-8.184 1.219,-21.719 12.33,-0.86 29.104,-2.021 43.763,-2.897 0.546,5.714 1.31,10.987 1.31,10.987 0.314,-4.151 1.027,-7.915 1.878,-11.19 2.004,-0.134 3.97,-0.23 5.854,-0.338 -0.023,8.911 2.201,24.335 2.201,24.335 C 73.45,8.827 76.5,0.063 78.75,-5.122 88.061,-5.58 94.196,-5.712 93.823,-5.252 80.471,11.546 91.214,20.378 87.858,34.788 83.83,52.056 69.256,55.436 70.277,68.22 c 0.805,10.403 2.966,29.245 -10.01,33.887 0,0 -10.168,12.214 -27.275,6.527 C 11.829,101.619 18.592,69.114 16.874,62.645 14.429,53.401 9.835,50.314 6.031,39.82 2.153,29.201 6.733,21.824 6.957,14.492 7.15,7.168 -2.337,0.128 0,0"
             style="fill:#b73535;fill-opacity:1;fill-rule:nonzero;stroke:none"
             id="path2913" />
        </g>
        <g
           id="g2915"
           transform="translate(150.7031,336.654)">
          <path
             d="m 0,0 c -1.747,2.971 -3.282,6.087 -4.105,9.327 -0.92,3.225 -0.309,6.456 0.486,9.782 0.792,3.309 1.711,6.687 2.184,10.216 0.432,3.515 0.473,7.231 -0.537,10.773 -0.949,3.546 -2.818,6.812 -5.186,9.498 -2.339,2.727 -5.062,4.959 -7.688,7.16 -2.598,2.225 -5.191,4.423 -7.087,7.19 -1.943,2.725 -3.048,6.03 -3.308,9.483 -0.295,-3.443 0.46,-7.054 2.24,-10.15 1.755,-3.116 4.283,-5.674 6.79,-8.047 2.507,-2.39 5.035,-4.671 7.12,-7.248 2.07,-2.575 3.688,-5.452 4.481,-8.592 0.803,-3.131 0.922,-6.437 0.533,-9.751 -0.345,-3.325 -1.119,-6.648 -1.725,-10.086 -0.288,-1.721 -0.556,-3.476 -0.579,-5.291 -0.035,-1.819 0.34,-3.68 0.935,-5.348 C -4.181,5.578 -2.274,2.611 0,0"
             style="fill:#b73535;fill-opacity:1;fill-rule:nonzero;stroke:none"
             id="path2917" />
        </g>
        <g
           id="g2919"
           transform="translate(77.0427,436.8427)">
          <path
             d="m 0,0 c -1.8,-3.875 -2.597,-8.129 -3.398,-12.302 -0.722,-4.202 -1.238,-8.428 -1.707,-12.641 l -0.742,-6.287 c -0.252,-2.101 -0.609,-4.066 -1.227,-5.984 -1.21,-3.855 -3.549,-7.157 -6.173,-10.504 -1.274,-1.701 -2.571,-3.473 -3.651,-5.409 -1.083,-1.93 -1.974,-3.988 -2.6,-6.116 -0.565,-2.157 -0.975,-4.276 -1.211,-6.458 -0.248,-2.176 -0.232,-4.416 0.059,-6.597 0.279,-2.189 0.798,-4.271 1.217,-6.307 0.427,-2.032 0.666,-4.106 0.695,-6.157 0.125,-4.067 -2.202,-8.016 -5.604,-10.518 3.737,1.992 6.593,5.973 6.922,10.465 0.16,2.184 0.035,4.356 -0.248,6.501 -0.272,2.144 -0.712,4.203 -0.851,6.236 -0.325,4.033 0.377,8.193 1.522,12.082 0.636,1.92 1.425,3.774 2.442,5.527 1.004,1.759 2.232,3.408 3.515,5.084 1.263,1.688 2.579,3.421 3.721,5.317 1.137,1.892 2.111,3.933 2.744,6.076 0.623,2.141 0.949,4.372 1.134,6.488 0.217,2.133 0.352,4.253 0.483,6.369 0.284,4.231 0.506,8.453 0.902,12.655 C -1.709,-8.27 -1.204,-4.075 0,0"
             style="fill:#b73535;fill-opacity:1;fill-rule:nonzero;stroke:none"
             id="path2921" />
        </g>
        <g
           id="g2923"
           transform="translate(181.2611,259.5081)">
          <path
             d="M 0,0 C -0.036,0.254 -0.085,0.497 -0.133,0.751 -0.073,0.436 -0.012,0.133 0.024,-0.182 0.012,-0.121 0.012,-0.06 0,0"
             style="fill:#6585f4;fill-opacity:1;fill-rule:nonzero;stroke:none"
             id="path2925" />
        </g>
        <g
           id="g2927"
           transform="translate(139.4924,252.1186)">
          <path
             d="m 0,0 c 0.133,-0.085 0.279,-0.157 0.436,-0.23 l 0.061,0.109 0.012,0.012 C 0.363,-0.073 0.206,-0.048 0.061,-0.012 0.036,-0.012 0.024,-0.012 0,0"
             style="fill:#6585f4;fill-opacity:1;fill-rule:nonzero;stroke:none"
             id="path2929" />
        </g>
        <g
           id="g2931"
           transform="translate(79.8229,368.8774)">
          <path
             d="m 0,0 c -26.215,-29.495 -57.961,-90.318 -50.848,-101.943 7.923,-12.949 45.746,29.052 44.446,30.954 -1.105,1.615 11.191,37.999 20.118,64.605 C 22.635,20.197 6.483,7.293 0,0"
             style="fill:#ffc5c1;fill-opacity:1;fill-rule:nonzero;stroke:none"
             id="path2933" />
        </g>
        <g
           id="g2935"
           transform="translate(79.8229,368.8774)">
          <path
             d="m 0,0 c -26.215,-29.495 -57.961,-90.318 -50.848,-101.943 7.923,-12.949 45.746,29.052 44.446,30.954 -1.105,1.615 11.191,37.999 20.118,64.605 C 22.635,20.197 6.483,7.293 0,0"
             style="fill:#fba3b7;fill-opacity:1;fill-rule:nonzero;stroke:none"
             id="path2937" />
        </g>
        <g
           id="g2939"
           transform="translate(91.32,359.48)">
          <path
             d="m 0,0 c -0.63,0.74 -1.51,1.06 -2.59,0.93 -1.28,-0.15 -2.23,-0.82 -2.96,-1.74 -1.86,-2.36 -2.18,-6.44 -2.24,-7.98 -0.16,-4.67 0.26,-9.24 1.26,-13.59 0.01,-0.06 0.02,-0.11 0.03,-0.15 0.02,-0.11 0.04,-0.22 0.07,-0.33 0.09,0.27 0.18,0.54 0.26,0.81 -0.96,4.25 -1.36,8.7 -1.2,13.24 0.07,2.07 0.63,8.83 4.83,9.32 0.93,0.11 1.68,-0.15 2.22,-0.79 0.39,-0.46 0.65,-1.09 0.83,-1.8 0.08,0.24 0.16,0.47 0.24,0.71 C 0.56,-0.85 0.32,-0.38 0,0 m -18.06,-23.34 c 2.01,0.37 4.82,-1.71 6.17,-3.31 1.08,-1.26 2,-2.66 2.88,-4.05 0.05,0.17 0.11,0.34 0.17,0.52 -0.83,1.29 -1.71,2.61 -2.73,3.81 -1.31,1.56 -4.27,3.86 -6.57,3.44 -1.1,-0.2 -1.9,-0.98 -2.39,-2.35 -1.39,-3.89 3.16,-7.89 7.2,-10.57 0.72,-0.48 1.46,-0.92 2.21,-1.32 0.04,0.14 0.09,0.27 0.13,0.41 -0.71,0.38 -1.41,0.81 -2.1,1.27 -7.11,4.69 -7.76,8.07 -7.05,10.07 0.44,1.21 1.14,1.91 2.08,2.08"
             style="fill:#f9e1d9;fill-opacity:1;fill-rule:nonzero;stroke:none"
             id="path2941" />
        </g>
        <g
           id="g2943"
           transform="translate(65.74,291.56)">
          <path
             d="m 0,0 c -0.78,-0.4 -1.29,-0.99 -1.52,-1.79 -0.25,-0.82 -0.15,-1.56 0.28,-2.18 0.04,-0.06 0.07,-0.11 0.11,-0.16 0.12,-0.16 0.26,-0.3 0.42,-0.44 0.1,0.11 0.2,0.22 0.3,0.32 -0.19,0.15 -0.35,0.32 -0.48,0.51 -0.35,0.52 -0.43,1.14 -0.23,1.83 0.2,0.68 0.64,1.2 1.31,1.53 0.88,0.45 2.07,0.56 3.25,0.47 0.12,0.14 0.23,0.27 0.34,0.4 C 2.42,0.61 1.03,0.52 0,0"
             style="fill:#f9e1d9;fill-opacity:1;fill-rule:nonzero;stroke:none"
             id="path2945" />
        </g>
        <g
           id="g2947"
           transform="translate(77.9,349.83)">
          <path
             d="M 0,0 C -0.4,1.93 -0.87,3.64 -1.46,5.19 -2.01,6.66 -3.45,9.09 -5.15,9.8 -5.3,9.86 -5.45,9.91 -5.6,9.94 -5.68,9.84 -5.76,9.74 -5.84,9.64 -5.65,9.61 -5.47,9.56 -5.28,9.48 -3.69,8.81 -2.32,6.48 -1.79,5.07 -0.64,2 0.12,-1.71 0.59,-6.65 l -0.44,2.39 -0.02,0.04 c -0.86,2.09 -2.46,3.74 -3.99,5.33 -1,1.03 -2.04,2.1 -2.88,3.29 C -7.21,5.09 -7.7,6.01 -7.93,6.88 -8.02,6.77 -8.1,6.65 -8.19,6.53 -7.85,5.44 -7.2,4.47 -7.02,4.2 c 0.85,-1.21 1.89,-2.29 2.91,-3.34 1.5,-1.56 3.07,-3.17 3.92,-5.2 l 0.44,-2.37 c 0.03,-0.18 0.19,-0.3 0.37,-0.26 0.17,0.02 0.33,0.17 0.3,0.38 C 0.7,-4.11 0.39,-1.95 0,0"
             style="fill:#f9e1d9;fill-opacity:1;fill-rule:nonzero;stroke:none"
             id="path2949" />
        </g>
        <g
           id="g2951"
           transform="translate(54.5299,253.4858)">
          <path
             d="m 0,0 6.584,44.613 c 0,0 -10.554,18.426 -4.431,31.65 3.091,6.698 24.283,39.431 35.7,47.717 10.71,7.773 25.379,0.684 30.369,-6.078 C 82.568,98.461 89.558,63.467 97.568,0 Z"
             style="fill:#fba3b7;fill-opacity:1;fill-rule:nonzero;stroke:none"
             id="path2953" />
        </g>
        <g
           id="g2955"
           transform="translate(73.7351,356.8948)">
          <path
             d="m 0,0 c -2.166,-2.972 -4.269,-5.989 -6.337,-9.031 0.564,1.184 1.132,2.365 1.688,3.552 0.04,0.085 -0.086,0.156 -0.13,0.071 -0.769,-1.487 -1.476,-2.995 -2.166,-4.513 -2.763,-4.092 -5.446,-8.238 -8.034,-12.441 -1.098,-1.783 -2.106,-3.6 -2.847,-5.564 -0.717,-1.9 -1.162,-3.902 -1.397,-5.918 -0.236,-2.019 -0.254,-4.048 -0.098,-6.075 0.161,-2.087 0.413,-4.154 0.881,-6.196 0.529,-2.303 1.249,-4.595 2.182,-6.768 0.459,-1.067 0.948,-2.127 1.475,-3.163 0.482,-0.945 1.462,-2.875 1.448,-2.95 -0.198,-1.068 -0.398,-1.818 -0.533,-2.716 -0.138,-0.916 -0.276,-1.831 -0.414,-2.746 -0.275,-1.832 -2.653,-19.65 -2.921,-21.482 -0.533,-3.638 -0.99,-7.28 -1.443,-10.928 -0.261,-2.093 -0.398,-4.205 -0.693,-6.293 -0.012,-0.084 0.117,-0.119 0.131,-0.033 0.301,1.82 0.752,3.615 1.083,5.429 0.331,1.817 0.667,3.632 1.007,5.447 0.688,3.668 3.337,23.356 3.912,27.043 0.159,1.02 0.318,2.04 0.477,3.059 0.158,1.013 0.428,2.376 0.389,3.403 0,0 -3.267,6.713 -4.536,11.42 -0.533,1.975 -1.078,4.03 -1.298,6.067 -0.216,2.003 -0.238,4.021 -0.074,6.029 0.165,2.007 0.542,3.998 1.158,5.917 0.634,1.98 1.546,3.823 2.563,5.632 2.133,3.79 4.4,7.511 6.699,11.202 2.607,4.186 5.243,8.355 7.94,12.484 C 0.158,0.008 0.047,0.064 0,0"
             style="fill:#3c3278;fill-opacity:1;fill-rule:nonzero;stroke:none"
             id="path2957" />
        </g>
        <g
           id="g2959"
           transform="translate(136.06,277.52)">
          <path
             d="m 0,0 c -0.18,1.2 -0.9,2.11 -2.13,2.7 -3.81,1.83 -8.1,-2.35 -9.84,-4.83 -1.94,-2.77 -3.18,-6.18 -3.88,-10.65 -0.51,3.38 -1.38,6.7 -2.2,9.56 -0.6,2.12 -1.34,4.29 -2.16,6.44 0.06,2.36 1.03,4.61 1.96,6.78 0.13,0.3 0.24,0.59 0.37,0.89 1.22,2.87 1.82,5.38 1.9,7.89 0.11,3.64 -0.69,10.67 -4.6,11.28 -1.01,0.15 -1.8,-0.07 -2.38,-0.67 -1.21,-1.28 -1.35,-4.23 -0.4,-8.74 0.81,-3.77 1.18,-6.6 1.23,-9.47 0.02,-1.13 0.05,-2.39 0.16,-3.67 -1.37,3.09 -2.98,6.29 -4.79,9.54 -0.01,0.13 -0.07,0.25 -0.18,0.33 -0.48,0.85 -1.01,1.77 -1.66,2.9 -0.56,0.94 -1.09,1.82 -1.62,2.64 -0.15,3.94 2.43,6.79 5.18,9.8 1.76,1.93 3.58,3.92 4.57,6.22 0.98,2.25 1.32,7.07 -0.35,9.83 -0.75,1.25 -1.82,1.93 -3.17,2.04 -2,0.15 -3.31,-1.49 -3.84,-2.95 -0.35,-0.97 -0.39,-2.01 -0.42,-3 -0.02,-0.36 -0.03,-0.72 -0.07,-1.07 -0.11,-1.59 -0.45,-3.29 -1.05,-5.33 -0.21,-0.72 -0.43,-1.45 -0.65,-2.2 -1.09,-3.55 -2.22,-7.21 -1.84,-10.77 -1.13,1.76 -2.3,3.51 -3.45,5.21 -1.54,2.29 -3.11,4.64 -4.6,7 0.28,0.96 0.52,1.92 0.77,2.86 0.46,1.84 0.94,3.73 1.69,5.54 0.29,0.67 0.58,1.35 0.88,2.03 0.73,1.64 1.48,3.35 1.99,5.11 1.11,3.87 1.17,8.79 -2.36,9.93 -1.27,0.42 -2.42,0.25 -3.39,-0.48 -1.67,-1.26 -2.49,-4.03 -2.44,-6.12 0.07,-2 0.37,-4.03 0.67,-6 0.19,-1.19 0.37,-2.41 0.5,-3.61 0.22,-2.15 0.32,-4.44 0.27,-6.97 -0.6,0.99 -1.17,1.98 -1.72,2.96 -2.6,4.63 -4.51,9.48 -5.83,14.85 0.24,2.4 0.77,4.72 1.62,7.1 0.4,1.1 0.87,2.2 1.32,3.27 0.66,1.53 1.34,3.12 1.82,4.76 0.56,1.94 1.18,6.91 -0.62,9.03 -0.63,0.74 -1.51,1.06 -2.59,0.93 -1.28,-0.15 -2.23,-0.82 -2.96,-1.74 -1.86,-2.36 -2.18,-6.44 -2.24,-7.98 -0.16,-4.67 0.26,-9.24 1.26,-13.59 0.01,-0.06 0.02,-0.11 0.03,-0.15 0.92,-4.7 2.5,-9.4 4.7,-13.97 0.44,-0.91 0.91,-1.82 1.4,-2.72 h -0.05 c -2.58,1.51 -4.24,2.95 -5.71,4.98 -0.76,1.05 -1.47,2.15 -2.14,3.22 -1,1.56 -2.03,3.19 -3.27,4.65 -1.31,1.56 -4.27,3.86 -6.57,3.44 -1.1,-0.2 -1.9,-0.98 -2.39,-2.35 -1.39,-3.89 3.16,-7.89 7.2,-10.57 3.86,-2.55 8.09,-4.01 12.57,-4.35 0.38,-0.13 0.71,-0.21 1.04,-0.26 2.18,-3.9 4.72,-7.68 7.17,-11.33 1.36,-2.01 2.75,-4.09 4.08,-6.16 1.45,-2.28 2.73,-4.4 3.91,-6.45 -3.87,0.27 -7.41,1.3 -10.8,3.14 -2.05,1.11 -4.02,2.44 -5.93,3.73 -1.07,0.72 -2.18,1.47 -3.3,2.18 -0.23,0.14 -0.47,0.3 -0.72,0.46 -2.19,1.42 -5.2,3.36 -7.9,2.58 -2.27,-0.65 -2.86,-2.92 -2.66,-4.83 0.82,-7.61 10.07,-9.61 14.01,-10.12 3.64,-0.46 7.49,-0.38 11.76,0.27 1.15,0.17 2.31,0.16 3.42,0.15 0.76,-0.01 1.55,-0.02 2.33,0.03 0.46,0.02 0.77,0.07 1.04,0.18 2.82,-5.1 5.02,-9.92 6.77,-14.73 0.72,-1.99 1.35,-4.01 1.91,-5.99 -1.04,0.65 -2.25,1.12 -3.43,1.57 l -0.47,0.2 c -4.22,1.64 -7.01,4.55 -9.39,7.46 -1.45,1.76 -5.86,7.11 -9.87,7.13 -1.35,0.01 -2.53,-0.59 -3.52,-1.76 -1.57,-1.88 -0.67,-3.91 0.56,-5.83 1.64,-2.59 3.57,-5.18 6.56,-6.57 3.15,-1.47 6.94,-2.06 10.26,-2.57 l 0.31,-0.05 c 0.77,-0.11 1.62,-0.19 2.52,-0.25 2.49,-0.19 5.3,-0.41 7.11,-1.85 0.32,-1.33 0.61,-2.65 0.84,-3.94 l 0.05,-0.31 c 0.67,-3.66 1.47,-8.1 0.63,-11.87 h 0.42 c 0.84,3.84 0.03,8.27 -0.64,11.94 l -0.05,0.32 c -0.24,1.31 -0.53,2.67 -0.86,4.03 l -0.02,0.07 -0.05,0.04 c -1.91,1.57 -4.82,1.79 -7.4,1.99 -0.89,0.07 -1.73,0.13 -2.49,0.25 l -0.3,0.04 c -3.47,0.54 -7.06,1.09 -10.15,2.54 -2.89,1.35 -4.78,3.88 -6.39,6.42 -1.04,1.62 -2.02,3.5 -0.66,5.23 0.02,0.04 0.06,0.07 0.08,0.09 0.9,1.08 1.98,1.63 3.19,1.62 3.81,-0.01 8.12,-5.25 9.54,-6.97 2.43,-2.96 5.26,-5.92 9.56,-7.6 l 0.47,-0.19 c 1.41,-0.54 2.73,-1.05 3.81,-1.85 l 0.49,-0.36 -0.15,0.58 c -0.59,2.17 -1.29,4.39 -2.08,6.59 -1.77,4.88 -4.02,9.78 -6.89,14.95 l -0.09,0.18 -0.18,-0.1 c -0.26,-0.12 -0.56,-0.19 -1.06,-0.21 -0.77,-0.05 -1.56,-0.04 -2.31,-0.03 -1.13,0.01 -2.3,0.02 -3.49,-0.16 -4.22,-0.63 -8.04,-0.73 -11.64,-0.26 -3.85,0.49 -12.86,2.44 -13.65,9.74 -0.08,0.85 -0.18,3.65 2.37,4.38 2.52,0.72 5.43,-1.16 7.55,-2.53 0.26,-0.16 0.5,-0.31 0.72,-0.46 1.11,-0.7 2.23,-1.45 3.3,-2.17 1.91,-1.29 3.9,-2.63 5.96,-3.75 3.56,-1.94 7.28,-2.99 11.37,-3.21 l 0.38,-0.02 -0.19,0.33 c -1.23,2.16 -2.57,4.39 -4.12,6.81 -1.33,2.08 -2.72,4.15 -4.08,6.16 -2.46,3.68 -5.01,7.47 -7.2,11.38 l -0.06,0.1 -0.1,0.01 c -0.33,0.05 -0.68,0.15 -1.09,0.29 l -0.06,0.01 c -4.42,0.31 -8.58,1.75 -12.38,4.28 -7.11,4.69 -7.76,8.07 -7.05,10.07 0.44,1.21 1.14,1.91 2.08,2.08 2.01,0.37 4.82,-1.71 6.17,-3.31 1.22,-1.43 2.24,-3.04 3.24,-4.61 0.67,-1.07 1.38,-2.18 2.15,-3.23 1.51,-2.08 3.22,-3.57 5.88,-5.13 l 0.08,-0.02 c 0.14,-0.02 0.29,-0.03 0.44,-0.04 l 0.44,-0.03 -0.19,0.34 c -0.55,1 -1.08,2.03 -1.57,3.05 -2.18,4.54 -3.76,9.21 -4.67,13.9 -0.01,0.03 -0.02,0.05 -0.02,0.11 -1,4.33 -1.42,8.87 -1.26,13.5 0.07,2.07 0.63,8.83 4.83,9.32 0.93,0.11 1.68,-0.15 2.22,-0.79 1.59,-1.88 1.14,-6.56 0.53,-8.63 -0.46,-1.62 -1.14,-3.19 -1.79,-4.72 -0.46,-1.07 -0.94,-2.17 -1.33,-3.29 -0.87,-2.42 -1.41,-4.79 -1.65,-7.23 v -0.07 c 1.33,-5.43 3.26,-10.33 5.88,-15 0.66,-1.19 1.37,-2.39 2.1,-3.58 l 0.39,-0.61 0.01,0.71 c 0.07,2.84 -0.01,5.37 -0.26,7.75 -0.13,1.2 -0.32,2.43 -0.5,3.63 -0.29,1.95 -0.6,3.96 -0.66,5.94 -0.06,1.99 0.7,4.6 2.25,5.77 0.87,0.64 1.89,0.78 3.02,0.42 4.26,-1.38 2.32,-8.59 2.09,-9.42 -0.51,-1.74 -1.25,-3.42 -1.97,-5.05 -0.3,-0.68 -0.61,-1.36 -0.89,-2.05 -0.76,-1.83 -1.25,-3.74 -1.72,-5.59 -0.24,-0.96 -0.5,-1.96 -0.78,-2.92 l -0.03,-0.1 0.05,-0.08 c 1.51,-2.39 3.11,-4.78 4.66,-7.09 1.32,-1.97 2.68,-4.01 3.98,-6.03 l 0.59,-0.91 -0.2,1.06 c -0.71,3.76 0.49,7.72 1.67,11.56 0.22,0.74 0.45,1.47 0.66,2.19 0.6,2.08 0.94,3.79 1.07,5.41 0.03,0.36 0.04,0.72 0.05,1.08 0.04,0.98 0.08,1.99 0.41,2.9 0.48,1.31 1.66,2.79 3.4,2.66 1.21,-0.1 2.18,-0.71 2.85,-1.84 1.57,-2.6 1.24,-7.33 0.32,-9.44 -0.96,-2.23 -2.76,-4.2 -4.49,-6.11 -2.69,-2.94 -5.47,-6.01 -5.3,-10.12 l 0.06,-0.15 c 0.54,-0.85 1.07,-1.73 1.62,-2.67 0.67,-1.14 1.2,-2.07 1.68,-2.92 l 0.03,-0.05 0.05,-0.03 c 0.03,-0.01 0.04,-0.04 0.03,-0.06 v -0.06 l 0.03,-0.05 c 2.06,-3.69 3.87,-7.34 5.34,-10.81 l 0.6,-1.42 -0.2,1.53 c -0.22,1.71 -0.27,3.48 -0.31,5 -0.05,2.89 -0.41,5.75 -1.23,9.54 -1.14,5.45 -0.47,7.56 0.3,8.37 0.48,0.5 1.14,0.68 2,0.54 3.75,-0.58 4.34,-8.03 4.25,-10.85 -0.08,-2.45 -0.68,-4.91 -1.87,-7.74 -0.12,-0.3 -0.25,-0.58 -0.37,-0.88 -0.96,-2.23 -1.93,-4.52 -1.98,-6.98 l 0.01,-0.08 c 0.82,-2.16 1.54,-4.33 2.15,-6.45 0.94,-3.28 1.96,-7.16 2.4,-11.04 l 0.2,-1.78 0.21,1.78 c 0.64,5.17 1.91,8.99 4.03,12.02 1.93,2.74 6.01,6.27 9.31,4.68 1.1,-0.52 1.74,-1.33 1.89,-2.39 0.02,-0.16 0.04,-0.33 0.04,-0.51 0,-1.83 -1.29,-3.98 -2.63,-5.2 -1.72,-1.57 -3.64,-3.03 -5.49,-4.43 -0.39,-0.29 -0.76,-0.57 -1.13,-0.85 -0.33,-0.26 -0.69,-0.52 -1.07,-0.79 -2.01,-1.46 -4.52,-3.28 -5.14,-5.76 v -0.05 c 0.06,-2.32 -0.19,-4.45 -0.72,-6.37 h 0.45 c 0.51,1.92 0.74,4.04 0.7,6.35 0.58,2.31 2.91,4 4.97,5.49 0.37,0.27 0.74,0.53 1.07,0.8 0.37,0.27 0.74,0.56 1.12,0.84 1.86,1.42 3.79,2.87 5.53,4.47 C -1.14,-4.64 0.3,-2.09 0,0"
             style="fill:#f9e1d9;fill-opacity:1;fill-rule:nonzero;stroke:none"
             id="path2961" />
        </g>
        <g
           id="g2963"
           transform="translate(140.27,304.17)">
          <path
             d="m 0,0 c -7.42,-4.73 -9.98,-8.21 -10.68,-9.35 0.5,1.86 2.87,8.99 4.96,11.69 1.03,1.32 4.16,5.36 7.2,3.55 C 2.29,5.41 2.71,4.77 2.72,4 2.73,3.2 2.31,2.32 1.7,1.56 1.22,0.94 0.6,0.39 0,0 M 1.69,6.26 C -1.45,8.12 -4.55,4.51 -5.82,2.9 -5.91,2.78 -5.99,2.68 -6.06,2.59 c -2.33,-3.01 -5.02,-11.52 -5.13,-12.28 -0.03,-0.2 0.11,-0.38 0.31,-0.41 0.19,-0.03 0.35,0.07 0.38,0.24 0.02,0.03 1.98,3.92 10.72,9.5 C 1.66,0.56 3.17,2.4 3.13,4.01 3.12,4.93 2.64,5.69 1.69,6.26"
             style="fill:#f9e1d9;fill-opacity:1;fill-rule:nonzero;stroke:none"
             id="path2965" />
        </g>
        <g
           id="g2967"
           transform="translate(114.51,361.5)">
          <path
             d="m 0,0 c -7.42,-4.73 -9.98,-8.21 -10.68,-9.35 0.5,1.86 2.87,8.99 4.96,11.68 1.03,1.33 4.16,5.36 7.2,3.56 C 2.29,5.41 2.71,4.77 2.72,4 2.73,3.2 2.31,2.32 1.71,1.56 1.22,0.94 0.6,0.38 0,0 M 1.7,6.25 C -1.45,8.12 -4.54,4.51 -5.82,2.9 -5.91,2.78 -5.99,2.68 -6.06,2.59 c -2.33,-3.01 -5.02,-11.52 -5.13,-12.28 -0.03,-0.2 0.11,-0.38 0.31,-0.41 0.19,-0.04 0.35,0.07 0.38,0.24 0.02,0.03 1.98,3.92 10.72,9.5 C 1.66,0.55 3.17,2.4 3.14,4.01 3.13,4.93 2.64,5.69 1.7,6.25"
             style="fill:#f9e1d9;fill-opacity:1;fill-rule:nonzero;stroke:none"
             id="path2969" />
        </g>
        <g
           id="g2971"
           transform="translate(134,342.29)">
          <path
             d="m 0,0 c -0.42,-3.95 -1.63,-8.37 -3.8,-13.96 l 0.81,2.82 0.01,0.05 c 0.21,2.73 -0.62,5.38 -1.42,7.94 -0.51,1.66 -1.05,3.39 -1.31,5.12 -0.23,1.6 -0.16,3.87 0.81,4.94 0.42,0.47 1,0.69 1.72,0.66 0.71,-0.03 1.32,-0.33 1.8,-0.9 C -0.01,5.08 0.19,1.82 0,0 M -1.06,6.94 C -1.63,7.6 -2.33,7.96 -3.16,7.99 -4.01,8.03 -4.7,7.76 -5.21,7.2 -5.25,7.14 -5.3,7.1 -5.34,7.05 -6.57,5.48 -6.21,2.5 -6.12,1.91 c 0.25,-1.77 0.79,-3.51 1.32,-5.19 0.78,-2.51 1.59,-5.11 1.41,-7.77 l -0.81,-2.79 c -0.07,-0.22 0.04,-0.43 0.25,-0.49 0.2,-0.06 0.46,0.01 0.54,0.25 1.1,2.8 1.95,5.31 2.59,7.62 0.62,2.31 1.03,4.42 1.25,6.41 0.2,1.89 -0.04,5.3 -1.49,6.99"
             style="fill:#f9e1d9;fill-opacity:1;fill-rule:nonzero;stroke:none"
             id="path2973" />
        </g>
        <g
           id="g2975"
           transform="translate(82.84,285.36)">
          <path
             d="m 0,0 -0.05,0.02 c -2.61,0.85 -5.38,0.68 -8.05,0.52 -1.74,-0.1 -3.54,-0.22 -5.29,-0.05 -1.61,0.16 -3.79,0.77 -4.6,1.97 -0.35,0.52 -0.43,1.14 -0.23,1.83 0.2,0.68 0.64,1.2 1.31,1.53 1.87,0.95 5.09,0.37 6.8,-0.25 3.73,-1.36 7.74,-3.59 12.65,-7.04 z m 2.74,-1.12 c -2.45,1.74 -4.68,3.17 -6.77,4.34 -2.1,1.16 -4.05,2.06 -5.93,2.75 -1.78,0.64 -5.15,1.23 -7.14,0.23 -0.78,-0.4 -1.29,-0.99 -1.52,-1.79 -0.25,-0.82 -0.15,-1.56 0.28,-2.18 0.04,-0.06 0.07,-0.11 0.11,-0.16 1.23,-1.57 4.21,-1.93 4.8,-1.99 1.78,-0.18 3.6,-0.07 5.36,0.04 2.62,0.15 5.34,0.32 7.88,-0.49 l 2.52,-1.46 c 0.19,-0.11 0.42,-0.06 0.53,0.13 0.11,0.18 0.1,0.44 -0.12,0.58"
             style="fill:#f9e1d9;fill-opacity:1;fill-rule:nonzero;stroke:none"
             id="path2977" />
        </g>
        <g
           id="g2979"
           transform="translate(77.9,349.83)">
          <path
             d="M 0,0 C -0.4,1.93 -0.87,3.64 -1.46,5.19 -1.76,5.98 -2.31,7.05 -3.02,7.98 -3.1,7.88 -3.17,7.78 -3.24,7.69 -2.58,6.82 -2.07,5.81 -1.79,5.07 -0.64,2 0.12,-1.71 0.59,-6.65 l -0.44,2.39 -0.02,0.04 c -0.86,2.09 -2.46,3.74 -3.99,5.33 -0.78,0.81 -1.59,1.63 -2.3,2.53 -0.07,-0.1 -0.14,-0.19 -0.21,-0.29 0.7,-0.88 1.48,-1.69 2.26,-2.49 1.5,-1.56 3.07,-3.17 3.92,-5.2 l 0.44,-2.37 c 0.03,-0.18 0.19,-0.3 0.37,-0.26 0.17,0.02 0.33,0.17 0.3,0.38 C 0.7,-4.11 0.39,-1.95 0,0"
             style="fill:#f9e1d9;fill-opacity:1;fill-rule:nonzero;stroke:none"
             id="path2981" />
        </g>
        <g
           id="g2983"
           transform="translate(28.9753,266.934)">
          <path
             d="M 0,0 C 6.693,-8.585 23.739,-9.401 66.466,-15.486 72.378,-16.327 89.544,23.799 83.277,25.023 75.382,26.564 44.412,30.834 42.108,30.86 22.674,31.082 -4.54,5.824 0,0"
             style="fill:#ffc5c1;fill-opacity:1;fill-rule:nonzero;stroke:none"
             id="path2985" />
        </g>
        <g
           id="g2987"
           transform="translate(103.6916,293.446)">
          <path
             d="m 0,0 c 0,0 18.059,-1.776 27.259,-5.645 12.318,-5.182 20.82,-14.727 24.142,-18.943 6.933,-8.799 17.612,-34.867 10.641,-39.252 -6.311,-3.971 -15.881,23.227 -15.881,23.227 0,0 14.333,-26.12 5.856,-29.503 -8.477,-3.383 -17.791,28.82 -17.791,28.82 0,0 14.126,-27.167 4.832,-29.273 -7.024,-1.591 -17.102,27.101 -17.102,27.101 0,0 11.979,-23.435 4.826,-25.383 -7.903,-2.153 -18.868,23.749 -18.868,23.749 -19.014,-1.891 -28.842,4.987 -35.25,10.712 C -28.887,-33.005 0,0 0,0"
             style="fill:#ffc5c1;fill-opacity:1;fill-rule:nonzero;stroke:none"
             id="path2989" />
        </g>
        <g
           id="g2991"
           transform="translate(145.4739,262.1845)">
          <path
             d="m 0,0 c 1.795,-3.007 3.632,-6.039 5.153,-9.196 1.521,-3.156 2.934,-6.368 4.154,-9.652 2.994,-8.055 3.609,-13.566 3.534,-13.23 -1.776,7.954 -7.046,19.338 -8.569,22.495 -1.518,3.15 -2.878,6.377 -4.394,9.529 C -0.16,0.026 -0.043,0.072 0,0"
             style="fill:#3c3278;fill-opacity:1;fill-rule:nonzero;stroke:none"
             id="path2993" />
        </g>
        <g
           id="g2995"
           transform="translate(133.9763,256.8987)">
          <path
             d="m 0,0 c 2.126,-3.939 4.38,-7.772 6.332,-11.807 1.943,-4.014 3.434,-7.993 5.096,-12.13 0.128,-0.319 -0.086,-0.283 -0.227,0.032 -1.825,4.068 -3.826,7.688 -5.699,11.734 -1.866,4.032 -3.589,8.167 -5.6,12.128 C -0.129,0.018 -0.032,0.06 0,0"
             style="fill:#3c3278;fill-opacity:1;fill-rule:nonzero;stroke:none"
             id="path2997" />
        </g>
        <g
           id="g2999"
           transform="translate(123.2926,254.1361)">
          <path
             d="M 0,0 C 3.557,-5.854 6.029,-12.357 8.301,-18.793 8.414,-19.114 8.144,-19.037 8.009,-18.716 5.368,-12.417 3.34,-7.456 -0.204,-0.123 -0.26,-0.009 -0.075,0.123 0,0"
             style="fill:#3c3278;fill-opacity:1;fill-rule:nonzero;stroke:none"
             id="path3001" />
        </g>
        <g
           id="g3003"
           transform="translate(117.3372,293.1348)">
          <path
             d="m 0,0 -35.176,-41.393 c 0,0 -48.05,3.343 -53.582,16.001 -5.532,12.659 31.051,31.108 42.445,30.116 C -34.919,3.731 0,0 0,0"
             style="fill:#fba3b7;fill-opacity:1;fill-rule:nonzero;stroke:none"
             id="path3005" />
        </g>
        <g
           id="g3007"
           transform="translate(93.53,288.49)">
          <path
             d="m 0,0 c -1.35,0.01 -2.53,-0.59 -3.52,-1.76 -1.57,-1.88 -0.67,-3.91 0.56,-5.83 1.64,-2.59 3.57,-5.18 6.56,-6.57 1.02,-0.47 2.11,-0.86 3.23,-1.18 L 7.12,-15 c -1.15,0.32 -2.27,0.72 -3.34,1.22 -2.89,1.35 -4.78,3.88 -6.39,6.42 -1.04,1.62 -2.02,3.5 -0.66,5.23 0.02,0.04 0.06,0.07 0.08,0.09 0.9,1.08 1.98,1.63 3.19,1.62 3.81,-0.01 8.12,-5.25 9.54,-6.97 0.65,-0.79 1.33,-1.58 2.05,-2.35 l 0.28,0.33 c -0.71,0.74 -1.37,1.51 -2,2.28 C 8.42,-5.37 4.01,-0.02 0,0 M 14.75,4.73 14.66,4.91 14.48,4.81 C 14.22,4.69 13.92,4.62 13.42,4.6 12.65,4.55 11.86,4.56 11.11,4.57 9.98,4.58 8.81,4.59 7.62,4.41 3.4,3.78 -0.42,3.68 -4.02,4.15 c -2.7,0.34 -7.93,1.4 -11.09,4.53 -0.22,0.01 -0.43,0.03 -0.64,0.06 C -12.55,5.25 -6.92,4.1 -4.07,3.73 -0.43,3.27 3.42,3.35 7.69,4 8.84,4.17 10,4.16 11.11,4.15 c 0.76,-0.01 1.55,-0.02 2.33,0.03 0.46,0.02 0.77,0.07 1.04,0.18 1.26,-2.27 2.39,-4.49 3.42,-6.68 l 0.29,0.35 c -1.03,2.19 -2.17,4.42 -3.44,6.7 m 0.86,0.78 c 1.22,-2.21 2.35,-4.4 3.37,-6.55 l 0.3,0.35 c -0.96,2.02 -2.02,4.07 -3.17,6.15 -0.17,0.01 -0.33,0.03 -0.5,0.05 M 20.43,5 c -0.13,0.01 -0.28,0.03 -0.42,0.05 0.22,-1.57 0.34,-3 0.38,-4.44 l 0.4,0.47 C 20.74,2.34 20.62,3.62 20.43,5"
             style="fill:#f9e1d9;fill-opacity:1;fill-rule:nonzero;stroke:none"
             id="path3009" />
        </g>
        <g
           id="g3011"
           transform="translate(82.84,285.36)">
          <path
             d="m 0,0 -0.05,0.02 c -2.61,0.85 -5.38,0.68 -8.05,0.52 -1.74,-0.1 -3.54,-0.22 -5.29,-0.05 -1.61,0.16 -3.79,0.77 -4.6,1.97 -0.35,0.52 -0.43,1.14 -0.23,1.83 0.2,0.68 0.64,1.2 1.31,1.53 1.87,0.95 5.09,0.37 6.8,-0.25 3.73,-1.36 7.74,-3.59 12.65,-7.04 z m 2.74,-1.12 c -2.45,1.74 -4.68,3.17 -6.77,4.34 -2.1,1.16 -4.05,2.06 -5.93,2.75 -1.78,0.64 -5.15,1.23 -7.14,0.23 -0.78,-0.4 -1.29,-0.99 -1.52,-1.79 -0.25,-0.82 -0.15,-1.56 0.28,-2.18 0.04,-0.06 0.07,-0.11 0.11,-0.16 1.23,-1.57 4.21,-1.93 4.8,-1.99 1.78,-0.18 3.6,-0.07 5.36,0.04 2.62,0.15 5.34,0.32 7.88,-0.49 l 2.52,-1.46 c 0.19,-0.11 0.42,-0.06 0.53,0.13 0.11,0.18 0.1,0.44 -0.12,0.58"
             style="fill:#f9e1d9;fill-opacity:1;fill-rule:nonzero;stroke:none"
             id="path3013" />
        </g>
        <g
           id="g3015"
           transform="translate(52.516,292.3762)">
          <path
             d="M 0,0 C 2.762,1.887 10.605,6.368 18.508,5.482 18.596,5.472 18.6,5.347 18.51,5.344 12.031,5.146 2.893,1.497 0.068,-0.113 -0.007,-0.155 -0.069,-0.047 0,0"
             style="fill:#3c3278;fill-opacity:1;fill-rule:nonzero;stroke:none"
             id="path3017" />
        </g>
        <g
           id="g3019"
           transform="translate(74.7216,258.896)">
          <path
             d="m 0,0 c 13.824,14.643 26.134,32.13 28.496,35.026 0.111,0.137 -0.122,0.301 -0.228,0.157 C 26.1,32.222 9.865,13.763 -0.25,0.173 -0.367,0.016 -0.133,-0.141 0,0"
             style="fill:#3c3278;fill-opacity:1;fill-rule:nonzero;stroke:none"
             id="path3021" />
        </g>
        <g
           id="g3023"
           transform="translate(129.779,362.1457)">
          <path
             d="m 0,0 c 28.252,-35.953 38.911,-100.537 23.23,-105.571 -14.329,-4.6 -73.261,10.147 -90.815,16.11 -5.156,1.752 10.769,41.839 16.284,39.973 6.666,-2.256 43.114,-10.892 43.821,-10.908 1.514,-0.035 -6.585,39.728 -10.061,57.746 C -22.382,22.453 -10.609,13.501 0,0"
             style="fill:#ffc5c1;fill-opacity:1;fill-rule:nonzero;stroke:none"
             id="path3025" />
        </g>
        <g
           id="g3027"
           transform="translate(31.3652,327.719)">
          <path
             d="m 0,0 c -2.984,-3.385 -0.568,-7.384 -0.568,-7.384 0,0 -3.481,-0.929 -5.254,-3.902 -2.03,-3.404 2.417,-8.081 2.417,-8.081 0,0 -3.328,-1.67 -4.885,-4.998 -1.616,-3.454 2.199,-8.813 2.199,-8.813 0,0 -2.245,-3.259 -1.527,-7.101 1.226,-6.569 10.727,-10.297 16.742,-12.728 6.015,-2.431 25.354,-3.693 29.014,-4.307 l 15.936,38.472 c 0,0 -23.872,18.575 -31.35,20.43 C 16.425,3.15 3.349,3.799 0,0"
             style="fill:#ffc5c1;fill-opacity:1;fill-rule:nonzero;stroke:none"
             id="path3029" />
        </g>
        <g
           id="g3031"
           transform="translate(31.3188,320.8433)">
          <path
             d="m 0,0 c 7.096,-0.053 13.79,-2.203 20.594,-3.968 0.152,-0.04 0.088,-0.276 -0.063,-0.235 -6.747,1.834 -13.77,2.306 -20.575,3.868 C -0.232,-0.292 -0.191,0.002 0,0"
             style="fill:#3c3278;fill-opacity:1;fill-rule:nonzero;stroke:none"
             id="path3033" />
        </g>
        <g
           id="g3035"
           transform="translate(28.2919,308.8047)">
          <path
             d="m 0,0 c 1.605,-0.061 3.185,-0.65 4.705,-1.126 1.636,-0.513 3.262,-1.055 4.881,-1.622 3.24,-1.134 6.454,-2.342 9.63,-3.644 0.141,-0.057 0.088,-0.287 -0.063,-0.234 -3.231,1.124 -6.479,2.2 -9.754,3.188 -1.639,0.494 -3.283,0.974 -4.929,1.444 -1.532,0.437 -3.184,0.77 -4.591,1.54 C -0.329,-0.34 -0.242,0.009 0,0"
             style="fill:#3c3278;fill-opacity:1;fill-rule:nonzero;stroke:none"
             id="path3037" />
        </g>
        <g
           id="g3039"
           transform="translate(25.4121,294.4971)">
          <path
             d="m 0,0 c 1.397,0.004 2.89,-0.758 4.181,-1.24 1.465,-0.548 2.934,-1.087 4.405,-1.618 2.942,-1.062 5.885,-2.122 8.863,-3.082 0.148,-0.048 0.086,-0.282 -0.064,-0.234 -3.03,0.958 -6.073,1.876 -9.095,2.862 C 6.806,-2.829 5.326,-2.336 3.847,-1.836 2.59,-1.41 0.971,-1.022 -0.06,-0.145 -0.117,-0.096 -0.07,0 0,0"
             style="fill:#3c3278;fill-opacity:1;fill-rule:nonzero;stroke:none"
             id="path3041" />
        </g>
        <g
           id="g3043"
           transform="translate(121.7698,303.3788)">
          <path
             d="m 0,0 c 0.456,0.273 -8.01,38.651 -10.85,58.677 -2.839,20.026 6.105,18.102 18.976,0.982 13.786,-18.34 38.333,-67.982 29.829,-104.742 -2.753,-11.904 -88.034,4.771 -88.034,4.771 l 11.492,49.016 c 0,0 37.882,-9.126 38.587,-8.704"
             style="fill:#fba3b7;fill-opacity:1;fill-rule:nonzero;stroke:none"
             id="path3045" />
        </g>
        <g
           id="g3047"
           transform="translate(118.63,265.43)">
          <path
             d="m 0,0 -0.05,0.32 c -0.24,1.31 -0.53,2.67 -0.86,4.03 l -0.02,0.07 -0.05,0.04 c -1.91,1.57 -4.82,1.79 -7.4,1.99 -0.89,0.07 -1.73,0.13 -2.49,0.25 l -0.3,0.04 c -3.47,0.54 -7.06,1.09 -10.15,2.54 -2.89,1.35 -4.78,3.88 -6.39,6.42 -1.04,1.62 -2.02,3.5 -0.66,5.23 0.02,0.04 0.06,0.07 0.08,0.09 0.9,1.08 1.98,1.63 3.19,1.62 3.81,-0.01 8.12,-5.25 9.54,-6.97 2.43,-2.96 5.26,-5.92 9.56,-7.6 L -5.53,7.88 C -4.12,7.34 -2.8,6.83 -1.72,6.03 l 0.49,-0.36 -0.15,0.58 c -0.59,2.17 -1.29,4.39 -2.08,6.59 -1.77,4.88 -4.02,9.78 -6.89,14.95 l -0.09,0.18 -0.18,-0.1 c -0.26,-0.12 -0.56,-0.19 -1.06,-0.21 -0.77,-0.05 -1.56,-0.04 -2.31,-0.03 -1.13,0.01 -2.3,0.02 -3.49,-0.16 -4.22,-0.63 -8.04,-0.73 -11.64,-0.26 -2.42,0.31 -6.87,1.19 -10.04,3.61 l -0.1,-0.44 c 3.24,-2.4 7.67,-3.28 10.09,-3.59 3.64,-0.46 7.49,-0.38 11.76,0.27 1.15,0.17 2.31,0.16 3.42,0.15 0.76,-0.01 1.55,-0.02 2.33,0.03 0.46,0.02 0.77,0.07 1.04,0.18 2.82,-5.1 5.02,-9.92 6.77,-14.73 0.72,-1.99 1.35,-4.01 1.91,-5.99 -1.04,0.65 -2.25,1.12 -3.43,1.57 l -0.47,0.2 c -4.22,1.64 -7.01,4.55 -9.39,7.46 -1.45,1.76 -5.86,7.11 -9.87,7.13 -1.35,0.01 -2.53,-0.59 -3.52,-1.76 -1.57,-1.88 -0.67,-3.91 0.56,-5.83 1.64,-2.59 3.57,-5.18 6.56,-6.57 3.15,-1.47 6.94,-2.06 10.26,-2.57 l 0.31,-0.05 c 0.77,-0.11 1.62,-0.19 2.52,-0.25 2.49,-0.19 5.3,-0.41 7.11,-1.85 0.32,-1.33 0.61,-2.65 0.84,-3.94 l 0.05,-0.31 C 0.13,-3.04 0.76,-6.52 0.53,-9.74 0.67,-9.76 0.8,-9.78 0.94,-9.79 1.19,-6.51 0.55,-3 0,0 m -11.31,29.52 c -1.23,2.16 -2.57,4.39 -4.12,6.81 -1.33,2.08 -2.72,4.15 -4.08,6.16 -0.1,0.15 -0.2,0.3 -0.3,0.45 -0.2,0.04 -0.4,0.09 -0.6,0.14 0.18,-0.27 0.37,-0.55 0.55,-0.82 1.36,-2.01 2.75,-4.09 4.08,-6.16 1.45,-2.28 2.73,-4.4 3.91,-6.45 -3.87,0.27 -7.41,1.3 -10.8,3.14 -2.05,1.11 -4.02,2.44 -5.93,3.73 -1.07,0.72 -2.18,1.47 -3.3,2.18 -0.23,0.14 -0.47,0.3 -0.72,0.46 -1.17,0.77 -2.59,1.68 -4.06,2.23 l -0.1,-0.42 c 1.42,-0.55 2.79,-1.43 3.93,-2.17 0.26,-0.16 0.5,-0.31 0.72,-0.46 1.11,-0.7 2.23,-1.45 3.3,-2.17 1.91,-1.29 3.9,-2.63 5.96,-3.75 3.56,-1.94 7.28,-2.99 11.37,-3.21 l 0.38,-0.02 z M 17.43,12.09 c -0.18,1.2 -0.9,2.11 -2.13,2.7 C 11.49,16.62 7.2,12.44 5.46,9.96 3.52,7.19 2.28,3.78 1.58,-0.69 1.07,2.69 0.2,6.01 -0.62,8.87 c -0.6,2.12 -1.34,4.29 -2.16,6.44 0.06,2.36 1.03,4.61 1.96,6.78 0.13,0.3 0.24,0.59 0.37,0.89 1.22,2.87 1.82,5.38 1.9,7.89 0.06,2.02 -0.16,5.08 -1.03,7.51 -0.16,0.03 -0.33,0.06 -0.5,0.1 0.97,-2.54 1.16,-5.91 1.11,-7.6 -0.08,-2.45 -0.68,-4.91 -1.87,-7.74 -0.12,-0.3 -0.25,-0.58 -0.37,-0.88 -0.96,-2.23 -1.93,-4.52 -1.98,-6.98 l 0.01,-0.08 c 0.82,-2.16 1.54,-4.33 2.15,-6.45 0.94,-3.28 1.96,-7.16 2.4,-11.04 l 0.2,-1.78 0.21,1.78 c 0.64,5.17 1.91,8.99 4.03,12.02 1.93,2.74 6.01,6.27 9.31,4.68 1.1,-0.52 1.74,-1.33 1.89,-2.39 0.02,-0.16 0.04,-0.33 0.04,-0.51 0,-1.83 -1.29,-3.98 -2.63,-5.2 C 12.7,4.74 10.78,3.28 8.93,1.88 8.54,1.59 8.17,1.31 7.8,1.03 7.47,0.77 7.11,0.51 6.73,0.24 4.72,-1.22 2.21,-3.04 1.59,-5.52 v -0.05 c 0.04,-1.5 -0.05,-2.92 -0.27,-4.26 0.14,-0.02 0.29,-0.04 0.43,-0.05 0.21,1.35 0.3,2.78 0.27,4.29 0.58,2.31 2.91,4 4.97,5.49 0.37,0.27 0.74,0.53 1.07,0.8 0.37,0.27 0.74,0.56 1.12,0.84 1.86,1.42 3.79,2.87 5.53,4.47 1.58,1.44 3.02,3.99 2.72,6.08 m -21.41,6.19 c -0.22,1.71 -0.27,3.48 -0.31,5 -0.05,2.89 -0.41,5.75 -1.23,9.54 -0.73,3.51 -0.72,5.64 -0.4,6.92 -0.13,0.03 -0.27,0.06 -0.41,0.09 -0.39,-1.59 -0.26,-3.96 0.4,-7.09 0.81,-3.77 1.18,-6.6 1.23,-9.47 0.02,-1.13 0.05,-2.39 0.16,-3.67 -1.37,3.09 -2.98,6.29 -4.79,9.54 -0.01,0.13 -0.07,0.25 -0.18,0.33 -0.48,0.85 -1.01,1.77 -1.66,2.9 -0.56,0.94 -1.09,1.82 -1.62,2.64 -0.08,2.23 0.7,4.1 1.9,5.86 -0.14,0.03 -0.29,0.06 -0.43,0.09 -1.19,-1.78 -1.99,-3.73 -1.9,-5.99 l 0.06,-0.15 c 0.54,-0.85 1.07,-1.73 1.62,-2.67 0.67,-1.14 1.2,-2.07 1.68,-2.92 l 0.03,-0.05 0.05,-0.03 c 0.03,-0.01 0.04,-0.04 0.03,-0.06 v -0.06 l 0.03,-0.05 c 2.06,-3.69 3.87,-7.34 5.34,-10.81 l 0.6,-1.42 z m -9.88,18.4 c -0.3,1.59 -0.26,3.22 -0.02,4.87 -0.14,0.04 -0.28,0.07 -0.42,0.1 -0.2,-1.36 -0.27,-2.72 -0.13,-4.07 -1.05,1.64 -2.14,3.27 -3.21,4.85 -0.2,0.05 -0.4,0.09 -0.6,0.14 0.01,0 0.01,-0.01 0.01,-0.01 1.32,-1.97 2.68,-4.01 3.98,-6.03 l 0.59,-0.91 z"
             style="fill:#f9e1d9;fill-opacity:1;fill-rule:nonzero;stroke:none"
             id="path3049" />
        </g>
        <g
           id="g3051"
           transform="translate(140.27,304.17)">
          <path
             d="m 0,0 c -7.42,-4.73 -9.98,-8.21 -10.68,-9.35 0.5,1.86 2.87,8.99 4.96,11.69 1.03,1.32 4.16,5.36 7.2,3.55 C 2.29,5.41 2.71,4.77 2.72,4 2.73,3.2 2.31,2.32 1.7,1.56 1.22,0.94 0.6,0.39 0,0 M 1.69,6.26 C -1.45,8.12 -4.55,4.51 -5.82,2.9 -5.91,2.78 -5.99,2.68 -6.06,2.59 c -2.33,-3.01 -5.02,-11.52 -5.13,-12.28 -0.03,-0.2 0.11,-0.38 0.31,-0.41 0.19,-0.03 0.35,0.07 0.38,0.24 0.02,0.03 1.98,3.92 10.72,9.5 C 1.66,0.56 3.17,2.4 3.13,4.01 3.12,4.93 2.64,5.69 1.69,6.26"
             style="fill:#f9e1d9;fill-opacity:1;fill-rule:nonzero;stroke:none"
             id="path3053" />
        </g>
        <g
           id="g3055"
           transform="translate(116.21,367.75)">
          <path
             d="m 0,0 c -2.12,1.26 -4.22,0.03 -5.75,-1.4 0.02,-0.18 0.03,-0.36 0.04,-0.55 1.45,1.43 3.49,2.77 5.49,1.59 C 0.59,-0.84 1.01,-1.48 1.02,-2.25 1.03,-3.05 0.61,-3.93 0.01,-4.69 -0.48,-5.31 -1.1,-5.87 -1.7,-6.25 -2.88,-7 -3.94,-7.72 -4.89,-8.41 c 0.03,-0.15 0.05,-0.31 0.08,-0.47 0.98,0.72 2.09,1.48 3.33,2.27 1.44,0.91 2.95,2.76 2.92,4.37 C 1.43,-1.32 0.94,-0.56 0,0"
             style="fill:#f9e1d9;fill-opacity:1;fill-rule:nonzero;stroke:none"
             id="path3057" />
        </g>
        <g
           id="g3059"
           transform="translate(134,342.29)">
          <path
             d="m 0,0 c -0.42,-3.95 -1.63,-8.37 -3.8,-13.96 l 0.81,2.82 0.01,0.05 c 0.21,2.73 -0.62,5.38 -1.42,7.94 -0.51,1.66 -1.05,3.39 -1.31,5.12 -0.23,1.6 -0.16,3.87 0.81,4.94 0.42,0.47 1,0.69 1.72,0.66 0.71,-0.03 1.32,-0.33 1.8,-0.9 C -0.01,5.08 0.19,1.82 0,0 M -1.06,6.94 C -1.63,7.6 -2.33,7.96 -3.16,7.99 -4.01,8.03 -4.7,7.76 -5.21,7.2 -5.25,7.14 -5.3,7.1 -5.34,7.05 -6.57,5.48 -6.21,2.5 -6.12,1.91 c 0.25,-1.77 0.79,-3.51 1.32,-5.19 0.78,-2.51 1.59,-5.11 1.41,-7.77 l -0.81,-2.79 c -0.07,-0.22 0.04,-0.43 0.25,-0.49 0.2,-0.06 0.46,0.01 0.54,0.25 1.1,2.8 1.95,5.31 2.59,7.62 0.62,2.31 1.03,4.42 1.25,6.41 0.2,1.89 -0.04,5.3 -1.49,6.99"
             style="fill:#f9e1d9;fill-opacity:1;fill-rule:nonzero;stroke:none"
             id="path3061" />
        </g>
        <g
           id="g3063"
           transform="translate(85.58,284.24)">
          <path
             d="m 0,0 c -2.45,1.74 -4.68,3.17 -6.77,4.34 -0.34,0.19 -0.68,0.37 -1.01,0.54 l -0.1,-0.43 c 2.34,-1.24 4.86,-2.82 7.68,-4.8 l -2.54,1.47 -0.05,0.02 c -1.86,0.61 -3.8,0.69 -5.72,0.64 l -0.1,-0.43 c 1.92,0.06 3.85,-0.02 5.68,-0.6 l 2.52,-1.46 C -0.22,-0.82 0.01,-0.77 0.12,-0.58 0.23,-0.4 0.22,-0.14 0,0"
             style="fill:#f9e1d9;fill-opacity:1;fill-rule:nonzero;stroke:none"
             id="path3065" />
        </g>
        <g
           id="g3067"
           transform="translate(82.8539,268.1084)">
          <path
             d="M 0,0 C 5.186,17.066 8.048,35.789 8.779,39.017 8.813,39.169 8.563,39.207 8.536,39.052 7.985,35.848 2.393,14.806 -0.267,0.038 -0.298,-0.132 -0.05,-0.164 0,0"
             style="fill:#3c3278;fill-opacity:1;fill-rule:nonzero;stroke:none"
             id="path3069" />
        </g>
        <g
           id="g3071"
           transform="translate(137.8033,297.7072)">
          <path
             d="m 0,0 c -1.645,0.283 -45.184,12.543 -54.704,14.02 -0.15,0.023 -0.017,0.523 0.142,0.495 C -25.307,9.355 -1.272,1.532 0.57,0.798 2.754,-0.072 3.066,-0.527 0,0"
             style="fill:#3c3278;fill-opacity:1;fill-rule:nonzero;stroke:none"
             id="path3073" />
        </g>
        <g
           id="g3075"
           transform="translate(121.3485,302.9861)">
          <path
             d="m 0,0 c 0.032,0.085 -4.885,25.541 -5.399,26.459 -0.526,0.95 -1.667,3.062 -2.135,4.046 -0.942,1.986 -1.76,4.017 -2.628,6.028 -0.072,0.166 0.179,0.294 0.252,0.128 0.937,-1.945 2.042,-3.811 3.156,-5.653 0.555,-0.905 1.109,-1.818 1.665,-2.715 0.042,-0.059 -2.679,14.359 -3.06,16.891 -0.031,0.187 0.173,0.24 0.231,0.083 C -7.1,42.718 0.621,3.071 1.403,-0.129 1.403,-0.129 0.862,-0.12 0,0"
             style="fill:#3c3278;fill-opacity:1;fill-rule:nonzero;stroke:none"
             id="path3077" />
        </g>
        <g
           id="g3079"
           transform="translate(89.2527,260.0232)">
          <path
             d="m 0,0 c -2.841,0.785 -14.236,2.628 -17.007,3.026 0.272,1.005 1.081,5.082 1.006,6.231 -0.006,0.109 -0.169,0.174 -0.236,0.076 -0.648,-0.95 -1.757,-5.964 -2.089,-7.148 C -18.389,1.96 -2.976,0.024 -0.025,-0.132 0.061,-0.137 0.085,-0.024 0,0"
             style="fill:#3c3278;fill-opacity:1;fill-rule:nonzero;stroke:none"
             id="path3081" />
        </g>
        <g
           id="g3083"
           transform="translate(85.4393,373.8977)">
          <path
             d="m 0,0 c 0,0 1.144,-11.278 10.493,-13.034 9.349,-1.757 26.819,10.524 26.819,10.524 0,0 -7.016,9.442 -19.693,9.473 C 5.428,6.993 0,0 0,0"
             style="fill:#ffc5c1;fill-opacity:1;fill-rule:nonzero;stroke:none"
             id="path3085" />
        </g>
        <g
           id="g3087"
           transform="translate(112.2827,377.0505)">
          <path
             d="m 0,0 c -0.5,-1.694 -9.332,-12.371 -17.159,-11.555 -2.548,0.271 -1.694,14.247 -1.694,14.247 l -0.173,1.047 -2.408,14.646 17.61,9.93 2.538,1.302 c 0,0 0.394,-4.051 0.835,-9.099 0.022,-0.234 0.043,-0.468 0.063,-0.719 0.033,-0.285 0.067,-0.554 0.085,-0.821 0.075,-0.753 0.149,-1.523 0.206,-2.291 0.047,-0.584 0.094,-1.152 0.12,-1.768 C 0.066,14.302 0.094,13.703 0.136,13.086 0.42,6.998 0.202,0.72 0,0"
             style="fill:#ffc5c1;fill-opacity:1;fill-rule:nonzero;stroke:none"
             id="path3089" />
        </g>
        <g
           id="g3091"
           transform="translate(111.8317,397.5685)">
          <path
             d="m 0,0 c -4.801,-11.273 -14.263,-15.44 -18.575,-16.779 l -2.408,14.646 17.611,9.93 2.537,1.302 c 0,0 0.394,-4.051 0.835,-9.099"
             style="fill:#000000;fill-opacity:0.8;fill-rule:nonzero;stroke:none"
             id="path3093" />
        </g>
        <g
           id="g3095"
           transform="translate(71.4192,415.8554)">
          <path
             d="M 0,0 C -1.739,-25.992 13.633,-29.969 19.238,-30.337 24.326,-30.672 41.695,-31.166 46.11,-5.492 50.525,20.181 38.99,29.206 27.393,30.587 15.796,31.969 1.739,25.993 0,0"
             style="fill:#ffc5c1;fill-opacity:1;fill-rule:nonzero;stroke:none"
             id="path3097" />
        </g>
        <g
           id="g3099"
           transform="translate(79.3176,422.4671)">
          <path
             d="M 0,0 C 0.613,0.049 1.172,0.196 1.773,0.307 2.452,0.431 3.005,0.461 3.521,0.964 3.798,1.234 3.798,1.801 3.562,2.095 3.01,2.778 2.141,2.832 1.317,2.714 0.423,2.587 -0.233,2.26 -0.844,1.599 -1.437,0.957 -0.809,-0.064 0,0"
             style="fill:#000000;fill-opacity:1;fill-rule:nonzero;stroke:none"
             id="path3101" />
        </g>
        <g
           id="g3103"
           transform="translate(97.3718,423.5572)">
          <path
             d="m 0,0 c -0.61,0.083 -1.159,0.262 -1.753,0.406 -0.671,0.163 -1.222,0.224 -1.709,0.755 -0.261,0.285 -0.228,0.852 0.024,1.131 0.589,0.652 1.46,0.656 2.276,0.493 C -0.277,2.607 0.36,2.244 0.933,1.549 1.488,0.875 0.804,-0.109 0,0"
             style="fill:#000000;fill-opacity:1;fill-rule:nonzero;stroke:none"
             id="path3105" />
        </g>
        <g
           id="g3107"
           transform="translate(93.3338,414.5443)">
          <path
             d="M 0,0 C 0.016,0.067 0.135,-0.09 0.13,-0.163 -0.003,-1.932 0.143,-3.981 1.721,-4.639 1.77,-4.659 1.76,-4.748 1.702,-4.737 -0.243,-4.377 -0.409,-1.656 0,0"
             style="fill:#000000;fill-opacity:1;fill-rule:nonzero;stroke:none"
             id="path3109" />
        </g>
        <g
           id="g3111"
           transform="translate(94.9956,416.3268)">
          <path
             d="M 0,0 C 2.86,0.093 2.836,-5.633 0.187,-5.719 -2.42,-5.804 -2.396,-0.079 0,0"
             style="fill:#000000;fill-opacity:1;fill-rule:nonzero;stroke:none"
             id="path3113" />
        </g>
        <g
           id="g3115"
           transform="translate(96.1189,416.0195)">
          <path
             d="m 0,0 c 0.499,-0.326 0.987,-0.9 1.589,-0.962 0.697,-0.072 1.227,0.526 1.685,1.1 0.047,0.06 0.097,0.01 0.098,-0.066 C 3.383,-1.025 2.957,-2.149 1.78,-2.308 0.707,-2.453 -0.06,-1.478 -0.329,-0.374 -0.379,-0.169 -0.201,0.131 0,0"
             style="fill:#000000;fill-opacity:1;fill-rule:nonzero;stroke:none"
             id="path3117" />
        </g>
        <g
           id="g3119"
           transform="translate(82.5118,415.8523)">
          <path
             d="m 0,0 c -0.013,0.068 -0.14,-0.082 -0.139,-0.155 0.034,-1.774 -0.228,-3.812 -1.84,-4.379 -0.05,-0.018 -0.046,-0.107 0.014,-0.099 C -0.004,-4.384 0.315,-1.675 0,0"
             style="fill:#000000;fill-opacity:1;fill-rule:nonzero;stroke:none"
             id="path3121" />
        </g>
        <g
           id="g3123"
           transform="translate(80.9527,417.7255)">
          <path
             d="M 0,0 C -2.85,0.254 -3.149,-5.464 -0.509,-5.699 2.089,-5.931 2.389,-0.213 0,0"
             style="fill:#000000;fill-opacity:1;fill-rule:nonzero;stroke:none"
             id="path3125" />
        </g>
        <g
           id="g3127"
           transform="translate(79.7408,417.412)">
          <path
             d="m 0,0 c -0.468,-0.28 -0.944,-0.806 -1.485,-0.814 -0.628,-0.008 -1.058,0.634 -1.427,1.248 -0.038,0.064 -0.085,0.018 -0.091,-0.057 -0.088,-1.091 0.214,-2.249 1.253,-2.513 0.948,-0.242 1.7,0.659 2.017,1.734 C 0.327,-0.203 0.188,0.112 0,0"
             style="fill:#000000;fill-opacity:1;fill-rule:nonzero;stroke:none"
             id="path3129" />
        </g>
        <g
           id="g3131"
           transform="translate(91.5847,400.7858)">
          <path
             d="m 0,0 c -0.407,-0.433 -0.807,-1.021 -1.448,-1.102 -0.614,-0.077 -1.349,0.171 -1.923,0.367 -0.057,0.02 -0.111,-0.042 -0.073,-0.094 0.488,-0.661 1.473,-1.047 2.289,-0.869 0.796,0.173 1.165,0.883 1.329,1.625 C 0.197,0.031 0.059,0.063 0,0"
             style="fill:#000000;fill-opacity:1;fill-rule:nonzero;stroke:none"
             id="path3133" />
        </g>
        <g
           id="g3135"
           transform="translate(84.2715,407.3137)">
          <path
             d="m 0,0 c 0,0 -0.408,-2.643 -0.428,-3.893 -0.001,-0.116 0.3,-0.177 0.724,-0.208 0.02,-0.007 0.031,-0.015 0.049,-0.002 2.2,-0.38 4.434,0.347 5.804,2.126 C 6.237,-1.856 6.08,-1.724 5.965,-1.8 4.299,-2.984 2.474,-3.267 0.517,-3.269 0.434,-2.921 1.367,1.235 1.169,1.253 0.486,1.322 -0.866,0.879 -1.679,0.655 -0.989,6.185 0.582,11.56 1.187,17.076 1.205,17.274 0.923,17.337 0.862,17.162 -1.183,11.646 -2.117,5.299 -2.976,-0.393 -3.09,-1.102 -0.503,-0.205 0,0"
             style="fill:#000000;fill-opacity:1;fill-rule:nonzero;stroke:none"
             id="path3137" />
        </g>
        <g
           id="g3139"
           transform="translate(84.9647,403.6863)">
          <path
             d="M 0,0 C 0,0 1.089,-1.677 2.68,-2.356 3.266,-2.608 3.907,-2.733 4.594,-2.594 6.007,-2.315 6.12,-1.041 5.932,0.066 5.781,0.976 5.413,1.775 5.413,1.775 5.413,1.775 3.266,0.001 0,0"
             style="fill:#000000;fill-opacity:1;fill-rule:nonzero;stroke:none"
             id="path3141" />
        </g>
        <g
           id="g3143"
           transform="translate(87.6447,401.3306)">
          <path
             d="M 0,0 C 0.586,-0.252 1.227,-0.377 1.914,-0.238 3.327,0.041 3.44,1.314 3.253,2.422 1.753,2.361 0.216,1.441 0,0"
             style="fill:#fba3b7;fill-opacity:1;fill-rule:nonzero;stroke:none"
             id="path3145" />
        </g>
        <g
           id="g3147"
           transform="translate(116.0696,410.4993)">
          <path
             d="m 0,0 c -2.814,0.395 -9.553,8.761 -8.686,22.432 0,0 0.071,-12.33 0.848,-14.199 0.778,-1.87 -3.765,4.706 -3.22,15.741 0,0 -6.45,-3.913 -11.766,-4.954 -5.316,-1.042 -8.493,-0.738 -8.835,-0.332 -0.341,0.406 7.503,2.204 9.763,4.424 0,0 -14.345,-5.323 -20.76,-5.299 -0.742,0.002 -0.408,15.239 9.962,20.886 10.37,5.648 25.428,-2.552 29.302,-6.943 0,0 4.874,-1.096 9.648,-8.815 C 11.031,15.222 3.03,-0.425 0,0"
             style="fill:#b73535;fill-opacity:1;fill-rule:nonzero;stroke:none"
             id="path3149" />
        </g>
        <g
           id="g3151"
           transform="translate(112.367,409.1874)">
          <path
             d="M 0,0 C 0,0 5.523,8.242 9.253,6.288 12.981,4.333 8.94,-7.536 4.641,-9.233 c -4.299,-1.698 -5.949,2.251 -5.949,2.251 z"
             style="fill:#ffc5c1;fill-opacity:1;fill-rule:nonzero;stroke:none"
             id="path3153" />
        </g>
        <g
           id="g3155"
           transform="translate(120.3764,412.1016)">
          <path
             d="m 0,0 c 0.07,0.008 0.085,-0.09 0.025,-0.115 -3.012,-1.291 -4.555,-4.137 -5.617,-7.079 0.881,1.141 2.098,1.781 3.625,0.736 0.08,-0.055 0.007,-0.18 -0.079,-0.164 -1.249,0.242 -2.142,0.009 -2.963,-1.004 -0.581,-0.717 -0.97,-1.617 -1.38,-2.44 -0.137,-0.274 -0.63,-0.139 -0.533,0.176 0.007,0.023 0.016,0.047 0.024,0.071 C -7.051,-5.949 -4.149,-0.472 0,0"
             style="fill:#000000;fill-opacity:1;fill-rule:nonzero;stroke:none"
             id="path3157" />
        </g>
        <g
           id="g3159"
           transform="translate(139.5529,252.1066)">
          <path
             d="m 0,0 c 0.145,-0.036 0.291,-0.073 0.436,-0.109 l 0.012,0.012 C 0.303,-0.061 0.145,-0.036 0,0"
             style="fill:#ffc5c1;fill-opacity:1;fill-rule:nonzero;stroke:none"
             id="path3161" />
        </g>
        <g
           id="g3163"
           transform="translate(181.1279,260.2592)">
          <path
             d="M 0,0 C 0.061,-0.315 0.121,-0.618 0.157,-0.933 0.145,-0.872 0.145,-0.812 0.133,-0.751 0.097,-0.497 0.048,-0.254 0,0"
             style="fill:#6585f4;fill-opacity:1;fill-rule:nonzero;stroke:none"
             id="path3165" />
        </g>
        <g
           id="g3167"
           transform="translate(181.1279,260.2592)">
          <path
             d="M 0,0 C 0.061,-0.315 0.121,-0.618 0.157,-0.933 0.145,-0.872 0.145,-0.812 0.133,-0.751 0.097,-0.497 0.048,-0.254 0,0"
             style="fill:#6585f4;fill-opacity:1;fill-rule:nonzero;stroke:none"
             id="path3169" />
        </g>
        <g
           id="g3171"
           transform="translate(137.5785,247.576)">
          <path
             d="M 0,0 V -0.012 C 0.46,-0.121 0.909,-0.23 1.357,-0.327 0.909,-0.218 0.448,-0.109 0,0"
             style="fill:#6585f4;fill-opacity:1;fill-rule:nonzero;stroke:none"
             id="path3173" />
        </g>
        <g
           id="g3175"
           transform="translate(181.1279,260.2592)">
          <path
             d="M 0,0 C 0.061,-0.315 0.121,-0.618 0.157,-0.933 0.145,-0.872 0.145,-0.812 0.133,-0.751 0.097,-0.497 0.048,-0.254 0,0"
             style="fill:#ffffff;fill-opacity:1;fill-rule:nonzero;stroke:none"
             id="path3177" />
        </g>
      </g>
    </g>
  </g>
</svg>
