<?xml version="1.0" encoding="UTF-8" standalone="no"?>
<!-- Created with Inkscape (http://www.inkscape.org/) -->

<svg
   width="49.208973mm"
   height="49.208973mm"
   viewBox="0 0 49.208974 49.208973"
   version="1.1"
   id="svg26036"
   inkscape:version="1.2 (dc2aedaf03, 2022-05-15)"
   sodipodi:docname="10.svg"
   xmlns:inkscape="http://www.inkscape.org/namespaces/inkscape"
   xmlns:sodipodi="http://sodipodi.sourceforge.net/DTD/sodipodi-0.dtd"
   xmlns="http://www.w3.org/2000/svg"
   xmlns:svg="http://www.w3.org/2000/svg">
  <sodipodi:namedview
     id="namedview26038"
     pagecolor="#505050"
     bordercolor="#eeeeee"
     borderopacity="1"
     inkscape:showpageshadow="0"
     inkscape:pageopacity="0"
     inkscape:pagecheckerboard="0"
     inkscape:deskcolor="#505050"
     inkscape:document-units="mm"
     showgrid="false"
     inkscape:zoom="0.49798681"
     inkscape:cx="228.92172"
     inkscape:cy="275.10769"
     inkscape:window-width="1366"
     inkscape:window-height="699"
     inkscape:window-x="0"
     inkscape:window-y="0"
     inkscape:window-maximized="1"
     inkscape:current-layer="layer1" />
  <defs
     id="defs26033">
    <clipPath
       clipPathUnits="userSpaceOnUse"
       id="clipPath2909">
      <path
         d="m 38.013,402.153 c 0,-34.16 27.692,-61.852 61.853,-61.852 v 0 c 34.16,0 61.852,27.692 61.852,61.852 v 0 c 0,34.161 -27.692,61.853 -61.852,61.853 v 0 c -34.161,0 -61.853,-27.692 -61.853,-61.853"
         id="path2907" />
    </clipPath>
    <clipPath
       clipPathUnits="userSpaceOnUse"
       id="clipPath12579">
      <path
         d="m -161.7186,97.847 h 500 v -500 h -500 z"
         id="path12581"
         style="stroke-width:0.999998" />
    </clipPath>
    <clipPath
       clipPathUnits="userSpaceOnUse"
       id="clipPath12575">
      <path
         d="m -311.8526,97.847 h 500 v -500 h -500 z"
         id="path12577"
         style="stroke-width:0.999998" />
    </clipPath>
    <clipPath
       clipPathUnits="userSpaceOnUse"
       id="clipPath3185">
      <path
         d="m 188.148,402.153 c 0,-34.16 27.692,-61.852 61.852,-61.852 v 0 c 34.161,0 61.853,27.692 61.853,61.852 v 0 c 0,34.161 -27.692,61.853 -61.853,61.853 v 0 c -34.16,0 -61.852,-27.692 -61.852,-61.853"
         id="path3183" />
    </clipPath>
    <clipPath
       clipPathUnits="userSpaceOnUse"
       id="clipPath12571">
      <path
         d="m -461.9866,97.847 h 500 v -500 h -500 z"
         id="path12573"
         style="stroke-width:0.999998" />
    </clipPath>
    <clipPath
       clipPathUnits="userSpaceOnUse"
       id="clipPath3533">
      <path
         d="m 338.281,402.153 c 0,-34.16 27.692,-61.852 61.853,-61.852 v 0 c 34.16,0 61.852,27.692 61.852,61.852 v 0 c 0,34.161 -27.692,61.853 -61.852,61.853 v 0 c -34.161,0 -61.853,-27.692 -61.853,-61.853"
         id="path3531" />
    </clipPath>
    <clipPath
       clipPathUnits="userSpaceOnUse"
       id="clipPath3609">
      <path
         d="m 370.232,358.302 h 14.005 v -17.261 h -14.005 z"
         id="path3607" />
    </clipPath>
    <clipPath
       clipPathUnits="userSpaceOnUse"
       id="clipPath3625">
      <path
         d="m 378.264,345.649 h 10.426 v -12.95 h -10.426 z"
         id="path3623" />
    </clipPath>
    <clipPath
       clipPathUnits="userSpaceOnUse"
       id="clipPath3641">
      <path
         d="M 368.258,311.851 H 378.79 V 288.93 h -10.532 z"
         id="path3639" />
    </clipPath>
    <clipPath
       clipPathUnits="userSpaceOnUse"
       id="clipPath3661">
      <path
         d="m 370.39,358.2 h 13.847 V 341.041 H 370.39 Z"
         id="path3659" />
    </clipPath>
    <clipPath
       clipPathUnits="userSpaceOnUse"
       id="clipPath3677">
      <path
         d="m 378.254,345.648 h 10.509 v -12.945 h -10.509 z"
         id="path3675" />
    </clipPath>
    <clipPath
       clipPathUnits="userSpaceOnUse"
       id="clipPath3693">
      <path
         d="m 387.457,316.052 h 10.509 v -12.945 h -10.509 z"
         id="path3691" />
    </clipPath>
    <clipPath
       clipPathUnits="userSpaceOnUse"
       id="clipPath3709">
      <path
         d="m 422.49,355.84 h 10.943 v -8.884 H 422.49 Z"
         id="path3707" />
    </clipPath>
    <clipPath
       clipPathUnits="userSpaceOnUse"
       id="clipPath3725">
      <path
         d="m 403.506,358.544 h 24.455 V 328.6 h -24.455 z"
         id="path3723" />
    </clipPath>
    <clipPath
       clipPathUnits="userSpaceOnUse"
       id="clipPath3741">
      <path
         d="m 368.256,311.853 h 24.456 v -29.945 h -24.456 z"
         id="path3739" />
    </clipPath>
    <clipPath
       clipPathUnits="userSpaceOnUse"
       id="clipPath3757">
      <path
         d="m 402.97,365.665 h 11.114 V 352.399 H 402.97 Z"
         id="path3755" />
    </clipPath>
    <clipPath
       clipPathUnits="userSpaceOnUse"
       id="clipPath3773">
      <path
         d="m 422.404,304.81 h 11.114 v -13.266 h -11.114 z"
         id="path3771" />
    </clipPath>
    <clipPath
       clipPathUnits="userSpaceOnUse"
       id="clipPath3849">
      <path
         d="m 387.459,311.51 h 10.391 v -8.401 h -10.391 z"
         id="path3847" />
    </clipPath>
    <clipPath
       clipPathUnits="userSpaceOnUse"
       id="clipPath3865">
      <path
         d="m 422.49,355.84 h 10.943 v -8.884 H 422.49 Z"
         id="path3863" />
    </clipPath>
    <clipPath
       clipPathUnits="userSpaceOnUse"
       id="clipPath3881">
      <path
         d="m 413.34,358.54 h 14.622 V 328.599 H 413.34 Z"
         id="path3879" />
    </clipPath>
    <clipPath
       clipPathUnits="userSpaceOnUse"
       id="clipPath3897">
      <path
         d="m 378.28,311.1 h 14.435 V 281.904 H 378.28 Z"
         id="path3895" />
    </clipPath>
    <clipPath
       clipPathUnits="userSpaceOnUse"
       id="clipPath3913">
      <path
         d="m 412.49,364.64 h 1.589 v -8.74 h -1.589 z"
         id="path3911" />
    </clipPath>
    <clipPath
       clipPathUnits="userSpaceOnUse"
       id="clipPath3929">
      <path
         d="m 422.404,304.81 h 11.114 v -13.266 h -11.114 z"
         id="path3927" />
    </clipPath>
    <clipPath
       clipPathUnits="userSpaceOnUse"
       id="clipPath4509">
      <path
         d="m 188.148,97.847 c 0,-34.16 27.692,-61.852 61.852,-61.852 v 0 c 34.161,0 61.853,27.692 61.853,61.852 v 0 c 0,34.16 -27.692,61.853 -61.853,61.853 v 0 c -34.16,0 -61.852,-27.693 -61.852,-61.853"
         id="path4507" />
    </clipPath>
    <clipPath
       clipPathUnits="userSpaceOnUse"
       id="clipPath12551">
      <path
         d="m -311.8526,402.153 h 500 v -500 h -500 z"
         id="path12553"
         style="stroke-width:0.999998" />
    </clipPath>
    <clipPath
       clipPathUnits="userSpaceOnUse"
       id="clipPath12547">
      <path
         d="m -461.9866,402.153 h 500 v -500 h -500 z"
         id="path12549"
         style="stroke-width:0.999998" />
    </clipPath>
    <clipPath
       clipPathUnits="userSpaceOnUse"
       id="clipPath4289">
      <path
         d="m 338.281,97.847 c 0,-34.16 27.692,-61.852 61.853,-61.852 v 0 c 34.16,0 61.852,27.692 61.852,61.852 v 0 c 0,34.16 -27.692,61.853 -61.852,61.853 v 0 c -34.161,0 -61.853,-27.693 -61.853,-61.853"
         id="path4287" />
    </clipPath>
    <clipPath
       clipPathUnits="userSpaceOnUse"
       id="clipPath4461">
      <path
         d="m 411.287,122.855 h 3.234 v -3.577 h -3.234 z"
         id="path4459" />
    </clipPath>
    <clipPath
       clipPathUnits="userSpaceOnUse"
       id="clipPath4481">
      <path
         d="m 414.553,120.557 h 2.492 v -3.675 h -2.492 z"
         id="path4479" />
    </clipPath>
    <clipPath
       clipPathUnits="userSpaceOnUse"
       id="clipPath12559">
      <path
         d="m -461.9866,250 h 500 v -500 h -500 z"
         id="path12561"
         style="stroke-width:0.999998" />
    </clipPath>
    <clipPath
       clipPathUnits="userSpaceOnUse"
       id="clipPath1909">
      <path
         d="m 338.281,250 c 0,-34.16 27.692,-61.852 61.853,-61.852 v 0 c 34.16,0 61.852,27.692 61.852,61.852 v 0 c 0,34.161 -27.692,61.853 -61.852,61.853 v 0 c -34.161,0 -61.853,-27.692 -61.853,-61.853"
         id="path1907" />
    </clipPath>
    <clipPath
       clipPathUnits="userSpaceOnUse"
       id="clipPath2001">
      <path
         d="m 378.783,231.372 h 45.306 v -29.375 h -45.306 z"
         id="path1999" />
    </clipPath>
    <clipPath
       clipPathUnits="userSpaceOnUse"
       id="clipPath2089">
      <path
         d="m 393.47,206.633 h 7.35 v -32.752 h -7.35 z"
         id="path2087" />
    </clipPath>
    <clipPath
       clipPathUnits="userSpaceOnUse"
       id="clipPath2117">
      <path
         d="m 380.559,207.88 h 4.889 v -29.926 h -4.889 z"
         id="path2115" />
    </clipPath>
    <clipPath
       clipPathUnits="userSpaceOnUse"
       id="clipPath12555">
      <path
         d="m -161.7186,402.153 h 500 v -500 h -500 z"
         id="path12557"
         style="stroke-width:0.999998" />
    </clipPath>
    <clipPath
       clipPathUnits="userSpaceOnUse"
       id="clipPath4081">
      <path
         d="m 38.013,97.847 c 0,-34.16 27.692,-61.852 61.853,-61.852 v 0 c 34.16,0 61.852,27.692 61.852,61.852 v 0 c 0,34.16 -27.692,61.853 -61.852,61.853 v 0 c -34.161,0 -61.853,-27.693 -61.853,-61.853"
         id="path4079" />
    </clipPath>
    <clipPath
       clipPathUnits="userSpaceOnUse"
       id="clipPath12567">
      <path
         d="m -161.7186,250 h 500 v -500 h -500 z"
         id="path12569"
         style="stroke-width:0.999998" />
    </clipPath>
    <clipPath
       clipPathUnits="userSpaceOnUse"
       id="clipPath2133">
      <path
         d="m 38.013,250 c 0,-34.16 27.692,-61.852 61.853,-61.852 v 0 c 34.16,0 61.852,27.692 61.852,61.852 v 0 c 0,34.161 -27.692,61.853 -61.852,61.853 v 0 C 65.705,311.853 38.013,284.161 38.013,250"
         id="path2131" />
    </clipPath>
    <clipPath
       clipPathUnits="userSpaceOnUse"
       id="clipPath12563">
      <path
         d="m -311.8526,250 h 500 v -500 h -500 z"
         id="path12565"
         style="stroke-width:0.999998" />
    </clipPath>
    <clipPath
       clipPathUnits="userSpaceOnUse"
       id="clipPath2449">
      <path
         d="m 188.148,250 c 0,-34.16 27.692,-61.852 61.852,-61.852 v 0 c 34.161,0 61.853,27.692 61.853,61.852 v 0 c 0,34.161 -27.692,61.853 -61.853,61.853 v 0 c -34.16,0 -61.852,-27.692 -61.852,-61.853"
         id="path2447" />
    </clipPath>
    <clipPath
       clipPathUnits="userSpaceOnUse"
       id="clipPath32">
      <path
         d="m 26.289,344.363 c 0,-38.519 31.226,-69.744 69.746,-69.744 v 0 c 38.519,0 69.744,31.225 69.744,69.744 v 0 c 0,38.52 -31.225,69.746 -69.744,69.746 v 0 c -38.52,0 -69.746,-31.226 -69.746,-69.746"
         id="path30" />
    </clipPath>
    <clipPath
       clipPathUnits="userSpaceOnUse"
       id="clipPath20">
      <path
         d="M 0,500 H 500 V 0 H 0 Z"
         id="path18" />
    </clipPath>
  </defs>
  <g
     inkscape:label="Layer 1"
     inkscape:groupmode="layer"
     id="layer1"
     transform="translate(-44.134644,-75.480931)">
    <g
       id="g14"
       transform="matrix(0.35277777,0,0,-0.35277777,34.860363,221.56931)">
      <g
         id="g16"
         clip-path="url(#clipPath20)">
        <g
           id="g22"
           transform="translate(165.7793,344.3638)">
          <path
             d="m 0,0 c 0,-38.519 -31.226,-69.745 -69.745,-69.745 -38.519,0 -69.745,31.226 -69.745,69.745 0,38.52 31.226,69.745 69.745,69.745 C -31.226,69.745 0,38.52 0,0"
             style="fill:#dfdfdf;fill-opacity:1;fill-rule:nonzero;stroke:none"
             id="path24" />
        </g>
      </g>
    </g>
    <g
       id="g26"
       transform="matrix(0.35277777,0,0,-0.35277777,34.860363,221.56931)">
      <g
         id="g28"
         clip-path="url(#clipPath32)">
        <g
           id="g34"
           transform="translate(148.5967,278.4795)">
          <path
             d="M 0,0 -54.024,-9.726 -114.565,0 c 0,0 2.716,27.574 15.145,36.51 0.614,0.442 1.255,0.875 1.905,1.29 12.41,7.97 29.993,11.066 29.993,11.066 l 25.335,-1.074 c 0,0 12.384,-2.266 22.502,-8.205 1.019,-0.604 2.021,-1.236 2.978,-1.913 C -6.219,30.291 0,0 0,0"
             style="fill:#247e81;fill-opacity:1;fill-rule:nonzero;stroke:none"
             id="path36" />
        </g>
        <g
           id="g38"
           transform="translate(85.9956,341.481)">
          <path
             d="m 0,0 c 0,0 -0.703,-10.833 -6.221,-6.147 -4.063,3.448 -1.015,6.322 -5.208,10.061 -1.71,1.525 -6.832,4.263 -5.385,9.813 1.446,5.55 4.988,6.019 2.601,8.536 -2.387,2.517 -6.471,8.682 1.035,14.34 7.505,5.657 -0.117,12.114 9.408,15.13 9.525,3.016 13.589,-0.86 21.449,3.08 7.861,3.941 15.225,5.197 20.341,1.943 C 45.016,52.307 37.713,37.313 31.927,36.944 26.142,36.575 0,0 0,0"
             style="fill:#2f241c;fill-opacity:1;fill-rule:nonzero;stroke:none"
             id="path40" />
        </g>
        <g
           id="g42"
           transform="translate(106.6792,332.6636)">
          <path
             d="m 0,0 -0.271,-6.392 c -0.773,-0.573 -1.552,-1.066 -2.33,-1.489 -11.381,-6.196 -23.006,2.562 -23.006,2.562 l 0.939,22.162 21.726,-14.835 z"
             style="fill:#ad6442;fill-opacity:1;fill-rule:nonzero;stroke:none"
             id="path44" />
        </g>
        <g
           id="g46"
           transform="translate(106.6792,332.6636)">
          <path
             d="M 0,0 -0.271,-6.392 C -1.044,-6.965 -1.823,-7.458 -2.601,-7.881 -11.893,-3.74 -18.352,6.467 -18.352,6.467 L -2.942,2.008 Z"
             style="fill:#2f241c;fill-opacity:1;fill-rule:nonzero;stroke:none"
             id="path48" />
        </g>
        <g
           id="g50"
           transform="translate(115.8667,360.6523)">
          <path
             d="M 0,0 C 0,0 3.812,4.135 5.682,-0.241 7.553,-4.617 5.606,-13.231 0.142,-11.577 Z"
             style="fill:#8b4d33;fill-opacity:1;fill-rule:nonzero;stroke:none"
             id="path52" />
        </g>
        <g
           id="g54"
           transform="translate(119.9858,380.502)">
          <path
             d="m 0,0 c 0,0 4.151,-1.672 2.135,-6.395 -2.016,-4.723 -1.873,-5.702 -1.343,-8.657 0.531,-2.955 -1.917,-5.25 -2.758,-4.923 C -2.807,-19.648 -9.996,2.454 0,0"
             style="fill:#2f241c;fill-opacity:1;fill-rule:nonzero;stroke:none"
             id="path56" />
        </g>
        <g
           id="g58"
           transform="translate(119.1011,345.4478)">
          <path
             d="M 0,0 C 0,0 -0.54,-13.216 -14.285,-12.604 -27.945,-12 -36.8,-0.878 -37.263,-0.36 c -0.008,0.009 -0.014,0.013 -0.014,0.013 l -0.032,2.784 -0.166,14.449 -0.09,7.723 c 0,0 -1.157,13.948 12.135,15.919 9.712,1.442 18.679,-0.541 23.024,-5.76 0.141,-0.168 0.276,-0.34 0.404,-0.517 1.36,-1.827 2.182,-4.02 2.32,-6.571 L 0.158,13.822 0.119,10.425 Z"
             style="fill:#ad6442;fill-opacity:1;fill-rule:nonzero;stroke:none"
             id="path60" />
        </g>
        <g
           id="g62"
           transform="translate(108.7334,348.626)">
          <path
             d="M 0,0 C -0.605,-0.028 -1.283,0.022 -2.038,0.187 -5.942,1.037 -8.542,4.526 -8.65,4.674 -8.816,4.9 -8.768,5.219 -8.541,5.385 -8.315,5.551 -7.997,5.503 -7.83,5.276 -7.806,5.244 -5.343,1.948 -1.821,1.181 1.667,0.422 3.172,2.486 3.187,2.507 3.349,2.737 3.667,2.791 3.896,2.629 4.125,2.467 4.18,2.149 4.018,1.92 3.956,1.832 2.714,0.126 0,0"
             style="fill:#2f241c;fill-opacity:1;fill-rule:nonzero;stroke:none"
             id="path64" />
        </g>
        <g
           id="g66"
           transform="translate(109.2881,345.6201)">
          <path
             d="M 0,0 C 0.26,0.141 0.415,0.25 0.44,0.269 0.742,0.486 0.81,0.907 0.592,1.208 0.375,1.509 -0.042,1.582 -0.346,1.362 -0.435,1.299 -2.428,-0.079 -4.619,1.049 -4.95,1.219 -5.356,1.089 -5.526,0.758 -5.696,0.428 -5.566,0.022 -5.235,-0.148 -2.964,-1.317 -0.881,-0.479 0,0"
             style="fill:#8b4d33;fill-opacity:1;fill-rule:nonzero;stroke:none"
             id="path68" />
        </g>
        <g
           id="g70"
           transform="translate(109.8735,354.8447)">
          <path
             d="m 0,0 c -1.235,0.215 -2.586,0.705 -3.342,1.005 -0.279,0.11 -0.415,0.426 -0.305,0.705 0.111,0.28 0.431,0.417 0.705,0.305 2.046,-0.81 4.28,-1.271 4.598,-0.947 -0.003,0 0.002,0.046 -0.018,0.133 -1.038,4.57 -3.376,5.12 -3.4,5.126 -0.257,0.054 -0.445,0.286 -0.436,0.549 l 0.131,4.235 c 0.009,0.3 0.259,0.536 0.56,0.527 0.292,-0.009 0.535,-0.26 0.526,-0.56 L -1.1,7.243 C -0.206,6.861 1.76,5.572 2.698,1.442 2.849,0.777 2.552,0.404 2.362,0.242 1.885,-0.167 0.979,-0.17 0,0"
             style="fill:#2f241c;fill-opacity:1;fill-rule:nonzero;stroke:none"
             id="path72" />
        </g>
        <g
           id="g74"
           transform="translate(93.46,373.8784)">
          <path
             d="m 0,0 v 0 c 0.224,-1.682 1.752,-2.876 3.438,-2.682 0.984,0.113 2.123,0.173 3.278,0.083 1.638,-0.127 3.051,1.133 3.09,2.775 C 9.806,0.176 3.84,2.581 0,0"
             style="fill:#2f241c;fill-opacity:1;fill-rule:nonzero;stroke:none"
             id="path76" />
        </g>
        <g
           id="g78"
           transform="translate(118.2134,372.3145)">
          <path
             d="m 0,0 v 0 c -0.237,-1.636 -1.731,-2.776 -3.362,-2.561 -0.952,0.126 -2.055,0.203 -3.174,0.134 -1.588,-0.098 -2.942,1.153 -2.961,2.755 0,0 5.808,2.249 9.497,-0.328"
             style="fill:#2f241c;fill-opacity:1;fill-rule:nonzero;stroke:none"
             id="path80" />
        </g>
        <g
           id="g82"
           transform="translate(117.0986,379.6987)">
          <path
             d="m 0,0 c -2.124,0.855 -3.711,0.211 -7.134,-1.123 -4.948,-1.927 -10.298,0.222 -14.993,2.879 -4.696,2.656 -7.72,-0.635 -6.179,-2.944 1.539,-2.309 1.285,-4.115 -0.649,-6.895 -1.934,-2.777 3.253,-4.328 0.261,-6.445 -1.26,-0.892 -1.247,-2.304 -0.809,-3.639 0.477,-1.456 -0.844,-2.869 -2.337,-2.525 -1.546,0.463 -3.633,3.327 -3.633,3.327 l -4.194,9.908 c 0,0 3.654,13.546 16.946,15.518 C -13.009,9.502 -4.042,7.52 0.303,2.301 0.443,2.132 -0.127,0.177 0,0"
             style="fill:#2f241c;fill-opacity:1;fill-rule:nonzero;stroke:none"
             id="path84" />
        </g>
        <g
           id="g86"
           transform="translate(99.979,363.7202)">
          <path
             d="m 0,0 c -0.056,-1.322 -0.701,-2.367 -1.44,-2.336 -0.74,0.031 -1.293,1.128 -1.238,2.449 0.056,1.322 0.701,2.367 1.441,2.336 C -0.498,2.418 0.056,1.321 0,0"
             style="fill:#2f241c;fill-opacity:1;fill-rule:nonzero;stroke:none"
             id="path88" />
        </g>
        <g
           id="g90"
           transform="translate(113.0532,363.3931)">
          <path
             d="m 0,0 c -0.056,-1.321 -0.701,-2.367 -1.44,-2.336 -0.739,0.031 -1.293,1.128 -1.238,2.45 0.056,1.321 0.701,2.367 1.441,2.336 C -0.498,2.418 0.056,1.322 0,0"
             style="fill:#2f241c;fill-opacity:1;fill-rule:nonzero;stroke:none"
             id="path92" />
        </g>
        <g
           id="g94"
           transform="translate(86.3677,350.2671)">
          <path
             d="m 0,0 c -0.068,-0.144 -1.979,-4.105 -4.53,-5.18 -0.008,0.008 -0.013,0.014 -0.013,0.014 l -0.031,2.784 c 0,0 2.185,0.278 4.574,2.382"
             style="fill:#2f241c;fill-opacity:1;fill-rule:nonzero;stroke:none"
             id="path96" />
        </g>
        <g
           id="g98"
           transform="translate(84.3359,359.5474)">
          <path
             d="m 0,0 c 0,0 -4.983,7.322 -9.09,1.908 -3.385,-4.461 2.139,-16.694 8.626,-12.857 z"
             style="fill:#ad6442;fill-opacity:1;fill-rule:nonzero;stroke:none"
             id="path100" />
        </g>
        <g
           id="g102"
           transform="translate(83.2407,350.7661)">
          <path
             d="m 0,0 c 0.02,-0.001 0.04,0 0.06,0 0.299,0.021 0.526,0.28 0.506,0.58 -0.404,6.064 -5.395,8.37 -5.608,8.465 -0.274,0.123 -0.596,0 -0.719,-0.274 -0.122,-0.274 0,-0.596 0.273,-0.719 C -5.3,7.967 -0.879,5.904 -0.52,0.507 -0.5,0.228 -0.274,0.012 0,0"
             style="fill:#2f241c;fill-opacity:1;fill-rule:nonzero;stroke:none"
             id="path104" />
        </g>
        <g
           id="g106"
           transform="translate(78.3066,354.2769)">
          <path
             d="M 0,0 C 0.12,-0.005 0.243,0.03 0.347,0.107 0.836,0.47 2.31,1.351 3.237,1.071 3.525,0.985 3.829,1.147 3.916,1.436 4.002,1.723 3.839,2.026 3.551,2.113 1.936,2.6 -0.078,1.147 -0.303,0.98 -0.543,0.8 -0.593,0.459 -0.414,0.218 -0.312,0.082 -0.158,0.006 0,0"
             style="fill:#2f241c;fill-opacity:1;fill-rule:nonzero;stroke:none"
             id="path108" />
        </g>
        <g
           id="g110"
           transform="translate(81.249,331.5073)">
          <path
             d="M 0,0 C 0,0 3.947,-6.953 15.359,-8.942 L 7.679,-18.764 -6.526,-5.597 Z"
             style="fill:#e59414;fill-opacity:1;fill-rule:nonzero;stroke:none"
             id="path112" />
        </g>
        <g
           id="g114"
           transform="translate(106.605,330.9224)">
          <path
             d="M 0,0 C 0,0 0.253,-5.208 -7.386,-8.357 L 0.001,-16.535 5.939,-6.14 Z"
             style="fill:#e59414;fill-opacity:1;fill-rule:nonzero;stroke:none"
             id="path116" />
        </g>
        <g
           id="g118"
           transform="translate(67.1201,278.4795)">
          <path
             d="m 0,0 h -33.089 c 0,0 2.717,27.574 15.146,36.51 0.613,0.442 1.255,0.875 1.904,1.29 C -11.571,33.838 0.867,20.877 0,0"
             style="fill:#2a3c69;fill-opacity:1;fill-rule:nonzero;stroke:none"
             id="path120" />
        </g>
        <g
           id="g122"
           transform="translate(136.8901,278.4795)">
          <path
             d="M 0,0 C 0.424,18.35 -4.937,32.872 -7.979,39.587 -6.959,38.983 -5.957,38.351 -5,37.674 5.488,30.291 11.707,0 11.707,0 Z"
             style="fill:#2a3c69;fill-opacity:1;fill-rule:nonzero;stroke:none"
             id="path124" />
        </g>
      </g>
    </g>
  </g>
</svg>
