<?xml version="1.0" encoding="UTF-8" standalone="no"?>
<!-- Created with Inkscape (http://www.inkscape.org/) -->

<svg
   width="49.208973mm"
   height="49.208973mm"
   viewBox="0 0 49.208974 49.208973"
   version="1.1"
   id="svg26036"
   inkscape:version="1.2 (dc2aedaf03, 2022-05-15)"
   sodipodi:docname="12.svg"
   xmlns:inkscape="http://www.inkscape.org/namespaces/inkscape"
   xmlns:sodipodi="http://sodipodi.sourceforge.net/DTD/sodipodi-0.dtd"
   xmlns="http://www.w3.org/2000/svg"
   xmlns:svg="http://www.w3.org/2000/svg">
  <sodipodi:namedview
     id="namedview26038"
     pagecolor="#505050"
     bordercolor="#eeeeee"
     borderopacity="1"
     inkscape:showpageshadow="0"
     inkscape:pageopacity="0"
     inkscape:pagecheckerboard="0"
     inkscape:deskcolor="#505050"
     inkscape:document-units="mm"
     showgrid="false"
     inkscape:zoom="0.49798681"
     inkscape:cx="-86.347668"
     inkscape:cy="281.13194"
     inkscape:window-width="1366"
     inkscape:window-height="699"
     inkscape:window-x="0"
     inkscape:window-y="0"
     inkscape:window-maximized="1"
     inkscape:current-layer="layer1" />
  <defs
     id="defs26033">
    <clipPath
       clipPathUnits="userSpaceOnUse"
       id="clipPath2909">
      <path
         d="m 38.013,402.153 c 0,-34.16 27.692,-61.852 61.853,-61.852 v 0 c 34.16,0 61.852,27.692 61.852,61.852 v 0 c 0,34.161 -27.692,61.853 -61.852,61.853 v 0 c -34.161,0 -61.853,-27.692 -61.853,-61.853"
         id="path2907" />
    </clipPath>
    <clipPath
       clipPathUnits="userSpaceOnUse"
       id="clipPath12579">
      <path
         d="m -161.7186,97.847 h 500 v -500 h -500 z"
         id="path12581"
         style="stroke-width:0.999998" />
    </clipPath>
    <clipPath
       clipPathUnits="userSpaceOnUse"
       id="clipPath12575">
      <path
         d="m -311.8526,97.847 h 500 v -500 h -500 z"
         id="path12577"
         style="stroke-width:0.999998" />
    </clipPath>
    <clipPath
       clipPathUnits="userSpaceOnUse"
       id="clipPath3185">
      <path
         d="m 188.148,402.153 c 0,-34.16 27.692,-61.852 61.852,-61.852 v 0 c 34.161,0 61.853,27.692 61.853,61.852 v 0 c 0,34.161 -27.692,61.853 -61.853,61.853 v 0 c -34.16,0 -61.852,-27.692 -61.852,-61.853"
         id="path3183" />
    </clipPath>
    <clipPath
       clipPathUnits="userSpaceOnUse"
       id="clipPath12571">
      <path
         d="m -461.9866,97.847 h 500 v -500 h -500 z"
         id="path12573"
         style="stroke-width:0.999998" />
    </clipPath>
    <clipPath
       clipPathUnits="userSpaceOnUse"
       id="clipPath3533">
      <path
         d="m 338.281,402.153 c 0,-34.16 27.692,-61.852 61.853,-61.852 v 0 c 34.16,0 61.852,27.692 61.852,61.852 v 0 c 0,34.161 -27.692,61.853 -61.852,61.853 v 0 c -34.161,0 -61.853,-27.692 -61.853,-61.853"
         id="path3531" />
    </clipPath>
    <clipPath
       clipPathUnits="userSpaceOnUse"
       id="clipPath3609">
      <path
         d="m 370.232,358.302 h 14.005 v -17.261 h -14.005 z"
         id="path3607" />
    </clipPath>
    <clipPath
       clipPathUnits="userSpaceOnUse"
       id="clipPath3625">
      <path
         d="m 378.264,345.649 h 10.426 v -12.95 h -10.426 z"
         id="path3623" />
    </clipPath>
    <clipPath
       clipPathUnits="userSpaceOnUse"
       id="clipPath3641">
      <path
         d="M 368.258,311.851 H 378.79 V 288.93 h -10.532 z"
         id="path3639" />
    </clipPath>
    <clipPath
       clipPathUnits="userSpaceOnUse"
       id="clipPath3661">
      <path
         d="m 370.39,358.2 h 13.847 V 341.041 H 370.39 Z"
         id="path3659" />
    </clipPath>
    <clipPath
       clipPathUnits="userSpaceOnUse"
       id="clipPath3677">
      <path
         d="m 378.254,345.648 h 10.509 v -12.945 h -10.509 z"
         id="path3675" />
    </clipPath>
    <clipPath
       clipPathUnits="userSpaceOnUse"
       id="clipPath3693">
      <path
         d="m 387.457,316.052 h 10.509 v -12.945 h -10.509 z"
         id="path3691" />
    </clipPath>
    <clipPath
       clipPathUnits="userSpaceOnUse"
       id="clipPath3709">
      <path
         d="m 422.49,355.84 h 10.943 v -8.884 H 422.49 Z"
         id="path3707" />
    </clipPath>
    <clipPath
       clipPathUnits="userSpaceOnUse"
       id="clipPath3725">
      <path
         d="m 403.506,358.544 h 24.455 V 328.6 h -24.455 z"
         id="path3723" />
    </clipPath>
    <clipPath
       clipPathUnits="userSpaceOnUse"
       id="clipPath3741">
      <path
         d="m 368.256,311.853 h 24.456 v -29.945 h -24.456 z"
         id="path3739" />
    </clipPath>
    <clipPath
       clipPathUnits="userSpaceOnUse"
       id="clipPath3757">
      <path
         d="m 402.97,365.665 h 11.114 V 352.399 H 402.97 Z"
         id="path3755" />
    </clipPath>
    <clipPath
       clipPathUnits="userSpaceOnUse"
       id="clipPath3773">
      <path
         d="m 422.404,304.81 h 11.114 v -13.266 h -11.114 z"
         id="path3771" />
    </clipPath>
    <clipPath
       clipPathUnits="userSpaceOnUse"
       id="clipPath3849">
      <path
         d="m 387.459,311.51 h 10.391 v -8.401 h -10.391 z"
         id="path3847" />
    </clipPath>
    <clipPath
       clipPathUnits="userSpaceOnUse"
       id="clipPath3865">
      <path
         d="m 422.49,355.84 h 10.943 v -8.884 H 422.49 Z"
         id="path3863" />
    </clipPath>
    <clipPath
       clipPathUnits="userSpaceOnUse"
       id="clipPath3881">
      <path
         d="m 413.34,358.54 h 14.622 V 328.599 H 413.34 Z"
         id="path3879" />
    </clipPath>
    <clipPath
       clipPathUnits="userSpaceOnUse"
       id="clipPath3897">
      <path
         d="m 378.28,311.1 h 14.435 V 281.904 H 378.28 Z"
         id="path3895" />
    </clipPath>
    <clipPath
       clipPathUnits="userSpaceOnUse"
       id="clipPath3913">
      <path
         d="m 412.49,364.64 h 1.589 v -8.74 h -1.589 z"
         id="path3911" />
    </clipPath>
    <clipPath
       clipPathUnits="userSpaceOnUse"
       id="clipPath3929">
      <path
         d="m 422.404,304.81 h 11.114 v -13.266 h -11.114 z"
         id="path3927" />
    </clipPath>
    <clipPath
       clipPathUnits="userSpaceOnUse"
       id="clipPath4509">
      <path
         d="m 188.148,97.847 c 0,-34.16 27.692,-61.852 61.852,-61.852 v 0 c 34.161,0 61.853,27.692 61.853,61.852 v 0 c 0,34.16 -27.692,61.853 -61.853,61.853 v 0 c -34.16,0 -61.852,-27.693 -61.852,-61.853"
         id="path4507" />
    </clipPath>
    <clipPath
       clipPathUnits="userSpaceOnUse"
       id="clipPath12551">
      <path
         d="m -311.8526,402.153 h 500 v -500 h -500 z"
         id="path12553"
         style="stroke-width:0.999998" />
    </clipPath>
    <clipPath
       clipPathUnits="userSpaceOnUse"
       id="clipPath12547">
      <path
         d="m -461.9866,402.153 h 500 v -500 h -500 z"
         id="path12549"
         style="stroke-width:0.999998" />
    </clipPath>
    <clipPath
       clipPathUnits="userSpaceOnUse"
       id="clipPath4289">
      <path
         d="m 338.281,97.847 c 0,-34.16 27.692,-61.852 61.853,-61.852 v 0 c 34.16,0 61.852,27.692 61.852,61.852 v 0 c 0,34.16 -27.692,61.853 -61.852,61.853 v 0 c -34.161,0 -61.853,-27.693 -61.853,-61.853"
         id="path4287" />
    </clipPath>
    <clipPath
       clipPathUnits="userSpaceOnUse"
       id="clipPath4461">
      <path
         d="m 411.287,122.855 h 3.234 v -3.577 h -3.234 z"
         id="path4459" />
    </clipPath>
    <clipPath
       clipPathUnits="userSpaceOnUse"
       id="clipPath4481">
      <path
         d="m 414.553,120.557 h 2.492 v -3.675 h -2.492 z"
         id="path4479" />
    </clipPath>
    <clipPath
       clipPathUnits="userSpaceOnUse"
       id="clipPath12559">
      <path
         d="m -461.9866,250 h 500 v -500 h -500 z"
         id="path12561"
         style="stroke-width:0.999998" />
    </clipPath>
    <clipPath
       clipPathUnits="userSpaceOnUse"
       id="clipPath1909">
      <path
         d="m 338.281,250 c 0,-34.16 27.692,-61.852 61.853,-61.852 v 0 c 34.16,0 61.852,27.692 61.852,61.852 v 0 c 0,34.161 -27.692,61.853 -61.852,61.853 v 0 c -34.161,0 -61.853,-27.692 -61.853,-61.853"
         id="path1907" />
    </clipPath>
    <clipPath
       clipPathUnits="userSpaceOnUse"
       id="clipPath2001">
      <path
         d="m 378.783,231.372 h 45.306 v -29.375 h -45.306 z"
         id="path1999" />
    </clipPath>
    <clipPath
       clipPathUnits="userSpaceOnUse"
       id="clipPath2089">
      <path
         d="m 393.47,206.633 h 7.35 v -32.752 h -7.35 z"
         id="path2087" />
    </clipPath>
    <clipPath
       clipPathUnits="userSpaceOnUse"
       id="clipPath2117">
      <path
         d="m 380.559,207.88 h 4.889 v -29.926 h -4.889 z"
         id="path2115" />
    </clipPath>
    <clipPath
       clipPathUnits="userSpaceOnUse"
       id="clipPath12555">
      <path
         d="m -161.7186,402.153 h 500 v -500 h -500 z"
         id="path12557"
         style="stroke-width:0.999998" />
    </clipPath>
    <clipPath
       clipPathUnits="userSpaceOnUse"
       id="clipPath4081">
      <path
         d="m 38.013,97.847 c 0,-34.16 27.692,-61.852 61.853,-61.852 v 0 c 34.16,0 61.852,27.692 61.852,61.852 v 0 c 0,34.16 -27.692,61.853 -61.852,61.853 v 0 c -34.161,0 -61.853,-27.693 -61.853,-61.853"
         id="path4079" />
    </clipPath>
    <clipPath
       clipPathUnits="userSpaceOnUse"
       id="clipPath12567">
      <path
         d="m -161.7186,250 h 500 v -500 h -500 z"
         id="path12569"
         style="stroke-width:0.999998" />
    </clipPath>
    <clipPath
       clipPathUnits="userSpaceOnUse"
       id="clipPath2133">
      <path
         d="m 38.013,250 c 0,-34.16 27.692,-61.852 61.853,-61.852 v 0 c 34.16,0 61.852,27.692 61.852,61.852 v 0 c 0,34.161 -27.692,61.853 -61.852,61.853 v 0 C 65.705,311.853 38.013,284.161 38.013,250"
         id="path2131" />
    </clipPath>
    <clipPath
       clipPathUnits="userSpaceOnUse"
       id="clipPath12563">
      <path
         d="m -311.8526,250 h 500 v -500 h -500 z"
         id="path12565"
         style="stroke-width:0.999998" />
    </clipPath>
    <clipPath
       clipPathUnits="userSpaceOnUse"
       id="clipPath2449">
      <path
         d="m 188.148,250 c 0,-34.16 27.692,-61.852 61.852,-61.852 v 0 c 34.161,0 61.853,27.692 61.853,61.852 v 0 c 0,34.161 -27.692,61.853 -61.853,61.853 v 0 c -34.16,0 -61.852,-27.692 -61.852,-61.853"
         id="path2447" />
    </clipPath>
    <clipPath
       clipPathUnits="userSpaceOnUse"
       id="clipPath32">
      <path
         d="m 26.289,344.363 c 0,-38.519 31.226,-69.744 69.746,-69.744 v 0 c 38.519,0 69.744,31.225 69.744,69.744 v 0 c 0,38.52 -31.225,69.746 -69.744,69.746 v 0 c -38.52,0 -69.746,-31.226 -69.746,-69.746"
         id="path30" />
    </clipPath>
    <clipPath
       clipPathUnits="userSpaceOnUse"
       id="clipPath20">
      <path
         d="M 0,500 H 500 V 0 H 0 Z"
         id="path18" />
    </clipPath>
    <clipPath
       clipPathUnits="userSpaceOnUse"
       id="clipPath132">
      <path
         d="M 0,500 H 500 V 0 H 0 Z"
         id="path130" />
    </clipPath>
    <clipPath
       clipPathUnits="userSpaceOnUse"
       id="clipPath144">
      <path
         d="m 180.436,344.363 c 0,-38.519 31.226,-69.744 69.745,-69.744 v 0 c 38.518,0 69.745,31.225 69.745,69.744 v 0 c 0,38.52 -31.227,69.746 -69.745,69.746 v 0 c -38.519,0 -69.745,-31.226 -69.745,-69.746"
         id="path142" />
    </clipPath>
    <clipPath
       clipPathUnits="userSpaceOnUse"
       id="clipPath224">
      <path
         d="M 0,500 H 500 V 0 H 0 Z"
         id="path222" />
    </clipPath>
    <clipPath
       clipPathUnits="userSpaceOnUse"
       id="clipPath236">
      <path
         d="m 334.573,344.363 c 0,-38.519 31.226,-69.744 69.746,-69.744 v 0 c 38.518,0 69.744,31.225 69.744,69.744 v 0 c 0,38.52 -31.226,69.746 -69.744,69.746 v 0 c -38.52,0 -69.746,-31.226 -69.746,-69.746"
         id="path234" />
    </clipPath>
    <clipPath
       clipPathUnits="userSpaceOnUse"
       id="clipPath316">
      <path
         d="m 395.486,360.237 h 33.816 v -27.372 h -33.816 z"
         id="path314" />
    </clipPath>
  </defs>
  <g
     inkscape:label="Layer 1"
     inkscape:groupmode="layer"
     id="layer1"
     transform="translate(-127.22084,-73.558181)">
    <g
       id="g218"
       transform="matrix(0.35277777,0,0,-0.35277777,9.1907497,219.64656)">
      <g
         id="g220"
         clip-path="url(#clipPath224)">
        <g
           id="g226"
           transform="translate(474.0635,344.3638)">
          <path
             d="m 0,0 c 0,-38.519 -31.227,-69.745 -69.745,-69.745 -38.52,0 -69.745,31.226 -69.745,69.745 0,38.52 31.225,69.745 69.745,69.745 C -31.227,69.745 0,38.52 0,0"
             style="fill:#dfdfdf;fill-opacity:1;fill-rule:nonzero;stroke:none"
             id="path228" />
        </g>
      </g>
    </g>
    <g
       id="g230"
       transform="matrix(0.35277777,0,0,-0.35277777,9.1907497,219.64656)">
      <g
         id="g232"
         clip-path="url(#clipPath236)">
        <g
           id="g238"
           transform="translate(376.7529,365.2114)">
          <path
             d="m 0,0 c 0,0 -3.525,-11.688 7.963,-16.353 0,0 -0.185,-5.471 6.567,-7.539 6.753,-2.067 41.088,18.685 41.088,18.685 0,0 3.821,15.128 -2.857,24.658 -6.679,9.53 -17.897,11.488 -31.478,8.225 C 7.702,24.412 -1.1,10.619 0,0"
             style="fill:#2f241c;fill-opacity:1;fill-rule:nonzero;stroke:none"
             id="path240" />
        </g>
        <g
           id="g242"
           transform="translate(459.0469,274.6191)">
          <path
             d="m 0,0 h -115.981 c 0,0 2.75,31.145 15.334,40.191 8.351,5.995 19.847,9.55 26.627,11.249 3.437,0.869 5.666,1.262 5.666,1.262 l 25.652,-1.088 c 0,0 2.375,-0.438 5.902,-1.426 5.392,-1.507 13.48,-4.303 19.895,-8.818 C -6.287,33.895 0,0 0,0"
             style="fill:#2a3c69;fill-opacity:1;fill-rule:nonzero;stroke:none"
             id="path244" />
        </g>
        <g
           id="g246"
           transform="translate(422.2627,324.8076)">
          <path
             d="m 0,0 c -1.526,-2.623 -5.721,-7.063 -16.641,-7.247 -13.067,-0.219 -19.025,6.397 -20.579,8.499 3.436,0.868 5.666,1.261 5.666,1.261 L -5.903,1.426 c 0,0 2.376,-0.439 5.903,-1.426"
             style="fill:#247e81;fill-opacity:1;fill-rule:nonzero;stroke:none"
             id="path248" />
        </g>
        <g
           id="g250"
           transform="translate(416.6152,332.7046)">
          <path
             d="m 0,0 -0.274,-6.472 c -0.784,-0.579 -1.572,-1.079 -2.359,-1.507 -11.522,-6.273 -23.292,2.594 -23.292,2.594 l 0.95,22.438 21.996,-15.019 z"
             style="fill:#fe9780;fill-opacity:1;fill-rule:nonzero;stroke:none"
             id="path252" />
        </g>
        <g
           id="g254"
           transform="translate(416.6152,332.7046)">
          <path
             d="M 0,0 -0.274,-6.472 C -1.058,-7.051 -1.846,-7.551 -2.633,-7.979 -12.04,-3.786 -18.579,6.548 -18.579,6.548 l 15.6,-4.514 z"
             style="fill:#2f241c;fill-opacity:1;fill-rule:nonzero;stroke:none"
             id="path256" />
        </g>
        <g
           id="g258"
           transform="translate(425.917,361.0415)">
          <path
             d="M 0,0 C 0,0 3.859,4.187 5.753,-0.243 7.646,-4.674 5.677,-13.396 0.145,-11.72 Z"
             style="fill:#fe6c5b;fill-opacity:1;fill-rule:nonzero;stroke:none"
             id="path260" />
        </g>
        <g
           id="g262"
           transform="translate(429.5127,373.6694)">
          <path
             d="m 0,0 -0.165,-14.027 -0.036,-3.436 -0.01,-0.621 v -0.037 l -0.109,-9.897 c 0,0 -0.548,-13.387 -14.466,-12.766 -5.437,0.247 -10.116,2.13 -13.826,4.368 -5.739,3.437 -9.148,7.713 -9.44,8.033 0,0.009 -0.009,0.009 -0.009,0.009 l -0.037,2.824 -0.164,14.621 -0.092,7.822 c 0,0 -1.169,14.119 12.292,16.12 9.833,1.453 18.907,-0.549 23.302,-5.83 0.146,-0.174 0.283,-0.348 0.411,-0.53 C -0.969,4.807 -0.138,2.586 0,0"
             style="fill:#fe9780;fill-opacity:1;fill-rule:nonzero;stroke:none"
             id="path264" />
        </g>
        <g
           id="g266"
           transform="translate(418.6953,348.8657)">
          <path
             d="m 0,0 c -0.612,-0.028 -1.299,0.023 -2.063,0.189 -3.954,0.86 -6.584,4.394 -6.695,4.543 -0.168,0.229 -0.119,0.552 0.111,0.72 0.229,0.169 0.551,0.12 0.719,-0.11 0.026,-0.033 2.519,-3.37 6.084,-4.146 C 1.687,0.427 3.211,2.517 3.227,2.538 3.391,2.771 3.712,2.826 3.944,2.662 4.177,2.498 4.231,2.176 4.068,1.944 4.005,1.854 2.748,0.127 0,0"
             style="fill:#2f241c;fill-opacity:1;fill-rule:nonzero;stroke:none"
             id="path268" />
        </g>
        <g
           id="g270"
           transform="translate(419.2568,345.8223)">
          <path
             d="M 0,0 C 0.263,0.143 0.42,0.254 0.445,0.272 0.751,0.493 0.82,0.918 0.6,1.224 0.38,1.528 -0.043,1.602 -0.35,1.379 -0.44,1.316 -2.458,-0.08 -4.677,1.062 -5.012,1.234 -5.422,1.103 -5.595,0.768 -5.767,0.433 -5.635,0.022 -5.301,-0.15 -3.001,-1.333 -0.892,-0.484 0,0"
             style="fill:#fe6c5b;fill-opacity:1;fill-rule:nonzero;stroke:none"
             id="path272" />
        </g>
        <g
           id="g274"
           transform="translate(419.8496,355.1621)">
          <path
             d="M 0,0 C -1.25,0.217 -2.618,0.714 -3.384,1.017 -3.666,1.129 -3.804,1.449 -3.692,1.731 -3.58,2.014 -3.257,2.154 -2.979,2.04 -0.906,1.219 1.355,0.753 1.677,1.081 1.674,1.082 1.679,1.128 1.658,1.216 0.607,5.842 -1.76,6.4 -1.783,6.405 c -0.26,0.055 -0.45,0.29 -0.443,0.556 l 0.133,4.289 c 0.009,0.303 0.263,0.542 0.567,0.532 0.296,-0.009 0.543,-0.262 0.532,-0.567 L -1.113,7.333 C -0.208,6.946 1.781,5.641 2.731,1.46 2.885,0.787 2.584,0.409 2.392,0.245 1.908,-0.169 0.991,-0.172 0,0"
             style="fill:#2f241c;fill-opacity:1;fill-rule:nonzero;stroke:none"
             id="path276" />
        </g>
        <g
           id="g278"
           transform="translate(404.1611,371.2563)">
          <path
             d="m 0,0 v 0 c 0.64,-1.594 2.438,-2.384 4.043,-1.772 0.937,0.356 2.04,0.7 3.195,0.9 1.639,0.285 2.71,1.874 2.339,3.495 C 9.577,2.623 3.123,3.492 0,0"
             style="fill:#2f241c;fill-opacity:1;fill-rule:nonzero;stroke:none"
             id="path280" />
        </g>
        <g
           id="g282"
           transform="translate(429.3281,370.1904)">
          <path
             d="m 0,0 v 0 c -0.772,-1.535 -2.63,-2.169 -4.179,-1.424 -0.903,0.435 -1.972,0.87 -3.107,1.168 -1.609,0.422 -2.542,2.096 -2.034,3.68 0,0 6.504,0.319 9.32,-3.424"
             style="fill:#2f241c;fill-opacity:1;fill-rule:nonzero;stroke:none"
             id="path284" />
        </g>
        <g
           id="g286"
           transform="translate(409.832,364.1479)">
          <path
             d="m 0,0 c -0.057,-1.338 -0.709,-2.397 -1.458,-2.365 -0.748,0.032 -1.31,1.142 -1.253,2.48 0.057,1.338 0.71,2.396 1.458,2.365 C -0.504,2.448 0.057,1.338 0,0"
             style="fill:#2f241c;fill-opacity:1;fill-rule:nonzero;stroke:none"
             id="path288" />
        </g>
        <g
           id="g290"
           transform="translate(423.0684,363.5869)">
          <path
             d="m 0,0 c -0.056,-1.337 -0.709,-2.396 -1.457,-2.365 -0.749,0.032 -1.31,1.142 -1.253,2.48 0.057,1.338 0.709,2.397 1.458,2.365 C -0.504,2.448 0.058,1.338 0,0"
             style="fill:#2f241c;fill-opacity:1;fill-rule:nonzero;stroke:none"
             id="path292" />
        </g>
        <g
           id="g294"
           transform="translate(396.0518,350.5273)">
          <path
             d="M 0,0 C -0.07,-0.146 -2.004,-4.156 -4.587,-5.245 -4.595,-5.236 -4.6,-5.23 -4.6,-5.23 l -0.032,2.818 c 0,0 2.213,0.282 4.632,2.412"
             style="fill:#2f241c;fill-opacity:1;fill-rule:nonzero;stroke:none"
             id="path296" />
        </g>
        <g
           id="g298"
           transform="translate(393.9941,359.9233)">
          <path
             d="m 0,0 c 0,0 -5.045,7.413 -9.203,1.932 -3.427,-4.517 2.166,-16.902 8.734,-13.017 z"
             style="fill:#fe9780;fill-opacity:1;fill-rule:nonzero;stroke:none"
             id="path300" />
        </g>
        <g
           id="g302"
           transform="translate(392.8857,351.0327)">
          <path
             d="m 0,0 c 0.02,-0.001 0.04,0 0.061,0 0.303,0.021 0.533,0.283 0.512,0.587 -0.409,6.14 -5.463,8.474 -5.677,8.57 -0.278,0.125 -0.604,10e-4 -0.729,-0.277 -0.124,-0.277 0,-0.603 0.277,-0.728 0.19,-0.086 4.665,-2.175 5.03,-7.639 C -0.507,0.23 -0.277,0.012 0,0"
             style="fill:#2f241c;fill-opacity:1;fill-rule:nonzero;stroke:none"
             id="path304" />
        </g>
        <g
           id="g306"
           transform="translate(387.8896,354.5869)">
          <path
             d="M 0,0 C 0.122,-0.005 0.247,0.03 0.353,0.108 0.848,0.476 2.339,1.368 3.277,1.085 3.569,0.997 3.877,1.162 3.965,1.453 4.053,1.745 3.888,2.052 3.596,2.14 1.961,2.633 -0.079,1.162 -0.307,0.992 -0.55,0.811 -0.601,0.465 -0.419,0.221 -0.315,0.083 -0.159,0.007 0,0"
             style="fill:#2f241c;fill-opacity:1;fill-rule:nonzero;stroke:none"
             id="path308" />
        </g>
        <g
           id="g310">
          <g
             id="g312" />
          <g
             id="g324">
            <g
               clip-path="url(#clipPath316)"
               opacity="0.380005"
               id="g322">
              <g
                 transform="translate(429.3018,355.5488)"
                 id="g320">
                <path
                   d="m 0,0 -0.109,-9.897 c 0,0 -0.548,-13.387 -14.466,-12.766 -5.437,0.247 -12.574,3.744 -16.284,5.982 -3.784,5.437 -2.61,16.35 -2.957,19.229 l 2.545,2.139 c 0,0 0.147,-8.306 3.025,-9.202 2.879,-0.904 4.259,4.204 9.833,4.67 5.574,0.475 12.236,0.101 14.292,-1.115 2.057,-1.225 1.225,-3.728 2.65,-3.555 C -0.118,-4.35 -0.009,-0.42 0,0"
                   style="fill:#2f241c;fill-opacity:1;fill-rule:nonzero;stroke:none"
                   id="path318" />
              </g>
            </g>
          </g>
        </g>
        <g
           id="g326"
           transform="translate(391.251,362.7441)">
          <path
             d="m 0,0 c 0,0 2.864,-3.668 3.777,-3.538 0.914,0.131 2.089,1.627 2.481,2.576 0.391,0.949 -3.129,6.672 -3.129,6.672 0,0 6.654,6.157 7.698,12.945 0,0 3.987,-1.175 11.734,-1.305 7.746,-0.131 15.332,0.391 15.332,0.391 0,0 -5.344,10.183 -21.819,8.877 C -0.399,25.313 -4.246,15.261 -4.246,15.261 V 7.037 Z"
             style="fill:#2f241c;fill-opacity:1;fill-rule:nonzero;stroke:none"
             id="path328" />
        </g>
        <g
           id="g330"
           transform="translate(397.3789,391.4512)">
          <path
             d="m 0,0 c 0,0 -0.131,13.055 -11.88,14.36 -11.749,1.306 -20.104,-15.926 -11.88,-22.323 8.225,-6.397 13.743,-4.742 13.743,-4.742 z"
             style="fill:#2f241c;fill-opacity:1;fill-rule:nonzero;stroke:none"
             id="path332" />
        </g>
        <g
           id="g334"
           transform="translate(408.1094,370.748)">
          <path
             d="m 0,0 c -3.656,-0.37 -6.329,-3.646 -5.96,-7.3 0.37,-3.656 3.646,-6.329 7.302,-5.959 3.655,0.37 6.328,3.645 5.958,7.301 C 6.931,-2.303 3.655,0.37 0,0 m 1.457,-14.407 c -4.289,-0.434 -8.131,2.701 -8.564,6.991 -0.435,4.288 2.701,8.13 6.991,8.564 4.289,0.434 8.131,-2.702 8.564,-6.99 0.434,-4.289 -2.701,-8.131 -6.991,-8.565"
             style="fill:#fdfeff;fill-opacity:1;fill-rule:nonzero;stroke:none"
             id="path336" />
        </g>
        <g
           id="g338"
           transform="translate(426.1357,370.2593)">
          <path
             d="m 0,0 c -3.655,-0.37 -6.328,-3.645 -5.959,-7.3 0.37,-3.655 3.646,-6.328 7.301,-5.958 3.656,0.369 6.329,3.645 5.96,7.3 C 6.932,-2.303 3.656,0.37 0,0 m 1.458,-14.406 c -4.289,-0.435 -8.131,2.701 -8.564,6.99 -0.435,4.289 2.701,8.13 6.99,8.564 4.29,0.435 8.132,-2.702 8.565,-6.989 0.434,-4.29 -2.702,-8.131 -6.991,-8.565"
             style="fill:#fdfeff;fill-opacity:1;fill-rule:nonzero;stroke:none"
             id="path340" />
        </g>
        <g
           id="g342"
           transform="translate(419.1436,363.0386)">
          <path
             d="M 0,0 C -1.161,1.287 -2.532,0.291 -2.686,0.172 L -3.397,1.08 c 0.8,0.635 2.724,1.389 4.253,-0.307 z"
             style="fill:#fdfeff;fill-opacity:1;fill-rule:nonzero;stroke:none"
             id="path344" />
        </g>
        <g
           id="g346"
           transform="translate(400.8496,363.4658)">
          <path
             d="m 0,0 c -0.209,-0.112 -0.458,-0.146 -0.675,-0.074 -0.101,0.02 -1.68,0.283 -7.074,-1.737 -0.414,-0.155 -0.839,0.007 -0.947,0.362 -0.113,0.355 0.142,0.777 0.55,0.922 6.207,2.325 7.943,1.879 8.229,1.765 C 0.451,1.092 0.569,0.683 0.35,0.325 0.264,0.186 0.141,0.076 0,0"
             style="fill:#fdfeff;fill-opacity:1;fill-rule:nonzero;stroke:none"
             id="path348" />
        </g>
        <g
           id="g350"
           transform="translate(434.332,364.3545)">
          <path
             d="m 0,0 c -0.121,-0.076 -0.265,-0.12 -0.414,-0.115 -1.228,0.033 -3.072,-0.831 -3.68,-1.167 -0.34,-0.189 -0.757,-0.081 -0.929,0.238 -0.174,0.319 -0.043,0.734 0.302,0.919 0.104,0.058 2.56,1.403 4.43,1.352 C 0.09,1.217 0.37,0.908 0.335,0.537 0.314,0.312 0.185,0.117 0,0"
             style="fill:#fdfeff;fill-opacity:1;fill-rule:nonzero;stroke:none"
             id="path352" />
        </g>
      </g>
    </g>
  </g>
</svg>
