<?xml version="1.0" encoding="UTF-8" standalone="no"?>
<!-- Created with Inkscape (http://www.inkscape.org/) -->

<svg
   width="49.208973mm"
   height="49.208973mm"
   viewBox="0 0 49.208974 49.208973"
   version="1.1"
   id="svg26036"
   inkscape:version="1.2 (dc2aedaf03, 2022-05-15)"
   sodipodi:docname="14.svg"
   xmlns:inkscape="http://www.inkscape.org/namespaces/inkscape"
   xmlns:sodipodi="http://sodipodi.sourceforge.net/DTD/sodipodi-0.dtd"
   xmlns="http://www.w3.org/2000/svg"
   xmlns:svg="http://www.w3.org/2000/svg">
  <sodipodi:namedview
     id="namedview26038"
     pagecolor="#505050"
     bordercolor="#eeeeee"
     borderopacity="1"
     inkscape:showpageshadow="0"
     inkscape:pageopacity="0"
     inkscape:pagecheckerboard="0"
     inkscape:deskcolor="#505050"
     inkscape:document-units="mm"
     showgrid="false"
     inkscape:zoom="0.49798681"
     inkscape:cx="457.84345"
     inkscape:cy="232.9379"
     inkscape:window-width="1366"
     inkscape:window-height="699"
     inkscape:window-x="0"
     inkscape:window-y="0"
     inkscape:window-maximized="1"
     inkscape:current-layer="layer1" />
  <defs
     id="defs26033">
    <clipPath
       clipPathUnits="userSpaceOnUse"
       id="clipPath2909">
      <path
         d="m 38.013,402.153 c 0,-34.16 27.692,-61.852 61.853,-61.852 v 0 c 34.16,0 61.852,27.692 61.852,61.852 v 0 c 0,34.161 -27.692,61.853 -61.852,61.853 v 0 c -34.161,0 -61.853,-27.692 -61.853,-61.853"
         id="path2907" />
    </clipPath>
    <clipPath
       clipPathUnits="userSpaceOnUse"
       id="clipPath12579">
      <path
         d="m -161.7186,97.847 h 500 v -500 h -500 z"
         id="path12581"
         style="stroke-width:0.999998" />
    </clipPath>
    <clipPath
       clipPathUnits="userSpaceOnUse"
       id="clipPath12575">
      <path
         d="m -311.8526,97.847 h 500 v -500 h -500 z"
         id="path12577"
         style="stroke-width:0.999998" />
    </clipPath>
    <clipPath
       clipPathUnits="userSpaceOnUse"
       id="clipPath3185">
      <path
         d="m 188.148,402.153 c 0,-34.16 27.692,-61.852 61.852,-61.852 v 0 c 34.161,0 61.853,27.692 61.853,61.852 v 0 c 0,34.161 -27.692,61.853 -61.853,61.853 v 0 c -34.16,0 -61.852,-27.692 -61.852,-61.853"
         id="path3183" />
    </clipPath>
    <clipPath
       clipPathUnits="userSpaceOnUse"
       id="clipPath12571">
      <path
         d="m -461.9866,97.847 h 500 v -500 h -500 z"
         id="path12573"
         style="stroke-width:0.999998" />
    </clipPath>
    <clipPath
       clipPathUnits="userSpaceOnUse"
       id="clipPath3533">
      <path
         d="m 338.281,402.153 c 0,-34.16 27.692,-61.852 61.853,-61.852 v 0 c 34.16,0 61.852,27.692 61.852,61.852 v 0 c 0,34.161 -27.692,61.853 -61.852,61.853 v 0 c -34.161,0 -61.853,-27.692 -61.853,-61.853"
         id="path3531" />
    </clipPath>
    <clipPath
       clipPathUnits="userSpaceOnUse"
       id="clipPath3609">
      <path
         d="m 370.232,358.302 h 14.005 v -17.261 h -14.005 z"
         id="path3607" />
    </clipPath>
    <clipPath
       clipPathUnits="userSpaceOnUse"
       id="clipPath3625">
      <path
         d="m 378.264,345.649 h 10.426 v -12.95 h -10.426 z"
         id="path3623" />
    </clipPath>
    <clipPath
       clipPathUnits="userSpaceOnUse"
       id="clipPath3641">
      <path
         d="M 368.258,311.851 H 378.79 V 288.93 h -10.532 z"
         id="path3639" />
    </clipPath>
    <clipPath
       clipPathUnits="userSpaceOnUse"
       id="clipPath3661">
      <path
         d="m 370.39,358.2 h 13.847 V 341.041 H 370.39 Z"
         id="path3659" />
    </clipPath>
    <clipPath
       clipPathUnits="userSpaceOnUse"
       id="clipPath3677">
      <path
         d="m 378.254,345.648 h 10.509 v -12.945 h -10.509 z"
         id="path3675" />
    </clipPath>
    <clipPath
       clipPathUnits="userSpaceOnUse"
       id="clipPath3693">
      <path
         d="m 387.457,316.052 h 10.509 v -12.945 h -10.509 z"
         id="path3691" />
    </clipPath>
    <clipPath
       clipPathUnits="userSpaceOnUse"
       id="clipPath3709">
      <path
         d="m 422.49,355.84 h 10.943 v -8.884 H 422.49 Z"
         id="path3707" />
    </clipPath>
    <clipPath
       clipPathUnits="userSpaceOnUse"
       id="clipPath3725">
      <path
         d="m 403.506,358.544 h 24.455 V 328.6 h -24.455 z"
         id="path3723" />
    </clipPath>
    <clipPath
       clipPathUnits="userSpaceOnUse"
       id="clipPath3741">
      <path
         d="m 368.256,311.853 h 24.456 v -29.945 h -24.456 z"
         id="path3739" />
    </clipPath>
    <clipPath
       clipPathUnits="userSpaceOnUse"
       id="clipPath3757">
      <path
         d="m 402.97,365.665 h 11.114 V 352.399 H 402.97 Z"
         id="path3755" />
    </clipPath>
    <clipPath
       clipPathUnits="userSpaceOnUse"
       id="clipPath3773">
      <path
         d="m 422.404,304.81 h 11.114 v -13.266 h -11.114 z"
         id="path3771" />
    </clipPath>
    <clipPath
       clipPathUnits="userSpaceOnUse"
       id="clipPath3849">
      <path
         d="m 387.459,311.51 h 10.391 v -8.401 h -10.391 z"
         id="path3847" />
    </clipPath>
    <clipPath
       clipPathUnits="userSpaceOnUse"
       id="clipPath3865">
      <path
         d="m 422.49,355.84 h 10.943 v -8.884 H 422.49 Z"
         id="path3863" />
    </clipPath>
    <clipPath
       clipPathUnits="userSpaceOnUse"
       id="clipPath3881">
      <path
         d="m 413.34,358.54 h 14.622 V 328.599 H 413.34 Z"
         id="path3879" />
    </clipPath>
    <clipPath
       clipPathUnits="userSpaceOnUse"
       id="clipPath3897">
      <path
         d="m 378.28,311.1 h 14.435 V 281.904 H 378.28 Z"
         id="path3895" />
    </clipPath>
    <clipPath
       clipPathUnits="userSpaceOnUse"
       id="clipPath3913">
      <path
         d="m 412.49,364.64 h 1.589 v -8.74 h -1.589 z"
         id="path3911" />
    </clipPath>
    <clipPath
       clipPathUnits="userSpaceOnUse"
       id="clipPath3929">
      <path
         d="m 422.404,304.81 h 11.114 v -13.266 h -11.114 z"
         id="path3927" />
    </clipPath>
    <clipPath
       clipPathUnits="userSpaceOnUse"
       id="clipPath4509">
      <path
         d="m 188.148,97.847 c 0,-34.16 27.692,-61.852 61.852,-61.852 v 0 c 34.161,0 61.853,27.692 61.853,61.852 v 0 c 0,34.16 -27.692,61.853 -61.853,61.853 v 0 c -34.16,0 -61.852,-27.693 -61.852,-61.853"
         id="path4507" />
    </clipPath>
    <clipPath
       clipPathUnits="userSpaceOnUse"
       id="clipPath12551">
      <path
         d="m -311.8526,402.153 h 500 v -500 h -500 z"
         id="path12553"
         style="stroke-width:0.999998" />
    </clipPath>
    <clipPath
       clipPathUnits="userSpaceOnUse"
       id="clipPath12547">
      <path
         d="m -461.9866,402.153 h 500 v -500 h -500 z"
         id="path12549"
         style="stroke-width:0.999998" />
    </clipPath>
    <clipPath
       clipPathUnits="userSpaceOnUse"
       id="clipPath4289">
      <path
         d="m 338.281,97.847 c 0,-34.16 27.692,-61.852 61.853,-61.852 v 0 c 34.16,0 61.852,27.692 61.852,61.852 v 0 c 0,34.16 -27.692,61.853 -61.852,61.853 v 0 c -34.161,0 -61.853,-27.693 -61.853,-61.853"
         id="path4287" />
    </clipPath>
    <clipPath
       clipPathUnits="userSpaceOnUse"
       id="clipPath4461">
      <path
         d="m 411.287,122.855 h 3.234 v -3.577 h -3.234 z"
         id="path4459" />
    </clipPath>
    <clipPath
       clipPathUnits="userSpaceOnUse"
       id="clipPath4481">
      <path
         d="m 414.553,120.557 h 2.492 v -3.675 h -2.492 z"
         id="path4479" />
    </clipPath>
    <clipPath
       clipPathUnits="userSpaceOnUse"
       id="clipPath12559">
      <path
         d="m -461.9866,250 h 500 v -500 h -500 z"
         id="path12561"
         style="stroke-width:0.999998" />
    </clipPath>
    <clipPath
       clipPathUnits="userSpaceOnUse"
       id="clipPath1909">
      <path
         d="m 338.281,250 c 0,-34.16 27.692,-61.852 61.853,-61.852 v 0 c 34.16,0 61.852,27.692 61.852,61.852 v 0 c 0,34.161 -27.692,61.853 -61.852,61.853 v 0 c -34.161,0 -61.853,-27.692 -61.853,-61.853"
         id="path1907" />
    </clipPath>
    <clipPath
       clipPathUnits="userSpaceOnUse"
       id="clipPath2001">
      <path
         d="m 378.783,231.372 h 45.306 v -29.375 h -45.306 z"
         id="path1999" />
    </clipPath>
    <clipPath
       clipPathUnits="userSpaceOnUse"
       id="clipPath2089">
      <path
         d="m 393.47,206.633 h 7.35 v -32.752 h -7.35 z"
         id="path2087" />
    </clipPath>
    <clipPath
       clipPathUnits="userSpaceOnUse"
       id="clipPath2117">
      <path
         d="m 380.559,207.88 h 4.889 v -29.926 h -4.889 z"
         id="path2115" />
    </clipPath>
    <clipPath
       clipPathUnits="userSpaceOnUse"
       id="clipPath12555">
      <path
         d="m -161.7186,402.153 h 500 v -500 h -500 z"
         id="path12557"
         style="stroke-width:0.999998" />
    </clipPath>
    <clipPath
       clipPathUnits="userSpaceOnUse"
       id="clipPath4081">
      <path
         d="m 38.013,97.847 c 0,-34.16 27.692,-61.852 61.853,-61.852 v 0 c 34.16,0 61.852,27.692 61.852,61.852 v 0 c 0,34.16 -27.692,61.853 -61.852,61.853 v 0 c -34.161,0 -61.853,-27.693 -61.853,-61.853"
         id="path4079" />
    </clipPath>
    <clipPath
       clipPathUnits="userSpaceOnUse"
       id="clipPath12567">
      <path
         d="m -161.7186,250 h 500 v -500 h -500 z"
         id="path12569"
         style="stroke-width:0.999998" />
    </clipPath>
    <clipPath
       clipPathUnits="userSpaceOnUse"
       id="clipPath2133">
      <path
         d="m 38.013,250 c 0,-34.16 27.692,-61.852 61.853,-61.852 v 0 c 34.16,0 61.852,27.692 61.852,61.852 v 0 c 0,34.161 -27.692,61.853 -61.852,61.853 v 0 C 65.705,311.853 38.013,284.161 38.013,250"
         id="path2131" />
    </clipPath>
    <clipPath
       clipPathUnits="userSpaceOnUse"
       id="clipPath12563">
      <path
         d="m -311.8526,250 h 500 v -500 h -500 z"
         id="path12565"
         style="stroke-width:0.999998" />
    </clipPath>
    <clipPath
       clipPathUnits="userSpaceOnUse"
       id="clipPath2449">
      <path
         d="m 188.148,250 c 0,-34.16 27.692,-61.852 61.852,-61.852 v 0 c 34.161,0 61.853,27.692 61.853,61.852 v 0 c 0,34.161 -27.692,61.853 -61.853,61.853 v 0 c -34.16,0 -61.852,-27.692 -61.852,-61.853"
         id="path2447" />
    </clipPath>
    <clipPath
       clipPathUnits="userSpaceOnUse"
       id="clipPath32">
      <path
         d="m 26.289,344.363 c 0,-38.519 31.226,-69.744 69.746,-69.744 v 0 c 38.519,0 69.744,31.225 69.744,69.744 v 0 c 0,38.52 -31.225,69.746 -69.744,69.746 v 0 c -38.52,0 -69.746,-31.226 -69.746,-69.746"
         id="path30" />
    </clipPath>
    <clipPath
       clipPathUnits="userSpaceOnUse"
       id="clipPath20">
      <path
         d="M 0,500 H 500 V 0 H 0 Z"
         id="path18" />
    </clipPath>
    <clipPath
       clipPathUnits="userSpaceOnUse"
       id="clipPath132">
      <path
         d="M 0,500 H 500 V 0 H 0 Z"
         id="path130" />
    </clipPath>
    <clipPath
       clipPathUnits="userSpaceOnUse"
       id="clipPath144">
      <path
         d="m 180.436,344.363 c 0,-38.519 31.226,-69.744 69.745,-69.744 v 0 c 38.518,0 69.745,31.225 69.745,69.744 v 0 c 0,38.52 -31.227,69.746 -69.745,69.746 v 0 c -38.519,0 -69.745,-31.226 -69.745,-69.746"
         id="path142" />
    </clipPath>
    <clipPath
       clipPathUnits="userSpaceOnUse"
       id="clipPath224">
      <path
         d="M 0,500 H 500 V 0 H 0 Z"
         id="path222" />
    </clipPath>
    <clipPath
       clipPathUnits="userSpaceOnUse"
       id="clipPath236">
      <path
         d="m 334.573,344.363 c 0,-38.519 31.226,-69.744 69.746,-69.744 v 0 c 38.518,0 69.744,31.225 69.744,69.744 v 0 c 0,38.52 -31.226,69.746 -69.744,69.746 v 0 c -38.52,0 -69.746,-31.226 -69.746,-69.746"
         id="path234" />
    </clipPath>
    <clipPath
       clipPathUnits="userSpaceOnUse"
       id="clipPath316">
      <path
         d="m 395.486,360.237 h 33.816 v -27.372 h -33.816 z"
         id="path314" />
    </clipPath>
    <clipPath
       clipPathUnits="userSpaceOnUse"
       id="clipPath592">
      <path
         d="M 0,500 H 500 V 0 H 0 Z"
         id="path590" />
    </clipPath>
    <clipPath
       clipPathUnits="userSpaceOnUse"
       id="clipPath604">
      <path
         d="m 25.226,155.636 c 0,-38.519 31.226,-69.745 69.746,-69.745 v 0 c 38.518,0 69.744,31.226 69.744,69.745 v 0 c 0,38.519 -31.226,69.745 -69.744,69.745 v 0 c -38.52,0 -69.746,-31.226 -69.746,-69.745"
         id="path602" />
    </clipPath>
    <clipPath
       clipPathUnits="userSpaceOnUse"
       id="clipPath472">
      <path
         d="M 0,500 H 500 V 0 H 0 Z"
         id="path470" />
    </clipPath>
    <clipPath
       clipPathUnits="userSpaceOnUse"
       id="clipPath484">
      <path
         d="m 179.475,155.636 c 0,-38.519 31.227,-69.745 69.746,-69.745 v 0 c 38.519,0 69.744,31.226 69.744,69.745 v 0 c 0,38.519 -31.225,69.745 -69.744,69.745 v 0 c -38.519,0 -69.746,-31.226 -69.746,-69.745"
         id="path482" />
    </clipPath>
  </defs>
  <g
     inkscape:label="Layer 1"
     inkscape:groupmode="layer"
     id="layer1"
     transform="translate(17.091888,-85.980689)">
    <g
       id="g466"
       transform="matrix(0.35277777,0,0,-0.35277777,-80.40696,165.48999)">
      <g
         id="g468"
         clip-path="url(#clipPath472)">
        <g
           id="g474"
           transform="translate(318.9658,155.6357)">
          <path
             d="m 0,0 c 0,-38.519 -31.226,-69.745 -69.745,-69.745 -38.519,0 -69.745,31.226 -69.745,69.745 0,38.52 31.226,69.745 69.745,69.745 C -31.226,69.745 0,38.52 0,0"
             style="fill:#dfdfdf;fill-opacity:1;fill-rule:nonzero;stroke:none"
             id="path476" />
        </g>
      </g>
    </g>
    <g
       id="g478"
       transform="matrix(0.35277777,0,0,-0.35277777,-80.40696,165.48999)">
      <g
         id="g480"
         clip-path="url(#clipPath484)">
        <g
           id="g486"
           transform="translate(238.0107,207.6553)">
          <path
             d="m 0,0 c 0,0 -12.523,-0.853 -19.379,-11.015 -6.857,-10.163 -4.526,-23.738 -1.509,-35.12 3.017,-11.382 -8.639,-24.905 -6.033,-34.462 C -24.316,-90.152 0,-84.017 0,-84.017 Z"
             style="fill:#836159;fill-opacity:1;fill-rule:nonzero;stroke:none"
             id="path488" />
        </g>
        <g
           id="g490"
           transform="translate(273.1465,160.4531)">
          <path
             d="m 0,0 c 0,0 -1.093,-4.967 3.05,-15.525 4.142,-10.559 -4.44,-19.746 -4.44,-19.746 l -14.761,4.799 2.078,27.059 z"
             style="fill:#836159;fill-opacity:1;fill-rule:nonzero;stroke:none"
             id="path492" />
        </g>
        <g
           id="g494"
           transform="translate(277.9707,188.123)">
          <path
             d="m 0,0 c 0,0 1.201,-13.508 -4.729,-17.381 -5.93,-3.874 -1.485,13.583 -1.485,13.583 z"
             style="fill:#836159;fill-opacity:1;fill-rule:nonzero;stroke:none"
             id="path496" />
        </g>
        <g
           id="g498"
           transform="translate(301.7305,82.8096)">
          <path
             d="m 0,0 -109.581,3.709 c 0,0 1.737,20.292 7.247,31.657 0.605,1.238 1.248,2.381 1.949,3.369 9.224,13.161 33.989,17.672 33.989,17.672 l 27.492,-2.601 c 0,0 13.285,-2.006 22.029,-10.348 1.689,-1.612 3.312,-4.099 4.828,-7.046 C -5.74,24.136 0,0 0,0"
             style="fill:#2a3c69;fill-opacity:1;fill-rule:nonzero;stroke:none"
             id="path500" />
        </g>
        <g
           id="g502"
           transform="translate(260,133.5908)">
          <path
             d="m 0,0 c -5.392,-21.944 -26.581,-1.835 -27.381,5.625 3.342,10.495 2.224,21.716 2.224,21.716 L 0.206,18.365 C 0.147,17.625 0.088,16.882 0.028,16.136 -0.25,12.694 -0.515,9.175 -0.42,5.456 -0.374,3.688 -0.247,1.874 0,0"
             style="fill:#fe9780;fill-opacity:1;fill-rule:nonzero;stroke:none"
             id="path504" />
        </g>
        <g
           id="g506"
           transform="translate(259.5801,139.0469)">
          <path
             d="M 0,0 C -13.309,2.912 -22,16.589 -22,16.589 L 0.448,10.68 C 0.17,7.238 -0.095,3.719 0,0"
             style="fill:#081925;fill-opacity:1;fill-rule:nonzero;stroke:none"
             id="path508" />
        </g>
        <g
           id="g510"
           transform="translate(265.6875,170.7764)">
          <path
             d="m 0,0 c 0,0 1.914,6.245 6.997,4.873 5.083,-1.372 5.43,-18.237 -4.223,-17.8 z"
             style="fill:#fe6c5b;fill-opacity:1;fill-rule:nonzero;stroke:none"
             id="path512" />
        </g>
        <g
           id="g514"
           transform="translate(273.2227,171.9014)">
          <path
             d="m 0,0 c -0.006,-0.557 -0.033,-1.149 -0.082,-1.775 -0.05,-0.699 -0.128,-1.43 -0.231,-2.196 -0.117,-0.875 -0.266,-1.791 -0.444,-2.731 -0.104,-0.568 -0.221,-1.141 -0.347,-1.723 -1.959,-9.035 -5.74,-13.179 -10.066,-15.292 -7.126,-3.481 -24.787,4.031 -27.539,10.72 -1.99,4.835 -1.958,2.834 -2.487,15.857 -0.533,13.024 4.775,20.187 4.775,20.187 7.192,8.242 20.051,7.006 28.404,1.557 C 0.341,19.16 0.072,9.019 0,0"
             style="fill:#fe9780;fill-opacity:1;fill-rule:nonzero;stroke:none"
             id="path516" />
        </g>
        <g
           id="g518"
           transform="translate(261.9619,159.9219)">
          <path
             d="m 0,0 c -0.631,-0.106 -1.348,-0.141 -2.159,-0.064 -4.2,0.391 -7.37,3.716 -7.502,3.858 C -9.864,4.01 -9.854,4.35 -9.638,4.553 -9.422,4.756 -9.083,4.746 -8.879,4.53 -8.85,4.498 -5.848,1.358 -2.059,1.005 1.693,0.655 3.007,3.01 3.02,3.034 3.16,3.295 3.486,3.394 3.747,3.252 4.008,3.112 4.106,2.786 3.966,2.524 3.911,2.425 2.828,0.479 0,0"
             style="fill:#2f241c;fill-opacity:1;fill-rule:nonzero;stroke:none"
             id="path520" />
        </g>
        <g
           id="g522"
           transform="translate(262.9268,156.8428)">
          <path
             d="M 0,0 C 0.255,0.181 0.403,0.315 0.427,0.338 0.716,0.604 0.733,1.054 0.467,1.342 0.201,1.63 -0.246,1.651 -0.536,1.383 -0.621,1.306 -2.534,-0.394 -4.975,0.509 -5.343,0.646 -5.751,0.457 -5.888,0.089 -6.023,-0.279 -5.835,-0.688 -5.467,-0.824 -2.938,-1.76 -0.861,-0.614 0,0"
             style="fill:#fe6c5b;fill-opacity:1;fill-rule:nonzero;stroke:none"
             id="path524" />
        </g>
        <g
           id="g526"
           transform="translate(259.7754,165.4971)">
          <path
             d="M 0,0 C -0.306,-0.031 -0.632,-0.032 -0.977,0.004 -1.309,0.039 -1.551,0.337 -1.516,0.67 -1.48,1.003 -1.181,1.243 -0.849,1.209 0.465,1.07 1.417,1.688 1.895,2.1 c -1.89,2.584 -2.911,9.022 -2.957,9.313 -0.051,0.33 0.175,0.64 0.506,0.691 C -0.218,12.153 0.085,11.93 0.137,11.6 0.448,9.597 1.598,4.056 3.145,2.492 3.359,2.273 3.379,1.929 3.188,1.689 3.133,1.619 1.982,0.201 0,0"
             style="fill:#081925;fill-opacity:1;fill-rule:nonzero;stroke:none"
             id="path528" />
        </g>
        <g
           id="g530"
           transform="translate(254.6367,183.8027)">
          <path
             d="m 0,0 c 0,0 -3.392,1.527 -6.45,-0.641 -1.71,-1.211 -0.709,-2.998 1.5,-2.122 1.543,0.613 2.399,0.841 4.171,0.678 C 0.992,-2.248 0.853,-0.27 0,0"
             style="fill:#836159;fill-opacity:1;fill-rule:nonzero;stroke:none"
             id="path532" />
        </g>
        <g
           id="g534"
           transform="translate(264.5635,183.2891)">
          <path
             d="M 0,0 C 0,0 3.472,1.336 6.404,-0.999 8.043,-2.304 6.944,-4.032 4.788,-3.034 3.281,-2.337 2.439,-2.061 0.661,-2.125 -1.116,-2.188 -0.866,-0.221 0,0"
             style="fill:#836159;fill-opacity:1;fill-rule:nonzero;stroke:none"
             id="path536" />
        </g>
        <g
           id="g538"
           transform="translate(235.2817,176.4258)">
          <path
             d="m 0,0 c 0,0 -3.034,5.228 -8.344,2.883 -5.309,-2.345 -2.87,-20.78 7.575,-18.691 z"
             style="fill:#fe9780;fill-opacity:1;fill-rule:nonzero;stroke:none"
             id="path540" />
        </g>
        <g
           id="g542"
           transform="translate(236.1841,186.3682)">
          <path
             d="m 0,0 c 0,0 2.947,-5.824 1.354,-9.198 -1.591,-3.374 -1.261,-7.371 -1.261,-7.371 0,0 -6.021,4.931 -4.54,12.767 C -2.965,4.033 0,0 0,0"
             style="fill:#836159;fill-opacity:1;fill-rule:nonzero;stroke:none"
             id="path544" />
        </g>
        <g
           id="g546"
           transform="translate(233.1001,167.8027)">
          <path
             d="m 0,0 c 0.069,-0.268 -0.09,-0.54 -0.357,-0.609 -0.038,-0.01 -0.072,-0.016 -0.108,-0.018 -0.229,-0.009 -0.442,0.146 -0.501,0.375 -0.009,0.03 -0.477,1.773 -1.737,3.355 -1.024,-0.92 -1.838,-1.771 -1.849,-1.781 -0.094,-0.1 -0.218,-0.15 -0.343,-0.154 -0.128,-0.005 -0.259,0.04 -0.363,0.136 -0.198,0.19 -0.204,0.507 -0.015,0.707 0.037,0.039 0.851,0.889 1.9,1.834 -0.797,0.774 -1.825,1.423 -3.13,1.671 -0.27,0.052 -0.447,0.313 -0.394,0.583 0.051,0.273 0.312,0.449 0.582,0.397 C -1.499,5.574 -0.059,0.227 0,0"
             style="fill:#081925;fill-opacity:1;fill-rule:nonzero;stroke:none"
             id="path548" />
        </g>
        <g
           id="g550"
           transform="translate(250.1562,180.0723)">
          <path
             d="m 0,0 c -3.84,-0.389 -6.648,-3.829 -6.26,-7.668 0.389,-3.84 3.829,-6.648 7.669,-6.26 3.84,0.389 6.649,3.829 6.26,7.669 C 7.28,-2.42 3.84,0.389 0,0 m 1.531,-15.134 c -4.505,-0.456 -8.54,2.838 -8.996,7.344 -0.456,4.504 2.838,8.54 7.343,8.995 4.506,0.456 8.541,-2.837 8.997,-7.342 0.456,-4.506 -2.838,-8.541 -7.344,-8.997"
             style="fill:#fdfeff;fill-opacity:1;fill-rule:nonzero;stroke:none"
             id="path552" />
        </g>
        <g
           id="g554"
           transform="translate(270.624,164.4258)">
          <path
             d="m 0,0 c -4.506,-0.456 -8.541,2.838 -8.997,7.344 -0.456,4.504 2.838,8.539 7.344,8.995 C 2.852,16.795 6.888,13.501 7.344,8.997 7.799,4.491 4.505,0.456 0,0 m -1.531,15.133 c -3.84,-0.388 -6.649,-3.828 -6.26,-7.668 0.389,-3.84 3.829,-6.648 7.669,-6.259 3.84,0.389 6.648,3.829 6.26,7.669 -0.389,3.839 -3.829,6.646 -7.669,6.258"
             style="fill:#fdfeff;fill-opacity:1;fill-rule:nonzero;stroke:none"
             id="path556" />
        </g>
        <g
           id="g558"
           transform="translate(261.7471,171.9736)">
          <path
             d="M 0,0 C -1.22,1.353 -2.659,0.306 -2.82,0.182 L -3.568,1.135 C -2.728,1.802 -0.707,2.594 0.9,0.812 Z"
             style="fill:#fdfeff;fill-opacity:1;fill-rule:nonzero;stroke:none"
             id="path560" />
        </g>
        <g
           id="g562"
           transform="translate(243.418,174.6807)">
          <path
             d="M 0,0 C -0.178,-0.019 -0.363,0.043 -0.496,0.181 -0.562,0.233 -1.601,1.02 -5.952,1.28 -6.286,1.3 -6.541,1.587 -6.52,1.921 -6.501,2.256 -6.207,2.516 -5.879,2.489 -0.873,2.19 0.228,1.195 0.397,0.999 0.617,0.745 0.587,0.362 0.335,0.145 0.236,0.06 0.12,0.012 0,0"
             style="fill:#fdfeff;fill-opacity:1;fill-rule:nonzero;stroke:none"
             id="path564" />
        </g>
        <g
           id="g566"
           transform="translate(277.4258,172.7588)">
          <path
             d="M 0,0 C -0.123,-0.012 -0.25,0.012 -0.364,0.079 -1.3,0.618 -3.054,0.68 -3.651,0.657 -3.985,0.645 -4.267,0.906 -4.279,1.241 -4.291,1.575 -4.032,1.86 -3.695,1.868 -3.594,1.872 -1.185,1.95 0.241,1.127 0.532,0.961 0.631,0.59 0.463,0.3 0.361,0.125 0.187,0.019 0,0"
             style="fill:#fdfeff;fill-opacity:1;fill-rule:nonzero;stroke:none"
             id="path568" />
        </g>
        <g
           id="g570"
           transform="translate(249.7935,211.957)">
          <path
             d="m 0,0 c 0,0 17.908,1.06 25.499,-9.827 7.591,-10.886 1.239,-20.724 1.239,-20.724 0,0 -11.119,-2.208 -25.155,13.133 0,0 -1.335,-12.508 -11.718,-13.133 -10.383,-0.626 -7.936,9.18 -7.936,9.18 0,0 -3.973,18.475 18.071,21.371"
             style="fill:#836159;fill-opacity:1;fill-rule:nonzero;stroke:none"
             id="path572" />
        </g>
        <g
           id="g574"
           transform="translate(252.3936,173.8418)">
          <path
             d="m 0,0 c 0.055,-1.431 -0.587,-2.616 -1.434,-2.648 -0.847,-0.033 -1.577,1.101 -1.631,2.531 -0.055,1.43 0.587,2.615 1.434,2.648 C -0.785,2.563 -0.055,1.43 0,0"
             style="fill:#081925;fill-opacity:1;fill-rule:nonzero;stroke:none"
             id="path576" />
        </g>
        <g
           id="g578"
           transform="translate(267.5244,173.167)">
          <path
             d="m 0,0 c 0.055,-1.431 -0.588,-2.616 -1.435,-2.648 -0.845,-0.033 -1.577,1.101 -1.63,2.531 -0.055,1.43 0.586,2.616 1.433,2.648 C -0.785,2.563 -0.055,1.43 0,0"
             style="fill:#081925;fill-opacity:1;fill-rule:nonzero;stroke:none"
             id="path580" />
        </g>
        <g
           id="g582"
           transform="translate(289.6836,119.2217)">
          <path
             d="m 0,0 c -8.216,-1.689 -22.461,-3.638 -45.825,-4.185 -31.58,-0.739 -41.429,1.718 -44.462,3.139 0.604,1.238 1.248,2.381 1.949,3.369 9.224,13.16 33.989,17.672 33.989,17.672 l 27.492,-2.601 c 0,0 13.285,-2.006 22.029,-10.348 C -3.139,5.434 -1.517,2.947 0,0"
             style="fill:#fe9780;fill-opacity:1;fill-rule:nonzero;stroke:none"
             id="path584" />
        </g>
      </g>
    </g>
  </g>
</svg>
