<?xml version="1.0" encoding="UTF-8" standalone="no"?>
<!-- Created with Inkscape (http://www.inkscape.org/) -->

<svg
   width="43.640514mm"
   height="43.640728mm"
   viewBox="0 0 43.640515 43.640728"
   version="1.1"
   id="svg26036"
   inkscape:version="1.2 (dc2aedaf03, 2022-05-15)"
   sodipodi:docname="2.svg"
   xmlns:inkscape="http://www.inkscape.org/namespaces/inkscape"
   xmlns:sodipodi="http://sodipodi.sourceforge.net/DTD/sodipodi-0.dtd"
   xmlns="http://www.w3.org/2000/svg"
   xmlns:svg="http://www.w3.org/2000/svg">
  <sodipodi:namedview
     id="namedview26038"
     pagecolor="#505050"
     bordercolor="#eeeeee"
     borderopacity="1"
     inkscape:showpageshadow="0"
     inkscape:pageopacity="0"
     inkscape:pagecheckerboard="0"
     inkscape:deskcolor="#505050"
     inkscape:document-units="mm"
     showgrid="false"
     inkscape:zoom="0.49798681"
     inkscape:cx="-58.234474"
     inkscape:cy="327.3179"
     inkscape:window-width="1366"
     inkscape:window-height="699"
     inkscape:window-x="0"
     inkscape:window-y="0"
     inkscape:window-maximized="1"
     inkscape:current-layer="layer1" />
  <defs
     id="defs26033">
    <clipPath
       clipPathUnits="userSpaceOnUse"
       id="clipPath2909">
      <path
         d="m 38.013,402.153 c 0,-34.16 27.692,-61.852 61.853,-61.852 v 0 c 34.16,0 61.852,27.692 61.852,61.852 v 0 c 0,34.161 -27.692,61.853 -61.852,61.853 v 0 c -34.161,0 -61.853,-27.692 -61.853,-61.853"
         id="path2907" />
    </clipPath>
    <clipPath
       clipPathUnits="userSpaceOnUse"
       id="clipPath12579">
      <path
         d="m -161.7186,97.847 h 500 v -500 h -500 z"
         id="path12581"
         style="stroke-width:0.999998" />
    </clipPath>
    <clipPath
       clipPathUnits="userSpaceOnUse"
       id="clipPath12575">
      <path
         d="m -311.8526,97.847 h 500 v -500 h -500 z"
         id="path12577"
         style="stroke-width:0.999998" />
    </clipPath>
    <clipPath
       clipPathUnits="userSpaceOnUse"
       id="clipPath3185">
      <path
         d="m 188.148,402.153 c 0,-34.16 27.692,-61.852 61.852,-61.852 v 0 c 34.161,0 61.853,27.692 61.853,61.852 v 0 c 0,34.161 -27.692,61.853 -61.853,61.853 v 0 c -34.16,0 -61.852,-27.692 -61.852,-61.853"
         id="path3183" />
    </clipPath>
  </defs>
  <g
     inkscape:label="Layer 1"
     inkscape:groupmode="layer"
     id="layer1"
     transform="translate(-120.53298,-62.089138)">
    <g
       id="g1871"
       transform="matrix(0.35277777,0,0,-0.35277777,164.17335,83.909501)"
       clip-path="url(#clipPath12575)">
      <path
         d="m 0,0 c 0,-34.16 -27.692,-61.853 -61.853,-61.853 -34.16,0 -61.852,27.693 -61.852,61.853 0,34.16 27.692,61.853 61.852,61.853 C -27.692,61.853 0,34.16 0,0"
         style="fill:#dfdfdf;fill-opacity:1;fill-rule:nonzero;stroke:none"
         id="path1873" />
    </g>
    <g
       id="g3179"
       transform="matrix(0.35277777,0,0,-0.35277777,54.158683,225.78014)">
      <g
         id="g3181"
         clip-path="url(#clipPath3185)">
        <g
           id="g3187"
           transform="translate(309.1275,254.2502)">
          <path
             d="m 0,0 h -107.049 c -0.448,4.09 15.948,91.079 35.209,119.045 2.185,3.173 20.904,5.483 27.777,-2.41 C -7.661,74.83 0.88,1.003 0,0"
             style="fill:#3c3278;fill-opacity:1;fill-rule:nonzero;stroke:none"
             id="path3189" />
        </g>
        <g
           id="g3191"
           transform="translate(267.36,368.16)">
          <path
             d="m 0,0 h -33.23 c 0.09,0.16 0.18,0.32 0.28,0.48 H -0.39 C -0.26,0.32 -0.13,0.16 0,0"
             style="fill:#d74c9f;fill-opacity:1;fill-rule:nonzero;stroke:none"
             id="path3193" />
        </g>
        <g
           id="g3195"
           transform="translate(274.45,358.57)">
          <path
             d="m 0,0 h -45 c 0.07,0.16 0.14,0.32 0.22,0.48 H -0.32 C -0.21,0.32 -0.1,0.16 0,0"
             style="fill:#d74c9f;fill-opacity:1;fill-rule:nonzero;stroke:none"
             id="path3197" />
        </g>
        <g
           id="g3199"
           transform="translate(280.37,348.97)">
          <path
             d="m 0,0 h -54.79 l 0.18,0.48 h 54.34 z"
             style="fill:#d74c9f;fill-opacity:1;fill-rule:nonzero;stroke:none"
             id="path3201" />
        </g>
        <g
           id="g3203"
           transform="translate(285.44,339.37)">
          <path
             d="m 0,0 h -63.24 c 0.05,0.16 0.11,0.32 0.16,0.48 H -0.24 C -0.16,0.32 -0.08,0.16 0,0"
             style="fill:#d74c9f;fill-opacity:1;fill-rule:nonzero;stroke:none"
             id="path3205" />
        </g>
        <g
           id="g3207"
           transform="translate(289.83,329.77)">
          <path
             d="m 0,0 h -70.67 c 0.04,0.16 0.09,0.32 0.14,0.48 H -0.21 C -0.14,0.32 -0.07,0.16 0,0"
             style="fill:#d74c9f;fill-opacity:1;fill-rule:nonzero;stroke:none"
             id="path3209" />
        </g>
        <g
           id="g3211"
           transform="translate(293.67,320.17)">
          <path
             d="m 0,0 h -77.32 c 0.05,0.16 0.1,0.32 0.14,0.48 h 77 C -0.12,0.32 -0.06,0.16 0,0"
             style="fill:#d74c9f;fill-opacity:1;fill-rule:nonzero;stroke:none"
             id="path3213" />
        </g>
        <g
           id="g3215"
           transform="translate(297.05,310.57)">
          <path
             d="m 0,0 h -83.29 c 0.05,0.16 0.09,0.32 0.13,0.48 h 83 C -0.1,0.32 -0.05,0.16 0,0"
             style="fill:#d74c9f;fill-opacity:1;fill-rule:nonzero;stroke:none"
             id="path3217" />
        </g>
        <g
           id="g3219"
           transform="translate(300.03,300.97)">
          <path
             d="m 0,0 h -88.69 c 0.04,0.16 0.08,0.32 0.12,0.48 H -0.14 C -0.09,0.32 -0.05,0.16 0,0"
             style="fill:#d74c9f;fill-opacity:1;fill-rule:nonzero;stroke:none"
             id="path3221" />
        </g>
        <g
           id="g3223"
           transform="translate(302.64,291.38)">
          <path
             d="m 0,0 h -93.56 c 0.03,0.16 0.07,0.32 0.11,0.48 H -0.12 C -0.08,0.32 -0.04,0.16 0,0"
             style="fill:#d74c9f;fill-opacity:1;fill-rule:nonzero;stroke:none"
             id="path3225" />
        </g>
        <g
           id="g3227"
           transform="translate(304.91,281.78)">
          <path
             d="m 0,0 h -97.96 c 0.04,0.16 0.07,0.32 0.1,0.48 H -0.11 C -0.07,0.32 -0.03,0.16 0,0"
             style="fill:#d74c9f;fill-opacity:1;fill-rule:nonzero;stroke:none"
             id="path3229" />
        </g>
        <g
           id="g3231"
           transform="translate(306.84,272.18)">
          <path
             d="m 0,0 h -101.86 c 0.03,0.16 0.06,0.32 0.09,0.48 H -0.09 C -0.05,0.32 -0.03,0.16 0,0"
             style="fill:#d74c9f;fill-opacity:1;fill-rule:nonzero;stroke:none"
             id="path3233" />
        </g>
        <g
           id="g3235"
           transform="translate(308.4,262.58)">
          <path
             d="m 0,0 h -105.2 c 0.03,0.16 0.05,0.32 0.08,0.48 H -0.07 C -0.04,0.32 -0.02,0.16 0,0"
             style="fill:#d74c9f;fill-opacity:1;fill-rule:nonzero;stroke:none"
             id="path3237" />
        </g>
        <g
           id="g3239"
           transform="translate(234.7502,366.075)">
          <path
             d="m 0,0 c -3.038,-7.871 -14.501,-35.469 -20.732,-55.275 -4.181,-13.291 -5.773,-24.446 -6.688,-27.379 0,0 31.609,10.152 38.726,10.17 10.961,0.027 28.543,-22.864 24.23,-25.732 -6.78,-4.509 -39.098,-19.849 -64.907,-24.665 -14.03,-2.617 -40.462,15.214 -38.374,29.39 2.931,19.896 38.885,72.34 52.564,87.212 C -8.078,1.443 3.702,9.593 0,0"
             style="fill:#e55f4e;fill-opacity:1;fill-rule:nonzero;stroke:none"
             id="path3241" />
        </g>
        <g
           id="g3243"
           transform="translate(165.0802,268.3809)">
          <path
             d="m 0,0 c 0.662,-14.332 18.59,-26.396 28.986,-27.034 17.932,-1.088 71.726,14.579 71.726,14.579 L 79.803,27.83 c 0,0 -36.605,-12.425 -37.535,-12.775 l 10e-4,0.017 c 0.324,1.067 9.344,34.964 13.375,46.196 0.215,0.62 0.464,1.254 0.699,1.921 1.159,3.112 2.752,7.219 4.51,11.658 l 0.018,0.032 c 0.975,2.456 2.004,5.024 3.016,7.56 l 10e-4,0.016 c 4.421,10.982 8.73,21.434 8.73,21.434 C 66.456,102.878 60.371,99.639 50.381,89.153 40.408,78.682 -1.093,23.643 0,0"
             style="fill:#3c3278;fill-opacity:1;fill-rule:nonzero;stroke:none"
             id="path3245" />
        </g>
        <g
           id="g3247"
           transform="translate(236.21,368.64)">
          <path
             d="M 0,0 C -0.07,-0.16 -0.13,-0.32 -0.2,-0.48 H -8.65 L -7.9,0 Z"
             style="fill:#d74c9f;fill-opacity:1;fill-rule:nonzero;stroke:none"
             id="path3249" />
        </g>
        <g
           id="g3251"
           transform="translate(232.29,359.05)">
          <path
             d="m 0,0 c -0.06,-0.16 -0.13,-0.32 -0.19,-0.48 h -15.63 c 0.15,0.17 0.31,0.32 0.47,0.48 z"
             style="fill:#d74c9f;fill-opacity:1;fill-rule:nonzero;stroke:none"
             id="path3253" />
        </g>
        <g
           id="g3255"
           transform="translate(228.42,349.45)">
          <path
             d="M 0,0 C -0.06,-0.16 -0.12,-0.32 -0.19,-0.48 H -20.2 c 0.13,0.16 0.26,0.32 0.38,0.48 z"
             style="fill:#d74c9f;fill-opacity:1;fill-rule:nonzero;stroke:none"
             id="path3257" />
        </g>
        <g
           id="g3259"
           transform="translate(224.59,339.85)">
          <path
             d="M 0,0 -0.18,-0.48 H -23.7 c 0.12,0.17 0.24,0.33 0.35,0.48 z"
             style="fill:#d74c9f;fill-opacity:1;fill-rule:nonzero;stroke:none"
             id="path3261" />
        </g>
        <g
           id="g3263"
           transform="translate(220.94,330.25)">
          <path
             d="m 0,0 c -0.06,-0.16 -0.12,-0.32 -0.18,-0.48 h -26.74 c 0.12,0.16 0.23,0.32 0.34,0.48 z"
             style="fill:#d74c9f;fill-opacity:1;fill-rule:nonzero;stroke:none"
             id="path3265" />
        </g>
        <g
           id="g3267"
           transform="translate(217.81,320.65)">
          <path
             d="m 0,0 c -0.04,-0.16 -0.09,-0.32 -0.14,-0.48 h -30.08 c 0.1,0.16 0.21,0.32 0.31,0.48 z"
             style="fill:#d74c9f;fill-opacity:1;fill-rule:nonzero;stroke:none"
             id="path3269" />
        </g>
        <g
           id="g3271"
           transform="translate(214.99,311.05)">
          <path
             d="M 0,0 C -0.04,-0.16 -0.09,-0.32 -0.14,-0.48 H -33.4 c 0.1,0.16 0.2,0.32 0.29,0.48 z"
             style="fill:#d74c9f;fill-opacity:1;fill-rule:nonzero;stroke:none"
             id="path3273" />
        </g>
        <g
           id="g3275"
           transform="translate(212.28,301.45)">
          <path
             d="m 0,0 c -0.05,-0.16 -0.09,-0.32 -0.13,-0.48 h -36.02 c 0.09,0.16 0.17,0.32 0.26,0.48 z"
             style="fill:#d74c9f;fill-opacity:1;fill-rule:nonzero;stroke:none"
             id="path3277" />
        </g>
        <g
           id="g3279"
           transform="translate(171.57,291.86)">
          <path
             d="M 0,0 H 38.06 C 38.02,-0.16 37.98,-0.32 37.93,-0.48 H -0.22 C -0.15,-0.32 -0.07,-0.16 0,0"
             style="fill:#d74c9f;fill-opacity:1;fill-rule:nonzero;stroke:none"
             id="path3281" />
        </g>
        <g
           id="g3283"
           transform="translate(247.39,291.38)">
          <path
             d="m 0,0 h -16.75 c 0.48,0.16 0.96,0.32 1.43,0.48 h 15.07 z"
             style="fill:#d74c9f;fill-opacity:1;fill-rule:nonzero;stroke:none"
             id="path3285" />
        </g>
        <g
           id="g3287"
           transform="translate(252.37,281.78)">
          <path
             d="m 0,0 h -84.85 c 0.04,0.16 0.1,0.32 0.16,0.48 h 84.44 z"
             style="fill:#d74c9f;fill-opacity:1;fill-rule:nonzero;stroke:none"
             id="path3289" />
        </g>
        <g
           id="g3291"
           transform="translate(257.35,272.18)">
          <path
             d="m 0,0 h -92.11 c 0.01,0.16 0.03,0.32 0.05,0.48 h 91.82 z"
             style="fill:#d74c9f;fill-opacity:1;fill-rule:nonzero;stroke:none"
             id="path3293" />
        </g>
        <g
           id="g3295"
           transform="translate(262.34,262.58)">
          <path
             d="m 0,0 h -96.06 c -0.05,0.16 -0.11,0.32 -0.17,0.48 h 95.98 z"
             style="fill:#d74c9f;fill-opacity:1;fill-rule:nonzero;stroke:none"
             id="path3297" />
        </g>
        <g
           id="g3299"
           transform="translate(256.97,253.46)">
          <path
             d="m 0,0 c -0.57,-0.15 -1.16,-0.31 -1.78,-0.48 h -82.73 c -0.15,0.16 -0.3,0.32 -0.44,0.48 z"
             style="fill:#d74c9f;fill-opacity:1;fill-rule:nonzero;stroke:none"
             id="path3301" />
        </g>
        <g
           id="g3303"
           transform="translate(216.61,243.86)">
          <path
             d="m 0,0 c -0.86,-0.17 -1.72,-0.32 -2.57,-0.48 h -27.78 c -0.36,0.15 -0.73,0.31 -1.09,0.48 z"
             style="fill:#d74c9f;fill-opacity:1;fill-rule:nonzero;stroke:none"
             id="path3305" />
        </g>
        <g
           id="g3307"
           transform="translate(251.852,264.6442)">
          <path
             d="m 0,0 c -1.492,2.851 -3.008,5.69 -4.506,8.539 -1.468,2.79 -2.957,5.568 -4.456,8.342 -1.55,2.868 -3.177,5.731 -4.429,8.745 -0.023,0.057 0.056,0.106 0.094,0.055 1.882,-2.481 3.43,-5.217 4.977,-7.915 1.602,-2.794 3.163,-5.613 4.71,-8.438 C -2.094,6.561 -0.634,3.764 0.806,0.957 2.285,-1.931 3.78,-4.926 4.848,-7.995 4.891,-8.118 4.722,-8.239 4.64,-8.118 2.912,-5.55 1.434,-2.74 0,0"
             style="fill:#d74c9f;fill-opacity:1;fill-rule:nonzero;stroke:none"
             id="path3309" />
        </g>
        <g
           id="g3311"
           transform="translate(196.1533,277.4941)">
          <path
             d="m 0,0 11.178,5.927 0.017,0.015 10e-4,0.016 c 0.324,1.068 9.344,34.964 13.375,46.196 0.215,0.62 0.464,1.255 0.699,1.922 1.159,3.111 2.752,7.219 4.51,11.658 z"
             style="fill:#d74c9f;fill-opacity:1;fill-rule:nonzero;stroke:none"
             id="path3313" />
        </g>
        <g
           id="g3315"
           transform="translate(186.9007,272.5748)">
          <path
             d="m 0,0 c 3.104,2.318 6.45,4.394 9.82,6.3 1.686,0.954 3.403,1.832 5.171,2.622 1.88,0.838 3.867,1.447 5.734,2.291 0.142,0.065 0.247,-0.155 0.104,-0.22 C 19.085,10.204 17.427,9.105 15.743,8.186 13.992,7.231 12.233,6.293 10.459,5.381 6.975,3.59 3.553,1.689 0.092,-0.142 0.007,-0.187 -0.078,-0.058 0,0"
             style="fill:#d74c9f;fill-opacity:1;fill-rule:nonzero;stroke:none"
             id="path3317" />
        </g>
        <g
           id="g3319"
           transform="translate(195.0385,281.2547)">
          <path
             d="m 0,0 c 2.805,-0.038 19.742,4.486 22.209,2.161 15.034,-14.172 19.786,-11.317 22.986,-13.163 24.772,-14.252 57.851,-30.995 69.659,-31.1 17.907,-0.145 25.039,14.882 22.058,29.081 C 131.028,15.048 93.174,69.776 76.046,84.317 66.964,92.016 67.682,80.403 71.439,67.781 73.642,60.379 77.495,49.373 81.426,38.574 84.908,28.954 94.132,4.369 94.292,3.792 L 94.291,3.776 C 94.306,3.742 94.321,3.725 94.32,3.709 94.332,3.643 94.267,3.631 94.123,3.672 93.337,3.817 72.153,13.8 50.85,19.284 43.343,21.217 27.71,23.97 22.105,21.468 18.773,19.98 18.716,17.991 18.716,17.991 c 0,0 -2.672,0.244 -5.49,-2.077 -1.87,-1.539 -2.45,-3.717 -2.45,-3.717 0,0 -2.923,-0.408 -4.445,-2.103 C 4.518,8.073 4.357,5.934 4.357,5.934 0.414,4.881 0,0 0,0"
             style="fill:#e55f4e;fill-opacity:1;fill-rule:nonzero;stroke:none"
             id="path3321" />
        </g>
        <g
           id="g3323"
           transform="translate(220.0597,299.841)">
          <path
             d="m 0,0 c 2.258,-0.032 4.463,-0.36 6.682,-0.75 0.151,-0.026 0.145,-0.26 -0.014,-0.243 -2.18,0.239 -4.385,0.289 -6.576,0.363 -2.177,0.073 -4.388,0.119 -6.566,0.075 -0.013,0 -0.015,0.022 -10e-4,0.024 C -4.302,-0.173 -2.207,0.032 0,0"
             style="fill:#3c3278;fill-opacity:1;fill-rule:nonzero;stroke:none"
             id="path3325" />
        </g>
        <g
           id="g3327"
           transform="translate(205.8831,293.5861)">
          <path
             d="M 0,0 C 3.878,1.065 6.969,1.654 11.839,1.045 11.995,1.025 11.984,0.792 11.829,0.802 7.201,1.089 4.183,0.62 0.007,-0.084 -0.042,-0.092 -0.044,-0.012 0,0"
             style="fill:#3c3278;fill-opacity:1;fill-rule:nonzero;stroke:none"
             id="path3329" />
        </g>
        <g
           id="g3331"
           transform="translate(199.4429,287.3199)">
          <path
             d="M 0,0 C 3.889,1.6 6.882,2.098 11.197,2.1 11.349,2.1 11.4,1.876 11.241,1.861 7.102,1.466 4.073,0.87 0.056,-0.172 -0.044,-0.198 -0.095,-0.039 0,0"
             style="fill:#3c3278;fill-opacity:1;fill-rule:nonzero;stroke:none"
             id="path3333" />
        </g>
        <g
           id="g3335"
           transform="translate(246.9269,300.294)">
          <path
             d="m 0,0 c 1.86,-0.242 3.717,-0.79 5.537,-1.238 1.941,-0.478 3.873,-1.005 5.772,-1.631 3.802,-1.253 7.494,-2.76 11.136,-4.417 0.141,-0.065 0.066,-0.281 -0.084,-0.229 -3.709,1.299 -7.454,2.517 -11.203,3.696 -1.843,0.58 -3.676,1.196 -5.512,1.797 C 3.762,-1.405 1.8,-0.938 -0.052,-0.235 -0.178,-0.188 -0.14,0.018 0,0"
             style="fill:#3c3278;fill-opacity:1;fill-rule:nonzero;stroke:none"
             id="path3337" />
        </g>
        <g
           id="g3339"
           transform="translate(261.7422,296.276)">
          <path
             d="m 0,0 c -3.92,1.327 -5.693,1.335 -5.693,1.335 l -22.286,-37.637 c 0,0 61.387,-22.098 73.991,-23.392 12.604,-1.293 26.943,8.633 27.184,24.458 0.34,22.24 -35.927,75.649 -54.169,96.302 C 10.666,70.532 0.917,77.405 -1.568,75.855 -4.506,74.022 0.827,62.121 3.638,53.243 8.827,36.853 27.419,-11.349 27.419,-11.349 27.419,-11.349 4.669,-1.581 0,0"
             style="fill:#3c3278;fill-opacity:1;fill-rule:nonzero;stroke:none"
             id="path3341" />
        </g>
        <g
           id="g3343"
           transform="translate(269.24,368.16)">
          <path
             d="M 0,0 H -9.77 C -9.8,0.17 -9.82,0.33 -9.84,0.48 h 9.18 C -0.44,0.33 -0.22,0.16 0,0"
             style="fill:#d74c9f;fill-opacity:1;fill-rule:nonzero;stroke:none"
             id="path3345" />
        </g>
        <g
           id="g3347"
           transform="translate(279.66,358.57)">
          <path
             d="m 0,0 h -17.41 c -0.05,0.16 -0.11,0.32 -0.16,0.48 H -0.44 C -0.29,0.32 -0.14,0.16 0,0"
             style="fill:#d74c9f;fill-opacity:1;fill-rule:nonzero;stroke:none"
             id="path3349" />
        </g>
        <g
           id="g3351"
           transform="translate(287.73,348.97)">
          <path
             d="m 0,0 h -22.18 c -0.05,0.17 -0.1,0.33 -0.15,0.48 H -0.38 C -0.26,0.32 -0.13,0.16 0,0"
             style="fill:#d74c9f;fill-opacity:1;fill-rule:nonzero;stroke:none"
             id="path3353" />
        </g>
        <g
           id="g3355"
           transform="translate(295.04,339.37)">
          <path
             d="m 0,0 h -26.21 c -0.06,0.16 -0.11,0.32 -0.17,0.48 H -0.35 C -0.24,0.32 -0.12,0.16 0,0"
             style="fill:#d74c9f;fill-opacity:1;fill-rule:nonzero;stroke:none"
             id="path3357" />
        </g>
        <g
           id="g3359"
           transform="translate(301.88,329.77)">
          <path
             d="m 0,0 h -29.6 c -0.05,0.16 -0.11,0.32 -0.17,0.48 H -0.33 C -0.22,0.32 -0.11,0.16 0,0"
             style="fill:#d74c9f;fill-opacity:1;fill-rule:nonzero;stroke:none"
             id="path3361" />
        </g>
        <g
           id="g3363"
           transform="translate(308.31,320.17)">
          <path
             d="m 0,0 h -32.49 c -0.06,0.16 -0.12,0.32 -0.18,0.48 H -0.31 C -0.21,0.32 -0.1,0.16 0,0"
             style="fill:#d74c9f;fill-opacity:1;fill-rule:nonzero;stroke:none"
             id="path3365" />
        </g>
        <g
           id="g3367"
           transform="translate(314.35,310.57)">
          <path
             d="M 0,0 H -34.94 C -35,0.16 -35.06,0.32 -35.12,0.48 H -0.3 C -0.19,0.32 -0.1,0.16 0,0"
             style="fill:#d74c9f;fill-opacity:1;fill-rule:nonzero;stroke:none"
             id="path3369" />
        </g>
        <g
           id="g3371"
           transform="translate(319.96,300.97)">
          <path
             d="m 0,0 h -36.93 l -0.18,0.48 h 36.84 z"
             style="fill:#d74c9f;fill-opacity:1;fill-rule:nonzero;stroke:none"
             id="path3373" />
        </g>
        <g
           id="g3375"
           transform="translate(272.79,291.86)">
          <path
             d="M 0,0 C 0.37,-0.16 0.75,-0.32 1.14,-0.48 H -20.43 L -20.15,0 Z"
             style="fill:#d74c9f;fill-opacity:1;fill-rule:nonzero;stroke:none"
             id="path3377" />
        </g>
        <g
           id="g3379"
           transform="translate(325.06,291.38)">
          <path
             d="m 0,0 h -38.37 c -0.06,0.16 -0.13,0.32 -0.19,0.48 H -0.24 C -0.16,0.32 -0.08,0.16 0,0"
             style="fill:#d74c9f;fill-opacity:1;fill-rule:nonzero;stroke:none"
             id="path3381" />
        </g>
        <g
           id="g3383"
           transform="translate(329.52,281.78)">
          <path
             d="m 0,0 h -82.84 l 0.28,0.48 H -0.21 C -0.14,0.32 -0.07,0.16 0,0"
             style="fill:#d74c9f;fill-opacity:1;fill-rule:nonzero;stroke:none"
             id="path3385" />
        </g>
        <g
           id="g3387"
           transform="translate(333.03,272.18)">
          <path
             d="m 0,0 h -92.04 l 0.28,0.48 H -0.15 C -0.09,0.32 -0.04,0.16 0,0"
             style="fill:#d74c9f;fill-opacity:1;fill-rule:nonzero;stroke:none"
             id="path3389" />
        </g>
        <g
           id="g3391"
           transform="translate(334.9,262.58)">
          <path
             d="m 0,0 h -99.59 l 0.28,0.48 H -0.03 C -0.01,0.32 0,0.16 0,0"
             style="fill:#d74c9f;fill-opacity:1;fill-rule:nonzero;stroke:none"
             id="path3393" />
        </g>
        <g
           id="g3395"
           transform="translate(333.65,253.46)">
          <path
             d="M 0,0 C -0.05,-0.16 -0.11,-0.32 -0.17,-0.48 H -80 c -0.47,0.16 -0.93,0.32 -1.39,0.48 z"
             style="fill:#d74c9f;fill-opacity:1;fill-rule:nonzero;stroke:none"
             id="path3397" />
        </g>
        <g
           id="g3399"
           transform="translate(327.6,243.86)">
          <path
             d="m 0,0 c -0.17,-0.17 -0.33,-0.33 -0.51,-0.48 h -44.62 c -0.5,0.16 -1,0.32 -1.51,0.48 z"
             style="fill:#d74c9f;fill-opacity:1;fill-rule:nonzero;stroke:none"
             id="path3401" />
        </g>
        <g
           id="g3403"
           transform="translate(256.2491,297.6417)">
          <path
             d="m 0,0 c 3.458,-0.202 18.409,-5.409 25.742,-8.556 7.308,-3.135 14.335,-6.858 20.93,-11.309 3.732,-2.518 7.273,-5.259 10.771,-8.09 0.12,-0.098 -0.012,-0.292 -0.14,-0.199 -6.446,4.61 -13.334,8.724 -20.304,12.489 C 30.065,-11.92 23.004,-8.363 15.653,-5.498 11.468,-3.866 4.271,-1.423 0.181,-0.35 -0.974,-0.047 -0.107,0.006 0,0"
             style="fill:#d74c9f;fill-opacity:1;fill-rule:nonzero;stroke:none"
             id="path3405" />
        </g>
        <g
           id="g3407"
           transform="translate(270.9686,330.5529)">
          <path
             d="m 0,0 c 0.936,-1.509 1.882,-3.009 2.681,-4.597 0.037,-0.074 0.073,-0.15 0.11,-0.224 -1.188,3.611 -2.314,7.232 -3.394,10.878 -0.066,0.223 0.304,0.344 0.39,0.127 5.274,-13.361 10.169,-26.881 14.919,-40.438 1.328,-3.791 2.495,-7.621 3.701,-11.449 0.042,-0.132 -0.174,-0.199 -0.229,-0.074 -1.449,3.283 -2.91,6.544 -4.237,9.884 -1.326,3.338 -2.558,6.716 -3.805,10.084 C 7.956,-19.918 5.881,-14 3.88,-8.05 3.253,-7.008 2.62,-5.969 2.028,-4.908 1.165,-3.361 0.457,-1.742 -0.264,-0.126 -0.342,0.05 -0.097,0.156 0,0"
             style="fill:#d74c9f;fill-opacity:1;fill-rule:nonzero;stroke:none"
             id="path3409" />
        </g>
        <g
           id="g3411"
           transform="translate(248.6969,268.1731)">
          <path
             d="m 0,0 c 1.633,2.773 3.243,5.56 4.87,8.337 1.594,2.72 3.166,5.452 4.729,8.19 1.618,2.831 3.189,5.725 5.087,8.38 0.035,0.05 0.119,0.008 0.096,-0.05 C 13.67,21.947 12.164,19.188 10.691,16.449 9.164,13.613 7.595,10.799 6.014,7.993 4.465,5.244 2.862,2.527 1.238,-0.179 -0.432,-2.961 -2.186,-5.812 -4.228,-8.34 -4.309,-8.441 -4.501,-8.361 -4.442,-8.228 -3.174,-5.404 -1.569,-2.665 0,0"
             style="fill:#d74c9f;fill-opacity:1;fill-rule:nonzero;stroke:none"
             id="path3413" />
        </g>
        <g
           id="g3415"
           transform="translate(232.8741,259.8961)">
          <path
             d="M 0,0 C 1.848,3.646 4.725,7.226 6.856,10.694 6.936,10.826 7.132,10.688 7.054,10.556 5.121,7.303 3.347,3.797 1.5,0.489 c 8.431,-3.481 17.382,-6.584 25.982,-9.631 8.824,-3.128 17.705,-6.093 26.707,-8.687 5.032,-1.449 10.072,-3.022 15.137,-4.351 0.314,-0.082 0.231,-0.342 -0.093,-0.281 -9.108,1.714 -18.051,4.347 -26.869,7.145 -8.994,2.854 -17.87,6.041 -26.704,9.343 C 10.688,-4.115 -0.149,-0.295 0,0"
             style="fill:#d74c9f;fill-opacity:1;fill-rule:nonzero;stroke:none"
             id="path3417" />
        </g>
        <g
           id="g3419"
           transform="translate(247.494,300.2685)">
          <path
             d="m 0,0 c 11.592,-2.968 24.931,-7.855 30.908,-10.194 0.158,-0.055 0.3,-0.109 0.443,-0.163 5.264,-2.069 8.527,-3.603 9.309,-3.732 0.065,0.029 0.115,0.075 0.165,0.105 v 0.016 c 0.547,0.395 1.09,0.694 1.629,0.896 1.485,0.533 15.749,2.314 15.387,6.732 -0.347,4.37 -6.16,4.099 -7.014,4.038 0.925,0.202 8.666,2.015 6.144,5.881 -1.781,2.743 -9.447,2.34 -10.22,2.308 0.782,0.257 7.893,2.577 5.447,6.522 -1.75,2.824 -10.31,2.456 -11.297,2.289 0.8,0.303 7.139,1.365 4.18,4.768 C 43.027,21.833 26.91,19.425 19.746,15.85 9.094,10.535 0,0 0,0"
             style="fill:#e55f4e;fill-opacity:1;fill-rule:nonzero;stroke:none"
             id="path3421" />
        </g>
        <g
           id="g3423"
           transform="translate(278.4016,290.0747)">
          <path
             d="m 0,0 c 0.159,-0.055 0.301,-0.109 0.443,-0.163 2.475,1.921 11.834,6.878 19.188,7.821 0.456,0.059 0.486,0.319 0.004,0.297 C 10.553,7.545 2.39,2.198 0,0"
             style="fill:#3c3278;fill-opacity:1;fill-rule:nonzero;stroke:none"
             id="path3425" />
        </g>
        <g
           id="g3427"
           transform="translate(293.8952,305.8652)">
          <path
             d="m 0,0 c -10.151,-2.015 -14.738,-4.256 -23.467,-9.801 -0.123,-0.079 -0.26,0.103 -0.142,0.192 8.136,6.089 13.2,9.105 23.522,9.866 C 0.38,0.292 0.464,0.092 0,0"
             style="fill:#3c3278;fill-opacity:1;fill-rule:nonzero;stroke:none"
             id="path3429" />
        </g>
        <g
           id="g3431"
           transform="translate(288.0831,314.7581)">
          <path
             d="m 0,0 c -9.739,-2.589 -14.872,-4.832 -22.716,-11.179 -0.185,-0.15 -0.413,0.077 -0.242,0.244 7.393,7.168 13.779,10.011 22.865,11.203 C 0.527,0.35 0.613,0.163 0,0"
             style="fill:#3c3278;fill-opacity:1;fill-rule:nonzero;stroke:none"
             id="path3433" />
        </g>
        <g
           id="g3435"
           transform="translate(239.3218,357.519)">
          <path
             d="m 0,0 c 5.768,-2.074 16.969,5.829 21.82,12.713 0.33,0.474 0.16,5.866 0.264,12.427 0.079,3.982 0.26,8.413 0.717,12.445 L -3.182,34.311 c 0,0 1.526,-8.734 0.686,-15.758 -0.077,-0.586 -0.197,-1.126 -0.362,-1.635 -0.017,-0.075 -0.049,-0.164 -0.068,-0.27 C -3.795,13.564 -5.574,2.008 0,0"
             style="fill:#e55f4e;fill-opacity:1;fill-rule:nonzero;stroke:none"
             id="path3437" />
        </g>
        <g
           id="g3439"
           transform="translate(236.3891,374.17)">
          <path
             d="m 0,0 c -0.05,-0.167 -0.1,-0.35 -0.133,-0.567 15.555,0.658 21.471,7.499 25.302,14.06 0.116,2.502 0.283,5.037 0.567,7.439 L -0.25,17.663 c 0,0 1.534,-8.74 0.684,-15.762 C 0.367,1.318 0.233,0.784 0.067,0.267 0.05,0.2 0.033,0.1 0,0"
             style="fill:#000000;fill-opacity:0.8;fill-rule:nonzero;stroke:none"
             id="path3441" />
        </g>
        <g
           id="g3443"
           transform="translate(243.7355,413.717)">
          <path
             d="m 0,0 c -0.92,-6.611 -6.368,-11.316 -12.167,-10.508 -5.8,0.807 -9.756,6.821 -8.836,13.431 0.92,6.611 6.368,11.316 12.168,10.508 C -3.036,12.624 0.92,6.611 0,0"
             style="fill:#8e51ff;fill-opacity:1;fill-rule:nonzero;stroke:none"
             id="path3445" />
        </g>
        <g
           id="g3447"
           transform="translate(247.0806,412.8258)">
          <path
             d="m 0,0 c -1.024,-7.354 -7.084,-12.588 -13.536,-11.69 -6.452,0.898 -10.853,7.588 -9.829,14.942 1.023,7.355 7.084,12.589 13.536,11.691 C -3.377,14.044 1.024,7.354 0,0"
             style="fill:#6585f4;fill-opacity:1;fill-rule:nonzero;stroke:none"
             id="path3449" />
        </g>
        <g
           id="g3451"
           transform="translate(269.1439,427.4114)">
          <path
             d="m 0,0 c 2.725,-9.033 -2.122,-35.085 -8.559,-40.877 -9.331,-8.396 -24.567,-9.154 -31.69,2.053 -6.905,10.863 0.013,44.704 7.199,49.963 C -22.466,18.885 -4.025,13.342 0,0"
             style="fill:#e55f4e;fill-opacity:1;fill-rule:nonzero;stroke:none"
             id="path3453" />
        </g>
        <g
           id="g3455"
           transform="translate(246.974,412.812)">
          <path
             d="M 0,0 C 0.026,0.064 0.122,-0.108 0.107,-0.18 -0.267,-1.926 -0.4,-3.989 1.083,-4.86 1.129,-4.887 1.108,-4.974 1.05,-4.955 -0.839,-4.331 -0.634,-1.594 0,0"
             style="fill:#000000;fill-opacity:1;fill-rule:nonzero;stroke:none"
             id="path3457" />
        </g>
        <g
           id="g3459"
           transform="translate(248.8746,414.3619)">
          <path
             d="M 0,0 C 2.864,-0.297 2.059,-6.003 -0.594,-5.727 -3.205,-5.457 -2.401,0.249 0,0"
             style="fill:#000000;fill-opacity:1;fill-rule:nonzero;stroke:none"
             id="path3461" />
        </g>
        <g
           id="g3463"
           transform="translate(236.2062,414.4325)">
          <path
             d="m 0,0 c -0.004,0.07 -0.15,-0.064 -0.158,-0.137 -0.193,-1.775 -0.713,-3.775 -2.394,-4.137 -0.052,-0.011 -0.06,-0.101 0,-0.101 1.99,0 2.654,2.663 2.552,4.375"
             style="fill:#000000;fill-opacity:1;fill-rule:nonzero;stroke:none"
             id="path3465" />
        </g>
        <g
           id="g3467"
           transform="translate(234.8881,416.5011)">
          <path
             d="M 0,0 C -2.812,0.616 -3.838,-5.053 -1.233,-5.624 1.331,-6.187 2.357,-0.516 0,0"
             style="fill:#000000;fill-opacity:1;fill-rule:nonzero;stroke:none"
             id="path3469" />
        </g>
        <g
           id="g3471"
           transform="translate(251.494,416.6534)">
          <path
             d="m 0,0 c -0.75,0.305 -1.39,0.712 -2.1,1.09 -0.801,0.427 -1.483,0.684 -1.93,1.52 -0.239,0.448 -0.013,1.16 0.4,1.433 0.963,0.637 2.074,0.358 3.059,-0.117 C 0.498,3.411 1.191,2.741 1.693,1.668 2.181,0.628 0.989,-0.402 0,0"
             style="fill:#000000;fill-opacity:1;fill-rule:nonzero;stroke:none"
             id="path3473" />
        </g>
        <g
           id="g3475"
           transform="translate(233.0869,419.685)">
          <path
             d="M 0,0 C 0.809,0.017 1.552,0.168 2.35,0.269 3.252,0.382 3.98,0.378 4.696,1 5.079,1.333 5.122,2.078 4.833,2.481 4.162,3.42 3.024,3.555 1.934,3.464 0.752,3.364 -0.135,2.985 -0.987,2.162 -1.814,1.365 -1.067,-0.023 0,0"
             style="fill:#000000;fill-opacity:1;fill-rule:nonzero;stroke:none"
             id="path3477" />
        </g>
        <g
           id="g3479"
           transform="translate(245.3143,396.5206)">
          <path
             d="m 0,0 c -0.482,-0.354 -0.985,-0.864 -1.633,-0.827 -0.622,0.034 -1.305,0.414 -1.838,0.712 -0.052,0.029 -0.117,-0.022 -0.089,-0.08 0.363,-0.743 1.269,-1.304 2.108,-1.276 0.82,0.027 1.313,0.663 1.611,1.368 C 0.2,-0.005 0.07,0.052 0,0"
             style="fill:#000000;fill-opacity:1;fill-rule:nonzero;stroke:none"
             id="path3481" />
        </g>
        <g
           id="g3483"
           transform="translate(244.2025,402.0744)">
          <path
             d="m 0,0 c -1.206,-1.395 -2.778,-2.028 -4.394,-2.111 -0.722,-0.042 -1.465,0.038 -2.179,0.206 -0.142,0.023 -0.282,0.059 -0.407,0.106 -0.127,0.033 -0.241,0.065 -0.379,0.114 -0.202,0.059 -0.291,0.245 -0.299,0.445 l 0.002,0.013 c 0.011,0.064 0.019,0.116 0.043,0.179 l 0.002,0.013 0.025,0.155 c 0.154,1.365 0.578,3.416 0.578,3.416 -0.532,-0.179 -3.228,-0.962 -3.088,-0.256 1.181,5.836 2.495,12.326 4.903,17.884 0.07,0.187 0.36,0.1 0.316,-0.091 C -5.79,14.419 -7.691,8.964 -8.699,3.3 c 0.852,0.193 2.252,0.576 2.962,0.461 0.185,-0.083 -0.89,-3.949 -0.91,-4.568 0,0 -0.004,-0.026 0.002,-0.067 C -4.4,-1.488 -2.579,-1.04 -0.143,0.182 0.003,0.264 0.126,0.126 0,0"
             style="fill:#000000;fill-opacity:1;fill-rule:nonzero;stroke:none"
             id="path3485" />
        </g>
        <g
           id="g3487"
           transform="translate(268.9537,409.5218)">
          <path
             d="m 0,0 c -1.629,0.981 -4.348,6.826 -5.568,9.227 -1.265,2.495 -0.162,13.502 0.243,16.786 2.528,-2.141 4.49,-4.919 5.517,-8.22 C 1.364,14.033 1.15,7.045 0,0"
             style="fill:#b73535;fill-opacity:1;fill-rule:nonzero;stroke:none"
             id="path3489" />
        </g>
        <g
           id="g3491"
           transform="translate(238.2663,432.0047)">
          <path
             d="m 0,0 c 1.583,-2.936 4.553,-4.923 7.906,-5.119 3.265,-0.192 6.879,1.29 8.691,4.093 0.054,0.083 0.184,-10e-4 0.129,-0.084 C 14.789,-4.108 11.542,-6.209 7.869,-5.905 4.422,-5.619 1.171,-3.28 -0.212,-0.111 -0.273,0.029 -0.074,0.137 0,0"
             style="fill:#b73535;fill-opacity:1;fill-rule:nonzero;stroke:none"
             id="path3493" />
        </g>
        <g
           id="g3495"
           transform="translate(253.2216,453.1222)">
          <path
             d="m 0,0 c 5.441,-1.338 9.787,-5.482 10.957,-9.654 0.711,-2.534 0.381,-4.872 -0.507,-7.128 -0.036,-0.091 -0.227,-0.028 -0.197,0.066 1.139,3.633 0.249,8.258 -3.142,11.726 -3.258,3.331 -8.144,5.227 -12.895,4.543 -2.48,-0.357 -4.656,-1.396 -6,-2.952 -0.15,-0.175 -0.531,0.046 -0.398,0.228 C -9.94,-0.087 -4.925,1.211 0,0"
             style="fill:#b73535;fill-opacity:1;fill-rule:nonzero;stroke:none"
             id="path3497" />
        </g>
        <g
           id="g3499"
           transform="translate(218.8214,448.3426)">
          <path
             d="M 0,0 C 1.463,2.5 3.858,4.39 6.583,5.339 10.4,6.669 14.126,5.517 17.805,4.297 17.904,4.263 17.854,4.108 17.754,4.141 14.619,5.169 11.38,6.03 8.097,5.179 5.421,4.485 2.953,2.882 1.329,0.631 c -3.371,-4.673 -2.701,-11.547 1.59,-15.416 2.429,-2.19 5.792,-3.309 9.046,-3.004 0.128,0.011 0.178,-0.184 0.046,-0.2 C 6.025,-18.708 0.055,-14.722 -1.267,-8.774 -1.919,-5.838 -1.528,-2.61 0,0"
             style="fill:#b73535;fill-opacity:1;fill-rule:nonzero;stroke:none"
             id="path3501" />
        </g>
        <g
           id="g3503"
           transform="translate(269.7514,421.4289)">
          <path
             d="m 0,0 c 0,0 7.334,8.655 4.226,15.272 -1.761,3.749 -10.024,5.108 -10.024,5.108 0,0 -1.608,5.272 -8.039,8.296 -6.498,3.055 -15.498,0.833 -15.498,0.833 0,0 -5.684,5.133 -12.526,2.982 -9.538,-2.999 -11.292,-16.15 -3.659,-22.164 5.359,-4.222 14.656,-0.69 14.656,-0.69 0.76,-0.277 7.723,-6.856 15.34,-1.023 0,0 3.972,-5.451 9.062,-3.346 0,0 1.271,-4.929 6.462,-5.268"
             style="fill:#b73535;fill-opacity:1;fill-rule:nonzero;stroke:none"
             id="path3505" />
        </g>
        <g
           id="g3507"
           transform="translate(263.5056,406.184)">
          <path
             d="M 0,0 C 0,0 6.088,8.291 9.863,6.1 13.639,3.91 8.924,-8.203 4.395,-9.77 c -4.528,-1.567 -6.06,2.596 -6.06,2.596 z"
             style="fill:#e55f4e;fill-opacity:1;fill-rule:nonzero;stroke:none"
             id="path3509" />
        </g>
        <g
           id="g3511"
           transform="translate(271.9313,408.8456)">
          <path
             d="m 0,0 c 0.072,0.005 0.084,-0.096 0.021,-0.121 -3.178,-1.202 -4.903,-4.082 -6.134,-7.082 0.964,1.144 2.253,1.752 3.788,0.602 0.08,-0.061 -10e-4,-0.187 -0.089,-0.166 -1.283,0.306 -2.219,0.104 -3.114,-0.909 -0.634,-0.717 -1.077,-1.631 -1.538,-2.465 -0.154,-0.278 -0.659,-0.116 -0.544,0.206 0.008,0.023 0.018,0.048 0.027,0.072 C -7.569,-5.848 -4.319,-0.303 0,0"
             style="fill:#3c3278;fill-opacity:1;fill-rule:nonzero;stroke:none"
             id="path3513" />
        </g>
        <g
           id="g3515"
           transform="translate(271.9464,415.8117)">
          <path
             d="m 0,0 c 0,0 3.615,12.327 0.884,21.009 -3.04,9.664 -17.422,21.121 -32.414,14.117 0,0 18.855,0.365 26.633,-13.698 3.276,-5.925 0.043,-20.923 0.043,-20.923 z"
             style="fill:#6585f4;fill-opacity:1;fill-rule:nonzero;stroke:none"
             id="path3517" />
        </g>
        <g
           id="g3519"
           transform="translate(257.1837,411.0602)">
          <path
             d="m 0,0 c -1.427,-7.287 2.598,-14.209 8.991,-15.462 6.392,-1.252 12.732,3.64 14.16,10.926 C 24.578,2.751 20.553,9.674 14.16,10.926 7.767,12.179 1.428,7.287 0,0"
             style="fill:#6585f4;fill-opacity:1;fill-rule:nonzero;stroke:none"
             id="path3521" />
        </g>
        <g
           id="g3523"
           transform="translate(260.6369,410.8132)">
          <path
             d="m 0,0 c -1.283,-6.55 2.335,-12.772 8.081,-13.898 5.747,-1.126 11.445,3.271 12.729,9.821 C 22.093,2.473 18.475,8.695 12.728,9.821 6.982,10.947 1.283,6.55 0,0"
             style="fill:#8e51ff;fill-opacity:1;fill-rule:nonzero;stroke:none"
             id="path3525" />
        </g>
      </g>
    </g>
  </g>
</svg>
