<?xml version="1.0" encoding="UTF-8" standalone="no"?>
<!-- Created with Inkscape (http://www.inkscape.org/) -->

<svg
   width="43.640514mm"
   height="43.640728mm"
   viewBox="0 0 43.640515 43.640728"
   version="1.1"
   id="svg26036"
   inkscape:version="1.2 (dc2aedaf03, 2022-05-15)"
   sodipodi:docname="4.svg"
   xmlns:inkscape="http://www.inkscape.org/namespaces/inkscape"
   xmlns:sodipodi="http://sodipodi.sourceforge.net/DTD/sodipodi-0.dtd"
   xmlns="http://www.w3.org/2000/svg"
   xmlns:svg="http://www.w3.org/2000/svg">
  <sodipodi:namedview
     id="namedview26038"
     pagecolor="#505050"
     bordercolor="#eeeeee"
     borderopacity="1"
     inkscape:showpageshadow="0"
     inkscape:pageopacity="0"
     inkscape:pagecheckerboard="0"
     inkscape:deskcolor="#505050"
     inkscape:document-units="mm"
     showgrid="false"
     inkscape:zoom="0.49798681"
     inkscape:cx="206.83279"
     inkscape:cy="130.52554"
     inkscape:window-width="1366"
     inkscape:window-height="699"
     inkscape:window-x="0"
     inkscape:window-y="0"
     inkscape:window-maximized="1"
     inkscape:current-layer="layer1" />
  <defs
     id="defs26033">
    <clipPath
       clipPathUnits="userSpaceOnUse"
       id="clipPath2909">
      <path
         d="m 38.013,402.153 c 0,-34.16 27.692,-61.852 61.853,-61.852 v 0 c 34.16,0 61.852,27.692 61.852,61.852 v 0 c 0,34.161 -27.692,61.853 -61.852,61.853 v 0 c -34.161,0 -61.853,-27.692 -61.853,-61.853"
         id="path2907" />
    </clipPath>
    <clipPath
       clipPathUnits="userSpaceOnUse"
       id="clipPath12579">
      <path
         d="m -161.7186,97.847 h 500 v -500 h -500 z"
         id="path12581"
         style="stroke-width:0.999998" />
    </clipPath>
    <clipPath
       clipPathUnits="userSpaceOnUse"
       id="clipPath12575">
      <path
         d="m -311.8526,97.847 h 500 v -500 h -500 z"
         id="path12577"
         style="stroke-width:0.999998" />
    </clipPath>
    <clipPath
       clipPathUnits="userSpaceOnUse"
       id="clipPath3185">
      <path
         d="m 188.148,402.153 c 0,-34.16 27.692,-61.852 61.852,-61.852 v 0 c 34.161,0 61.853,27.692 61.853,61.852 v 0 c 0,34.161 -27.692,61.853 -61.853,61.853 v 0 c -34.16,0 -61.852,-27.692 -61.852,-61.853"
         id="path3183" />
    </clipPath>
    <clipPath
       clipPathUnits="userSpaceOnUse"
       id="clipPath12571">
      <path
         d="m -461.9866,97.847 h 500 v -500 h -500 z"
         id="path12573"
         style="stroke-width:0.999998" />
    </clipPath>
    <clipPath
       clipPathUnits="userSpaceOnUse"
       id="clipPath3533">
      <path
         d="m 338.281,402.153 c 0,-34.16 27.692,-61.852 61.853,-61.852 v 0 c 34.16,0 61.852,27.692 61.852,61.852 v 0 c 0,34.161 -27.692,61.853 -61.852,61.853 v 0 c -34.161,0 -61.853,-27.692 -61.853,-61.853"
         id="path3531" />
    </clipPath>
    <clipPath
       clipPathUnits="userSpaceOnUse"
       id="clipPath3609">
      <path
         d="m 370.232,358.302 h 14.005 v -17.261 h -14.005 z"
         id="path3607" />
    </clipPath>
    <clipPath
       clipPathUnits="userSpaceOnUse"
       id="clipPath3625">
      <path
         d="m 378.264,345.649 h 10.426 v -12.95 h -10.426 z"
         id="path3623" />
    </clipPath>
    <clipPath
       clipPathUnits="userSpaceOnUse"
       id="clipPath3641">
      <path
         d="M 368.258,311.851 H 378.79 V 288.93 h -10.532 z"
         id="path3639" />
    </clipPath>
    <clipPath
       clipPathUnits="userSpaceOnUse"
       id="clipPath3661">
      <path
         d="m 370.39,358.2 h 13.847 V 341.041 H 370.39 Z"
         id="path3659" />
    </clipPath>
    <clipPath
       clipPathUnits="userSpaceOnUse"
       id="clipPath3677">
      <path
         d="m 378.254,345.648 h 10.509 v -12.945 h -10.509 z"
         id="path3675" />
    </clipPath>
    <clipPath
       clipPathUnits="userSpaceOnUse"
       id="clipPath3693">
      <path
         d="m 387.457,316.052 h 10.509 v -12.945 h -10.509 z"
         id="path3691" />
    </clipPath>
    <clipPath
       clipPathUnits="userSpaceOnUse"
       id="clipPath3709">
      <path
         d="m 422.49,355.84 h 10.943 v -8.884 H 422.49 Z"
         id="path3707" />
    </clipPath>
    <clipPath
       clipPathUnits="userSpaceOnUse"
       id="clipPath3725">
      <path
         d="m 403.506,358.544 h 24.455 V 328.6 h -24.455 z"
         id="path3723" />
    </clipPath>
    <clipPath
       clipPathUnits="userSpaceOnUse"
       id="clipPath3741">
      <path
         d="m 368.256,311.853 h 24.456 v -29.945 h -24.456 z"
         id="path3739" />
    </clipPath>
    <clipPath
       clipPathUnits="userSpaceOnUse"
       id="clipPath3757">
      <path
         d="m 402.97,365.665 h 11.114 V 352.399 H 402.97 Z"
         id="path3755" />
    </clipPath>
    <clipPath
       clipPathUnits="userSpaceOnUse"
       id="clipPath3773">
      <path
         d="m 422.404,304.81 h 11.114 v -13.266 h -11.114 z"
         id="path3771" />
    </clipPath>
    <clipPath
       clipPathUnits="userSpaceOnUse"
       id="clipPath3849">
      <path
         d="m 387.459,311.51 h 10.391 v -8.401 h -10.391 z"
         id="path3847" />
    </clipPath>
    <clipPath
       clipPathUnits="userSpaceOnUse"
       id="clipPath3865">
      <path
         d="m 422.49,355.84 h 10.943 v -8.884 H 422.49 Z"
         id="path3863" />
    </clipPath>
    <clipPath
       clipPathUnits="userSpaceOnUse"
       id="clipPath3881">
      <path
         d="m 413.34,358.54 h 14.622 V 328.599 H 413.34 Z"
         id="path3879" />
    </clipPath>
    <clipPath
       clipPathUnits="userSpaceOnUse"
       id="clipPath3897">
      <path
         d="m 378.28,311.1 h 14.435 V 281.904 H 378.28 Z"
         id="path3895" />
    </clipPath>
    <clipPath
       clipPathUnits="userSpaceOnUse"
       id="clipPath3913">
      <path
         d="m 412.49,364.64 h 1.589 v -8.74 h -1.589 z"
         id="path3911" />
    </clipPath>
    <clipPath
       clipPathUnits="userSpaceOnUse"
       id="clipPath3929">
      <path
         d="m 422.404,304.81 h 11.114 v -13.266 h -11.114 z"
         id="path3927" />
    </clipPath>
    <clipPath
       clipPathUnits="userSpaceOnUse"
       id="clipPath4509">
      <path
         d="m 188.148,97.847 c 0,-34.16 27.692,-61.852 61.852,-61.852 v 0 c 34.161,0 61.853,27.692 61.853,61.852 v 0 c 0,34.16 -27.692,61.853 -61.853,61.853 v 0 c -34.16,0 -61.852,-27.693 -61.852,-61.853"
         id="path4507" />
    </clipPath>
    <clipPath
       clipPathUnits="userSpaceOnUse"
       id="clipPath12551">
      <path
         d="m -311.8526,402.153 h 500 v -500 h -500 z"
         id="path12553"
         style="stroke-width:0.999998" />
    </clipPath>
  </defs>
  <g
     inkscape:label="Layer 1"
     inkscape:groupmode="layer"
     id="layer1"
     transform="translate(-50.327136,-114.08347)">
    <g
       id="g1895"
       transform="matrix(0.35277777,0,0,-0.35277777,93.96751,135.90383)"
       clip-path="url(#clipPath12551)">
      <path
         d="m 0,0 c 0,-34.16 -27.692,-61.853 -61.853,-61.853 -34.16,0 -61.852,27.693 -61.852,61.853 0,34.16 27.692,61.853 61.852,61.853 C -27.692,61.853 0,34.16 0,0"
         style="fill:#dfdfdf;fill-opacity:1;fill-rule:nonzero;stroke:none"
         id="path1897" />
    </g>
    <g
       id="g4503"
       transform="matrix(0.35277777,0,0,-0.35277777,-16.047155,170.42208)">
      <g
         id="g4505"
         clip-path="url(#clipPath4509)">
        <g
           id="g4511"
           transform="translate(309.1275,-48.3845)">
          <path
             d="m 0,0 h -107.049 c -0.448,4.09 15.948,91.078 35.209,119.045 2.185,3.173 20.904,5.483 27.777,-2.41 C -7.661,74.83 0.88,1.003 0,0"
             style="fill:#fba3b7;fill-opacity:1;fill-rule:nonzero;stroke:none"
             id="path4513" />
        </g>
        <g
           id="g4515"
           transform="translate(234.7502,63.4403)">
          <path
             d="m 0,0 c -3.038,-7.87 -14.501,-35.469 -20.732,-55.275 -4.181,-13.291 -5.773,-24.446 -6.688,-27.379 0,0 31.609,10.152 38.726,10.17 10.961,0.027 28.543,-22.864 24.23,-25.732 -6.78,-4.509 -39.098,-19.849 -64.907,-24.665 -14.03,-2.617 -40.462,15.214 -38.374,29.39 2.931,19.896 38.885,72.34 52.564,87.212 C -8.078,1.443 3.702,9.593 0,0"
             style="fill:#ff9581;fill-opacity:1;fill-rule:nonzero;stroke:none"
             id="path4517" />
        </g>
        <g
           id="g4519"
           transform="translate(165.0802,-34.2537)">
          <path
             d="m 0,0 c 0.662,-14.332 18.59,-26.396 28.986,-27.034 17.932,-1.088 71.726,14.578 71.726,14.578 L 79.803,27.83 c 0,0 -36.605,-12.425 -37.535,-12.775 l 10e-4,0.016 c 0.324,1.068 9.344,34.964 13.375,46.196 0.215,0.62 0.464,1.255 0.699,1.922 1.159,3.111 2.752,7.219 4.51,11.658 l 0.018,0.031 c 0.975,2.457 2.004,5.025 3.016,7.561 l 10e-4,0.016 c 4.421,10.981 8.73,21.434 8.73,21.434 C 66.456,102.878 60.371,99.639 50.381,89.153 40.408,78.682 -1.093,23.643 0,0"
             style="fill:#fba3b7;fill-opacity:1;fill-rule:nonzero;stroke:none"
             id="path4521" />
        </g>
        <g
           id="g4523"
           transform="translate(196.1533,-25.1406)">
          <path
             d="m 0,0 11.178,5.927 0.017,0.015 10e-4,0.016 c 0.324,1.068 9.344,34.964 13.375,46.196 0.215,0.62 0.464,1.255 0.699,1.922 1.159,3.111 2.752,7.219 4.51,11.658 z"
             style="fill:#3c3278;fill-opacity:1;fill-rule:nonzero;stroke:none"
             id="path4525" />
        </g>
        <g
           id="g4527"
           transform="translate(195.0385,-21.38)">
          <path
             d="m 0,0 c 2.805,-0.038 19.742,4.486 22.209,2.161 15.034,-14.172 19.786,-11.317 22.986,-13.163 24.772,-14.252 57.851,-30.994 69.659,-31.1 17.907,-0.145 25.039,14.882 22.058,29.081 C 131.028,15.048 93.174,69.776 76.046,84.317 66.964,92.016 67.682,80.403 71.439,67.781 73.642,60.379 77.495,49.373 81.426,38.574 84.908,28.954 94.132,4.369 94.292,3.792 L 94.291,3.776 C 94.306,3.742 94.321,3.725 94.32,3.709 94.332,3.643 94.267,3.631 94.123,3.672 93.337,3.817 72.153,13.8 50.85,19.284 43.343,21.217 27.71,23.97 22.105,21.468 18.773,19.98 18.716,17.992 18.716,17.992 c 0,0 -2.672,0.243 -5.49,-2.078 -1.87,-1.539 -2.45,-3.717 -2.45,-3.717 0,0 -2.923,-0.409 -4.445,-2.103 C 4.518,8.073 4.357,5.934 4.357,5.934 0.414,4.881 0,0 0,0"
             style="fill:#ff9581;fill-opacity:1;fill-rule:nonzero;stroke:none"
             id="path4529" />
        </g>
        <g
           id="g4531"
           transform="translate(261.7422,-6.3587)">
          <path
             d="m 0,0 c -3.92,1.327 -5.693,1.335 -5.693,1.335 l -22.286,-37.636 c 0,0 61.387,-22.099 73.991,-23.393 12.604,-1.293 26.943,8.633 27.184,24.458 0.34,22.24 -35.927,75.649 -54.169,96.302 -8.361,9.466 -18.11,16.34 -20.595,14.789 -2.938,-1.833 2.395,-13.734 5.206,-22.612 5.189,-16.39 23.781,-64.592 23.781,-64.592 0,0 -22.75,9.768 -27.419,11.349"
             style="fill:#fba3b7;fill-opacity:1;fill-rule:nonzero;stroke:none"
             id="path4533" />
        </g>
        <g
           id="g4535"
           transform="translate(239.3218,54.8843)">
          <path
             d="m 0,0 c 5.768,-2.074 16.969,5.829 21.82,12.713 0.33,0.474 0.16,5.866 0.264,12.427 0.079,3.982 0.26,8.413 0.717,12.445 L -3.182,34.311 c 0,0 1.526,-8.734 0.686,-15.758 -0.077,-0.586 -0.197,-1.126 -0.362,-1.635 -0.017,-0.075 -0.049,-0.164 -0.068,-0.27 C -3.795,13.564 -5.574,2.008 0,0"
             style="fill:#ff9581;fill-opacity:1;fill-rule:nonzero;stroke:none"
             id="path4537" />
        </g>
        <g
           id="g4539"
           transform="translate(236.3891,71.5353)">
          <path
             d="m 0,0 c -0.05,-0.167 -0.1,-0.35 -0.133,-0.567 15.555,0.658 21.471,7.499 25.302,14.06 0.116,2.502 0.283,5.037 0.567,7.439 L -0.25,17.663 c 0,0 1.534,-8.74 0.684,-15.762 C 0.367,1.318 0.233,0.784 0.067,0.267 0.05,0.2 0.033,0.1 0,0"
             style="fill:#000000;fill-opacity:0.8;fill-rule:nonzero;stroke:none"
             id="path4541" />
        </g>
        <g
           id="g4543"
           transform="translate(269.1439,124.7767)">
          <path
             d="m 0,0 c 2.725,-9.033 -2.122,-35.085 -8.559,-40.877 -9.331,-8.396 -24.567,-9.154 -31.69,2.053 -6.905,10.863 0.013,44.704 7.199,49.963 C -22.466,18.885 -4.025,13.342 0,0"
             style="fill:#ff9581;fill-opacity:1;fill-rule:nonzero;stroke:none"
             id="path4545" />
        </g>
        <g
           id="g4547"
           transform="translate(246.974,110.1773)">
          <path
             d="M 0,0 C 0.026,0.064 0.122,-0.108 0.107,-0.18 -0.267,-1.926 -0.4,-3.989 1.083,-4.86 1.129,-4.887 1.108,-4.974 1.05,-4.955 -0.839,-4.331 -0.634,-1.594 0,0"
             style="fill:#000000;fill-opacity:1;fill-rule:nonzero;stroke:none"
             id="path4549" />
        </g>
        <g
           id="g4551"
           transform="translate(248.8746,111.7272)">
          <path
             d="M 0,0 C 2.864,-0.296 2.059,-6.003 -0.594,-5.727 -3.205,-5.457 -2.401,0.249 0,0"
             style="fill:#000000;fill-opacity:1;fill-rule:nonzero;stroke:none"
             id="path4553" />
        </g>
        <g
           id="g4555"
           transform="translate(236.2062,111.7978)">
          <path
             d="m 0,0 c -0.004,0.07 -0.15,-0.064 -0.158,-0.137 -0.193,-1.775 -0.713,-3.775 -2.394,-4.137 -0.052,-0.011 -0.06,-0.101 0,-0.101 1.99,0 2.654,2.663 2.552,4.375"
             style="fill:#000000;fill-opacity:1;fill-rule:nonzero;stroke:none"
             id="path4557" />
        </g>
        <g
           id="g4559"
           transform="translate(234.8881,113.8664)">
          <path
             d="M 0,0 C -2.812,0.616 -3.838,-5.054 -1.233,-5.624 1.331,-6.187 2.357,-0.516 0,0"
             style="fill:#000000;fill-opacity:1;fill-rule:nonzero;stroke:none"
             id="path4561" />
        </g>
        <g
           id="g4563"
           transform="translate(251.494,114.0187)">
          <path
             d="m 0,0 c -0.75,0.305 -1.39,0.712 -2.1,1.09 -0.801,0.427 -1.483,0.684 -1.93,1.52 -0.239,0.448 -0.013,1.16 0.4,1.433 0.963,0.637 2.074,0.358 3.059,-0.117 C 0.498,3.411 1.191,2.741 1.693,1.668 2.181,0.628 0.989,-0.402 0,0"
             style="fill:#000000;fill-opacity:1;fill-rule:nonzero;stroke:none"
             id="path4565" />
        </g>
        <g
           id="g4567"
           transform="translate(233.0869,117.0503)">
          <path
             d="M 0,0 C 0.809,0.017 1.552,0.168 2.35,0.269 3.252,0.382 3.98,0.378 4.696,1 5.079,1.333 5.122,2.077 4.833,2.481 4.162,3.42 3.024,3.555 1.934,3.464 0.752,3.364 -0.135,2.985 -0.987,2.162 -1.814,1.365 -1.067,-0.023 0,0"
             style="fill:#000000;fill-opacity:1;fill-rule:nonzero;stroke:none"
             id="path4569" />
        </g>
        <g
           id="g4571"
           transform="translate(245.9814,94.3937)">
          <path
             d="m 0,0 c -0.349,-0.485 -0.669,-1.126 -1.297,-1.292 -0.603,-0.159 -1.369,-0.009 -1.968,0.109 -0.059,0.012 -0.105,-0.057 -0.06,-0.103 0.575,-0.595 1.61,-0.848 2.399,-0.562 0.772,0.28 1.044,1.037 1.109,1.799 C 0.192,0.057 0.051,0.071 0,0"
             style="fill:#000000;fill-opacity:1;fill-rule:nonzero;stroke:none"
             id="path4573" />
        </g>
        <g
           id="g4575"
           transform="translate(244.2025,99.4397)">
          <path
             d="m 0,0 c -1.206,-1.395 -2.778,-2.028 -4.394,-2.111 -0.722,-0.042 -1.465,0.038 -2.179,0.206 -0.142,0.023 -0.282,0.059 -0.407,0.106 -0.127,0.033 -0.241,0.065 -0.379,0.114 -0.202,0.059 -0.291,0.245 -0.299,0.445 l 0.002,0.013 c 0.011,0.064 0.019,0.116 0.043,0.179 l 0.002,0.013 0.025,0.155 c 0.154,1.365 0.578,3.416 0.578,3.416 -0.532,-0.179 -3.228,-0.962 -3.088,-0.256 1.181,5.836 2.495,12.326 4.903,17.884 0.07,0.187 0.36,0.101 0.316,-0.091 C -5.79,14.419 -7.691,8.964 -8.699,3.3 c 0.852,0.193 2.252,0.576 2.962,0.461 0.185,-0.082 -0.89,-3.949 -0.91,-4.568 0,0 -0.004,-0.026 0.002,-0.067 C -4.4,-1.488 -2.579,-1.04 -0.143,0.182 0.003,0.264 0.126,0.126 0,0"
             style="fill:#000000;fill-opacity:1;fill-rule:nonzero;stroke:none"
             id="path4577" />
        </g>
        <g
           id="g4579"
           transform="translate(238.5667,97.4455)">
          <path
             d="M 0,0 C 0,0 1.098,-1.671 2.692,-2.342 3.28,-2.591 3.921,-2.712 4.608,-2.57 6.019,-2.283 6.126,-1.009 5.932,0.097 5.776,1.007 5.404,1.803 5.404,1.803 5.404,1.803 3.266,0.018 0,0"
             style="fill:#000000;fill-opacity:1;fill-rule:nonzero;stroke:none"
             id="path4581" />
        </g>
        <g
           id="g4583"
           transform="translate(241.2591,95.1039)">
          <path
             d="M 0,0 C 0.587,-0.249 1.229,-0.37 1.915,-0.228 3.327,0.058 3.433,1.332 3.24,2.439 1.741,2.37 0.208,1.442 0,0"
             style="fill:#fba3b7;fill-opacity:1;fill-rule:nonzero;stroke:none"
             id="path4585" />
        </g>
        <g
           id="g4587"
           transform="translate(267.282,105.0387)">
          <path
             d="m 0,0 c -4.961,-0.112 -4.799,8.533 -4.799,8.533 0,0 -9.941,1.418 -11.086,14.225 0,0 -14.3,-5.118 -21.788,2.233 -7.488,7.352 12.059,25.895 35.151,8.764 0,0 10.887,-1.774 12.626,-10.642 C 11.843,14.244 5.996,0.136 0,0"
             style="fill:#261d17;fill-opacity:1;fill-rule:nonzero;stroke:none"
             id="path4589" />
        </g>
        <g
           id="g4591"
           transform="translate(251.7207,129.2637)">
          <path
             d="m 0,0 c 0.058,0.126 0.265,0.072 0.239,-0.07 -1.54,-8.503 3.985,-16.192 13.054,-15.519 0.305,0.022 0.355,-0.417 0.056,-0.47 C 4.395,-17.628 -3.988,-8.745 0,0"
             style="fill:#48362a;fill-opacity:1;fill-rule:nonzero;stroke:none"
             id="path4593" />
        </g>
        <g
           id="g4595"
           transform="translate(243.5399,145.8563)">
          <path
             d="m 0,0 c 0.019,0.001 0.022,-0.026 0.004,-0.029 -3.042,-0.453 -6.146,-1.005 -8.936,-2.356 -4.193,-2.031 -9.64,-7.238 -6.639,-12.305 4.119,-6.951 14.65,-4.946 21.081,-3.215 0.425,0.114 0.672,-0.455 0.257,-0.645 -6.461,-2.956 -19.959,-3.901 -22.795,4.628 C -20.168,-4.476 -6.72,-0.237 0,0"
             style="fill:#48362a;fill-opacity:1;fill-rule:nonzero;stroke:none"
             id="path4597" />
        </g>
        <g
           id="g4599"
           transform="translate(263.5056,103.5493)">
          <path
             d="M 0,0 C 0,0 6.088,8.291 9.863,6.1 13.639,3.91 8.924,-8.203 4.395,-9.77 c -4.528,-1.567 -6.06,2.596 -6.06,2.596 z"
             style="fill:#ff9581;fill-opacity:1;fill-rule:nonzero;stroke:none"
             id="path4601" />
        </g>
        <g
           id="g4603"
           transform="translate(271.9313,106.2109)">
          <path
             d="m 0,0 c 0.072,0.005 0.084,-0.096 0.021,-0.12 -3.178,-1.203 -4.903,-4.083 -6.134,-7.083 0.964,1.144 2.253,1.752 3.788,0.602 0.08,-0.061 -10e-4,-0.187 -0.089,-0.166 -1.283,0.306 -2.219,0.104 -3.114,-0.909 -0.634,-0.717 -1.077,-1.631 -1.538,-2.465 -0.154,-0.278 -0.659,-0.116 -0.544,0.206 0.008,0.023 0.018,0.048 0.027,0.072 C -7.569,-5.848 -4.319,-0.303 0,0"
             style="fill:#000000;fill-opacity:1;fill-rule:nonzero;stroke:none"
             id="path4605" />
        </g>
        <g
           id="g4607"
           transform="translate(234.4369,65.8304)">
          <path
             d="m 0,0 c 0.011,0.058 0.097,0.048 0.091,-0.012 -0.546,-5.574 -1.447,-18.511 7.341,-18.038 3.541,0.191 6.838,2.278 9.602,4.34 2.839,2.117 5.388,4.601 7.706,7.272 2.573,2.965 5.222,6.077 7.27,9.43 0.087,0.143 0.303,-0.017 0.209,-0.159 -2.201,-3.339 -4.061,-6.825 -6.583,-9.955 -2.427,-3.013 -5.168,-5.8 -8.321,-8.057 -2.955,-2.114 -6.462,-4.19 -10.204,-4.213 -3.56,-0.022 -6.069,2.266 -6.994,5.586 C -1.097,-9.445 -0.845,-4.398 0,0"
             style="fill:#000000;fill-opacity:1;fill-rule:nonzero;stroke:none"
             id="path4609" />
        </g>
        <g
           id="g4611"
           transform="translate(236.2033,71.3059)">
          <path
             d="m 0,0 6.909,-15.228 18.4,20.462 5.735,-6.053 c 0,0 -17.471,-31.992 -17.651,-30.59 l -6.978,13.081 -8.813,-9.702 -0.279,23.372 z"
             style="fill:#f9e1d9;fill-opacity:1;fill-rule:nonzero;stroke:none"
             id="path4613" />
        </g>
        <g
           id="g4615"
           transform="translate(233.0141,54.8207)">
          <path
             d="m 0,0 c 0.083,3.86 0.059,7.751 0.321,11.603 0.01,0.137 0.22,0.207 0.26,0.048 0.935,-3.684 0.538,-18.445 0.71,-21.972 0.012,0.014 0.027,0.029 0.039,0.042 0.367,0.419 8.188,8.557 8.274,8.437 1.479,-2.061 6.596,-11.585 6.956,-12.456 2.762,5.081 13.391,23.578 16.712,28.414 0.095,0.139 0.309,0.037 0.237,-0.123 C 31.107,8.65 17.059,-16.248 16.824,-16.19 16.671,-16.319 10.317,-4.59 9.521,-2.357 8.214,-4.113 0.361,-13.252 0.308,-12.681 -0.052,-8.828 -0.083,-3.865 0,0"
             style="fill:#000000;fill-opacity:1;fill-rule:nonzero;stroke:none"
             id="path4617" />
        </g>
      </g>
    </g>
  </g>
</svg>
