<?xml version="1.0" encoding="UTF-8" standalone="no"?>
<!-- Created with Inkscape (http://www.inkscape.org/) -->

<svg
   width="43.640583mm"
   height="43.640728mm"
   viewBox="0 0 43.640584 43.640728"
   version="1.1"
   id="svg26036"
   inkscape:version="1.2 (dc2aedaf03, 2022-05-15)"
   sodipodi:docname="5.svg"
   xmlns:inkscape="http://www.inkscape.org/namespaces/inkscape"
   xmlns:sodipodi="http://sodipodi.sourceforge.net/DTD/sodipodi-0.dtd"
   xmlns="http://www.w3.org/2000/svg"
   xmlns:svg="http://www.w3.org/2000/svg">
  <sodipodi:namedview
     id="namedview26038"
     pagecolor="#505050"
     bordercolor="#eeeeee"
     borderopacity="1"
     inkscape:showpageshadow="0"
     inkscape:pageopacity="0"
     inkscape:pagecheckerboard="0"
     inkscape:deskcolor="#505050"
     inkscape:document-units="mm"
     showgrid="false"
     inkscape:zoom="0.49798681"
     inkscape:cx="-100.40427"
     inkscape:cy="70.282986"
     inkscape:window-width="1366"
     inkscape:window-height="699"
     inkscape:window-x="0"
     inkscape:window-y="0"
     inkscape:window-maximized="1"
     inkscape:current-layer="layer1" />
  <defs
     id="defs26033">
    <clipPath
       clipPathUnits="userSpaceOnUse"
       id="clipPath2909">
      <path
         d="m 38.013,402.153 c 0,-34.16 27.692,-61.852 61.853,-61.852 v 0 c 34.16,0 61.852,27.692 61.852,61.852 v 0 c 0,34.161 -27.692,61.853 -61.852,61.853 v 0 c -34.161,0 -61.853,-27.692 -61.853,-61.853"
         id="path2907" />
    </clipPath>
    <clipPath
       clipPathUnits="userSpaceOnUse"
       id="clipPath12579">
      <path
         d="m -161.7186,97.847 h 500 v -500 h -500 z"
         id="path12581"
         style="stroke-width:0.999998" />
    </clipPath>
    <clipPath
       clipPathUnits="userSpaceOnUse"
       id="clipPath12575">
      <path
         d="m -311.8526,97.847 h 500 v -500 h -500 z"
         id="path12577"
         style="stroke-width:0.999998" />
    </clipPath>
    <clipPath
       clipPathUnits="userSpaceOnUse"
       id="clipPath3185">
      <path
         d="m 188.148,402.153 c 0,-34.16 27.692,-61.852 61.852,-61.852 v 0 c 34.161,0 61.853,27.692 61.853,61.852 v 0 c 0,34.161 -27.692,61.853 -61.853,61.853 v 0 c -34.16,0 -61.852,-27.692 -61.852,-61.853"
         id="path3183" />
    </clipPath>
    <clipPath
       clipPathUnits="userSpaceOnUse"
       id="clipPath12571">
      <path
         d="m -461.9866,97.847 h 500 v -500 h -500 z"
         id="path12573"
         style="stroke-width:0.999998" />
    </clipPath>
    <clipPath
       clipPathUnits="userSpaceOnUse"
       id="clipPath3533">
      <path
         d="m 338.281,402.153 c 0,-34.16 27.692,-61.852 61.853,-61.852 v 0 c 34.16,0 61.852,27.692 61.852,61.852 v 0 c 0,34.161 -27.692,61.853 -61.852,61.853 v 0 c -34.161,0 -61.853,-27.692 -61.853,-61.853"
         id="path3531" />
    </clipPath>
    <clipPath
       clipPathUnits="userSpaceOnUse"
       id="clipPath3609">
      <path
         d="m 370.232,358.302 h 14.005 v -17.261 h -14.005 z"
         id="path3607" />
    </clipPath>
    <clipPath
       clipPathUnits="userSpaceOnUse"
       id="clipPath3625">
      <path
         d="m 378.264,345.649 h 10.426 v -12.95 h -10.426 z"
         id="path3623" />
    </clipPath>
    <clipPath
       clipPathUnits="userSpaceOnUse"
       id="clipPath3641">
      <path
         d="M 368.258,311.851 H 378.79 V 288.93 h -10.532 z"
         id="path3639" />
    </clipPath>
    <clipPath
       clipPathUnits="userSpaceOnUse"
       id="clipPath3661">
      <path
         d="m 370.39,358.2 h 13.847 V 341.041 H 370.39 Z"
         id="path3659" />
    </clipPath>
    <clipPath
       clipPathUnits="userSpaceOnUse"
       id="clipPath3677">
      <path
         d="m 378.254,345.648 h 10.509 v -12.945 h -10.509 z"
         id="path3675" />
    </clipPath>
    <clipPath
       clipPathUnits="userSpaceOnUse"
       id="clipPath3693">
      <path
         d="m 387.457,316.052 h 10.509 v -12.945 h -10.509 z"
         id="path3691" />
    </clipPath>
    <clipPath
       clipPathUnits="userSpaceOnUse"
       id="clipPath3709">
      <path
         d="m 422.49,355.84 h 10.943 v -8.884 H 422.49 Z"
         id="path3707" />
    </clipPath>
    <clipPath
       clipPathUnits="userSpaceOnUse"
       id="clipPath3725">
      <path
         d="m 403.506,358.544 h 24.455 V 328.6 h -24.455 z"
         id="path3723" />
    </clipPath>
    <clipPath
       clipPathUnits="userSpaceOnUse"
       id="clipPath3741">
      <path
         d="m 368.256,311.853 h 24.456 v -29.945 h -24.456 z"
         id="path3739" />
    </clipPath>
    <clipPath
       clipPathUnits="userSpaceOnUse"
       id="clipPath3757">
      <path
         d="m 402.97,365.665 h 11.114 V 352.399 H 402.97 Z"
         id="path3755" />
    </clipPath>
    <clipPath
       clipPathUnits="userSpaceOnUse"
       id="clipPath3773">
      <path
         d="m 422.404,304.81 h 11.114 v -13.266 h -11.114 z"
         id="path3771" />
    </clipPath>
    <clipPath
       clipPathUnits="userSpaceOnUse"
       id="clipPath3849">
      <path
         d="m 387.459,311.51 h 10.391 v -8.401 h -10.391 z"
         id="path3847" />
    </clipPath>
    <clipPath
       clipPathUnits="userSpaceOnUse"
       id="clipPath3865">
      <path
         d="m 422.49,355.84 h 10.943 v -8.884 H 422.49 Z"
         id="path3863" />
    </clipPath>
    <clipPath
       clipPathUnits="userSpaceOnUse"
       id="clipPath3881">
      <path
         d="m 413.34,358.54 h 14.622 V 328.599 H 413.34 Z"
         id="path3879" />
    </clipPath>
    <clipPath
       clipPathUnits="userSpaceOnUse"
       id="clipPath3897">
      <path
         d="m 378.28,311.1 h 14.435 V 281.904 H 378.28 Z"
         id="path3895" />
    </clipPath>
    <clipPath
       clipPathUnits="userSpaceOnUse"
       id="clipPath3913">
      <path
         d="m 412.49,364.64 h 1.589 v -8.74 h -1.589 z"
         id="path3911" />
    </clipPath>
    <clipPath
       clipPathUnits="userSpaceOnUse"
       id="clipPath3929">
      <path
         d="m 422.404,304.81 h 11.114 v -13.266 h -11.114 z"
         id="path3927" />
    </clipPath>
    <clipPath
       clipPathUnits="userSpaceOnUse"
       id="clipPath4509">
      <path
         d="m 188.148,97.847 c 0,-34.16 27.692,-61.852 61.852,-61.852 v 0 c 34.161,0 61.853,27.692 61.853,61.852 v 0 c 0,34.16 -27.692,61.853 -61.853,61.853 v 0 c -34.16,0 -61.852,-27.693 -61.852,-61.853"
         id="path4507" />
    </clipPath>
    <clipPath
       clipPathUnits="userSpaceOnUse"
       id="clipPath12551">
      <path
         d="m -311.8526,402.153 h 500 v -500 h -500 z"
         id="path12553"
         style="stroke-width:0.999998" />
    </clipPath>
    <clipPath
       clipPathUnits="userSpaceOnUse"
       id="clipPath12547">
      <path
         d="m -461.9866,402.153 h 500 v -500 h -500 z"
         id="path12549"
         style="stroke-width:0.999998" />
    </clipPath>
    <clipPath
       clipPathUnits="userSpaceOnUse"
       id="clipPath4289">
      <path
         d="m 338.281,97.847 c 0,-34.16 27.692,-61.852 61.853,-61.852 v 0 c 34.16,0 61.852,27.692 61.852,61.852 v 0 c 0,34.16 -27.692,61.853 -61.852,61.853 v 0 c -34.161,0 -61.853,-27.693 -61.853,-61.853"
         id="path4287" />
    </clipPath>
    <clipPath
       clipPathUnits="userSpaceOnUse"
       id="clipPath4461">
      <path
         d="m 411.287,122.855 h 3.234 v -3.577 h -3.234 z"
         id="path4459" />
    </clipPath>
    <clipPath
       clipPathUnits="userSpaceOnUse"
       id="clipPath4481">
      <path
         d="m 414.553,120.557 h 2.492 v -3.675 h -2.492 z"
         id="path4479" />
    </clipPath>
  </defs>
  <g
     inkscape:label="Layer 1"
     inkscape:groupmode="layer"
     id="layer1"
     transform="translate(-131.58019,-129.98582)">
    <g
       id="g1899"
       transform="matrix(0.35277777,0,0,-0.35277777,175.22077,151.80618)"
       clip-path="url(#clipPath12547)">
      <path
         d="m 0,0 c 0,-34.16 -27.692,-61.853 -61.853,-61.853 -34.16,0 -61.852,27.693 -61.852,61.853 0,34.16 27.692,61.853 61.852,61.853 C -27.692,61.853 0,34.16 0,0"
         style="fill:#dfdfdf;fill-opacity:1;fill-rule:nonzero;stroke:none"
         id="path1901" />
    </g>
    <g
       id="g4283"
       transform="matrix(0.35277777,0,0,-0.35277777,12.242172,186.32443)">
      <g
         id="g4285"
         clip-path="url(#clipPath4289)">
        <g
           id="g4291"
           transform="translate(394.9048,145.9888)">
          <path
             d="m 0,0 c 0,0 13.26,7.33 25.044,0 11.784,-7.33 17.392,-25.396 15.374,-40.556 -2.019,-15.16 10.337,-25.171 11.674,-36.433 1.337,-11.262 -6.057,-16.471 -8.539,-22.381 -2.842,-6.765 8.539,-30.801 -20.427,-36.375 -36.222,-6.97 -50.082,15.307 -46.386,33.728 1.81,9.023 6.885,15.435 6.792,22.734 -0.094,7.3 -5.253,13.118 -2.561,22.374 2.692,9.256 6.256,7.998 7.727,22.532 C -9.832,-19.844 -12.825,-2.472 0,0"
             style="fill:#2f241c;fill-opacity:1;fill-rule:nonzero;stroke:none"
             id="path4293" />
        </g>
        <g
           id="g4295"
           transform="translate(417.4454,146.3358)">
          <path
             d="m 0,0 c 7.845,-5.114 13.703,-12.276 17.127,-20.607 1.735,-4.221 2.785,-8.675 3.069,-13.188 0.372,-5.923 -0.535,-11.467 1.67,-17.216 3.53,-9.206 10.589,-16.888 10.254,-27.141 -0.155,-4.731 -1.645,-9.373 -4.355,-13.38 -3.132,-4.633 -7.59,-8.288 -10.209,-13.249 -0.109,-0.205 -0.428,-0.026 -0.327,0.177 2.183,4.411 5.725,7.778 8.672,11.725 3.526,4.723 5.519,10.339 5.353,16.12 -0.279,9.747 -7.241,17.241 -10.494,26.125 -1.472,4.022 -1.566,7.918 -1.436,12.132 0.154,4.981 -0.377,9.866 -1.879,14.663 C 14.483,-14.38 8.172,-6.208 -0.102,-0.123 -0.176,-0.068 -0.078,0.051 0,0"
             style="fill:#48362a;fill-opacity:1;fill-rule:nonzero;stroke:none"
             id="path4297" />
        </g>
        <g
           id="g4299"
           transform="translate(371.7756,46.5818)">
          <path
             d="M 0,0 C 0.912,4.357 3.191,8.31 4.099,12.651 5.193,17.88 3.872,23.088 2.875,28.221 1.452,35.545 1.613,42.462 4.846,49.36 c 2.09,4.459 4.639,8.631 6.191,13.323 1.679,5.081 2.624,10.413 2.765,15.74 0.003,0.117 0.188,0.115 0.189,-0.002 C 14.047,70.57 12.578,63.135 9.145,55.967 7.173,51.848 4.714,47.981 3.578,43.536 2.212,38.192 2.745,33.031 3.678,27.673 4.3,24.102 5.052,20.483 5.023,16.845 4.993,13.061 3.8,9.709 2.462,6.177 -1.003,-2.974 -0.948,-12.348 2.622,-21.46 2.683,-21.617 2.404,-21.729 2.336,-21.573 -0.626,-14.746 -1.524,-7.282 0,0"
             style="fill:#48362a;fill-opacity:1;fill-rule:nonzero;stroke:none"
             id="path4301" />
        </g>
        <g
           id="g4303"
           transform="translate(447.9698,70.303)">
          <path
             d="m 0,0 c -0.322,8.029 -5.916,13.481 -9.311,20.441 -2.566,5.259 -4.31,10.873 -3.46,16.668 0.014,0.094 0.184,0.072 0.179,-0.023 -0.435,-8.388 3.085,-15.992 7.727,-23.014 3.086,-4.669 5.64,-9.158 5.669,-14.778 0.027,-5.504 -2.172,-10.143 -5.308,-14.699 -2.235,-3.247 -4.434,-6.274 -5.38,-10.112 -0.94,-3.816 -0.73,-7.828 -0.544,-11.703 0.009,-0.203 -0.319,-0.199 -0.337,0 -0.532,6.013 -0.62,11.845 2.406,17.337 C -4.641,-13.136 0.326,-8.158 0,0"
             style="fill:#48362a;fill-opacity:1;fill-rule:nonzero;stroke:none"
             id="path4305" />
        </g>
        <g
           id="g4307"
           transform="translate(370.3844,52.2795)">
          <path
             d="m 0,0 c 1.21,2.756 2.909,5.269 4.614,7.775 3.072,4.514 3.584,8.177 2.562,13.538 -0.024,0.122 0.162,0.174 0.202,0.052 C 8.851,16.95 9.2,13.281 6.582,9.215 2.93,3.54 -0.649,-1.63 -1.4,-8.405 -2.734,-20.429 4.058,-31.642 15.066,-37.726 15.221,-37.812 15.083,-38.03 14.924,-37.951 5.685,-33.4 -0.793,-25.169 -2.141,-15.461 -2.865,-10.25 -2.136,-4.867 0,0"
             style="fill:#48362a;fill-opacity:1;fill-rule:nonzero;stroke:none"
             id="path4309" />
        </g>
        <g
           id="g4311"
           transform="translate(381.7159,66.2427)">
          <path
             d="m 0,0 c -26.215,-29.495 -57.961,-90.318 -50.848,-101.943 7.923,-12.949 45.746,29.052 44.446,30.954 -1.105,1.615 11.191,37.999 20.118,64.605 C 22.635,20.197 6.483,7.294 0,0"
             style="fill:#ed776a;fill-opacity:1;fill-rule:nonzero;stroke:none"
             id="path4313" />
        </g>
        <g
           id="g4315"
           transform="translate(381.7159,66.2427)">
          <path
             d="m 0,0 c -26.215,-29.495 -57.961,-90.318 -50.848,-101.943 7.923,-12.949 45.746,29.052 44.446,30.954 -1.105,1.615 11.191,37.999 20.118,64.605 C 22.635,20.197 6.483,7.294 0,0"
             style="fill:#6585f4;fill-opacity:1;fill-rule:nonzero;stroke:none"
             id="path4317" />
        </g>
        <g
           id="g4319"
           transform="translate(392.56,70.2)">
          <path
             d="m 0,0 c 0,-4.21 -3.42,-7.63 -7.63,-7.63 -1.86,0 -3.56,0.66 -4.88,1.75 0.55,0.65 1.11,1.29 1.67,1.92 2.43,2.74 6.22,6.27 9.54,8.21 C -0.48,3.04 0,1.57 0,0"
             style="fill:#f9e1d9;fill-opacity:1;fill-rule:nonzero;stroke:none"
             id="path4321" />
        </g>
        <g
           id="g4323"
           transform="translate(394.13,55.98)">
          <path
             d="M 0,0 C -0.44,-1.31 -0.89,-2.65 -1.34,-3.99 -1.28,-2.51 -0.8,-1.14 0,0"
             style="fill:#f9e1d9;fill-opacity:1;fill-rule:nonzero;stroke:none"
             id="path4325" />
        </g>
        <g
           id="g4327"
           transform="translate(384.927,35.9944)">
          <path
             d="m 0,0 c 0,-4.213 -3.415,-7.629 -7.629,-7.629 -4.213,0 -7.629,3.416 -7.629,7.629 0,4.213 3.416,7.629 7.629,7.629 C -3.415,7.629 0,4.213 0,0"
             style="fill:#f9e1d9;fill-opacity:1;fill-rule:nonzero;stroke:none"
             id="path4329" />
        </g>
        <g
           id="g4331"
           transform="translate(356.4228,-49.1489)">
          <path
             d="m 0,0 6.584,44.613 c 0,0 -10.554,18.426 -4.431,31.65 3.091,6.698 24.283,39.431 35.7,47.717 10.71,7.773 25.38,0.684 30.369,-6.078 C 82.568,98.461 89.558,63.466 97.568,0 Z"
             style="fill:#6585f4;fill-opacity:1;fill-rule:nonzero;stroke:none"
             id="path4333" />
        </g>
        <g
           id="g4335"
           transform="translate(392.56,70.2)">
          <path
             d="m 0,0 c 0,-4.21 -3.42,-7.63 -7.63,-7.63 -0.77,0 -1.51,0.11 -2.2,0.32 3.29,4.06 6.5,7.62 9.3,10.11 C -0.19,1.93 0,0.99 0,0"
             style="fill:#f9e1d9;fill-opacity:1;fill-rule:nonzero;stroke:none"
             id="path4337" />
        </g>
        <g
           id="g4339"
           transform="translate(408.028,51.6413)">
          <path
             d="m 0,0 c 0,-4.213 -3.416,-7.629 -7.629,-7.629 -4.213,0 -7.629,3.416 -7.629,7.629 0,4.213 3.416,7.629 7.629,7.629 C -3.416,7.629 0,4.213 0,0"
             style="fill:#f9e1d9;fill-opacity:1;fill-rule:nonzero;stroke:none"
             id="path4341" />
        </g>
        <g
           id="g4343"
           transform="translate(428.19,63.36)">
          <path
             d="m 0,0 c -1.39,-1.68 -3.5,-2.75 -5.86,-2.75 -4.21,0 -7.63,3.41 -7.63,7.63 0,2.58 1.29,4.87 3.26,6.25 2.85,-1.68 5.2,-3.72 6.68,-5.74 C -2.31,3.71 -1.13,1.92 0,0"
             style="fill:#f9e1d9;fill-opacity:1;fill-rule:nonzero;stroke:none"
             id="path4345" />
        </g>
        <g
           id="g4347"
           transform="translate(431.6709,41.4638)">
          <path
             d="m 0,0 c 0,-4.213 -3.415,-7.629 -7.629,-7.629 -4.213,0 -7.629,3.416 -7.629,7.629 0,4.213 3.416,7.629 7.629,7.629 C -3.415,7.629 0,4.213 0,0"
             style="fill:#f9e1d9;fill-opacity:1;fill-rule:nonzero;stroke:none"
             id="path4349" />
        </g>
        <g
           id="g4351"
           transform="translate(384.927,35.9944)">
          <path
             d="m 0,0 c 0,-4.213 -3.415,-7.629 -7.629,-7.629 -4.213,0 -7.629,3.416 -7.629,7.629 0,4.213 3.416,7.629 7.629,7.629 C -3.415,7.629 0,4.213 0,0"
             style="fill:#f9e1d9;fill-opacity:1;fill-rule:nonzero;stroke:none"
             id="path4353" />
        </g>
        <g
           id="g4355"
           transform="translate(375.628,54.2601)">
          <path
             d="m 0,0 c -2.166,-2.972 -4.269,-5.989 -6.337,-9.031 0.564,1.184 1.132,2.365 1.688,3.552 0.04,0.085 -0.086,0.157 -0.13,0.071 -0.768,-1.487 -1.476,-2.995 -2.166,-4.513 -2.763,-4.092 -5.446,-8.238 -8.034,-12.441 -1.098,-1.783 -2.106,-3.6 -2.847,-5.564 -0.717,-1.9 -1.162,-3.902 -1.397,-5.918 -0.236,-2.019 -0.254,-4.048 -0.098,-6.075 0.161,-2.087 0.413,-4.154 0.881,-6.196 0.529,-2.303 1.249,-4.595 2.182,-6.768 0.459,-1.067 0.948,-2.127 1.475,-3.163 0.482,-0.945 1.462,-2.875 1.448,-2.95 -0.197,-1.068 -0.398,-1.818 -0.533,-2.716 -0.138,-0.916 -0.276,-1.831 -0.414,-2.746 -0.275,-1.832 -2.653,-19.65 -2.921,-21.482 -0.533,-3.638 -0.989,-7.28 -1.444,-10.928 -0.26,-2.093 -0.397,-4.205 -0.692,-6.293 -0.011,-0.084 0.117,-0.119 0.131,-0.032 0.301,1.819 0.752,3.614 1.083,5.428 0.331,1.817 0.667,3.632 1.007,5.447 0.688,3.668 3.337,23.356 3.912,27.043 0.159,1.02 0.318,2.04 0.477,3.06 0.158,1.012 0.428,2.375 0.389,3.402 0,0 -3.267,6.713 -4.536,11.42 -0.533,1.975 -1.078,4.03 -1.298,6.067 -0.216,2.003 -0.238,4.021 -0.074,6.029 0.165,2.007 0.542,3.998 1.158,5.917 0.634,1.98 1.546,3.823 2.563,5.632 2.133,3.79 4.4,7.511 6.699,11.202 2.607,4.186 5.244,8.355 7.94,12.484 C 0.158,0.008 0.047,0.064 0,0"
             style="fill:#3c3278;fill-opacity:1;fill-rule:nonzero;stroke:none"
             id="path4357" />
        </g>
        <g
           id="g4359"
           transform="translate(431.6719,59.511)">
          <path
             d="m 0,0 c 28.252,-35.953 38.911,-100.537 23.23,-105.571 -14.329,-4.6 -73.261,10.147 -90.814,16.11 -5.157,1.752 10.768,41.839 16.283,39.973 6.666,-2.256 43.115,-10.892 43.821,-10.908 1.514,-0.035 -6.585,39.728 -10.06,57.746 C -22.382,22.453 -10.609,13.501 0,0"
             style="fill:#ed776a;fill-opacity:1;fill-rule:nonzero;stroke:none"
             id="path4361" />
        </g>
        <g
           id="g4363"
           transform="translate(423.6627,0.7441)">
          <path
             d="m 0,0 c 0.456,0.273 -8.01,38.651 -10.85,58.677 -2.839,20.026 6.105,18.102 18.976,0.982 13.786,-18.339 38.333,-67.982 29.829,-104.742 -2.753,-11.904 -88.034,4.772 -88.034,4.772 l 11.492,49.015 c 0,0 37.882,-9.126 38.587,-8.704"
             style="fill:#6585f4;fill-opacity:1;fill-rule:nonzero;stroke:none"
             id="path4365" />
        </g>
        <g
           id="g4367"
           transform="translate(428.8,64.2)">
          <path
             d="m 0,0 c -1.34,-2.16 -3.74,-3.59 -6.47,-3.59 -4.21,0 -7.63,3.41 -7.63,7.63 0,2.17 0.91,4.14 2.38,5.52 C -8.82,9.03 -4.76,5.71 0,0"
             style="fill:#f9e1d9;fill-opacity:1;fill-rule:nonzero;stroke:none"
             id="path4369" />
        </g>
        <g
           id="g4371"
           transform="translate(431.6709,41.4638)">
          <path
             d="m 0,0 c 0,-4.213 -3.415,-7.629 -7.629,-7.629 -4.213,0 -7.629,3.416 -7.629,7.629 0,4.213 3.416,7.629 7.629,7.629 C -3.415,7.629 0,4.213 0,0"
             style="fill:#f9e1d9;fill-opacity:1;fill-rule:nonzero;stroke:none"
             id="path4373" />
        </g>
        <g
           id="g4375"
           transform="translate(448.94,30.22)">
          <path
             d="m 0,0 c -3.92,0.32 -6.99,3.6 -6.99,7.6 0,1.53 0.45,2.97 1.24,4.16 C -3.81,8.1 -1.87,4.15 0,0"
             style="fill:#f9e1d9;fill-opacity:1;fill-rule:nonzero;stroke:none"
             id="path4377" />
        </g>
        <g
           id="g4379"
           transform="translate(423.2414,0.3514)">
          <path
             d="m 0,0 c 0.032,0.085 -4.997,25.276 -5.51,26.193 -0.527,0.95 -1.668,3.062 -2.136,4.046 -0.942,1.986 -1.76,4.017 -2.628,6.028 -0.072,0.166 0.179,0.294 0.252,0.128 0.937,-1.945 2.042,-3.811 3.156,-5.653 0.555,-0.905 1.109,-1.818 1.665,-2.715 0.042,-0.06 -2.679,14.359 -3.06,16.891 -0.031,0.187 0.174,0.24 0.231,0.083 0.818,-2.549 8.651,-41.93 9.433,-45.13 0,0 -0.541,0.009 -1.403,0.129"
             style="fill:#3c3278;fill-opacity:1;fill-rule:nonzero;stroke:none"
             id="path4381" />
        </g>
        <g
           id="g4383"
           transform="translate(414.1757,74.4158)">
          <path
             d="m 0,0 c -0.5,-1.694 -9.332,-12.371 -17.159,-11.555 -2.549,0.271 -1.694,14.247 -1.694,14.247 l -0.173,1.047 -2.408,14.646 17.61,9.93 2.538,1.302 c 0,0 0.394,-4.051 0.835,-9.099 0.022,-0.234 0.043,-0.468 0.063,-0.719 0.033,-0.285 0.067,-0.554 0.084,-0.821 0.076,-0.753 0.15,-1.523 0.207,-2.291 0.047,-0.584 0.094,-1.152 0.12,-1.768 C 0.066,14.302 0.094,13.703 0.136,13.087 0.42,6.998 0.202,0.72 0,0"
             style="fill:#ed776a;fill-opacity:1;fill-rule:nonzero;stroke:none"
             id="path4385" />
        </g>
        <g
           id="g4387"
           transform="translate(413.7246,94.9338)">
          <path
             d="m 0,0 c -4.8,-11.273 -14.263,-15.44 -18.575,-16.779 l -2.408,14.646 17.611,9.93 2.537,1.302 c 0,0 0.394,-4.051 0.835,-9.099"
             style="fill:#000000;fill-opacity:0.8;fill-rule:nonzero;stroke:none"
             id="path4389" />
        </g>
        <g
           id="g4391"
           transform="translate(373.3122,113.2207)">
          <path
             d="M 0,0 C -1.739,-25.992 13.633,-29.969 19.238,-30.337 24.326,-30.672 41.694,-31.166 46.11,-5.492 50.525,20.181 38.99,29.206 27.393,30.587 15.796,31.969 1.739,25.993 0,0"
             style="fill:#ed776a;fill-opacity:1;fill-rule:nonzero;stroke:none"
             id="path4393" />
        </g>
        <g
           id="g4395"
           transform="translate(381.2105,119.8324)">
          <path
             d="M 0,0 C 0.613,0.049 1.172,0.196 1.773,0.307 2.452,0.431 3.005,0.461 3.521,0.964 3.798,1.234 3.798,1.801 3.562,2.095 3.01,2.778 2.141,2.832 1.317,2.714 0.424,2.587 -0.233,2.26 -0.844,1.599 -1.436,0.958 -0.809,-0.064 0,0"
             style="fill:#000000;fill-opacity:1;fill-rule:nonzero;stroke:none"
             id="path4397" />
        </g>
        <g
           id="g4399"
           transform="translate(399.2648,120.9225)">
          <path
             d="m 0,0 c -0.61,0.083 -1.159,0.262 -1.753,0.406 -0.671,0.163 -1.222,0.224 -1.709,0.755 -0.261,0.285 -0.229,0.852 0.024,1.131 0.589,0.652 1.46,0.656 2.276,0.493 C -0.277,2.607 0.359,2.244 0.933,1.549 1.488,0.875 0.804,-0.109 0,0"
             style="fill:#3c3278;fill-opacity:1;fill-rule:nonzero;stroke:none"
             id="path4401" />
        </g>
        <g
           id="g4403"
           transform="translate(395.2267,111.9096)">
          <path
             d="M 0,0 C 0.017,0.067 0.135,-0.09 0.13,-0.163 -0.003,-1.932 0.143,-3.981 1.721,-4.639 1.77,-4.659 1.76,-4.748 1.702,-4.737 -0.243,-4.377 -0.409,-1.656 0,0"
             style="fill:#000000;fill-opacity:1;fill-rule:nonzero;stroke:none"
             id="path4405" />
        </g>
        <g
           id="g4407"
           transform="translate(396.8885,113.6921)">
          <path
             d="M 0,0 C 2.86,0.093 2.837,-5.633 0.187,-5.719 -2.42,-5.804 -2.396,-0.079 0,0"
             style="fill:#000000;fill-opacity:1;fill-rule:nonzero;stroke:none"
             id="path4409" />
        </g>
        <g
           id="g4411"
           transform="translate(398.0118,113.3848)">
          <path
             d="m 0,0 c 0.499,-0.326 0.987,-0.9 1.589,-0.962 0.697,-0.072 1.227,0.526 1.685,1.1 0.047,0.06 0.097,0.01 0.098,-0.066 C 3.384,-1.025 2.957,-2.149 1.78,-2.308 0.707,-2.453 -0.06,-1.478 -0.329,-0.374 -0.379,-0.169 -0.201,0.131 0,0"
             style="fill:#000000;fill-opacity:1;fill-rule:nonzero;stroke:none"
             id="path4413" />
        </g>
        <g
           id="g4415"
           transform="translate(384.4047,113.2176)">
          <path
             d="m 0,0 c -0.013,0.068 -0.14,-0.082 -0.138,-0.155 0.033,-1.774 -0.229,-3.812 -1.841,-4.379 -0.05,-0.018 -0.046,-0.107 0.013,-0.099 C -0.004,-4.384 0.315,-1.675 0,0"
             style="fill:#000000;fill-opacity:1;fill-rule:nonzero;stroke:none"
             id="path4417" />
        </g>
        <g
           id="g4419"
           transform="translate(382.8456,115.0908)">
          <path
             d="M 0,0 C -2.85,0.254 -3.149,-5.464 -0.509,-5.699 2.089,-5.932 2.389,-0.213 0,0"
             style="fill:#000000;fill-opacity:1;fill-rule:nonzero;stroke:none"
             id="path4421" />
        </g>
        <g
           id="g4423"
           transform="translate(381.6337,114.7773)">
          <path
             d="m 0,0 c -0.468,-0.28 -0.944,-0.806 -1.485,-0.814 -0.628,-0.008 -1.058,0.634 -1.427,1.248 -0.038,0.064 -0.085,0.018 -0.091,-0.057 -0.088,-1.091 0.214,-2.249 1.253,-2.513 0.947,-0.242 1.7,0.659 2.017,1.734 C 0.327,-0.203 0.188,0.112 0,0"
             style="fill:#000000;fill-opacity:1;fill-rule:nonzero;stroke:none"
             id="path4425" />
        </g>
        <g
           id="g4427"
           transform="translate(393.4776,98.1511)">
          <path
             d="m 0,0 c -0.407,-0.433 -0.807,-1.021 -1.448,-1.102 -0.614,-0.077 -1.349,0.171 -1.923,0.367 -0.057,0.02 -0.111,-0.042 -0.073,-0.094 0.488,-0.661 1.473,-1.047 2.289,-0.869 0.796,0.173 1.165,0.883 1.329,1.625 C 0.197,0.031 0.059,0.063 0,0"
             style="fill:#000000;fill-opacity:1;fill-rule:nonzero;stroke:none"
             id="path4429" />
        </g>
        <g
           id="g4431"
           transform="translate(386.1645,104.679)">
          <path
             d="m 0,0 c 0,0 -0.408,-2.643 -0.428,-3.893 -0.001,-0.116 0.3,-0.177 0.724,-0.208 0.02,-0.007 0.031,-0.015 0.049,-0.002 2.2,-0.38 4.434,0.347 5.804,2.126 C 6.237,-1.856 6.08,-1.724 5.965,-1.8 4.299,-2.984 2.474,-3.267 0.517,-3.269 0.434,-2.921 1.367,1.235 1.169,1.253 0.486,1.322 -0.866,0.879 -1.679,0.655 -0.989,6.185 0.582,11.56 1.187,17.076 1.205,17.274 0.923,17.337 0.862,17.162 -1.183,11.646 -2.117,5.299 -2.977,-0.393 -3.09,-1.102 -0.503,-0.205 0,0"
             style="fill:#000000;fill-opacity:1;fill-rule:nonzero;stroke:none"
             id="path4433" />
        </g>
        <g
           id="g4435"
           transform="translate(386.8576,101.0516)">
          <path
             d="M 0,0 C 0,0 1.089,-1.676 2.68,-2.356 3.266,-2.608 3.907,-2.733 4.594,-2.594 6.007,-2.315 6.12,-1.041 5.933,0.066 5.781,0.976 5.413,1.775 5.413,1.775 5.413,1.775 3.266,0.001 0,0"
             style="fill:#000000;fill-opacity:1;fill-rule:nonzero;stroke:none"
             id="path4437" />
        </g>
        <g
           id="g4439"
           transform="translate(389.5376,98.6959)">
          <path
             d="M 0,0 C 0.586,-0.252 1.227,-0.377 1.914,-0.239 3.327,0.041 3.44,1.314 3.253,2.421 1.753,2.361 0.216,1.441 0,0"
             style="fill:#fba3b7;fill-opacity:1;fill-rule:nonzero;stroke:none"
             id="path4441" />
        </g>
        <g
           id="g4443"
           transform="translate(418.3127,102.207)">
          <path
             d="m 0,0 c -5.683,3.117 -5.56,9.452 -5.56,9.452 -7.079,3.544 -10.66,9.564 -11.032,10.175 0.145,-0.571 1.181,-4.697 1.774,-6.78 -16.611,4.014 -21.015,17.517 -21.015,17.517 -5.786,-5.358 -7.09,-8.896 -7.987,-10.65 0,0 0.516,10.639 6.245,17.515 7.011,8.419 15.764,6.356 15.764,6.356 0,0 13.297,3.407 22.754,-8.432 C 11.123,22.384 0,0 0,0"
             style="fill:#2f241c;fill-opacity:1;fill-rule:nonzero;stroke:none"
             id="path4445" />
        </g>
        <g
           id="g4447"
           transform="translate(390.8933,118.5128)">
          <path
             d="m 0,0 c 2.583,-1.677 5.498,-2.864 8.425,-3.663 0.024,-0.007 0.032,0.031 0.009,0.039 -4.652,1.601 -8.749,4.357 -11.874,8.262 -1.321,1.65 -2.434,3.452 -3.313,5.395 -0.919,2.03 -1.789,4.439 -1.836,6.711 -0.004,0.173 -0.265,0.162 -0.261,-0.011 0.05,-2.402 0.121,-4.618 0.923,-6.892 0.761,-2.159 1.92,-4.19 3.389,-5.91 C -3.225,2.393 -1.683,1.093 0,0"
             style="fill:#48362a;fill-opacity:1;fill-rule:nonzero;stroke:none"
             id="path4449" />
        </g>
        <g
           id="g4451"
           transform="translate(414.4948,120.8924)">
          <path
             d="M 0,0 C 0,0 0.354,7.844 -1.608,6.028 -3.57,4.212 -3.512,2.31 -3.512,2.31 c 0,0 -2.578,-1.721 -2.163,-2.74 0.414,-1.018 4.28,-1.511 4.762,-0.958 C -0.431,-0.835 0,0 0,0"
             style="fill:#6585f4;fill-opacity:1;fill-rule:nonzero;stroke:none"
             id="path4453" />
        </g>
        <g
           id="g4455">
          <g
             id="g4457" />
          <g
             id="g4469">
            <g
               clip-path="url(#clipPath4461)"
               opacity="0.100006"
               id="g4467">
              <g
                 transform="translate(414.4963,120.8943)"
                 id="g4465">
                <path
                   d="m 0,0 c 0,0 -0.434,-0.836 -0.911,-1.387 -0.238,-0.263 -1.256,-0.292 -2.298,-0.127 0.163,0.612 0.416,1.434 0.711,2.005 0.4,0.776 1.852,1.274 2.517,1.47 C 0.039,0.864 0,0 0,0"
                   style="fill:#010000;fill-opacity:1;fill-rule:nonzero;stroke:none"
                   id="path4463" />
              </g>
            </g>
          </g>
        </g>
        <g
           id="g4471"
           transform="translate(415.5492,120.1535)">
          <path
             d="M 0,0 C 0,0 8.875,2.776 8.14,-0.054 7.405,-2.883 5.151,-3.389 5.151,-3.389 c 0,0 -0.193,-3.517 -1.668,-3.342 -1.475,0.175 -4.761,4.524 -4.457,5.251 C -0.669,-0.753 0,0 0,0"
             style="fill:#6585f4;fill-opacity:1;fill-rule:nonzero;stroke:none"
             id="path4473" />
        </g>
        <g
           id="g4475">
          <g
             id="g4477" />
          <g
             id="g4489">
            <g
               clip-path="url(#clipPath4481)"
               opacity="0.100006"
               id="g4487">
              <g
                 transform="translate(416.6877,118.0836)"
                 id="g4485">
                <path
                   d="m 0,0 c -0.27,-0.474 -0.796,-0.887 -1.322,-1.202 -0.554,0.819 -0.903,1.534 -0.792,1.794 0.303,0.726 0.975,1.476 0.975,1.476 0,0 0.584,0.181 1.437,0.405 C 0.379,1.89 0.447,0.789 0,0"
                   style="fill:#010000;fill-opacity:1;fill-rule:nonzero;stroke:none"
                   id="path4483" />
              </g>
            </g>
          </g>
        </g>
        <g
           id="g4491"
           transform="translate(416.0681,118.6392)">
          <path
             d="m 0,0 c -0.64,-0.973 -1.948,-1.243 -2.921,-0.603 -0.972,0.64 -1.242,1.948 -0.602,2.92 0.64,0.973 1.947,1.243 2.92,0.603 C 0.37,2.28 0.64,0.973 0,0"
             style="fill:#6585f4;fill-opacity:1;fill-rule:nonzero;stroke:none"
             id="path4493" />
        </g>
        <g
           id="g4495"
           transform="translate(414.26,106.5527)">
          <path
             d="M 0,0 C 0,0 5.523,8.242 9.253,6.288 12.981,4.333 8.94,-7.536 4.641,-9.233 c -4.299,-1.698 -5.949,2.251 -5.949,2.251 z"
             style="fill:#ed776a;fill-opacity:1;fill-rule:nonzero;stroke:none"
             id="path4497" />
        </g>
        <g
           id="g4499"
           transform="translate(422.2694,109.4669)">
          <path
             d="m 0,0 c 0.07,0.008 0.085,-0.09 0.025,-0.115 -3.012,-1.291 -4.555,-4.137 -5.617,-7.079 0.881,1.141 2.098,1.781 3.625,0.736 0.08,-0.055 0.007,-0.18 -0.079,-0.164 -1.249,0.242 -2.142,0.009 -2.963,-1.004 -0.581,-0.717 -0.97,-1.617 -1.38,-2.44 -0.137,-0.274 -0.63,-0.139 -0.533,0.176 0.007,0.023 0.016,0.047 0.024,0.07 C -7.051,-5.949 -4.149,-0.472 0,0"
             style="fill:#000000;fill-opacity:1;fill-rule:nonzero;stroke:none"
             id="path4501" />
        </g>
      </g>
    </g>
  </g>
</svg>
