<?xml version="1.0" encoding="UTF-8" standalone="no"?>
<!-- Created with Inkscape (http://www.inkscape.org/) -->

<svg
   width="43.640583mm"
   height="43.640728mm"
   viewBox="0 0 43.640584 43.640728"
   version="1.1"
   id="svg26036"
   inkscape:version="1.2 (dc2aedaf03, 2022-05-15)"
   sodipodi:docname="6.svg"
   xmlns:inkscape="http://www.inkscape.org/namespaces/inkscape"
   xmlns:sodipodi="http://sodipodi.sourceforge.net/DTD/sodipodi-0.dtd"
   xmlns="http://www.w3.org/2000/svg"
   xmlns:svg="http://www.w3.org/2000/svg">
  <sodipodi:namedview
     id="namedview26038"
     pagecolor="#505050"
     bordercolor="#eeeeee"
     borderopacity="1"
     inkscape:showpageshadow="0"
     inkscape:pageopacity="0"
     inkscape:pagecheckerboard="0"
     inkscape:deskcolor="#505050"
     inkscape:document-units="mm"
     showgrid="false"
     inkscape:zoom="0.49798681"
     inkscape:cx="-72.291071"
     inkscape:cy="54.218303"
     inkscape:window-width="1366"
     inkscape:window-height="699"
     inkscape:window-x="0"
     inkscape:window-y="0"
     inkscape:window-maximized="1"
     inkscape:current-layer="layer1" />
  <defs
     id="defs26033">
    <clipPath
       clipPathUnits="userSpaceOnUse"
       id="clipPath2909">
      <path
         d="m 38.013,402.153 c 0,-34.16 27.692,-61.852 61.853,-61.852 v 0 c 34.16,0 61.852,27.692 61.852,61.852 v 0 c 0,34.161 -27.692,61.853 -61.852,61.853 v 0 c -34.161,0 -61.853,-27.692 -61.853,-61.853"
         id="path2907" />
    </clipPath>
    <clipPath
       clipPathUnits="userSpaceOnUse"
       id="clipPath12579">
      <path
         d="m -161.7186,97.847 h 500 v -500 h -500 z"
         id="path12581"
         style="stroke-width:0.999998" />
    </clipPath>
    <clipPath
       clipPathUnits="userSpaceOnUse"
       id="clipPath12575">
      <path
         d="m -311.8526,97.847 h 500 v -500 h -500 z"
         id="path12577"
         style="stroke-width:0.999998" />
    </clipPath>
    <clipPath
       clipPathUnits="userSpaceOnUse"
       id="clipPath3185">
      <path
         d="m 188.148,402.153 c 0,-34.16 27.692,-61.852 61.852,-61.852 v 0 c 34.161,0 61.853,27.692 61.853,61.852 v 0 c 0,34.161 -27.692,61.853 -61.853,61.853 v 0 c -34.16,0 -61.852,-27.692 -61.852,-61.853"
         id="path3183" />
    </clipPath>
    <clipPath
       clipPathUnits="userSpaceOnUse"
       id="clipPath12571">
      <path
         d="m -461.9866,97.847 h 500 v -500 h -500 z"
         id="path12573"
         style="stroke-width:0.999998" />
    </clipPath>
    <clipPath
       clipPathUnits="userSpaceOnUse"
       id="clipPath3533">
      <path
         d="m 338.281,402.153 c 0,-34.16 27.692,-61.852 61.853,-61.852 v 0 c 34.16,0 61.852,27.692 61.852,61.852 v 0 c 0,34.161 -27.692,61.853 -61.852,61.853 v 0 c -34.161,0 -61.853,-27.692 -61.853,-61.853"
         id="path3531" />
    </clipPath>
    <clipPath
       clipPathUnits="userSpaceOnUse"
       id="clipPath3609">
      <path
         d="m 370.232,358.302 h 14.005 v -17.261 h -14.005 z"
         id="path3607" />
    </clipPath>
    <clipPath
       clipPathUnits="userSpaceOnUse"
       id="clipPath3625">
      <path
         d="m 378.264,345.649 h 10.426 v -12.95 h -10.426 z"
         id="path3623" />
    </clipPath>
    <clipPath
       clipPathUnits="userSpaceOnUse"
       id="clipPath3641">
      <path
         d="M 368.258,311.851 H 378.79 V 288.93 h -10.532 z"
         id="path3639" />
    </clipPath>
    <clipPath
       clipPathUnits="userSpaceOnUse"
       id="clipPath3661">
      <path
         d="m 370.39,358.2 h 13.847 V 341.041 H 370.39 Z"
         id="path3659" />
    </clipPath>
    <clipPath
       clipPathUnits="userSpaceOnUse"
       id="clipPath3677">
      <path
         d="m 378.254,345.648 h 10.509 v -12.945 h -10.509 z"
         id="path3675" />
    </clipPath>
    <clipPath
       clipPathUnits="userSpaceOnUse"
       id="clipPath3693">
      <path
         d="m 387.457,316.052 h 10.509 v -12.945 h -10.509 z"
         id="path3691" />
    </clipPath>
    <clipPath
       clipPathUnits="userSpaceOnUse"
       id="clipPath3709">
      <path
         d="m 422.49,355.84 h 10.943 v -8.884 H 422.49 Z"
         id="path3707" />
    </clipPath>
    <clipPath
       clipPathUnits="userSpaceOnUse"
       id="clipPath3725">
      <path
         d="m 403.506,358.544 h 24.455 V 328.6 h -24.455 z"
         id="path3723" />
    </clipPath>
    <clipPath
       clipPathUnits="userSpaceOnUse"
       id="clipPath3741">
      <path
         d="m 368.256,311.853 h 24.456 v -29.945 h -24.456 z"
         id="path3739" />
    </clipPath>
    <clipPath
       clipPathUnits="userSpaceOnUse"
       id="clipPath3757">
      <path
         d="m 402.97,365.665 h 11.114 V 352.399 H 402.97 Z"
         id="path3755" />
    </clipPath>
    <clipPath
       clipPathUnits="userSpaceOnUse"
       id="clipPath3773">
      <path
         d="m 422.404,304.81 h 11.114 v -13.266 h -11.114 z"
         id="path3771" />
    </clipPath>
    <clipPath
       clipPathUnits="userSpaceOnUse"
       id="clipPath3849">
      <path
         d="m 387.459,311.51 h 10.391 v -8.401 h -10.391 z"
         id="path3847" />
    </clipPath>
    <clipPath
       clipPathUnits="userSpaceOnUse"
       id="clipPath3865">
      <path
         d="m 422.49,355.84 h 10.943 v -8.884 H 422.49 Z"
         id="path3863" />
    </clipPath>
    <clipPath
       clipPathUnits="userSpaceOnUse"
       id="clipPath3881">
      <path
         d="m 413.34,358.54 h 14.622 V 328.599 H 413.34 Z"
         id="path3879" />
    </clipPath>
    <clipPath
       clipPathUnits="userSpaceOnUse"
       id="clipPath3897">
      <path
         d="m 378.28,311.1 h 14.435 V 281.904 H 378.28 Z"
         id="path3895" />
    </clipPath>
    <clipPath
       clipPathUnits="userSpaceOnUse"
       id="clipPath3913">
      <path
         d="m 412.49,364.64 h 1.589 v -8.74 h -1.589 z"
         id="path3911" />
    </clipPath>
    <clipPath
       clipPathUnits="userSpaceOnUse"
       id="clipPath3929">
      <path
         d="m 422.404,304.81 h 11.114 v -13.266 h -11.114 z"
         id="path3927" />
    </clipPath>
    <clipPath
       clipPathUnits="userSpaceOnUse"
       id="clipPath4509">
      <path
         d="m 188.148,97.847 c 0,-34.16 27.692,-61.852 61.852,-61.852 v 0 c 34.161,0 61.853,27.692 61.853,61.852 v 0 c 0,34.16 -27.692,61.853 -61.853,61.853 v 0 c -34.16,0 -61.852,-27.693 -61.852,-61.853"
         id="path4507" />
    </clipPath>
    <clipPath
       clipPathUnits="userSpaceOnUse"
       id="clipPath12551">
      <path
         d="m -311.8526,402.153 h 500 v -500 h -500 z"
         id="path12553"
         style="stroke-width:0.999998" />
    </clipPath>
    <clipPath
       clipPathUnits="userSpaceOnUse"
       id="clipPath12547">
      <path
         d="m -461.9866,402.153 h 500 v -500 h -500 z"
         id="path12549"
         style="stroke-width:0.999998" />
    </clipPath>
    <clipPath
       clipPathUnits="userSpaceOnUse"
       id="clipPath4289">
      <path
         d="m 338.281,97.847 c 0,-34.16 27.692,-61.852 61.853,-61.852 v 0 c 34.16,0 61.852,27.692 61.852,61.852 v 0 c 0,34.16 -27.692,61.853 -61.852,61.853 v 0 c -34.161,0 -61.853,-27.693 -61.853,-61.853"
         id="path4287" />
    </clipPath>
    <clipPath
       clipPathUnits="userSpaceOnUse"
       id="clipPath4461">
      <path
         d="m 411.287,122.855 h 3.234 v -3.577 h -3.234 z"
         id="path4459" />
    </clipPath>
    <clipPath
       clipPathUnits="userSpaceOnUse"
       id="clipPath4481">
      <path
         d="m 414.553,120.557 h 2.492 v -3.675 h -2.492 z"
         id="path4479" />
    </clipPath>
    <clipPath
       clipPathUnits="userSpaceOnUse"
       id="clipPath12559">
      <path
         d="m -461.9866,250 h 500 v -500 h -500 z"
         id="path12561"
         style="stroke-width:0.999998" />
    </clipPath>
    <clipPath
       clipPathUnits="userSpaceOnUse"
       id="clipPath1909">
      <path
         d="m 338.281,250 c 0,-34.16 27.692,-61.852 61.853,-61.852 v 0 c 34.16,0 61.852,27.692 61.852,61.852 v 0 c 0,34.161 -27.692,61.853 -61.852,61.853 v 0 c -34.161,0 -61.853,-27.692 -61.853,-61.853"
         id="path1907" />
    </clipPath>
    <clipPath
       clipPathUnits="userSpaceOnUse"
       id="clipPath2001">
      <path
         d="m 378.783,231.372 h 45.306 v -29.375 h -45.306 z"
         id="path1999" />
    </clipPath>
    <clipPath
       clipPathUnits="userSpaceOnUse"
       id="clipPath2089">
      <path
         d="m 393.47,206.633 h 7.35 v -32.752 h -7.35 z"
         id="path2087" />
    </clipPath>
    <clipPath
       clipPathUnits="userSpaceOnUse"
       id="clipPath2117">
      <path
         d="m 380.559,207.88 h 4.889 v -29.926 h -4.889 z"
         id="path2115" />
    </clipPath>
  </defs>
  <g
     inkscape:label="Layer 1"
     inkscape:groupmode="layer"
     id="layer1"
     transform="translate(-124.10516,-134.19945)">
    <g
       id="g1887"
       transform="matrix(0.35277777,0,0,-0.35277777,167.74574,156.01981)"
       clip-path="url(#clipPath12559)">
      <path
         d="m 0,0 c 0,-34.16 -27.692,-61.853 -61.853,-61.853 -34.16,0 -61.852,27.693 -61.852,61.853 0,34.16 27.692,61.853 61.852,61.853 C -27.692,61.853 0,34.16 0,0"
         style="fill:#dfdfdf;fill-opacity:1;fill-rule:nonzero;stroke:none"
         id="path1889" />
    </g>
    <g
       id="g1903"
       transform="matrix(0.35277777,0,0,-0.35277777,4.7671402,244.21425)">
      <g
         id="g1905"
         clip-path="url(#clipPath1909)">
        <g
           id="g1911"
           transform="translate(459.2614,102.1137)">
          <path
             d="m 0,0 h -107.048 c -0.449,4.09 15.948,91.078 35.208,119.045 2.185,3.173 20.905,5.483 27.778,-2.41 C -7.661,74.83 0.88,1.003 0,0"
             style="fill:#fba3b7;fill-opacity:1;fill-rule:nonzero;stroke:none"
             id="path1913" />
        </g>
        <g
           id="g1915"
           transform="translate(384.8842,213.9385)">
          <path
             d="m 0,0 c -3.038,-7.871 -14.501,-35.469 -20.732,-55.275 -4.181,-13.292 -5.773,-24.446 -6.688,-27.379 0,0 31.609,10.152 38.726,10.17 10.961,0.027 28.543,-22.864 24.23,-25.732 -6.78,-4.509 -39.098,-19.849 -64.907,-24.665 -14.03,-2.617 -40.462,15.214 -38.374,29.39 2.931,19.896 38.885,72.34 52.564,87.212 C -8.078,1.443 3.702,9.593 0,0"
             style="fill:#c36358;fill-opacity:1;fill-rule:nonzero;stroke:none"
             id="path1917" />
        </g>
        <g
           id="g1919"
           transform="translate(315.2142,116.2444)">
          <path
             d="m 0,0 c 0.662,-14.332 18.59,-26.396 28.986,-27.034 17.932,-1.088 71.726,14.579 71.726,14.579 L 79.803,27.83 c 0,0 -36.605,-12.425 -37.535,-12.775 l 10e-4,0.016 c 0.324,1.068 9.344,34.964 13.375,46.197 0.215,0.619 0.464,1.254 0.699,1.921 1.159,3.112 2.752,7.219 4.51,11.658 l 0.018,0.031 c 0.975,2.457 2.004,5.025 3.016,7.561 l 10e-4,0.016 c 4.421,10.982 8.73,21.434 8.73,21.434 C 66.456,102.878 60.371,99.639 50.381,89.153 40.408,78.682 -1.093,23.643 0,0"
             style="fill:#fba3b7;fill-opacity:1;fill-rule:nonzero;stroke:none"
             id="path1921" />
        </g>
        <g
           id="g1923"
           transform="translate(401.9859,112.5076)">
          <path
             d="m 0,0 c -1.492,2.852 -3.008,5.691 -4.506,8.539 -1.468,2.79 -2.957,5.568 -4.456,8.342 -1.55,2.868 -3.177,5.731 -4.429,8.745 -0.023,0.057 0.056,0.106 0.094,0.055 1.882,-2.481 3.43,-5.216 4.977,-7.915 1.603,-2.794 3.163,-5.613 4.71,-8.437 C -2.094,6.561 -0.633,3.765 0.806,0.957 2.286,-1.931 3.78,-4.926 4.848,-7.995 4.891,-8.118 4.722,-8.239 4.64,-8.118 2.912,-5.55 1.434,-2.74 0,0"
             style="fill:#3c3278;fill-opacity:1;fill-rule:nonzero;stroke:none"
             id="path1925" />
        </g>
        <g
           id="g1927"
           transform="translate(346.2873,125.3576)">
          <path
             d="m 0,0 11.178,5.927 0.017,0.015 10e-4,0.016 c 0.324,1.068 9.344,34.964 13.374,46.196 0.216,0.62 0.465,1.255 0.7,1.922 1.159,3.111 2.752,7.219 4.51,11.658 z"
             style="fill:#3c3278;fill-opacity:1;fill-rule:nonzero;stroke:none"
             id="path1929" />
        </g>
        <g
           id="g1931"
           transform="translate(337.0347,120.4382)">
          <path
             d="m 0,0 c 3.104,2.318 6.45,4.394 9.82,6.3 1.686,0.954 3.403,1.832 5.171,2.621 1.88,0.839 3.867,1.448 5.733,2.292 0.143,0.065 0.248,-0.155 0.105,-0.22 C 19.085,10.204 17.427,9.105 15.743,8.186 13.991,7.231 12.233,6.294 10.459,5.381 6.975,3.59 3.553,1.689 0.092,-0.142 0.007,-0.187 -0.078,-0.058 0,0"
             style="fill:#3c3278;fill-opacity:1;fill-rule:nonzero;stroke:none"
             id="path1933" />
        </g>
        <g
           id="g1935"
           transform="translate(345.1725,129.1182)">
          <path
             d="m 0,0 c 2.805,-0.038 19.742,4.486 22.209,2.161 15.034,-14.172 19.786,-11.317 22.986,-13.163 24.772,-14.252 57.852,-30.995 69.659,-31.1 17.907,-0.145 25.039,14.882 22.058,29.081 C 131.028,15.048 93.174,69.776 76.046,84.317 66.964,92.016 67.682,80.403 71.439,67.781 73.642,60.379 77.495,49.373 81.426,38.574 84.908,28.954 94.132,4.369 94.293,3.792 L 94.292,3.776 C 94.306,3.742 94.321,3.725 94.32,3.709 94.332,3.643 94.267,3.631 94.123,3.672 93.337,3.816 72.153,13.8 50.85,19.284 43.343,21.217 27.71,23.97 22.105,21.468 18.773,19.98 18.716,17.992 18.716,17.992 c 0,0 -2.672,0.243 -5.49,-2.078 -1.87,-1.539 -2.45,-3.717 -2.45,-3.717 0,0 -2.923,-0.409 -4.445,-2.103 C 4.518,8.073 4.357,5.934 4.357,5.934 0.414,4.881 0,0 0,0"
             style="fill:#c36358;fill-opacity:1;fill-rule:nonzero;stroke:none"
             id="path1937" />
        </g>
        <g
           id="g1939"
           transform="translate(370.1937,147.7044)">
          <path
             d="m 0,0 c 2.258,-0.032 4.463,-0.36 6.682,-0.75 0.151,-0.026 0.145,-0.26 -0.014,-0.243 -2.18,0.239 -4.385,0.289 -6.576,0.363 -2.177,0.073 -4.388,0.119 -6.566,0.075 -0.013,0 -0.015,0.022 -10e-4,0.024 C -4.302,-0.173 -2.207,0.032 0,0"
             style="fill:#3c3278;fill-opacity:1;fill-rule:nonzero;stroke:none"
             id="path1941" />
        </g>
        <g
           id="g1943"
           transform="translate(356.0171,141.4496)">
          <path
             d="M 0,0 C 3.878,1.065 6.97,1.654 11.839,1.045 11.995,1.025 11.984,0.792 11.829,0.802 7.201,1.089 4.183,0.62 0.008,-0.084 -0.042,-0.092 -0.044,-0.012 0,0"
             style="fill:#3c3278;fill-opacity:1;fill-rule:nonzero;stroke:none"
             id="path1945" />
        </g>
        <g
           id="g1947"
           transform="translate(349.5769,135.1834)">
          <path
             d="M 0,0 C 3.889,1.6 6.882,2.098 11.197,2.1 11.349,2.1 11.4,1.876 11.241,1.861 7.102,1.466 4.073,0.87 0.056,-0.172 -0.044,-0.198 -0.095,-0.039 0,0"
             style="fill:#3c3278;fill-opacity:1;fill-rule:nonzero;stroke:none"
             id="path1949" />
        </g>
        <g
           id="g1951"
           transform="translate(397.0609,148.1574)">
          <path
             d="m 0,0 c 1.86,-0.242 3.717,-0.79 5.537,-1.238 1.941,-0.478 3.873,-1.005 5.772,-1.631 3.802,-1.253 7.494,-2.759 11.136,-4.417 0.141,-0.065 0.066,-0.281 -0.084,-0.229 -3.709,1.299 -7.454,2.517 -11.203,3.697 C 9.315,-3.239 7.483,-2.623 5.646,-2.022 3.762,-1.405 1.8,-0.938 -0.052,-0.235 -0.178,-0.188 -0.14,0.018 0,0"
             style="fill:#3c3278;fill-opacity:1;fill-rule:nonzero;stroke:none"
             id="path1953" />
        </g>
        <g
           id="g1955"
           transform="translate(411.8762,144.1394)">
          <path
             d="m 0,0 c -3.92,1.327 -5.693,1.335 -5.693,1.335 l -22.286,-37.636 c 0,0 61.387,-22.099 73.991,-23.393 12.604,-1.293 26.943,8.633 27.184,24.458 0.34,22.24 -35.927,75.649 -54.169,96.302 -8.361,9.466 -18.11,16.34 -20.596,14.789 -2.937,-1.833 2.396,-13.734 5.207,-22.612 5.189,-16.39 23.781,-64.592 23.781,-64.592 0,0 -22.75,9.768 -27.419,11.349"
             style="fill:#fba3b7;fill-opacity:1;fill-rule:nonzero;stroke:none"
             id="path1957" />
        </g>
        <g
           id="g1959"
           transform="translate(406.3831,145.5051)">
          <path
             d="m 0,0 c 3.458,-0.202 18.409,-5.409 25.742,-8.556 7.308,-3.135 14.335,-6.858 20.93,-11.308 3.732,-2.519 7.273,-5.26 10.771,-8.091 0.12,-0.098 -0.012,-0.292 -0.14,-0.199 -6.446,4.61 -13.334,8.724 -20.304,12.489 C 30.065,-11.92 23.004,-8.363 15.653,-5.498 11.468,-3.866 4.271,-1.423 0.181,-0.35 -0.974,-0.047 -0.107,0.006 0,0"
             style="fill:#3c3278;fill-opacity:1;fill-rule:nonzero;stroke:none"
             id="path1961" />
        </g>
        <g
           id="g1963"
           transform="translate(421.1026,178.4164)">
          <path
             d="m 0,0 c 0.936,-1.509 1.882,-3.009 2.681,-4.597 0.037,-0.074 0.073,-0.15 0.11,-0.224 -1.188,3.611 -2.314,7.232 -3.394,10.878 -0.067,0.223 0.304,0.344 0.39,0.127 5.274,-13.361 10.169,-26.881 14.919,-40.438 1.328,-3.792 2.495,-7.622 3.701,-11.449 0.042,-0.132 -0.174,-0.199 -0.229,-0.075 -1.449,3.284 -2.91,6.545 -4.237,9.885 -1.326,3.338 -2.558,6.716 -3.805,10.084 C 7.956,-19.918 5.881,-14.001 3.88,-8.05 3.253,-7.008 2.62,-5.969 2.028,-4.908 1.165,-3.361 0.457,-1.742 -0.264,-0.126 -0.342,0.05 -0.097,0.156 0,0"
             style="fill:#3c3278;fill-opacity:1;fill-rule:nonzero;stroke:none"
             id="path1965" />
        </g>
        <g
           id="g1967"
           transform="translate(398.8309,116.0366)">
          <path
             d="m 0,0 c 1.633,2.773 3.243,5.56 4.87,8.337 1.594,2.72 3.166,5.452 4.729,8.189 1.618,2.832 3.189,5.726 5.087,8.381 0.035,0.05 0.119,0.008 0.096,-0.05 C 13.67,21.947 12.164,19.188 10.691,16.449 9.164,13.613 7.595,10.799 6.014,7.993 4.465,5.244 2.862,2.527 1.238,-0.179 -0.432,-2.961 -2.186,-5.812 -4.228,-8.34 -4.309,-8.441 -4.501,-8.361 -4.441,-8.228 -3.174,-5.404 -1.569,-2.665 0,0"
             style="fill:#3c3278;fill-opacity:1;fill-rule:nonzero;stroke:none"
             id="path1969" />
        </g>
        <g
           id="g1971"
           transform="translate(383.0081,107.7596)">
          <path
             d="M 0,0 C 1.848,3.646 4.725,7.226 6.856,10.694 6.936,10.826 7.133,10.688 7.054,10.556 5.121,7.303 3.347,3.797 1.5,0.489 c 8.431,-3.481 17.382,-6.584 25.982,-9.631 8.824,-3.128 17.705,-6.093 26.707,-8.687 5.032,-1.449 10.071,-3.022 15.137,-4.351 0.314,-0.082 0.23,-0.342 -0.093,-0.281 -9.108,1.714 -18.051,4.346 -26.869,7.145 -8.994,2.854 -17.87,6.041 -26.704,9.343 C 10.688,-4.115 -0.15,-0.295 0,0"
             style="fill:#3c3278;fill-opacity:1;fill-rule:nonzero;stroke:none"
             id="path1973" />
        </g>
        <g
           id="g1975"
           transform="translate(397.628,148.1319)">
          <path
             d="m 0,0 c 11.592,-2.968 24.931,-7.854 30.908,-10.194 0.158,-0.055 0.3,-0.109 0.443,-0.163 5.264,-2.068 8.527,-3.603 9.309,-3.732 0.065,0.029 0.115,0.075 0.165,0.105 v 0.016 c 0.547,0.395 1.09,0.694 1.629,0.896 1.485,0.533 15.749,2.314 15.387,6.732 -0.347,4.37 -6.16,4.099 -7.014,4.038 0.925,0.202 8.666,2.016 6.144,5.881 -1.781,2.743 -9.447,2.34 -10.22,2.308 0.782,0.257 7.893,2.577 5.447,6.522 -1.75,2.824 -10.31,2.456 -11.297,2.289 0.8,0.304 7.139,1.365 4.18,4.768 C 43.026,21.833 26.91,19.425 19.746,15.851 9.094,10.535 0,0 0,0"
             style="fill:#c36358;fill-opacity:1;fill-rule:nonzero;stroke:none"
             id="path1977" />
        </g>
        <g
           id="g1979"
           transform="translate(428.5356,137.9381)">
          <path
             d="m 0,0 c 0.159,-0.055 0.301,-0.109 0.443,-0.163 2.475,1.921 11.834,6.879 19.188,7.821 0.456,0.059 0.486,0.319 0.003,0.298 C 10.553,7.545 2.39,2.198 0,0"
             style="fill:#3c3278;fill-opacity:1;fill-rule:nonzero;stroke:none"
             id="path1981" />
        </g>
        <g
           id="g1983"
           transform="translate(444.0292,153.7286)">
          <path
             d="m 0,0 c -10.151,-2.015 -14.738,-4.256 -23.466,-9.801 -0.124,-0.079 -0.261,0.103 -0.143,0.192 8.136,6.089 13.2,9.105 23.522,9.866 C 0.38,0.292 0.464,0.092 0,0"
             style="fill:#3c3278;fill-opacity:1;fill-rule:nonzero;stroke:none"
             id="path1985" />
        </g>
        <g
           id="g1987"
           transform="translate(438.217,162.6216)">
          <path
             d="m 0,0 c -9.739,-2.589 -14.872,-4.832 -22.716,-11.179 -0.185,-0.15 -0.413,0.077 -0.242,0.243 7.393,7.169 13.779,10.012 22.865,11.204 C 0.527,0.35 0.613,0.163 0,0"
             style="fill:#3c3278;fill-opacity:1;fill-rule:nonzero;stroke:none"
             id="path1989" />
        </g>
        <g
           id="g1991"
           transform="translate(392.7025,198.2094)">
          <path
             d="M 0,0 C 0,0 18.883,14.046 29.723,12.345 L 40.501,4.918 c 0,0 2.271,-1.032 3.443,0.775 2.9,4.471 2.785,14.019 -6.194,22.686 -8.222,7.937 -26.98,8.806 -39.747,7.054 C -14.258,33.751 -21.656,27.555 -18.956,19.363 -16.256,11.17 0,0 0,0"
             style="fill:#fba3b7;fill-opacity:1;fill-rule:nonzero;stroke:none"
             id="path1993" />
        </g>
        <g
           id="g1995">
          <g
             id="g1997" />
          <g
             id="g2009">
            <g
               clip-path="url(#clipPath2001)"
               opacity="0.100006"
               id="g2007">
              <g
                 transform="translate(391.9552,201.997)"
                 id="g2005">
                <path
                   d="M 0,0 C 0,0 -12.44,11.386 -13.143,17.335 -13.846,23.283 -1.626,27.38 6.096,28.63 18.048,30.565 25.819,28.866 31.537,21.916 37.255,14.966 0,0 0,0"
                   style="fill:#000000;fill-opacity:1;fill-rule:nonzero;stroke:none"
                   id="path2003" />
              </g>
            </g>
          </g>
        </g>
        <g
           id="g2011"
           transform="translate(390.2797,205.1055)">
          <path
             d="m 0,0 c 5.869,-1.768 16.639,6.713 21.121,13.843 0.305,0.49 -0.149,5.866 -0.39,12.424 -0.131,3.98 -0.183,8.415 0.062,12.465 L -4.983,34.096 c 0,0 1.984,-8.641 1.514,-15.7 -0.046,-0.59 -0.137,-1.135 -0.275,-1.651 C -3.757,16.669 -3.785,16.577 -3.797,16.471 -4.503,13.345 -5.672,1.712 0,0"
             style="fill:#c36358;fill-opacity:1;fill-rule:nonzero;stroke:none"
             id="path2013" />
        </g>
        <g
           id="g2015"
           transform="translate(386.4752,221.5791)">
          <path
             d="m 0,0 c -0.041,-0.169 -0.082,-0.355 -0.103,-0.573 15.499,1.475 21.047,8.618 24.527,15.372 -0.015,2.504 0.018,5.045 0.175,7.458 L -1.179,17.626 c 0,0 1.992,-8.647 1.512,-15.704 C 0.297,1.335 0.192,0.795 0.053,0.27 0.039,0.202 0.028,0.102 0,0"
             style="fill:#000000;fill-opacity:0.8;fill-rule:nonzero;stroke:none"
             id="path2017" />
        </g>
        <g
           id="g2019"
           transform="translate(416.3841,276.4698)">
          <path
             d="m 0,0 c 3.197,-8.877 -0.273,-35.148 -6.397,-41.271 -8.876,-8.875 -24.051,-10.433 -31.754,0.384 -7.467,10.485 -2.338,44.643 4.561,50.272 C -23.428,17.678 -4.721,13.112 0,0"
             style="fill:#c36358;fill-opacity:1;fill-rule:nonzero;stroke:none"
             id="path2021" />
        </g>
        <g
           id="g2023"
           transform="translate(395.0129,260.7244)">
          <path
             d="M 0,0 C 0.022,0.065 0.128,-0.102 0.116,-0.174 -0.165,-1.937 -0.19,-4.005 1.337,-4.796 1.385,-4.82 1.368,-4.909 1.31,-4.893 -0.61,-4.369 -0.549,-1.625 0,0"
             style="fill:#000000;fill-opacity:1;fill-rule:nonzero;stroke:none"
             id="path2025" />
        </g>
        <g
           id="g2027"
           transform="translate(396.8294,262.3721)">
          <path
             d="M 0,0 C 2.875,-0.145 2.372,-5.886 -0.292,-5.75 -2.914,-5.618 -2.41,0.123 0,0"
             style="fill:#000000;fill-opacity:1;fill-rule:nonzero;stroke:none"
             id="path2029" />
        </g>
        <g
           id="g2031"
           transform="translate(384.1748,261.7762)">
          <path
             d="M 0,0 C -0.008,0.069 -0.147,-0.072 -0.15,-0.145 -0.25,-1.928 -0.664,-3.953 -2.324,-4.402 -2.376,-4.416 -2.379,-4.506 -2.318,-4.503 -0.331,-4.399 0.192,-1.705 0,0"
             style="fill:#000000;fill-opacity:1;fill-rule:nonzero;stroke:none"
             id="path2033" />
        </g>
        <g
           id="g2035"
           transform="translate(382.7497,263.7727)">
          <path
             d="M 0,0 C -2.841,0.467 -3.567,-5.248 -0.936,-5.681 1.655,-6.108 2.381,-0.392 0,0"
             style="fill:#000000;fill-opacity:1;fill-rule:nonzero;stroke:none"
             id="path2037" />
        </g>
        <g
           id="g2039"
           transform="translate(399.3246,264.7983)">
          <path
             d="m 0,0 c -0.765,0.265 -1.425,0.637 -2.155,0.978 -0.822,0.384 -1.517,0.605 -2.006,1.416 -0.263,0.435 -0.075,1.158 0.323,1.452 0.929,0.687 2.053,0.467 3.062,0.045 C 0.318,3.433 1.045,2.799 1.603,1.754 2.145,0.742 1.008,-0.35 0,0"
             style="fill:#6585f4;fill-opacity:1;fill-rule:nonzero;stroke:none"
             id="path2041" />
        </g>
        <g
           id="g2043"
           transform="translate(380.7834,266.8574)">
          <path
             d="M 0,0 C 0.807,0.06 1.542,0.25 2.333,0.392 3.227,0.552 3.955,0.587 4.637,1.245 5.003,1.598 5.006,2.344 4.696,2.732 3.976,3.634 2.833,3.71 1.75,3.561 0.574,3.399 -0.292,2.974 -1.099,2.108 -1.883,1.268 -1.064,-0.079 0,0"
             style="fill:#6585f4;fill-opacity:1;fill-rule:nonzero;stroke:none"
             id="path2045" />
        </g>
        <g
           id="g2047"
           transform="translate(394.2124,244.3683)">
          <path
             d="m 0,0 c -0.462,-0.379 -0.938,-0.915 -1.587,-0.912 -0.624,0.002 -1.325,0.345 -1.873,0.614 -0.054,0.027 -0.116,-0.028 -0.085,-0.084 0.402,-0.723 1.336,-1.236 2.173,-1.163 0.817,0.07 1.276,0.731 1.536,1.45 C 0.2,0.006 0.068,0.055 0,0"
             style="fill:#000000;fill-opacity:1;fill-rule:nonzero;stroke:none"
             id="path2049" />
        </g>
        <g
           id="g2051"
           transform="translate(392.81,249.8559)">
          <path
             d="m 0,0 c -1.13,-1.456 -2.668,-2.171 -4.277,-2.339 -0.719,-0.08 -1.464,-0.04 -2.187,0.091 -0.143,0.015 -0.285,0.044 -0.411,0.084 -0.129,0.027 -0.245,0.052 -0.385,0.094 -0.205,0.049 -0.304,0.23 -0.322,0.429 l 0.002,0.013 c 0.007,0.065 0.012,0.117 0.033,0.181 l 10e-4,0.013 0.016,0.156 c 0.083,1.372 0.399,3.442 0.399,3.442 -0.523,-0.206 -3.174,-1.13 -3.071,-0.418 0.873,5.889 1.843,12.44 3.955,18.117 0.06,0.19 0.355,0.119 0.321,-0.074 C -6.54,14.095 -8.152,8.547 -8.861,2.837 c 0.841,0.238 2.219,0.695 2.934,0.617 0.19,-0.073 -0.681,-3.99 -0.668,-4.609 0,0 -0.003,-0.026 0.005,-0.067 2.275,-0.495 4.069,0.048 6.438,1.397 C -0.011,0.264 0.119,0.132 0,0"
             style="fill:#000000;fill-opacity:1;fill-rule:nonzero;stroke:none"
             id="path2053" />
        </g>
        <g
           id="g2055"
           transform="translate(387.2998,247.898)">
          <path
             d="M 0,0 C 0,0 1.098,-1.671 2.692,-2.342 3.28,-2.591 3.921,-2.712 4.608,-2.57 6.019,-2.283 6.125,-1.009 5.932,0.097 5.776,1.007 5.404,1.804 5.404,1.804 5.404,1.804 3.266,0.018 0,0"
             style="fill:#000000;fill-opacity:1;fill-rule:nonzero;stroke:none"
             id="path2057" />
        </g>
        <g
           id="g2059"
           transform="translate(389.9922,245.5564)">
          <path
             d="M 0,0 C 0.587,-0.249 1.229,-0.37 1.915,-0.228 3.327,0.059 3.433,1.332 3.24,2.439 1.741,2.37 0.208,1.442 0,0"
             style="fill:#fba3b7;fill-opacity:1;fill-rule:nonzero;stroke:none"
             id="path2061" />
        </g>
        <g
           id="g2063"
           transform="translate(376.6273,271.5306)">
          <path
             d="m 0,0 c 0,0 1.995,6.571 3.344,8.363 1.348,1.791 3.312,3.504 4.372,3.394 1.06,-0.111 0.431,-3.974 3.56,-4.364 3.128,-0.39 5.956,4.905 13.504,3.875 9.392,-1.281 8.619,-15.982 9.026,-19.62 0.734,-6.568 5.503,-13.858 5.503,-13.858 0,0 5.859,23.981 0.633,33.278 C 34.034,21.579 15.067,23.702 7.349,16.621 2.342,12.029 0,0 0,0"
             style="fill:#6585f4;fill-opacity:1;fill-rule:nonzero;stroke:none"
             id="path2065" />
        </g>
        <g
           id="g2067"
           transform="translate(411.8702,254.9752)">
          <path
             d="M 0,0 C 0,0 5.644,8.6 9.529,6.611 13.415,4.622 9.343,-7.723 4.903,-9.525 c -4.439,-1.803 -6.189,2.274 -6.189,2.274 z"
             style="fill:#c36358;fill-opacity:1;fill-rule:nonzero;stroke:none"
             id="path2069" />
        </g>
        <g
           id="g2071"
           transform="translate(420.1443,258.0763)">
          <path
             d="m 0,0 c 0.072,0.009 0.089,-0.092 0.027,-0.119 -3.11,-1.368 -4.681,-4.335 -5.752,-7.395 0.902,1.192 2.157,1.868 3.751,0.8 0.083,-0.057 0.008,-0.187 -0.081,-0.171 -1.297,0.238 -2.221,-0.012 -3.062,-1.071 -0.595,-0.749 -0.989,-1.686 -1.406,-2.543 -0.139,-0.286 -0.652,-0.15 -0.554,0.177 0.007,0.024 0.016,0.049 0.024,0.074 C -7.251,-6.238 -4.297,-0.53 0,0"
             style="fill:#000000;fill-opacity:1;fill-rule:nonzero;stroke:none"
             id="path2073" />
        </g>
        <g
           id="g2075"
           transform="translate(391.9552,201.997)">
          <path
             d="M 0,0 C 0,0 16.249,21.158 33.345,21.362 L 30.39,8.897 c 0,0 -10.038,1.2 -29.643,-12.685 z"
             style="fill:#fba3b7;fill-opacity:1;fill-rule:nonzero;stroke:none"
             id="path2077" />
        </g>
        <g
           id="g2079"
           transform="translate(399.6998,206.5387)">
          <path
             d="m 0,0 c 0,0 1.207,-6.596 1.115,-16.082 -0.037,-3.755 -1.896,-17.17 -6.051,-16.555 -4.156,0.615 2.906,9.092 4.317,16.154 1.433,7.169 -0.325,12.319 -0.447,16.577 z"
             style="fill:#fba3b7;fill-opacity:1;fill-rule:nonzero;stroke:none"
             id="path2081" />
        </g>
        <g
           id="g2083">
          <g
             id="g2085" />
          <g
             id="g2097">
            <g
               clip-path="url(#clipPath2089)"
               opacity="0.100006"
               id="g2095">
              <g
                 transform="translate(399.6998,206.5387)"
                 id="g2093">
                <path
                   d="m 0,0 c 0,0 1.207,-6.596 1.115,-16.082 -0.037,-3.755 -1.896,-17.17 -6.051,-16.555 -4.156,0.615 2.906,9.092 4.317,16.154 1.433,7.169 -0.325,12.319 -0.447,16.577 z"
                   style="fill:#000000;fill-opacity:1;fill-rule:nonzero;stroke:none"
                   id="path2091" />
              </g>
            </g>
          </g>
        </g>
        <g
           id="g2099"
           transform="translate(426.852,210.1105)">
          <path
             d="m 0,0 c -3.033,0.758 -6.175,0.449 -9.176,-0.11 -3.021,-0.569 -5.931,-1.608 -8.738,-2.848 -2.826,-1.203 -5.514,-2.716 -8.162,-4.283 l -3.876,-2.522 -3.763,-2.702 -0.422,-0.303 -0.398,0.269 c -2.962,2.003 -5.75,4.196 -8.4,6.571 -1.317,1.192 -2.619,2.407 -3.787,3.752 -1.175,1.332 -2.302,2.719 -3.194,4.25 2.187,-2.786 4.87,-5.072 7.59,-7.283 1.367,-1.099 2.784,-2.137 4.218,-3.147 1.432,-1.007 2.876,-2.022 4.344,-2.947 l -0.819,-0.035 3.78,2.802 c 1.296,0.884 2.617,1.738 3.939,2.586 1.37,0.772 2.725,1.573 4.123,2.295 1.426,0.673 2.826,1.395 4.311,1.938 2.911,1.209 5.99,2.032 9.116,2.462 0.778,0.123 1.571,0.16 2.356,0.22 0.789,0.003 1.578,0.026 2.364,-0.034 C -3.027,0.847 -1.444,0.603 0,0"
             style="fill:#000000;fill-opacity:1;fill-rule:nonzero;stroke:none"
             id="path2101" />
        </g>
        <g
           id="g2103"
           transform="translate(433.0652,203.3446)">
          <path
             d="M 0,0 C -1.955,0.955 -3.771,2.1 -5.553,3.289 -7.318,4.502 -9.05,5.76 -10.639,7.209 -8.683,6.256 -6.868,5.111 -5.086,3.921 -3.322,2.706 -1.591,1.448 0,0"
             style="fill:#000000;fill-opacity:1;fill-rule:nonzero;stroke:none"
             id="path2105" />
        </g>
        <g
           id="g2107"
           transform="translate(384.4814,207.8795)">
          <path
             d="m 0,0 c 0,0 -2.124,-5.699 -3.545,-14.183 -0.563,-3.358 -1.03,-15.631 2.778,-15.741 3.808,-0.11 -1.153,8.579 -1.294,15.108 -0.143,6.629 2.244,10.948 3.028,14.731 z"
             style="fill:#fba3b7;fill-opacity:1;fill-rule:nonzero;stroke:none"
             id="path2109" />
        </g>
        <g
           id="g2111">
          <g
             id="g2113" />
          <g
             id="g2125">
            <g
               clip-path="url(#clipPath2117)"
               opacity="0.100006"
               id="g2123">
              <g
                 transform="translate(384.4814,207.8795)"
                 id="g2121">
                <path
                   d="m 0,0 c 0,0 -2.124,-5.699 -3.545,-14.183 -0.563,-3.358 -1.03,-15.631 2.778,-15.741 3.808,-0.11 -1.153,8.579 -1.294,15.108 -0.143,6.629 2.244,10.948 3.028,14.731 z"
                   style="fill:#000000;fill-opacity:1;fill-rule:nonzero;stroke:none"
                   id="path2119" />
              </g>
            </g>
          </g>
        </g>
      </g>
    </g>
  </g>
</svg>
