<?xml version="1.0" encoding="UTF-8" standalone="no"?>
<!-- Created with Inkscape (http://www.inkscape.org/) -->

<svg
   width="43.640579mm"
   height="43.640728mm"
   viewBox="0 0 43.64058 43.640728"
   version="1.1"
   id="svg26036"
   inkscape:version="1.2 (dc2aedaf03, 2022-05-15)"
   sodipodi:docname="7.svg"
   xmlns:inkscape="http://www.inkscape.org/namespaces/inkscape"
   xmlns:sodipodi="http://sodipodi.sourceforge.net/DTD/sodipodi-0.dtd"
   xmlns="http://www.w3.org/2000/svg"
   xmlns:svg="http://www.w3.org/2000/svg">
  <sodipodi:namedview
     id="namedview26038"
     pagecolor="#505050"
     bordercolor="#eeeeee"
     borderopacity="1"
     inkscape:showpageshadow="0"
     inkscape:pageopacity="0"
     inkscape:pagecheckerboard="0"
     inkscape:deskcolor="#505050"
     inkscape:document-units="mm"
     showgrid="false"
     inkscape:zoom="0.49798681"
     inkscape:cx="-56.226389"
     inkscape:cy="54.218303"
     inkscape:window-width="1366"
     inkscape:window-height="699"
     inkscape:window-x="0"
     inkscape:window-y="0"
     inkscape:window-maximized="1"
     inkscape:current-layer="layer1" />
  <defs
     id="defs26033">
    <clipPath
       clipPathUnits="userSpaceOnUse"
       id="clipPath2909">
      <path
         d="m 38.013,402.153 c 0,-34.16 27.692,-61.852 61.853,-61.852 v 0 c 34.16,0 61.852,27.692 61.852,61.852 v 0 c 0,34.161 -27.692,61.853 -61.852,61.853 v 0 c -34.161,0 -61.853,-27.692 -61.853,-61.853"
         id="path2907" />
    </clipPath>
    <clipPath
       clipPathUnits="userSpaceOnUse"
       id="clipPath12579">
      <path
         d="m -161.7186,97.847 h 500 v -500 h -500 z"
         id="path12581"
         style="stroke-width:0.999998" />
    </clipPath>
    <clipPath
       clipPathUnits="userSpaceOnUse"
       id="clipPath12575">
      <path
         d="m -311.8526,97.847 h 500 v -500 h -500 z"
         id="path12577"
         style="stroke-width:0.999998" />
    </clipPath>
    <clipPath
       clipPathUnits="userSpaceOnUse"
       id="clipPath3185">
      <path
         d="m 188.148,402.153 c 0,-34.16 27.692,-61.852 61.852,-61.852 v 0 c 34.161,0 61.853,27.692 61.853,61.852 v 0 c 0,34.161 -27.692,61.853 -61.853,61.853 v 0 c -34.16,0 -61.852,-27.692 -61.852,-61.853"
         id="path3183" />
    </clipPath>
    <clipPath
       clipPathUnits="userSpaceOnUse"
       id="clipPath12571">
      <path
         d="m -461.9866,97.847 h 500 v -500 h -500 z"
         id="path12573"
         style="stroke-width:0.999998" />
    </clipPath>
    <clipPath
       clipPathUnits="userSpaceOnUse"
       id="clipPath3533">
      <path
         d="m 338.281,402.153 c 0,-34.16 27.692,-61.852 61.853,-61.852 v 0 c 34.16,0 61.852,27.692 61.852,61.852 v 0 c 0,34.161 -27.692,61.853 -61.852,61.853 v 0 c -34.161,0 -61.853,-27.692 -61.853,-61.853"
         id="path3531" />
    </clipPath>
    <clipPath
       clipPathUnits="userSpaceOnUse"
       id="clipPath3609">
      <path
         d="m 370.232,358.302 h 14.005 v -17.261 h -14.005 z"
         id="path3607" />
    </clipPath>
    <clipPath
       clipPathUnits="userSpaceOnUse"
       id="clipPath3625">
      <path
         d="m 378.264,345.649 h 10.426 v -12.95 h -10.426 z"
         id="path3623" />
    </clipPath>
    <clipPath
       clipPathUnits="userSpaceOnUse"
       id="clipPath3641">
      <path
         d="M 368.258,311.851 H 378.79 V 288.93 h -10.532 z"
         id="path3639" />
    </clipPath>
    <clipPath
       clipPathUnits="userSpaceOnUse"
       id="clipPath3661">
      <path
         d="m 370.39,358.2 h 13.847 V 341.041 H 370.39 Z"
         id="path3659" />
    </clipPath>
    <clipPath
       clipPathUnits="userSpaceOnUse"
       id="clipPath3677">
      <path
         d="m 378.254,345.648 h 10.509 v -12.945 h -10.509 z"
         id="path3675" />
    </clipPath>
    <clipPath
       clipPathUnits="userSpaceOnUse"
       id="clipPath3693">
      <path
         d="m 387.457,316.052 h 10.509 v -12.945 h -10.509 z"
         id="path3691" />
    </clipPath>
    <clipPath
       clipPathUnits="userSpaceOnUse"
       id="clipPath3709">
      <path
         d="m 422.49,355.84 h 10.943 v -8.884 H 422.49 Z"
         id="path3707" />
    </clipPath>
    <clipPath
       clipPathUnits="userSpaceOnUse"
       id="clipPath3725">
      <path
         d="m 403.506,358.544 h 24.455 V 328.6 h -24.455 z"
         id="path3723" />
    </clipPath>
    <clipPath
       clipPathUnits="userSpaceOnUse"
       id="clipPath3741">
      <path
         d="m 368.256,311.853 h 24.456 v -29.945 h -24.456 z"
         id="path3739" />
    </clipPath>
    <clipPath
       clipPathUnits="userSpaceOnUse"
       id="clipPath3757">
      <path
         d="m 402.97,365.665 h 11.114 V 352.399 H 402.97 Z"
         id="path3755" />
    </clipPath>
    <clipPath
       clipPathUnits="userSpaceOnUse"
       id="clipPath3773">
      <path
         d="m 422.404,304.81 h 11.114 v -13.266 h -11.114 z"
         id="path3771" />
    </clipPath>
    <clipPath
       clipPathUnits="userSpaceOnUse"
       id="clipPath3849">
      <path
         d="m 387.459,311.51 h 10.391 v -8.401 h -10.391 z"
         id="path3847" />
    </clipPath>
    <clipPath
       clipPathUnits="userSpaceOnUse"
       id="clipPath3865">
      <path
         d="m 422.49,355.84 h 10.943 v -8.884 H 422.49 Z"
         id="path3863" />
    </clipPath>
    <clipPath
       clipPathUnits="userSpaceOnUse"
       id="clipPath3881">
      <path
         d="m 413.34,358.54 h 14.622 V 328.599 H 413.34 Z"
         id="path3879" />
    </clipPath>
    <clipPath
       clipPathUnits="userSpaceOnUse"
       id="clipPath3897">
      <path
         d="m 378.28,311.1 h 14.435 V 281.904 H 378.28 Z"
         id="path3895" />
    </clipPath>
    <clipPath
       clipPathUnits="userSpaceOnUse"
       id="clipPath3913">
      <path
         d="m 412.49,364.64 h 1.589 v -8.74 h -1.589 z"
         id="path3911" />
    </clipPath>
    <clipPath
       clipPathUnits="userSpaceOnUse"
       id="clipPath3929">
      <path
         d="m 422.404,304.81 h 11.114 v -13.266 h -11.114 z"
         id="path3927" />
    </clipPath>
    <clipPath
       clipPathUnits="userSpaceOnUse"
       id="clipPath4509">
      <path
         d="m 188.148,97.847 c 0,-34.16 27.692,-61.852 61.852,-61.852 v 0 c 34.161,0 61.853,27.692 61.853,61.852 v 0 c 0,34.16 -27.692,61.853 -61.853,61.853 v 0 c -34.16,0 -61.852,-27.693 -61.852,-61.853"
         id="path4507" />
    </clipPath>
    <clipPath
       clipPathUnits="userSpaceOnUse"
       id="clipPath12551">
      <path
         d="m -311.8526,402.153 h 500 v -500 h -500 z"
         id="path12553"
         style="stroke-width:0.999998" />
    </clipPath>
    <clipPath
       clipPathUnits="userSpaceOnUse"
       id="clipPath12547">
      <path
         d="m -461.9866,402.153 h 500 v -500 h -500 z"
         id="path12549"
         style="stroke-width:0.999998" />
    </clipPath>
    <clipPath
       clipPathUnits="userSpaceOnUse"
       id="clipPath4289">
      <path
         d="m 338.281,97.847 c 0,-34.16 27.692,-61.852 61.853,-61.852 v 0 c 34.16,0 61.852,27.692 61.852,61.852 v 0 c 0,34.16 -27.692,61.853 -61.852,61.853 v 0 c -34.161,0 -61.853,-27.693 -61.853,-61.853"
         id="path4287" />
    </clipPath>
    <clipPath
       clipPathUnits="userSpaceOnUse"
       id="clipPath4461">
      <path
         d="m 411.287,122.855 h 3.234 v -3.577 h -3.234 z"
         id="path4459" />
    </clipPath>
    <clipPath
       clipPathUnits="userSpaceOnUse"
       id="clipPath4481">
      <path
         d="m 414.553,120.557 h 2.492 v -3.675 h -2.492 z"
         id="path4479" />
    </clipPath>
    <clipPath
       clipPathUnits="userSpaceOnUse"
       id="clipPath12559">
      <path
         d="m -461.9866,250 h 500 v -500 h -500 z"
         id="path12561"
         style="stroke-width:0.999998" />
    </clipPath>
    <clipPath
       clipPathUnits="userSpaceOnUse"
       id="clipPath1909">
      <path
         d="m 338.281,250 c 0,-34.16 27.692,-61.852 61.853,-61.852 v 0 c 34.16,0 61.852,27.692 61.852,61.852 v 0 c 0,34.161 -27.692,61.853 -61.852,61.853 v 0 c -34.161,0 -61.853,-27.692 -61.853,-61.853"
         id="path1907" />
    </clipPath>
    <clipPath
       clipPathUnits="userSpaceOnUse"
       id="clipPath2001">
      <path
         d="m 378.783,231.372 h 45.306 v -29.375 h -45.306 z"
         id="path1999" />
    </clipPath>
    <clipPath
       clipPathUnits="userSpaceOnUse"
       id="clipPath2089">
      <path
         d="m 393.47,206.633 h 7.35 v -32.752 h -7.35 z"
         id="path2087" />
    </clipPath>
    <clipPath
       clipPathUnits="userSpaceOnUse"
       id="clipPath2117">
      <path
         d="m 380.559,207.88 h 4.889 v -29.926 h -4.889 z"
         id="path2115" />
    </clipPath>
    <clipPath
       clipPathUnits="userSpaceOnUse"
       id="clipPath12555">
      <path
         d="m -161.7186,402.153 h 500 v -500 h -500 z"
         id="path12557"
         style="stroke-width:0.999998" />
    </clipPath>
    <clipPath
       clipPathUnits="userSpaceOnUse"
       id="clipPath4081">
      <path
         d="m 38.013,97.847 c 0,-34.16 27.692,-61.852 61.853,-61.852 v 0 c 34.16,0 61.852,27.692 61.852,61.852 v 0 c 0,34.16 -27.692,61.853 -61.852,61.853 v 0 c -34.161,0 -61.853,-27.693 -61.853,-61.853"
         id="path4079" />
    </clipPath>
  </defs>
  <g
     inkscape:label="Layer 1"
     inkscape:groupmode="layer"
     id="layer1"
     transform="translate(-119.81796,-134.16263)">
    <g
       id="g1891"
       transform="matrix(0.35277777,0,0,-0.35277777,163.45854,155.98299)"
       clip-path="url(#clipPath12555)">
      <path
         d="m 0,0 c 0,-34.16 -27.692,-61.853 -61.853,-61.853 -34.16,0 -61.852,27.693 -61.852,61.853 0,34.16 27.692,61.853 61.852,61.853 C -27.692,61.853 0,34.16 0,0"
         style="fill:#dfdfdf;fill-opacity:1;fill-rule:nonzero;stroke:none"
         id="path1893" />
    </g>
    <g
       id="g4075"
       transform="matrix(0.35277777,0,0,-0.35277777,106.40782,190.50124)">
      <g
         id="g4077"
         clip-path="url(#clipPath4081)">
        <g
           id="g4083"
           transform="translate(79.8229,66.2427)">
          <path
             d="m 0,0 c -26.215,-29.495 -57.961,-90.318 -50.848,-101.943 7.923,-12.949 45.746,29.052 44.446,30.954 -1.105,1.615 11.191,37.999 20.118,64.605 C 22.635,20.197 6.483,7.294 0,0"
             style="fill:#c36358;fill-opacity:1;fill-rule:nonzero;stroke:none"
             id="path4085" />
        </g>
        <g
           id="g4087"
           transform="translate(79.8229,66.2427)">
          <path
             d="m 0,0 c -26.215,-29.495 -57.961,-90.318 -50.848,-101.943 7.923,-12.949 45.746,29.052 44.446,30.954 -1.105,1.615 11.191,37.999 20.118,64.605 C 22.635,20.197 6.483,7.294 0,0"
             style="fill:#3c3278;fill-opacity:1;fill-rule:nonzero;stroke:none"
             id="path4089" />
        </g>
        <g
           id="g4091"
           transform="translate(93.6688,75.7756)">
          <path
             d="m 0,0 c -1.247,0.242 -2.715,-0.591 -3.699,-1.749 -1.552,-0.723 -3.072,-1.971 -2.629,-3.653 0.316,-1.198 1.479,-1.958 2.68,-1.981 1.195,-0.024 2.229,0.614 3.098,1.381 0.912,0.805 1.934,1.898 2.219,3.12 C 1.952,-1.671 1.305,-0.254 0,0"
             style="fill:#f9e1d9;fill-opacity:1;fill-rule:nonzero;stroke:none"
             id="path4093" />
        </g>
        <g
           id="g4095"
           transform="translate(70.88,52.6)">
          <path
             d="M 0,0 C -0.76,-0.49 -1.68,-0.89 -2.6,-0.82 -1.11,1.22 0.37,3.2 1.85,5.1 3.39,3.64 1.39,0.91 0,0"
             style="fill:#f9e1d9;fill-opacity:1;fill-rule:nonzero;stroke:none"
             id="path4097" />
        </g>
        <g
           id="g4099"
           transform="translate(84.4515,55.0452)">
          <path
             d="M 0,0 C -0.098,0.891 -0.918,1.499 -1.795,1.404 -1.82,1.401 -1.844,1.392 -1.869,1.388 -1.995,1.414 -2.136,1.413 -2.293,1.369 -3.632,0.996 -5.38,0.013 -5.689,-1.478 -6.091,-3.415 -3.725,-4.081 -2.337,-3.352 -1.19,-2.75 0.155,-1.405 0,0"
             style="fill:#f9e1d9;fill-opacity:1;fill-rule:nonzero;stroke:none"
             id="path4101" />
        </g>
        <g
           id="g4103"
           transform="translate(64.2704,41.1615)">
          <path
             d="m 0,0 c -0.664,0.432 -1.363,0.482 -2.044,0.042 -0.193,-0.125 -0.389,-0.292 -0.56,-0.483 -0.15,-0.095 -0.29,-0.205 -0.415,-0.33 -0.543,-0.545 -0.657,-1.242 -0.46,-1.966 0.115,-0.421 0.654,-0.724 1.073,-0.664 1.192,0.171 2.28,0.959 2.692,2.113 C 0.432,-0.878 0.418,-0.272 0,0"
             style="fill:#f9e1d9;fill-opacity:1;fill-rule:nonzero;stroke:none"
             id="path4105" />
        </g>
        <g
           id="g4107"
           transform="translate(92.2293,62.1909)">
          <path
             d="M 0,0 C -0.074,0.566 -0.446,1.016 -1.015,1.142 -1.46,1.24 -1.872,1.06 -2.226,0.804 -2.438,0.651 -2.634,0.475 -2.821,0.291 -3.152,0.155 -3.456,-0.041 -3.665,-0.313 -4.021,-0.777 -3.959,-1.59 -3.37,-1.856 c 0.293,-0.324 0.788,-0.472 1.206,-0.314 0.09,0.034 0.163,0.079 0.235,0.126 0.216,0.03 0.431,0.079 0.639,0.171 C -0.579,-1.557 0.11,-0.839 0,0"
             style="fill:#f9e1d9;fill-opacity:1;fill-rule:nonzero;stroke:none"
             id="path4109" />
        </g>
        <g
           id="g4111"
           transform="translate(54.5299,-49.1489)">
          <path
             d="m 0,0 6.584,44.613 c 0,0 -10.554,18.426 -4.431,31.65 3.091,6.698 24.283,39.431 35.7,47.717 10.71,7.773 25.379,0.684 30.369,-6.078 C 82.568,98.461 89.558,63.466 97.568,0 Z"
             style="fill:#3c3278;fill-opacity:1;fill-rule:nonzero;stroke:none"
             id="path4113" />
        </g>
        <g
           id="g4115"
           transform="translate(73.7351,54.2601)">
          <path
             d="m 0,0 c -2.166,-2.972 -4.269,-5.989 -6.337,-9.031 0.564,1.184 1.132,2.365 1.688,3.552 0.04,0.085 -0.086,0.157 -0.13,0.071 -0.769,-1.487 -1.476,-2.995 -2.166,-4.513 -2.763,-4.092 -5.446,-8.238 -8.034,-12.441 -1.098,-1.783 -2.106,-3.6 -2.847,-5.564 -0.717,-1.9 -1.162,-3.902 -1.397,-5.918 -0.236,-2.019 -0.254,-4.048 -0.098,-6.075 0.161,-2.087 0.413,-4.154 0.881,-6.196 0.529,-2.303 1.249,-4.595 2.182,-6.768 0.459,-1.067 0.948,-2.127 1.475,-3.163 0.482,-0.945 1.462,-2.875 1.448,-2.95 -0.198,-1.068 -0.398,-1.818 -0.533,-2.716 -0.138,-0.916 -0.276,-1.831 -0.414,-2.746 -0.275,-1.832 -2.653,-19.65 -2.921,-21.482 -0.533,-3.638 -0.99,-7.28 -1.443,-10.928 -0.261,-2.093 -0.398,-4.205 -0.693,-6.293 -0.012,-0.084 0.117,-0.119 0.131,-0.032 0.301,1.819 0.752,3.614 1.083,5.428 0.331,1.817 0.667,3.632 1.007,5.447 0.688,3.668 3.337,23.356 3.912,27.043 0.159,1.02 0.318,2.04 0.477,3.06 0.158,1.012 0.428,2.375 0.389,3.402 0,0 -3.267,6.713 -4.536,11.42 -0.533,1.975 -1.078,4.03 -1.298,6.067 -0.216,2.003 -0.238,4.021 -0.074,6.029 0.165,2.007 0.542,3.998 1.158,5.917 0.634,1.98 1.546,3.823 2.563,5.632 2.133,3.79 4.4,7.511 6.699,11.202 2.607,4.186 5.243,8.355 7.94,12.484 C 0.158,0.008 0.047,0.064 0,0"
             style="fill:#d74c9f;fill-opacity:1;fill-rule:nonzero;stroke:none"
             id="path4117" />
        </g>
        <g
           id="g4119"
           transform="translate(118.1351,49.9696)">
          <path
             d="M 0,0 C -0.32,0.549 -0.936,0.912 -1.575,0.904 -1.62,0.903 -1.664,0.902 -1.709,0.902 -1.754,0.901 -1.795,0.891 -1.839,0.887 -2.123,0.908 -2.411,0.886 -2.686,0.808 c -1.515,-0.432 -2.97,-2.359 -3.121,-4.051 -0.305,-0.601 -0.361,-1.273 0.106,-1.998 0.812,-1.262 2.494,-1.094 3.605,-0.36 C -0.188,-4.682 1.033,-1.775 0,0"
             style="fill:#f9e1d9;fill-opacity:1;fill-rule:nonzero;stroke:none"
             id="path4121" />
        </g>
        <g
           id="g4123"
           transform="translate(127.4284,61.3874)">
          <path
             d="m 0,0 c -0.49,1.887 -2.675,2.581 -4.148,1.298 -0.974,-0.848 -1.939,-2.319 -2.31,-3.69 -0.425,-0.478 -0.806,-1.005 -1.116,-1.633 -0.484,-0.983 -0.083,-2.11 0.997,-2.449 1.837,-0.576 3.493,0.628 4.668,1.935 C -0.857,-3.369 0.434,-1.672 0,0"
             style="fill:#f9e1d9;fill-opacity:1;fill-rule:nonzero;stroke:none"
             id="path4125" />
        </g>
        <g
           id="g4127"
           transform="translate(128.7948,49.4999)">
          <path
             d="m 0,0 c -1.372,0.441 -2.351,-0.604 -3.018,-1.648 -0.149,-0.233 -0.328,-0.498 -0.511,-0.783 -0.702,-0.571 -1.233,-1.343 -1.429,-2.257 -0.24,-1.116 0.624,-2.071 1.713,-2.175 1.092,-0.103 2.106,0.523 2.878,1.238 C 0.969,-4.39 2.673,-0.86 0,0"
             style="fill:#f9e1d9;fill-opacity:1;fill-rule:nonzero;stroke:none"
             id="path4129" />
        </g>
        <g
           id="g4131"
           transform="translate(111.6528,59.687)">
          <path
             d="m 0,0 c -0.926,0.269 -1.885,-0.081 -2.555,-0.742 -0.222,-0.22 -0.408,-0.477 -0.586,-0.736 -0.879,-0.569 -1.625,-1.238 -1.555,-2.49 0.058,-1.036 0.858,-1.828 1.896,-1.884 1.051,-0.056 1.969,0.626 2.743,1.254 0.762,0.619 1.584,1.424 1.636,2.467 C 1.629,-1.135 0.945,-0.274 0,0"
             style="fill:#f9e1d9;fill-opacity:1;fill-rule:nonzero;stroke:none"
             id="path4133" />
        </g>
        <g
           id="g4135"
           transform="translate(103.7091,46.8002)">
          <path
             d="m 0,0 c -0.708,0.447 -1.596,0.369 -2.284,-0.079 -0.502,-0.328 -1.004,-0.991 -1.231,-1.641 -0.609,-0.575 -0.982,-1.309 -0.717,-2.269 0.227,-0.818 0.92,-1.537 1.8,-1.58 0.829,-0.041 1.527,0.414 2.049,1.027 C 0.56,-3.436 1.624,-1.026 0,0"
             style="fill:#f9e1d9;fill-opacity:1;fill-rule:nonzero;stroke:none"
             id="path4137" />
        </g>
        <g
           id="g4139"
           transform="translate(109.0252,39.3327)">
          <path
             d="m 0,0 c -0.721,0.302 -1.458,0.234 -2.133,-0.041 -2.162,0.144 -3.732,-1.927 -4.101,-3.964 -0.177,-0.98 -0.012,-2.149 0.913,-2.712 1.146,-0.698 2.481,0.115 3.443,0.755 1.077,0.715 1.971,1.687 2.426,2.911 C 0.926,-2.037 1.204,-0.504 0,0"
             style="fill:#f9e1d9;fill-opacity:1;fill-rule:nonzero;stroke:none"
             id="path4141" />
        </g>
        <g
           id="g4143"
           transform="translate(119.3826,36.5426)">
          <path
             d="m 0,0 c -0.26,0.899 -1.123,1.306 -1.99,0.986 -0.769,-0.284 -1.629,-1.031 -2.136,-1.901 -0.203,-0.151 -0.392,-0.319 -0.535,-0.543 -0.364,-0.57 -0.427,-1.321 -0.063,-1.908 0.988,-1.591 3.448,0.016 4.225,1.067 C -0.022,-1.654 0.229,-0.792 0,0"
             style="fill:#f9e1d9;fill-opacity:1;fill-rule:nonzero;stroke:none"
             id="path4145" />
        </g>
        <g
           id="g4147"
           transform="translate(95.34,72.89)">
          <path
             d="m 0,0 c -0.29,-1.22 -1.31,-2.31 -2.22,-3.12 -0.87,-0.76 -1.9,-1.4 -3.1,-1.38 -1.18,0.03 -2.33,0.77 -2.66,1.93 1.8,1.86 3.5,3.4 5.02,4.51 0.46,0.33 0.92,0.64 1.4,0.92 C -0.33,2.55 0.27,1.18 0,0"
             style="fill:#f9e1d9;fill-opacity:1;fill-rule:nonzero;stroke:none"
             id="path4149" />
        </g>
        <g
           id="g4151"
           transform="translate(84.4515,55.0452)">
          <path
             d="M 0,0 C -0.098,0.891 -0.918,1.499 -1.795,1.404 -1.82,1.401 -1.844,1.392 -1.869,1.388 -1.995,1.414 -2.136,1.413 -2.293,1.369 -3.632,0.996 -5.38,0.013 -5.689,-1.478 -6.091,-3.415 -3.725,-4.081 -2.337,-3.352 -1.19,-2.75 0.155,-1.405 0,0"
             style="fill:#f9e1d9;fill-opacity:1;fill-rule:nonzero;stroke:none"
             id="path4153" />
        </g>
        <g
           id="g4155"
           transform="translate(64.64,40.4)">
          <path
             d="M 0,0 C 0.01,-0.19 -0.03,-0.37 -0.08,-0.53 -0.32,-1.2 -0.79,-1.75 -1.38,-2.11 -0.94,-1.43 -0.48,-0.72 0,0"
             style="fill:#f9e1d9;fill-opacity:1;fill-rule:nonzero;stroke:none"
             id="path4157" />
        </g>
        <g
           id="g4159"
           transform="translate(92.2293,62.1909)">
          <path
             d="M 0,0 C -0.074,0.566 -0.446,1.016 -1.015,1.142 -1.46,1.24 -1.872,1.06 -2.226,0.804 -2.438,0.651 -2.634,0.475 -2.821,0.291 -3.152,0.155 -3.456,-0.041 -3.665,-0.313 -4.021,-0.777 -3.959,-1.59 -3.37,-1.856 c 0.293,-0.324 0.788,-0.472 1.206,-0.314 0.09,0.034 0.163,0.079 0.235,0.126 0.216,0.03 0.431,0.079 0.639,0.171 C -0.579,-1.557 0.11,-0.839 0,0"
             style="fill:#f9e1d9;fill-opacity:1;fill-rule:nonzero;stroke:none"
             id="path4161" />
        </g>
        <g
           id="g4163"
           transform="translate(129.779,59.511)">
          <path
             d="m 0,0 c 28.252,-35.953 38.911,-100.537 23.23,-105.571 -14.329,-4.6 -73.261,10.147 -90.815,16.11 -5.156,1.752 10.769,41.839 16.284,39.973 6.666,-2.256 43.114,-10.892 43.821,-10.908 1.514,-0.035 -6.585,39.728 -10.061,57.746 C -22.382,22.453 -10.609,13.501 0,0"
             style="fill:#c36358;fill-opacity:1;fill-rule:nonzero;stroke:none"
             id="path4165" />
        </g>
        <g
           id="g4167"
           transform="translate(121.7698,0.7441)">
          <path
             d="m 0,0 c 0.456,0.273 -8.01,38.651 -10.85,58.677 -2.839,20.026 6.105,18.102 18.976,0.982 13.786,-18.339 38.333,-67.982 29.829,-104.742 -2.753,-11.904 -88.034,4.772 -88.034,4.772 l 11.492,49.015 c 0,0 37.882,-9.126 38.587,-8.704"
             style="fill:#3c3278;fill-opacity:1;fill-rule:nonzero;stroke:none"
             id="path4169" />
        </g>
        <g
           id="g4171"
           transform="translate(116.04,44.37)">
          <path
             d="m 0,0 c -0.74,-0.49 -1.72,-0.73 -2.54,-0.46 -0.26,1.45 -0.52,2.87 -0.76,4.27 0.56,1.21 1.62,2.29 2.71,2.6 0.27,0.08 0.56,0.1 0.85,0.08 0.04,0 0.08,0.01 0.13,0.01 H 0.52 C 1.16,6.51 1.78,6.15 2.1,5.6 3.13,3.82 1.91,0.92 0,0"
             style="fill:#f9e1d9;fill-opacity:1;fill-rule:nonzero;stroke:none"
             id="path4173" />
        </g>
        <g
           id="g4175"
           transform="translate(127.4284,61.3874)">
          <path
             d="m 0,0 c -0.49,1.887 -2.675,2.581 -4.148,1.298 -0.974,-0.848 -1.939,-2.319 -2.31,-3.69 -0.425,-0.478 -0.806,-1.005 -1.116,-1.633 -0.484,-0.983 -0.083,-2.11 0.997,-2.449 1.837,-0.576 3.493,0.628 4.668,1.935 C -0.857,-3.369 0.434,-1.672 0,0"
             style="fill:#f9e1d9;fill-opacity:1;fill-rule:nonzero;stroke:none"
             id="path4177" />
        </g>
        <g
           id="g4179"
           transform="translate(128.7948,49.4999)">
          <path
             d="m 0,0 c -1.372,0.441 -2.351,-0.604 -3.018,-1.648 -0.149,-0.233 -0.328,-0.498 -0.511,-0.783 -0.702,-0.571 -1.233,-1.343 -1.429,-2.257 -0.24,-1.116 0.624,-2.071 1.713,-2.175 1.092,-0.103 2.106,0.523 2.878,1.238 C 0.969,-4.39 2.673,-0.86 0,0"
             style="fill:#f9e1d9;fill-opacity:1;fill-rule:nonzero;stroke:none"
             id="path4181" />
        </g>
        <g
           id="g4183"
           transform="translate(113.23,57.56)">
          <path
             d="m 0,0 c -0.05,-1.05 -0.87,-1.85 -1.63,-2.47 -0.01,-0.01 -0.01,-0.01 -0.02,-0.02 -0.24,1.53 -0.47,2.98 -0.66,4.35 -0.02,0.12 -0.03,0.24 -0.05,0.35 0.26,0.02 0.52,0 0.78,-0.08 C -0.63,1.85 0.05,0.99 0,0"
             style="fill:#f9e1d9;fill-opacity:1;fill-rule:nonzero;stroke:none"
             id="path4185" />
        </g>
        <g
           id="g4187"
           transform="translate(139.71,44.9)">
          <path
             d="m 0,0 c -0.02,-0.02 -0.03,-0.03 -0.05,-0.04 -1.24,-0.95 -3.69,-0.69 -3.62,1.28 0.04,1 0.72,1.88 1.53,2.53 C -1.43,2.56 -0.71,1.3 0,0"
             style="fill:#f9e1d9;fill-opacity:1;fill-rule:nonzero;stroke:none"
             id="path4189" />
        </g>
        <g
           id="g4191"
           transform="translate(118.88,34.24)">
          <path
             d="m 0,0 c -0.57,-0.78 -2.09,-1.87 -3.23,-1.71 -0.19,0.98 -0.38,1.97 -0.57,2.95 0.06,0.06 0.12,0.1 0.18,0.15 0.5,0.87 1.36,1.61 2.13,1.9 C -0.62,3.61 0.24,3.2 0.5,2.3 0.73,1.51 0.48,0.65 0,0"
             style="fill:#f9e1d9;fill-opacity:1;fill-rule:nonzero;stroke:none"
             id="path4193" />
        </g>
        <g
           id="g4195"
           transform="translate(129.74,60.61)">
          <path
             d="M 0,0 C -0.04,0.03 -0.08,0.07 -0.11,0.12 -0.14,0.16 -0.17,0.2 -0.19,0.25 -0.13,0.17 -0.07,0.09 0,0"
             style="fill:#f9e1d9;fill-opacity:1;fill-rule:nonzero;stroke:none"
             id="path4197" />
        </g>
        <g
           id="g4199"
           transform="translate(121.3485,0.3514)">
          <path
             d="m 0,0 c 0.032,0.085 -5.413,25.276 -5.927,26.193 -0.526,0.95 -1.667,3.062 -2.135,4.046 -0.942,1.986 -1.76,4.017 -2.628,6.028 -0.072,0.166 0.179,0.294 0.252,0.128 0.937,-1.945 2.042,-3.811 3.156,-5.653 0.555,-0.905 1.109,-1.818 1.665,-2.715 0.042,-0.06 -2.679,14.359 -3.06,16.891 -0.031,0.187 0.174,0.24 0.231,0.083 0.818,-2.549 9.067,-41.93 9.849,-45.13 0,0 -0.541,0.009 -1.403,0.129"
             style="fill:#d74c9f;fill-opacity:1;fill-rule:nonzero;stroke:none"
             id="path4201" />
        </g>
        <g
           id="g4203"
           transform="translate(93.3553,75.489)">
          <path
             d="m 0,0 c -2.941,-2.24 -19.202,-28.906 -17.872,-30.901 1.33,-1.995 24.858,-4.323 26.687,-2.993 1.829,1.331 10.112,32.821 10.112,32.821 z"
             style="fill:#c36358;fill-opacity:1;fill-rule:nonzero;stroke:none"
             id="path4205" />
        </g>
        <g
           id="g4207"
           transform="translate(112.2827,74.4158)">
          <path
             d="m 0,0 c -0.5,-1.694 -9.332,-12.371 -17.159,-11.555 -2.548,0.271 -1.694,14.247 -1.694,14.247 l -0.173,1.047 -2.408,14.646 17.61,9.93 2.538,1.302 c 0,0 0.394,-4.051 0.835,-9.099 0.022,-0.234 0.043,-0.468 0.063,-0.719 0.033,-0.285 0.067,-0.554 0.085,-0.821 0.075,-0.753 0.149,-1.523 0.206,-2.291 0.047,-0.584 0.094,-1.152 0.12,-1.768 C 0.066,14.302 0.094,13.703 0.136,13.087 0.42,6.998 0.202,0.72 0,0"
             style="fill:#c36358;fill-opacity:1;fill-rule:nonzero;stroke:none"
             id="path4209" />
        </g>
        <g
           id="g4211"
           transform="translate(111.8317,94.9338)">
          <path
             d="m 0,0 c -4.801,-11.273 -14.263,-15.44 -18.575,-16.779 l -2.408,14.646 17.611,9.93 2.537,1.302 c 0,0 0.394,-4.051 0.835,-9.099"
             style="fill:#000000;fill-opacity:0.8;fill-rule:nonzero;stroke:none"
             id="path4213" />
        </g>
        <g
           id="g4215"
           transform="translate(93.4298,77.1082)">
          <path
             d="m 0,0 c 0,0 10.104,-1.622 19.121,3.311 0,0 0.698,-2.79 -0.103,-4.138 0,0 -9.469,-5.394 -19.018,-2.014 0,0 -0.732,1.495 0,2.841"
             style="fill:#fba3b7;fill-opacity:1;fill-rule:nonzero;stroke:none"
             id="path4217" />
        </g>
        <g
           id="g4219"
           transform="translate(71.4192,113.2207)">
          <path
             d="M 0,0 C -1.739,-25.992 13.633,-29.969 19.238,-30.337 24.326,-30.672 41.695,-31.166 46.11,-5.492 50.525,20.181 38.99,29.206 27.393,30.587 15.796,31.969 1.739,25.993 0,0"
             style="fill:#c36358;fill-opacity:1;fill-rule:nonzero;stroke:none"
             id="path4221" />
        </g>
        <g
           id="g4223"
           transform="translate(79.0333,117.1277)">
          <path
             d="M 0,0 C 0.591,-0.171 1.165,-0.23 1.767,-0.339 2.446,-0.461 2.975,-0.629 3.635,-0.34 3.989,-0.186 4.189,0.346 4.072,0.703 3.797,1.537 3.002,1.894 2.19,2.075 1.309,2.271 0.58,2.197 -0.226,1.794 -1.006,1.403 -0.78,0.226 0,0"
             style="fill:#fba3b7;fill-opacity:1;fill-rule:nonzero;stroke:none"
             id="path4225" />
        </g>
        <g
           id="g4227"
           transform="translate(97.3718,117.5971)">
          <path
             d="m 0,0 c -0.61,0.083 -1.159,0.262 -1.753,0.406 -0.671,0.163 -1.222,0.224 -1.709,0.755 -0.261,0.285 -0.228,0.852 0.024,1.131 0.589,0.652 1.46,0.656 2.276,0.493 C -0.277,2.607 0.36,2.244 0.933,1.549 1.488,0.875 0.804,-0.109 0,0"
             style="fill:#fba3b7;fill-opacity:1;fill-rule:nonzero;stroke:none"
             id="path4229" />
        </g>
        <g
           id="g4231"
           transform="translate(93.3338,111.9096)">
          <path
             d="M 0,0 C 0.016,0.067 0.135,-0.09 0.13,-0.163 -0.003,-1.932 0.143,-3.981 1.721,-4.639 1.77,-4.659 1.76,-4.748 1.702,-4.737 -0.243,-4.377 -0.409,-1.656 0,0"
             style="fill:#000000;fill-opacity:1;fill-rule:nonzero;stroke:none"
             id="path4233" />
        </g>
        <g
           id="g4235"
           transform="translate(94.9956,113.6921)">
          <path
             d="M 0,0 C 2.86,0.093 2.836,-5.633 0.187,-5.719 -2.42,-5.804 -2.396,-0.079 0,0"
             style="fill:#000000;fill-opacity:1;fill-rule:nonzero;stroke:none"
             id="path4237" />
        </g>
        <g
           id="g4239"
           transform="translate(96.1189,113.3848)">
          <path
             d="m 0,0 c 0.499,-0.326 0.987,-0.9 1.589,-0.962 0.697,-0.072 1.227,0.526 1.685,1.1 0.047,0.06 0.097,0.01 0.098,-0.066 C 3.383,-1.025 2.957,-2.149 1.78,-2.308 0.707,-2.453 -0.06,-1.478 -0.329,-0.374 -0.379,-0.169 -0.201,0.131 0,0"
             style="fill:#000000;fill-opacity:1;fill-rule:nonzero;stroke:none"
             id="path4241" />
        </g>
        <g
           id="g4243"
           transform="translate(82.5118,113.2176)">
          <path
             d="m 0,0 c -0.013,0.068 -0.14,-0.082 -0.139,-0.155 0.034,-1.774 -0.228,-3.812 -1.84,-4.379 -0.05,-0.018 -0.046,-0.107 0.014,-0.099 C -0.004,-4.384 0.315,-1.675 0,0"
             style="fill:#000000;fill-opacity:1;fill-rule:nonzero;stroke:none"
             id="path4245" />
        </g>
        <g
           id="g4247"
           transform="translate(80.9527,115.0908)">
          <path
             d="M 0,0 C -2.85,0.254 -3.149,-5.464 -0.509,-5.699 2.089,-5.932 2.389,-0.213 0,0"
             style="fill:#000000;fill-opacity:1;fill-rule:nonzero;stroke:none"
             id="path4249" />
        </g>
        <g
           id="g4251"
           transform="translate(79.7408,114.7773)">
          <path
             d="m 0,0 c -0.468,-0.28 -0.944,-0.806 -1.485,-0.814 -0.628,-0.008 -1.058,0.634 -1.427,1.248 -0.038,0.064 -0.085,0.018 -0.091,-0.057 -0.088,-1.091 0.214,-2.249 1.253,-2.513 0.948,-0.242 1.7,0.659 2.017,1.734 C 0.327,-0.203 0.188,0.112 0,0"
             style="fill:#000000;fill-opacity:1;fill-rule:nonzero;stroke:none"
             id="path4253" />
        </g>
        <g
           id="g4255"
           transform="translate(91.5847,98.1511)">
          <path
             d="m 0,0 c -0.407,-0.433 -0.807,-1.021 -1.448,-1.102 -0.614,-0.077 -1.349,0.171 -1.923,0.367 -0.057,0.02 -0.111,-0.042 -0.073,-0.094 0.488,-0.661 1.473,-1.047 2.289,-0.869 0.796,0.173 1.165,0.883 1.329,1.625 C 0.197,0.031 0.059,0.063 0,0"
             style="fill:#000000;fill-opacity:1;fill-rule:nonzero;stroke:none"
             id="path4257" />
        </g>
        <g
           id="g4259"
           transform="translate(84.2715,104.679)">
          <path
             d="m 0,0 c 0,0 -0.408,-2.643 -0.428,-3.893 -0.001,-0.116 0.3,-0.177 0.724,-0.208 0.02,-0.007 0.031,-0.015 0.049,-0.002 2.2,-0.38 4.434,0.347 5.804,2.126 C 6.237,-1.856 6.08,-1.724 5.965,-1.8 4.299,-2.984 2.474,-3.267 0.517,-3.269 0.434,-2.921 1.367,1.235 1.169,1.253 0.486,1.322 -0.866,0.879 -1.679,0.655 -0.989,6.185 0.582,11.56 1.187,17.076 1.205,17.274 0.923,17.337 0.862,17.162 -1.183,11.646 -2.117,5.299 -2.976,-0.393 -3.09,-1.102 -0.503,-0.205 0,0"
             style="fill:#000000;fill-opacity:1;fill-rule:nonzero;stroke:none"
             id="path4261" />
        </g>
        <g
           id="g4263"
           transform="translate(84.9647,101.0516)">
          <path
             d="M 0,0 C 0,0 1.089,-1.676 2.68,-2.356 3.266,-2.608 3.907,-2.733 4.594,-2.594 6.007,-2.315 6.12,-1.041 5.932,0.066 5.781,0.976 5.413,1.775 5.413,1.775 5.413,1.775 3.266,0.001 0,0"
             style="fill:#000000;fill-opacity:1;fill-rule:nonzero;stroke:none"
             id="path4265" />
        </g>
        <g
           id="g4267"
           transform="translate(87.6447,98.6959)">
          <path
             d="M 0,0 C 0.586,-0.252 1.227,-0.377 1.914,-0.239 3.327,0.041 3.44,1.314 3.253,2.421 1.753,2.361 0.216,1.441 0,0"
             style="fill:#fba3b7;fill-opacity:1;fill-rule:nonzero;stroke:none"
             id="path4269" />
        </g>
        <g
           id="g4271"
           transform="translate(114.915,104.8161)">
          <path
             d="m 0,0 c 1.285,1.598 9.797,9.963 10.35,14.352 0.324,2.565 -3.71,9.653 -3.71,9.653 l 3.628,2.309 -3.304,-0.8 5.067,7.963 -6.134,-5.187 c 0,0 -0.904,6.581 -1.43,8.185 -0.526,1.604 -10.922,10.431 -10.922,10.431 l 3.044,-5.642 c 0,0 -19.167,8.407 -21.6,8.264 -6.105,-0.36 -19.521,-9.761 -19.521,-9.761 l 14.316,1.89 c 0,0 -13.843,-5.32 -16.696,-7.771 -2.854,-2.451 -4.79,-14.755 -4.79,-14.755 l 12.684,8.059 -4.659,-6.893 c 0,0 10.897,-1.927 14.089,-1.898 6.752,0.063 22.386,5.265 22.386,5.265 0,0 -0.521,-5.91 -0.312,-7.759 0.364,-3.22 3.321,-10.011 3.321,-10.011 l 1.763,5.354 z"
             style="fill:#fba3b7;fill-opacity:1;fill-rule:nonzero;stroke:none"
             id="path4273" />
        </g>
        <g
           id="g4275"
           transform="translate(112.367,106.5527)">
          <path
             d="M 0,0 C 0,0 5.523,8.242 9.253,6.288 12.981,4.333 8.94,-7.536 4.641,-9.233 c -4.299,-1.698 -5.949,2.251 -5.949,2.251 z"
             style="fill:#c36358;fill-opacity:1;fill-rule:nonzero;stroke:none"
             id="path4277" />
        </g>
        <g
           id="g4279"
           transform="translate(120.3764,109.4669)">
          <path
             d="m 0,0 c 0.07,0.008 0.085,-0.09 0.025,-0.115 -3.012,-1.291 -4.555,-4.137 -5.617,-7.079 0.881,1.141 2.098,1.781 3.625,0.736 0.08,-0.055 0.007,-0.18 -0.079,-0.164 -1.249,0.242 -2.142,0.009 -2.963,-1.004 -0.581,-0.717 -0.97,-1.617 -1.38,-2.44 -0.137,-0.274 -0.63,-0.139 -0.533,0.176 0.007,0.023 0.016,0.047 0.024,0.07 C -7.051,-5.949 -4.149,-0.472 0,0"
             style="fill:#000000;fill-opacity:1;fill-rule:nonzero;stroke:none"
             id="path4281" />
        </g>
      </g>
    </g>
  </g>
</svg>
