<?xml version="1.0" encoding="UTF-8" standalone="no"?>
<!-- Created with Inkscape (http://www.inkscape.org/) -->

<svg
   width="43.640587mm"
   height="43.640728mm"
   viewBox="0 0 43.640588 43.640728"
   version="1.1"
   id="svg26036"
   inkscape:version="1.2 (dc2aedaf03, 2022-05-15)"
   sodipodi:docname="8.svg"
   xmlns:inkscape="http://www.inkscape.org/namespaces/inkscape"
   xmlns:sodipodi="http://sodipodi.sourceforge.net/DTD/sodipodi-0.dtd"
   xmlns="http://www.w3.org/2000/svg"
   xmlns:svg="http://www.w3.org/2000/svg">
  <sodipodi:namedview
     id="namedview26038"
     pagecolor="#505050"
     bordercolor="#eeeeee"
     borderopacity="1"
     inkscape:showpageshadow="0"
     inkscape:pageopacity="0"
     inkscape:pagecheckerboard="0"
     inkscape:deskcolor="#505050"
     inkscape:document-units="mm"
     showgrid="false"
     inkscape:zoom="0.49798681"
     inkscape:cx="-234.94598"
     inkscape:cy="-84.339583"
     inkscape:window-width="1366"
     inkscape:window-height="699"
     inkscape:window-x="0"
     inkscape:window-y="0"
     inkscape:window-maximized="1"
     inkscape:current-layer="layer1" />
  <defs
     id="defs26033">
    <clipPath
       clipPathUnits="userSpaceOnUse"
       id="clipPath2909">
      <path
         d="m 38.013,402.153 c 0,-34.16 27.692,-61.852 61.853,-61.852 v 0 c 34.16,0 61.852,27.692 61.852,61.852 v 0 c 0,34.161 -27.692,61.853 -61.852,61.853 v 0 c -34.161,0 -61.853,-27.692 -61.853,-61.853"
         id="path2907" />
    </clipPath>
    <clipPath
       clipPathUnits="userSpaceOnUse"
       id="clipPath12579">
      <path
         d="m -161.7186,97.847 h 500 v -500 h -500 z"
         id="path12581"
         style="stroke-width:0.999998" />
    </clipPath>
    <clipPath
       clipPathUnits="userSpaceOnUse"
       id="clipPath12575">
      <path
         d="m -311.8526,97.847 h 500 v -500 h -500 z"
         id="path12577"
         style="stroke-width:0.999998" />
    </clipPath>
    <clipPath
       clipPathUnits="userSpaceOnUse"
       id="clipPath3185">
      <path
         d="m 188.148,402.153 c 0,-34.16 27.692,-61.852 61.852,-61.852 v 0 c 34.161,0 61.853,27.692 61.853,61.852 v 0 c 0,34.161 -27.692,61.853 -61.853,61.853 v 0 c -34.16,0 -61.852,-27.692 -61.852,-61.853"
         id="path3183" />
    </clipPath>
    <clipPath
       clipPathUnits="userSpaceOnUse"
       id="clipPath12571">
      <path
         d="m -461.9866,97.847 h 500 v -500 h -500 z"
         id="path12573"
         style="stroke-width:0.999998" />
    </clipPath>
    <clipPath
       clipPathUnits="userSpaceOnUse"
       id="clipPath3533">
      <path
         d="m 338.281,402.153 c 0,-34.16 27.692,-61.852 61.853,-61.852 v 0 c 34.16,0 61.852,27.692 61.852,61.852 v 0 c 0,34.161 -27.692,61.853 -61.852,61.853 v 0 c -34.161,0 -61.853,-27.692 -61.853,-61.853"
         id="path3531" />
    </clipPath>
    <clipPath
       clipPathUnits="userSpaceOnUse"
       id="clipPath3609">
      <path
         d="m 370.232,358.302 h 14.005 v -17.261 h -14.005 z"
         id="path3607" />
    </clipPath>
    <clipPath
       clipPathUnits="userSpaceOnUse"
       id="clipPath3625">
      <path
         d="m 378.264,345.649 h 10.426 v -12.95 h -10.426 z"
         id="path3623" />
    </clipPath>
    <clipPath
       clipPathUnits="userSpaceOnUse"
       id="clipPath3641">
      <path
         d="M 368.258,311.851 H 378.79 V 288.93 h -10.532 z"
         id="path3639" />
    </clipPath>
    <clipPath
       clipPathUnits="userSpaceOnUse"
       id="clipPath3661">
      <path
         d="m 370.39,358.2 h 13.847 V 341.041 H 370.39 Z"
         id="path3659" />
    </clipPath>
    <clipPath
       clipPathUnits="userSpaceOnUse"
       id="clipPath3677">
      <path
         d="m 378.254,345.648 h 10.509 v -12.945 h -10.509 z"
         id="path3675" />
    </clipPath>
    <clipPath
       clipPathUnits="userSpaceOnUse"
       id="clipPath3693">
      <path
         d="m 387.457,316.052 h 10.509 v -12.945 h -10.509 z"
         id="path3691" />
    </clipPath>
    <clipPath
       clipPathUnits="userSpaceOnUse"
       id="clipPath3709">
      <path
         d="m 422.49,355.84 h 10.943 v -8.884 H 422.49 Z"
         id="path3707" />
    </clipPath>
    <clipPath
       clipPathUnits="userSpaceOnUse"
       id="clipPath3725">
      <path
         d="m 403.506,358.544 h 24.455 V 328.6 h -24.455 z"
         id="path3723" />
    </clipPath>
    <clipPath
       clipPathUnits="userSpaceOnUse"
       id="clipPath3741">
      <path
         d="m 368.256,311.853 h 24.456 v -29.945 h -24.456 z"
         id="path3739" />
    </clipPath>
    <clipPath
       clipPathUnits="userSpaceOnUse"
       id="clipPath3757">
      <path
         d="m 402.97,365.665 h 11.114 V 352.399 H 402.97 Z"
         id="path3755" />
    </clipPath>
    <clipPath
       clipPathUnits="userSpaceOnUse"
       id="clipPath3773">
      <path
         d="m 422.404,304.81 h 11.114 v -13.266 h -11.114 z"
         id="path3771" />
    </clipPath>
    <clipPath
       clipPathUnits="userSpaceOnUse"
       id="clipPath3849">
      <path
         d="m 387.459,311.51 h 10.391 v -8.401 h -10.391 z"
         id="path3847" />
    </clipPath>
    <clipPath
       clipPathUnits="userSpaceOnUse"
       id="clipPath3865">
      <path
         d="m 422.49,355.84 h 10.943 v -8.884 H 422.49 Z"
         id="path3863" />
    </clipPath>
    <clipPath
       clipPathUnits="userSpaceOnUse"
       id="clipPath3881">
      <path
         d="m 413.34,358.54 h 14.622 V 328.599 H 413.34 Z"
         id="path3879" />
    </clipPath>
    <clipPath
       clipPathUnits="userSpaceOnUse"
       id="clipPath3897">
      <path
         d="m 378.28,311.1 h 14.435 V 281.904 H 378.28 Z"
         id="path3895" />
    </clipPath>
    <clipPath
       clipPathUnits="userSpaceOnUse"
       id="clipPath3913">
      <path
         d="m 412.49,364.64 h 1.589 v -8.74 h -1.589 z"
         id="path3911" />
    </clipPath>
    <clipPath
       clipPathUnits="userSpaceOnUse"
       id="clipPath3929">
      <path
         d="m 422.404,304.81 h 11.114 v -13.266 h -11.114 z"
         id="path3927" />
    </clipPath>
    <clipPath
       clipPathUnits="userSpaceOnUse"
       id="clipPath4509">
      <path
         d="m 188.148,97.847 c 0,-34.16 27.692,-61.852 61.852,-61.852 v 0 c 34.161,0 61.853,27.692 61.853,61.852 v 0 c 0,34.16 -27.692,61.853 -61.853,61.853 v 0 c -34.16,0 -61.852,-27.693 -61.852,-61.853"
         id="path4507" />
    </clipPath>
    <clipPath
       clipPathUnits="userSpaceOnUse"
       id="clipPath12551">
      <path
         d="m -311.8526,402.153 h 500 v -500 h -500 z"
         id="path12553"
         style="stroke-width:0.999998" />
    </clipPath>
    <clipPath
       clipPathUnits="userSpaceOnUse"
       id="clipPath12547">
      <path
         d="m -461.9866,402.153 h 500 v -500 h -500 z"
         id="path12549"
         style="stroke-width:0.999998" />
    </clipPath>
    <clipPath
       clipPathUnits="userSpaceOnUse"
       id="clipPath4289">
      <path
         d="m 338.281,97.847 c 0,-34.16 27.692,-61.852 61.853,-61.852 v 0 c 34.16,0 61.852,27.692 61.852,61.852 v 0 c 0,34.16 -27.692,61.853 -61.852,61.853 v 0 c -34.161,0 -61.853,-27.693 -61.853,-61.853"
         id="path4287" />
    </clipPath>
    <clipPath
       clipPathUnits="userSpaceOnUse"
       id="clipPath4461">
      <path
         d="m 411.287,122.855 h 3.234 v -3.577 h -3.234 z"
         id="path4459" />
    </clipPath>
    <clipPath
       clipPathUnits="userSpaceOnUse"
       id="clipPath4481">
      <path
         d="m 414.553,120.557 h 2.492 v -3.675 h -2.492 z"
         id="path4479" />
    </clipPath>
    <clipPath
       clipPathUnits="userSpaceOnUse"
       id="clipPath12559">
      <path
         d="m -461.9866,250 h 500 v -500 h -500 z"
         id="path12561"
         style="stroke-width:0.999998" />
    </clipPath>
    <clipPath
       clipPathUnits="userSpaceOnUse"
       id="clipPath1909">
      <path
         d="m 338.281,250 c 0,-34.16 27.692,-61.852 61.853,-61.852 v 0 c 34.16,0 61.852,27.692 61.852,61.852 v 0 c 0,34.161 -27.692,61.853 -61.852,61.853 v 0 c -34.161,0 -61.853,-27.692 -61.853,-61.853"
         id="path1907" />
    </clipPath>
    <clipPath
       clipPathUnits="userSpaceOnUse"
       id="clipPath2001">
      <path
         d="m 378.783,231.372 h 45.306 v -29.375 h -45.306 z"
         id="path1999" />
    </clipPath>
    <clipPath
       clipPathUnits="userSpaceOnUse"
       id="clipPath2089">
      <path
         d="m 393.47,206.633 h 7.35 v -32.752 h -7.35 z"
         id="path2087" />
    </clipPath>
    <clipPath
       clipPathUnits="userSpaceOnUse"
       id="clipPath2117">
      <path
         d="m 380.559,207.88 h 4.889 v -29.926 h -4.889 z"
         id="path2115" />
    </clipPath>
    <clipPath
       clipPathUnits="userSpaceOnUse"
       id="clipPath12555">
      <path
         d="m -161.7186,402.153 h 500 v -500 h -500 z"
         id="path12557"
         style="stroke-width:0.999998" />
    </clipPath>
    <clipPath
       clipPathUnits="userSpaceOnUse"
       id="clipPath4081">
      <path
         d="m 38.013,97.847 c 0,-34.16 27.692,-61.852 61.853,-61.852 v 0 c 34.16,0 61.852,27.692 61.852,61.852 v 0 c 0,34.16 -27.692,61.853 -61.852,61.853 v 0 c -34.161,0 -61.853,-27.693 -61.853,-61.853"
         id="path4079" />
    </clipPath>
    <clipPath
       clipPathUnits="userSpaceOnUse"
       id="clipPath12567">
      <path
         d="m -161.7186,250 h 500 v -500 h -500 z"
         id="path12569"
         style="stroke-width:0.999998" />
    </clipPath>
    <clipPath
       clipPathUnits="userSpaceOnUse"
       id="clipPath2133">
      <path
         d="m 38.013,250 c 0,-34.16 27.692,-61.852 61.853,-61.852 v 0 c 34.16,0 61.852,27.692 61.852,61.852 v 0 c 0,34.161 -27.692,61.853 -61.852,61.853 v 0 C 65.705,311.853 38.013,284.161 38.013,250"
         id="path2131" />
    </clipPath>
  </defs>
  <g
     inkscape:label="Layer 1"
     inkscape:groupmode="layer"
     id="layer1"
     transform="translate(-167.06743,-170.78592)">
    <g
       id="g1879"
       transform="matrix(0.35277777,0,0,-0.35277777,210.70802,192.60628)"
       clip-path="url(#clipPath12567)">
      <path
         d="m 0,0 c 0,-34.16 -27.692,-61.853 -61.853,-61.853 -34.16,0 -61.852,27.693 -61.852,61.853 0,34.16 27.692,61.853 61.852,61.853 C -27.692,61.853 0,34.16 0,0"
         style="fill:#dfdfdf;fill-opacity:1;fill-rule:nonzero;stroke:none"
         id="path1881" />
    </g>
    <g
       id="g2127"
       transform="matrix(0.35277777,0,0,-0.35277777,153.65729,280.80073)">
      <g
         id="g2129"
         clip-path="url(#clipPath2133)">
        <g
           id="g2135"
           transform="translate(160.2431,102.1137)">
          <path
             d="m 0,0 h -107.049 c -0.448,4.09 15.949,91.078 35.209,119.045 2.185,3.173 20.905,5.483 27.777,-2.41 C -7.661,74.83 0.88,1.003 0,0"
             style="fill:#6585f4;fill-opacity:1;fill-rule:nonzero;stroke:none"
             id="path2137" />
        </g>
        <g
           id="g2139"
           transform="translate(54.52,111.63)">
          <path
             d="M 0,0 V -9.52 H -1.33 C -1.41,-8.78 -0.94,-5.33 0,0"
             style="fill:#3c3278;fill-opacity:1;fill-rule:nonzero;stroke:none"
             id="path2141" />
        </g>
        <g
           id="g2143"
           transform="translate(74.4,190.43)">
          <path
             d="M 0,0 V -88.32 H -2.48 V -7.47 C -1.67,-4.94 -0.85,-2.44 0,0"
             style="fill:#3c3278;fill-opacity:1;fill-rule:nonzero;stroke:none"
             id="path2145" />
        </g>
        <g
           id="g2147"
           transform="translate(94.29,223.57)">
          <path
             d="M 0,0 V -121.46 H -2.49 V -0.59 C -1.74,-0.36 -0.91,-0.17 0,0"
             style="fill:#3c3278;fill-opacity:1;fill-rule:nonzero;stroke:none"
             id="path2149" />
        </g>
        <g
           id="g2151"
           transform="translate(114.17,220.55)">
          <path
             d="M 0,0 V -118.44 H -2.48 V 1.42 C -1.59,1.02 -0.76,0.55 0,0"
             style="fill:#3c3278;fill-opacity:1;fill-rule:nonzero;stroke:none"
             id="path2153" />
        </g>
        <g
           id="g2155"
           transform="translate(134.06,192.12)">
          <path
             d="M 0,0 V -90.01 H -2.49 V 4.56 C -1.64,3.06 -0.81,1.53 0,0"
             style="fill:#3c3278;fill-opacity:1;fill-rule:nonzero;stroke:none"
             id="path2157" />
        </g>
        <g
           id="g2159"
           transform="translate(153.94,138.49)">
          <path
             d="M 0,0 V -36.38 H -2.49 V 9.27 C -1.7,6.51 -0.97,3.81 -0.3,1.19 -0.2,0.79 -0.1,0.4 0,0"
             style="fill:#3c3278;fill-opacity:1;fill-rule:nonzero;stroke:none"
             id="path2161" />
        </g>
        <g
           id="g2163"
           transform="translate(116.18,218.75)">
          <path
             d="m 0,0 c 0.58,-0.67 1.15,-1.34 1.72,-2.02 h -32.25 c 0.49,0.87 0.98,1.7 1.48,2.49 h 28.6 C -0.29,0.32 -0.14,0.16 0,0"
             style="fill:#3c3278;fill-opacity:1;fill-rule:nonzero;stroke:none"
             id="path2165" />
        </g>
        <g
           id="g2167"
           transform="translate(130.03,199.33)">
          <path
             d="m 0,0 c 0.49,-0.82 0.97,-1.65 1.44,-2.48 h -54.77 c 0.32,0.84 0.63,1.66 0.94,2.48 z"
             style="fill:#3c3278;fill-opacity:1;fill-rule:nonzero;stroke:none"
             id="path2169" />
        </g>
        <g
           id="g2171"
           transform="translate(141.22,176.96)">
          <path
             d="m 0,0 h -71.16 c 0.25,0.84 0.51,1.66 0.76,2.49 H -1.07 C -0.7,1.66 -0.35,0.83 0,0"
             style="fill:#3c3278;fill-opacity:1;fill-rule:nonzero;stroke:none"
             id="path2173" />
        </g>
        <g
           id="g2175"
           transform="translate(148.61,157.08)">
          <path
             d="m 0,0 h -84.09 c 0.22,0.82 0.43,1.65 0.65,2.48 H -0.82 C -0.54,1.65 -0.27,0.82 0,0"
             style="fill:#3c3278;fill-opacity:1;fill-rule:nonzero;stroke:none"
             id="path2177" />
        </g>
        <g
           id="g2179"
           transform="translate(154.26,137.19)">
          <path
             d="m 0,0 h -94.54 c 0.19,0.82 0.37,1.65 0.57,2.49 H -0.62 C -0.52,2.09 -0.42,1.7 -0.32,1.3 -0.21,0.86 -0.1,0.43 0,0"
             style="fill:#3c3278;fill-opacity:1;fill-rule:nonzero;stroke:none"
             id="path2181" />
        </g>
        <g
           id="g2183"
           transform="translate(158.44,117.31)">
          <path
             d="m 0,0 h -102.87 c 0.15,0.81 0.31,1.64 0.48,2.49 H -0.44 C -0.29,1.63 -0.14,0.8 0,0"
             style="fill:#3c3278;fill-opacity:1;fill-rule:nonzero;stroke:none"
             id="path2185" />
        </g>
        <g
           id="g2187"
           transform="translate(85.8658,213.9385)">
          <path
             d="m 0,0 c -3.037,-7.871 -14.501,-35.469 -20.732,-55.275 -4.181,-13.292 -5.773,-24.446 -6.688,-27.379 0,0 31.609,10.152 38.726,10.17 10.962,0.027 28.543,-22.864 24.23,-25.732 -6.78,-4.509 -39.098,-19.849 -64.907,-24.665 -14.03,-2.617 -40.462,15.214 -38.374,29.39 2.932,19.896 38.885,72.34 52.564,87.212 C -8.078,1.443 3.702,9.593 0,0"
             style="fill:#fb6a55;fill-opacity:1;fill-rule:nonzero;stroke:none"
             id="path2189" />
        </g>
        <g
           id="g2191"
           transform="translate(16.1959,116.2444)">
          <path
             d="m 0,0 c 0.662,-14.332 18.59,-26.396 28.986,-27.034 17.932,-1.088 71.726,14.579 71.726,14.579 L 79.803,27.83 c 0,0 -36.605,-12.425 -37.535,-12.775 l 10e-4,0.016 c 0.324,1.068 9.344,34.964 13.374,46.197 0.216,0.619 0.465,1.254 0.7,1.921 1.159,3.112 2.752,7.219 4.51,11.658 l 0.018,0.031 c 0.974,2.457 2.004,5.025 3.016,7.561 l 10e-4,0.016 c 4.421,10.982 8.73,21.434 8.73,21.434 C 66.455,102.878 60.371,99.639 50.381,89.153 40.408,78.682 -1.093,23.643 0,0"
             style="fill:#6585f4;fill-opacity:1;fill-rule:nonzero;stroke:none"
             id="path2193" />
        </g>
        <g
           id="g2195"
           transform="translate(54.52,190.61)">
          <path
             d="m 0,0 v -100.96 c -0.85,-0.1 -1.69,-0.18 -2.49,-0.26 V -3.33 C -1.64,-2.18 -0.81,-1.07 0,0"
             style="fill:#3c3278;fill-opacity:1;fill-rule:nonzero;stroke:none"
             id="path2197" />
        </g>
        <g
           id="g2199"
           transform="translate(74.4,212.83)">
          <path
             d="m 0,0 v -28.51 c -0.69,-1.79 -1.32,-3.44 -1.85,-4.87 -0.01,-0.01 -0.01,-0.01 -0.01,-0.02 -0.21,-0.58 -0.43,-1.15 -0.62,-1.7 V -2.17 C -1.62,-1.38 -0.8,-0.66 0,0"
             style="fill:#3c3278;fill-opacity:1;fill-rule:nonzero;stroke:none"
             id="path2201" />
        </g>
        <g
           id="g2203"
           transform="translate(74.4,136.74)">
          <path
             d="m 0,0 v -43.68 c -0.83,-0.18 -1.66,-0.35 -2.48,-0.52 V -0.84 C -1.67,-0.57 -0.84,-0.29 0,0"
             style="fill:#3c3278;fill-opacity:1;fill-rule:nonzero;stroke:none"
             id="path2205" />
        </g>
        <g
           id="g2207"
           transform="translate(94.29,143.49)">
          <path
             d="m 0,0 v -45.79 c -0.36,-0.09 -0.72,-0.18 -1.08,-0.27 -0.46,-0.12 -0.94,-0.23 -1.41,-0.35 V -0.85 C -1.51,-0.51 -0.67,-0.23 0,0"
             style="fill:#3c3278;fill-opacity:1;fill-rule:nonzero;stroke:none"
             id="path2209" />
        </g>
        <g
           id="g2211"
           transform="translate(114.17,109.07)">
          <path
             d="m 0,0 v -6.06 c -0.71,-0.2 -1.54,-0.44 -2.48,-0.7 V 4.78 Z"
             style="fill:#3c3278;fill-opacity:1;fill-rule:nonzero;stroke:none"
             id="path2213" />
        </g>
        <g
           id="g2215"
           transform="translate(88.44,219.22)">
          <path
             d="m 0,0 c -0.24,-0.58 -0.59,-1.43 -1.02,-2.49 h -7.63 c 1.88,1.13 3.63,1.93 5.33,2.49 z"
             style="fill:#3c3278;fill-opacity:1;fill-rule:nonzero;stroke:none"
             id="path2217" />
        </g>
        <g
           id="g2219"
           transform="translate(80.34,199.33)">
          <path
             d="M 0,0 C -0.09,-0.21 -0.18,-0.42 -0.26,-0.63 V -0.65 C -0.5,-1.26 -0.75,-1.87 -0.99,-2.48 H -21 c 0.7,0.87 1.36,1.7 2,2.48 z"
             style="fill:#3c3278;fill-opacity:1;fill-rule:nonzero;stroke:none"
             id="path2221" />
        </g>
        <g
           id="g2223"
           transform="translate(72.55,179.45)">
          <path
             d="M 0,0 C -0.01,-0.01 -0.01,-0.01 -0.01,-0.02 -0.22,-0.6 -0.44,-1.17 -0.63,-1.72 -0.66,-1.8 -0.69,-1.87 -0.71,-1.94 -0.77,-2.12 -0.84,-2.3 -0.9,-2.49 h -26.98 c 0.58,0.84 1.16,1.67 1.73,2.49 z"
             style="fill:#3c3278;fill-opacity:1;fill-rule:nonzero;stroke:none"
             id="path2225" />
        </g>
        <g
           id="g2227"
           transform="translate(66.3,159.56)">
          <path
             d="M 0,0 C -0.24,-0.82 -0.47,-1.65 -0.71,-2.48 H -34.4 c 0.08,0.14 0.17,0.28 0.25,0.42 0.41,0.69 0.82,1.37 1.24,2.06 z"
             style="fill:#3c3278;fill-opacity:1;fill-rule:nonzero;stroke:none"
             id="path2229" />
        </g>
        <g
           id="g2231"
           transform="translate(60.74,139.68)">
          <path
             d="m 0,0 c -0.24,-0.88 -0.46,-1.72 -0.68,-2.49 h -38.5 c 0.34,0.82 0.72,1.65 1.1,2.49 z"
             style="fill:#3c3278;fill-opacity:1;fill-rule:nonzero;stroke:none"
             id="path2233" />
        </g>
        <g
           id="g2235"
           transform="translate(99.57,137.19)">
          <path
             d="m 0,0 h -23.85 c 2.48,0.84 4.99,1.69 7.36,2.49 h 15.2 z"
             style="fill:#3c3278;fill-opacity:1;fill-rule:nonzero;stroke:none"
             id="path2237" />
        </g>
        <g
           id="g2239"
           transform="translate(109.89,117.31)">
          <path
             d="m 0,0 h -93.71 c 0.01,0.8 0.05,1.63 0.15,2.49 h 92.27 z"
             style="fill:#3c3278;fill-opacity:1;fill-rule:nonzero;stroke:none"
             id="path2241" />
        </g>
        <g
           id="g2243"
           transform="translate(102.84,99.91)">
          <path
             d="M 0,0 C -2.62,-0.69 -5.5,-1.44 -8.55,-2.21 -8.91,-2.3 -9.27,-2.39 -9.63,-2.48 H -75.6 c -0.96,0.78 -1.88,1.61 -2.76,2.48 z"
             style="fill:#3c3278;fill-opacity:1;fill-rule:nonzero;stroke:none"
             id="path2245" />
        </g>
        <g
           id="g2247"
           transform="translate(102.9676,112.5076)">
          <path
             d="m 0,0 c -1.492,2.852 -3.008,5.691 -4.506,8.539 -1.468,2.79 -2.957,5.568 -4.456,8.342 -1.55,2.868 -3.177,5.731 -4.429,8.745 -0.023,0.057 0.056,0.106 0.094,0.055 1.882,-2.481 3.43,-5.216 4.977,-7.915 1.603,-2.794 3.163,-5.613 4.71,-8.437 C -2.094,6.561 -0.633,3.765 0.806,0.957 2.285,-1.931 3.78,-4.926 4.848,-7.995 4.891,-8.118 4.722,-8.239 4.64,-8.118 2.912,-5.55 1.434,-2.74 0,0"
             style="fill:#3c3278;fill-opacity:1;fill-rule:nonzero;stroke:none"
             id="path2249" />
        </g>
        <g
           id="g2251"
           transform="translate(47.2689,125.3576)">
          <path
             d="m 0,0 11.178,5.927 0.017,0.015 10e-4,0.016 c 0.324,1.068 9.344,34.964 13.374,46.196 0.216,0.62 0.465,1.255 0.7,1.922 1.159,3.111 2.752,7.219 4.51,11.658 z"
             style="fill:#3c3278;fill-opacity:1;fill-rule:nonzero;stroke:none"
             id="path2253" />
        </g>
        <g
           id="g2255"
           transform="translate(38.0163,120.4382)">
          <path
             d="m 0,0 c 3.105,2.318 6.45,4.394 9.82,6.3 1.686,0.954 3.403,1.832 5.171,2.621 1.88,0.839 3.867,1.448 5.734,2.292 0.142,0.065 0.247,-0.155 0.104,-0.22 C 19.085,10.204 17.427,9.105 15.743,8.186 13.992,7.231 12.233,6.294 10.459,5.381 6.975,3.59 3.554,1.689 0.092,-0.142 0.007,-0.187 -0.078,-0.058 0,0"
             style="fill:#3c3278;fill-opacity:1;fill-rule:nonzero;stroke:none"
             id="path2257" />
        </g>
        <g
           id="g2259"
           transform="translate(46.1541,129.1182)">
          <path
             d="m 0,0 c 2.805,-0.038 19.742,4.486 22.209,2.161 15.034,-14.172 19.786,-11.317 22.986,-13.163 24.772,-14.252 57.851,-30.995 69.659,-31.1 17.907,-0.145 25.039,14.882 22.058,29.081 C 131.028,15.048 93.173,69.776 76.046,84.317 66.964,92.016 67.682,80.403 71.439,67.781 73.642,60.379 77.495,49.373 81.426,38.574 84.908,28.954 94.132,4.369 94.292,3.792 V 3.776 C 94.306,3.742 94.321,3.725 94.32,3.709 94.332,3.643 94.267,3.631 94.123,3.672 93.337,3.816 72.153,13.8 50.85,19.284 43.343,21.217 27.71,23.97 22.105,21.468 18.773,19.98 18.716,17.992 18.716,17.992 c 0,0 -2.672,0.243 -5.49,-2.078 -1.87,-1.539 -2.45,-3.717 -2.45,-3.717 0,0 -2.923,-0.409 -4.445,-2.103 C 4.518,8.073 4.357,5.934 4.357,5.934 0.414,4.881 0,0 0,0"
             style="fill:#fb6a55;fill-opacity:1;fill-rule:nonzero;stroke:none"
             id="path2261" />
        </g>
        <g
           id="g2263"
           transform="translate(71.1753,147.7044)">
          <path
             d="m 0,0 c 2.258,-0.032 4.463,-0.36 6.682,-0.75 0.151,-0.026 0.145,-0.26 -0.014,-0.243 -2.18,0.239 -4.385,0.289 -6.576,0.363 -2.177,0.073 -4.388,0.119 -6.566,0.075 -0.013,0 -0.015,0.022 -0.002,0.024 C -4.302,-0.173 -2.207,0.032 0,0"
             style="fill:#3c3278;fill-opacity:1;fill-rule:nonzero;stroke:none"
             id="path2265" />
        </g>
        <g
           id="g2267"
           transform="translate(56.9987,141.4496)">
          <path
             d="M 0,0 C 3.878,1.065 6.969,1.654 11.839,1.045 11.995,1.025 11.984,0.792 11.829,0.802 7.201,1.089 4.183,0.62 0.007,-0.084 -0.042,-0.092 -0.044,-0.012 0,0"
             style="fill:#3c3278;fill-opacity:1;fill-rule:nonzero;stroke:none"
             id="path2269" />
        </g>
        <g
           id="g2271"
           transform="translate(50.5585,135.1834)">
          <path
             d="M 0,0 C 3.889,1.6 6.882,2.098 11.197,2.1 11.349,2.1 11.4,1.876 11.241,1.861 7.102,1.466 4.073,0.87 0.056,-0.172 -0.044,-0.198 -0.095,-0.039 0,0"
             style="fill:#3c3278;fill-opacity:1;fill-rule:nonzero;stroke:none"
             id="path2273" />
        </g>
        <g
           id="g2275"
           transform="translate(98.0426,148.1574)">
          <path
             d="m 0,0 c 1.86,-0.242 3.717,-0.79 5.537,-1.238 1.941,-0.478 3.873,-1.005 5.772,-1.631 3.802,-1.253 7.494,-2.759 11.136,-4.417 0.141,-0.065 0.066,-0.281 -0.084,-0.229 -3.709,1.299 -7.454,2.517 -11.203,3.697 C 9.315,-3.239 7.482,-2.623 5.646,-2.022 3.762,-1.405 1.8,-0.938 -0.052,-0.235 -0.178,-0.188 -0.14,0.018 0,0"
             style="fill:#3c3278;fill-opacity:1;fill-rule:nonzero;stroke:none"
             id="path2277" />
        </g>
        <g
           id="g2279"
           transform="translate(112.8578,144.1394)">
          <path
             d="m 0,0 c -3.92,1.327 -5.693,1.335 -5.693,1.335 l -22.286,-37.636 c 0,0 61.386,-22.099 73.991,-23.393 12.604,-1.293 26.943,8.633 27.184,24.458 0.34,22.24 -35.927,75.649 -54.169,96.302 -8.361,9.466 -18.11,16.34 -20.595,14.789 -2.938,-1.833 2.395,-13.734 5.206,-22.612 5.189,-16.39 23.781,-64.592 23.781,-64.592 0,0 -22.75,9.768 -27.419,11.349"
             style="fill:#6585f4;fill-opacity:1;fill-rule:nonzero;stroke:none"
             id="path2281" />
        </g>
        <g
           id="g2283"
           transform="translate(94.29,123.73)">
          <path
             d="m 0,0 v -19.23 c -0.88,0.31 -1.72,0.61 -2.49,0.88 v 14.42 h 0.16 z"
             style="fill:#3c3278;fill-opacity:1;fill-rule:nonzero;stroke:none"
             id="path2285" />
        </g>
        <g
           id="g2287"
           transform="translate(114.17,219.75)">
          <path
             d="m 0,0 v -15.58 c -0.9,2.53 -1.79,5.05 -2.48,7.32 V 0.41 C -1.88,0.55 -1.04,0.4 0,0"
             style="fill:#3c3278;fill-opacity:1;fill-rule:nonzero;stroke:none"
             id="path2289" />
        </g>
        <g
           id="g2291"
           transform="translate(114.17,143.67)">
          <path
             d="m 0,0 v -46.04 c -0.83,0.29 -1.66,0.57 -2.48,0.84 V 0.85 C -2.12,0.74 -1.73,0.61 -1.31,0.47 -0.97,0.35 -0.53,0.19 0,0"
             style="fill:#3c3278;fill-opacity:1;fill-rule:nonzero;stroke:none"
             id="path2293" />
        </g>
        <g
           id="g2295"
           transform="translate(134.06,202.69)">
          <path
             d="m 0,0 v -53.62 c -0.79,2.08 -1.63,4.29 -2.49,6.58 V 2.87 C -2.39,2.75 -2.28,2.64 -2.18,2.52 -1.48,1.73 -0.75,0.89 0,0"
             style="fill:#3c3278;fill-opacity:1;fill-rule:nonzero;stroke:none"
             id="path2297" />
        </g>
        <g
           id="g2299"
           transform="translate(134.06,135.44)">
          <path
             d="m 0,0 v -44.34 c -0.82,0.26 -1.65,0.52 -2.49,0.78 V 1.06 C -1.62,0.69 -0.78,0.34 0,0"
             style="fill:#3c3278;fill-opacity:1;fill-rule:nonzero;stroke:none"
             id="path2301" />
        </g>
        <g
           id="g2303"
           transform="translate(153.94,176.25)">
          <path
             d="m 0,0 v -90.87 c -0.78,0.17 -1.61,0.38 -2.49,0.61 V 3.59 C -2.4,3.46 -2.3,3.33 -2.22,3.2 -1.64,2.38 -1.06,1.55 -0.49,0.71 -0.33,0.47 -0.16,0.24 0,0"
             style="fill:#3c3278;fill-opacity:1;fill-rule:nonzero;stroke:none"
             id="path2305" />
        </g>
        <g
           id="g2307"
           transform="translate(173.82,143.79)">
          <path
             d="m 0,0 v -55.84 c -0.8,-0.48 -1.63,-0.92 -2.48,-1.3 V 4.55 C -1.63,3.02 -0.8,1.51 0,0"
             style="fill:#3c3278;fill-opacity:1;fill-rule:nonzero;stroke:none"
             id="path2309" />
        </g>
        <g
           id="g2311"
           transform="translate(119.37,216.73)">
          <path
             d="m 0,0 h -8.88 c -0.11,1.04 -0.07,1.89 0.19,2.49 h 4.67 C -2.83,1.9 -1.47,1.06 0,0"
             style="fill:#3c3278;fill-opacity:1;fill-rule:nonzero;stroke:none"
             id="path2313" />
        </g>
        <g
           id="g2315"
           transform="translate(138.83,196.85)">
          <path
             d="m 0,0 h -22.16 c -0.06,0.18 -0.12,0.36 -0.17,0.53 -0.2,0.64 -0.42,1.29 -0.64,1.95 H -1.99 C -1.34,1.68 -0.68,0.85 0,0"
             style="fill:#3c3278;fill-opacity:1;fill-rule:nonzero;stroke:none"
             id="path2317" />
        </g>
        <g
           id="g2319"
           transform="translate(153.45,176.96)">
          <path
             d="m 0,0 h -29.8 c -0.31,0.84 -0.61,1.67 -0.91,2.49 H -1.73 C -1.15,1.67 -0.57,0.84 0,0"
             style="fill:#3c3278;fill-opacity:1;fill-rule:nonzero;stroke:none"
             id="path2321" />
        </g>
        <g
           id="g2323"
           transform="translate(166.27,157.08)">
          <path
             d="m 0,0 h -35.24 c -0.31,0.82 -0.62,1.64 -0.93,2.48 H -1.5 C -0.99,1.65 -0.49,0.83 0,0"
             style="fill:#3c3278;fill-opacity:1;fill-rule:nonzero;stroke:none"
             id="path2325" />
        </g>
        <g
           id="g2327"
           transform="translate(129.92,137.19)">
          <path
             d="m 0,0 h -27.65 l 1.47,2.49 H -5.91 C -3.95,1.67 -1.92,0.82 0,0"
             style="fill:#3c3278;fill-opacity:1;fill-rule:nonzero;stroke:none"
             id="path2329" />
        </g>
        <g
           id="g2331"
           transform="translate(177.18,137.19)">
          <path
             d="m 0,0 h -38.59 c -0.29,0.75 -0.61,1.58 -0.95,2.49 H -1.23 C -0.81,1.65 -0.4,0.83 0,0"
             style="fill:#3c3278;fill-opacity:1;fill-rule:nonzero;stroke:none"
             id="path2333" />
        </g>
        <g
           id="g2335"
           transform="translate(184.89,117.31)">
          <path
             d="m 0,0 h -94.4 l 1.31,2.21 V 2.49 H -0.68 C -0.42,1.64 -0.19,0.81 0,0"
             style="fill:#3c3278;fill-opacity:1;fill-rule:nonzero;stroke:none"
             id="path2337" />
        </g>
        <g
           id="g2339"
           transform="translate(184.24,99.91)">
          <path
             d="m 0,0 c -0.35,-0.85 -0.75,-1.68 -1.19,-2.48 h -68.27 c -0.2,0.07 -0.41,0.14 -0.61,0.2 -0.83,0.29 -1.66,0.57 -2.48,0.84 -1.42,0.49 -2.82,0.97 -4.18,1.44 z"
             style="fill:#3c3278;fill-opacity:1;fill-rule:nonzero;stroke:none"
             id="path2341" />
        </g>
        <g
           id="g2343"
           transform="translate(107.3647,145.5051)">
          <path
             d="m 0,0 c 3.458,-0.202 18.409,-5.409 25.742,-8.556 7.308,-3.135 14.335,-6.858 20.93,-11.308 3.732,-2.519 7.273,-5.26 10.771,-8.091 0.12,-0.098 -0.012,-0.292 -0.14,-0.199 -6.447,4.61 -13.334,8.724 -20.304,12.489 C 30.065,-11.92 23.004,-8.363 15.653,-5.498 11.468,-3.866 4.271,-1.423 0.181,-0.35 -0.974,-0.047 -0.107,0.006 0,0"
             style="fill:#3c3278;fill-opacity:1;fill-rule:nonzero;stroke:none"
             id="path2345" />
        </g>
        <g
           id="g2347"
           transform="translate(122.0842,178.4164)">
          <path
             d="m 0,0 c 0.936,-1.509 1.882,-3.009 2.681,-4.597 0.037,-0.074 0.073,-0.15 0.11,-0.224 -1.188,3.611 -2.314,7.232 -3.394,10.878 -0.066,0.223 0.304,0.344 0.39,0.127 5.275,-13.361 10.169,-26.881 14.919,-40.438 1.328,-3.792 2.495,-7.622 3.701,-11.449 0.042,-0.132 -0.174,-0.199 -0.229,-0.075 -1.449,3.284 -2.91,6.545 -4.237,9.885 -1.326,3.338 -2.558,6.716 -3.805,10.084 C 7.956,-19.918 5.881,-14.001 3.88,-8.05 3.253,-7.008 2.62,-5.969 2.028,-4.908 1.165,-3.361 0.457,-1.742 -0.264,-0.126 -0.342,0.05 -0.097,0.156 0,0"
             style="fill:#3c3278;fill-opacity:1;fill-rule:nonzero;stroke:none"
             id="path2349" />
        </g>
        <g
           id="g2351"
           transform="translate(99.8126,116.0366)">
          <path
             d="m 0,0 c 1.633,2.773 3.243,5.56 4.87,8.337 1.594,2.72 3.166,5.452 4.729,8.189 1.617,2.832 3.188,5.726 5.087,8.381 0.035,0.05 0.119,0.008 0.096,-0.05 -1.113,-2.91 -2.618,-5.669 -4.091,-8.408 C 9.164,13.613 7.595,10.799 6.014,7.993 4.465,5.244 2.862,2.527 1.238,-0.179 -0.432,-2.961 -2.186,-5.812 -4.228,-8.34 -4.309,-8.441 -4.501,-8.361 -4.441,-8.228 -3.174,-5.404 -1.569,-2.665 0,0"
             style="fill:#3c3278;fill-opacity:1;fill-rule:nonzero;stroke:none"
             id="path2353" />
        </g>
        <g
           id="g2355"
           transform="translate(83.9897,107.7596)">
          <path
             d="M 0,0 C 1.848,3.646 4.726,7.226 6.856,10.694 6.937,10.826 7.133,10.688 7.054,10.556 5.121,7.303 3.347,3.797 1.5,0.489 c 8.431,-3.481 17.382,-6.584 25.982,-9.631 8.824,-3.128 17.705,-6.093 26.707,-8.687 5.032,-1.449 10.072,-3.022 15.137,-4.351 0.314,-0.082 0.231,-0.342 -0.093,-0.281 -9.108,1.714 -18.051,4.346 -26.869,7.145 -8.994,2.854 -17.87,6.041 -26.704,9.343 C 10.688,-4.115 -0.149,-0.295 0,0"
             style="fill:#3c3278;fill-opacity:1;fill-rule:nonzero;stroke:none"
             id="path2357" />
        </g>
        <g
           id="g2359"
           transform="translate(98.6097,148.1319)">
          <path
             d="m 0,0 c 11.592,-2.968 24.931,-7.854 30.908,-10.194 0.158,-0.055 0.3,-0.109 0.443,-0.163 5.264,-2.068 8.527,-3.603 9.308,-3.732 0.066,0.029 0.116,0.075 0.166,0.105 v 0.016 c 0.547,0.395 1.09,0.694 1.629,0.896 1.484,0.533 15.749,2.314 15.387,6.732 -0.347,4.37 -6.16,4.099 -7.014,4.038 0.924,0.202 8.666,2.016 6.144,5.881 -1.781,2.743 -9.448,2.34 -10.22,2.308 0.782,0.257 7.893,2.577 5.447,6.522 -1.75,2.824 -10.31,2.456 -11.298,2.289 0.801,0.304 7.14,1.365 4.18,4.768 C 43.026,21.833 26.91,19.425 19.746,15.851 9.094,10.535 0,0 0,0"
             style="fill:#fb6a55;fill-opacity:1;fill-rule:nonzero;stroke:none"
             id="path2361" />
        </g>
        <g
           id="g2363"
           transform="translate(129.5173,137.9381)">
          <path
             d="m 0,0 c 0.158,-0.055 0.301,-0.109 0.443,-0.163 2.475,1.921 11.834,6.879 19.188,7.821 0.456,0.059 0.486,0.319 0.003,0.298 C 10.553,7.545 2.39,2.198 0,0"
             style="fill:#3c3278;fill-opacity:1;fill-rule:nonzero;stroke:none"
             id="path2365" />
        </g>
        <g
           id="g2367"
           transform="translate(145.0108,153.7286)">
          <path
             d="m 0,0 c -10.151,-2.015 -14.739,-4.256 -23.467,-9.801 -0.123,-0.079 -0.26,0.103 -0.142,0.192 8.136,6.089 13.2,9.105 23.522,9.866 C 0.38,0.292 0.464,0.092 0,0"
             style="fill:#3c3278;fill-opacity:1;fill-rule:nonzero;stroke:none"
             id="path2369" />
        </g>
        <g
           id="g2371"
           transform="translate(139.1987,162.6216)">
          <path
             d="m 0,0 c -9.739,-2.589 -14.872,-4.832 -22.716,-11.179 -0.185,-0.15 -0.413,0.077 -0.242,0.243 7.393,7.169 13.779,10.012 22.865,11.204 C 0.527,0.35 0.613,0.163 0,0"
             style="fill:#3c3278;fill-opacity:1;fill-rule:nonzero;stroke:none"
             id="path2373" />
        </g>
        <g
           id="g2375"
           transform="translate(90.4374,205.3825)">
          <path
             d="m 0,0 c 5.768,-2.074 16.969,5.829 21.82,12.713 0.33,0.474 0.16,5.865 0.264,12.427 0.079,3.982 0.26,8.413 0.717,12.445 L -3.182,34.311 c 0,0 1.526,-8.734 0.686,-15.758 -0.077,-0.586 -0.197,-1.126 -0.362,-1.635 -0.017,-0.075 -0.049,-0.164 -0.068,-0.27 C -3.795,13.564 -5.574,2.008 0,0"
             style="fill:#fb6a55;fill-opacity:1;fill-rule:nonzero;stroke:none"
             id="path2377" />
        </g>
        <g
           id="g2379"
           transform="translate(87.5047,222.0334)">
          <path
             d="m 0,0 c -0.05,-0.167 -0.1,-0.35 -0.133,-0.567 15.555,0.658 21.471,7.499 25.302,14.06 0.117,2.502 0.283,5.037 0.567,7.439 L -0.25,17.663 c 0,0 1.534,-8.74 0.684,-15.761 C 0.367,1.318 0.234,0.784 0.067,0.267 0.05,0.2 0.033,0.1 0,0"
             style="fill:#000000;fill-opacity:0.8;fill-rule:nonzero;stroke:none"
             id="path2381" />
        </g>
        <g
           id="g2383"
           transform="translate(120.2595,275.2748)">
          <path
             d="m 0,0 c 2.725,-9.033 -2.122,-35.085 -8.559,-40.877 -9.331,-8.397 -24.567,-9.154 -31.69,2.053 -6.905,10.863 0.013,44.704 7.199,49.963 C -22.466,18.885 -4.025,13.342 0,0"
             style="fill:#fb6a55;fill-opacity:1;fill-rule:nonzero;stroke:none"
             id="path2385" />
        </g>
        <g
           id="g2387"
           transform="translate(98.0896,260.6755)">
          <path
             d="M 0,0 C 0.026,0.064 0.122,-0.108 0.107,-0.18 -0.267,-1.926 -0.4,-3.989 1.083,-4.86 1.129,-4.887 1.108,-4.974 1.051,-4.955 -0.839,-4.331 -0.634,-1.595 0,0"
             style="fill:#000000;fill-opacity:1;fill-rule:nonzero;stroke:none"
             id="path2389" />
        </g>
        <g
           id="g2391"
           transform="translate(99.9903,262.2253)">
          <path
             d="M 0,0 C 2.864,-0.297 2.059,-6.003 -0.594,-5.727 -3.205,-5.457 -2.401,0.249 0,0"
             style="fill:#000000;fill-opacity:1;fill-rule:nonzero;stroke:none"
             id="path2393" />
        </g>
        <g
           id="g2395"
           transform="translate(87.3219,262.2959)">
          <path
             d="m 0,0 c -0.004,0.07 -0.15,-0.064 -0.158,-0.137 -0.193,-1.775 -0.713,-3.775 -2.394,-4.137 -0.053,-0.011 -0.06,-0.101 0,-0.101 1.99,0 2.654,2.663 2.552,4.375"
             style="fill:#000000;fill-opacity:1;fill-rule:nonzero;stroke:none"
             id="path2397" />
        </g>
        <g
           id="g2399"
           transform="translate(86.0038,264.3646)">
          <path
             d="M 0,0 C -2.812,0.616 -3.838,-5.053 -1.233,-5.624 1.331,-6.187 2.357,-0.516 0,0"
             style="fill:#000000;fill-opacity:1;fill-rule:nonzero;stroke:none"
             id="path2401" />
        </g>
        <g
           id="g2403"
           transform="translate(102.6096,264.5169)">
          <path
             d="m 0,0 c -0.749,0.305 -1.39,0.711 -2.1,1.09 -0.801,0.427 -1.483,0.684 -1.93,1.52 -0.239,0.448 -0.013,1.16 0.4,1.433 0.963,0.637 2.074,0.358 3.06,-0.117 C 0.499,3.411 1.191,2.74 1.694,1.668 2.181,0.628 0.989,-0.402 0,0"
             style="fill:#000000;fill-opacity:1;fill-rule:nonzero;stroke:none"
             id="path2405" />
        </g>
        <g
           id="g2407"
           transform="translate(84.2025,267.5485)">
          <path
             d="M 0,0 C 0.809,0.017 1.553,0.168 2.351,0.268 3.252,0.382 3.98,0.378 4.696,1 5.08,1.333 5.122,2.078 4.833,2.481 4.162,3.42 3.024,3.555 1.934,3.464 0.752,3.364 -0.135,2.985 -0.987,2.162 -1.813,1.365 -1.067,-0.023 0,0"
             style="fill:#000000;fill-opacity:1;fill-rule:nonzero;stroke:none"
             id="path2409" />
        </g>
        <g
           id="g2411"
           transform="translate(96.4299,244.384)">
          <path
             d="m 0,0 c -0.482,-0.354 -0.984,-0.864 -1.633,-0.827 -0.622,0.034 -1.305,0.414 -1.838,0.712 -0.052,0.029 -0.117,-0.022 -0.089,-0.08 0.363,-0.743 1.269,-1.304 2.108,-1.276 0.82,0.027 1.313,0.663 1.611,1.367 C 0.2,-0.005 0.07,0.052 0,0"
             style="fill:#000000;fill-opacity:1;fill-rule:nonzero;stroke:none"
             id="path2413" />
        </g>
        <g
           id="g2415"
           transform="translate(95.3181,249.9378)">
          <path
             d="m 0,0 c -1.205,-1.395 -2.778,-2.028 -4.394,-2.111 -0.722,-0.042 -1.464,0.038 -2.179,0.206 -0.142,0.023 -0.282,0.059 -0.407,0.106 -0.127,0.033 -0.241,0.065 -0.378,0.114 -0.203,0.059 -0.292,0.245 -0.299,0.445 l 0.002,0.013 c 0.01,0.064 0.018,0.116 0.042,0.179 l 0.002,0.013 0.025,0.155 c 0.154,1.365 0.578,3.416 0.578,3.416 -0.532,-0.179 -3.228,-0.962 -3.088,-0.256 1.181,5.836 2.495,12.326 4.903,17.884 0.07,0.187 0.36,0.101 0.316,-0.091 C -5.79,14.419 -7.691,8.964 -8.699,3.3 c 0.852,0.193 2.252,0.576 2.962,0.461 0.185,-0.083 -0.89,-3.949 -0.91,-4.568 0,0 -0.004,-0.026 0.002,-0.067 C -4.4,-1.488 -2.579,-1.04 -0.143,0.182 0.003,0.264 0.126,0.126 0,0"
             style="fill:#000000;fill-opacity:1;fill-rule:nonzero;stroke:none"
             id="path2417" />
        </g>
        <g
           id="g2419"
           transform="translate(117.0485,252.0983)">
          <path
             d="m 0,0 c -4.682,1.078 -3.696,13.1 -3.696,13.1 0,0 -5.709,2.755 -6.596,13.845 0,0 -5.012,-10.39 -24.496,-6.215 0,0 -0.727,4.758 2.367,10.133 0,0 -2.71,-3.632 -5.936,-10.166 0,0 -3.219,16.813 11.288,21.316 5.769,1.79 14.185,0.552 26.46,-6.967 0,0 3.165,7.474 4.552,6.329 1.388,-1.145 -2.116,-8.077 -2.116,-8.077 0,0 5.803,1.234 6.646,-0.033 0.726,-1.09 -4.842,-2.023 -4.842,-2.023 0,0 8.388,-3.539 6.044,-13.369 C 7.525,8.855 2.315,-0.533 0,0"
             style="fill:#000000;fill-opacity:1;fill-rule:nonzero;stroke:none"
             id="path2421" />
        </g>
        <g
           id="g2423"
           transform="translate(119.1289,283.6185)">
          <path
             d="m 0,0 c 5.115,-0.286 9.366,-4.419 9.646,-9.568 0.155,-2.856 -0.827,-5.829 -1.967,-8.409 -1.247,-2.825 -3.001,-5.245 -4.904,-7.656 -0.105,-0.133 -0.297,0.054 -0.189,0.186 1.749,2.141 3.038,4.704 4.045,7.272 0.948,2.416 1.841,5.106 1.964,7.716 C 8.837,-5.28 5.033,-0.995 -0.034,-0.287 -0.196,-0.264 -0.164,0.009 0,0"
             style="fill:#202020;fill-opacity:1;fill-rule:nonzero;stroke:none"
             id="path2425" />
        </g>
        <g
           id="g2427"
           transform="translate(101.4827,295.8143)">
          <path
             d="m 0,0 c 3.269,-1.004 6.437,-2.612 9.326,-4.429 2.767,-1.74 5.447,-3.716 7.49,-6.295 0.104,-0.131 -0.056,-0.307 -0.186,-0.189 -4.621,4.171 -10.428,7.126 -16.208,9.358 -5.409,2.088 -11.979,2.681 -16.619,-1.448 -0.076,-0.068 -0.185,0.037 -0.113,0.111 C -12.104,1.499 -5.484,1.684 0,0"
             style="fill:#202020;fill-opacity:1;fill-rule:nonzero;stroke:none"
             id="path2429" />
        </g>
        <g
           id="g2431"
           transform="translate(114.6212,254.0475)">
          <path
             d="M 0,0 C 0,0 6.088,8.291 9.863,6.1 13.639,3.91 8.924,-8.203 4.395,-9.77 c -4.528,-1.567 -6.06,2.596 -6.06,2.596 z"
             style="fill:#fb6a55;fill-opacity:1;fill-rule:nonzero;stroke:none"
             id="path2433" />
        </g>
        <g
           id="g2435"
           transform="translate(123.047,256.7091)">
          <path
             d="m 0,0 c 0.072,0.005 0.084,-0.096 0.021,-0.121 -3.178,-1.202 -4.903,-4.082 -6.134,-7.082 0.964,1.144 2.253,1.752 3.788,0.602 0.08,-0.061 -10e-4,-0.187 -0.089,-0.166 -1.283,0.306 -2.219,0.104 -3.114,-0.909 -0.634,-0.717 -1.077,-1.632 -1.538,-2.465 -0.154,-0.278 -0.659,-0.116 -0.544,0.206 0.008,0.023 0.018,0.048 0.027,0.072 C -7.569,-5.848 -4.319,-0.303 0,0"
             style="fill:#000000;fill-opacity:1;fill-rule:nonzero;stroke:none"
             id="path2437" />
        </g>
        <g
           id="g2439"
           transform="translate(85.1012,217.5212)">
          <path
             d="m 0,0 c 0.011,0.053 0.097,0.044 0.091,-0.011 -0.505,-5.164 -1.311,-17.151 7.467,-16.776 3.537,0.151 6.816,2.062 9.563,3.953 2.822,1.942 5.35,4.226 7.648,6.686 2.549,2.73 3.413,4.022 5.266,5.962 0.11,0.115 0.298,-0.016 0.21,-0.15 -1.914,-2.903 -2.078,-3.569 -4.576,-6.453 -2.403,-2.775 -5.122,-5.339 -8.256,-7.408 -2.938,-1.939 -6.427,-3.838 -10.166,-3.831 -3.558,0.005 -6.082,2.144 -7.03,5.228 C -1.028,-8.748 -0.813,-4.071 0,0"
             style="fill:#3c3278;fill-opacity:1;fill-rule:nonzero;stroke:none"
             id="path2441" />
        </g>
      </g>
    </g>
  </g>
</svg>
