<?xml version="1.0" encoding="UTF-8" standalone="no"?>
<!-- Created with Inkscape (http://www.inkscape.org/) -->

<svg
   width="43.640499mm"
   height="43.640728mm"
   viewBox="0 0 43.6405 43.640728"
   version="1.1"
   id="svg26036"
   inkscape:version="1.2 (dc2aedaf03, 2022-05-15)"
   sodipodi:docname="9.svg"
   xmlns:inkscape="http://www.inkscape.org/namespaces/inkscape"
   xmlns:sodipodi="http://sodipodi.sourceforge.net/DTD/sodipodi-0.dtd"
   xmlns="http://www.w3.org/2000/svg"
   xmlns:svg="http://www.w3.org/2000/svg">
  <sodipodi:namedview
     id="namedview26038"
     pagecolor="#505050"
     bordercolor="#eeeeee"
     borderopacity="1"
     inkscape:showpageshadow="0"
     inkscape:pageopacity="0"
     inkscape:pagecheckerboard="0"
     inkscape:deskcolor="#505050"
     inkscape:document-units="mm"
     showgrid="false"
     inkscape:zoom="0.49798681"
     inkscape:cx="66.266815"
     inkscape:cy="160.64682"
     inkscape:window-width="1366"
     inkscape:window-height="699"
     inkscape:window-x="0"
     inkscape:window-y="0"
     inkscape:window-maximized="1"
     inkscape:current-layer="layer1" />
  <defs
     id="defs26033">
    <clipPath
       clipPathUnits="userSpaceOnUse"
       id="clipPath2909">
      <path
         d="m 38.013,402.153 c 0,-34.16 27.692,-61.852 61.853,-61.852 v 0 c 34.16,0 61.852,27.692 61.852,61.852 v 0 c 0,34.161 -27.692,61.853 -61.852,61.853 v 0 c -34.161,0 -61.853,-27.692 -61.853,-61.853"
         id="path2907" />
    </clipPath>
    <clipPath
       clipPathUnits="userSpaceOnUse"
       id="clipPath12579">
      <path
         d="m -161.7186,97.847 h 500 v -500 h -500 z"
         id="path12581"
         style="stroke-width:0.999998" />
    </clipPath>
    <clipPath
       clipPathUnits="userSpaceOnUse"
       id="clipPath12575">
      <path
         d="m -311.8526,97.847 h 500 v -500 h -500 z"
         id="path12577"
         style="stroke-width:0.999998" />
    </clipPath>
    <clipPath
       clipPathUnits="userSpaceOnUse"
       id="clipPath3185">
      <path
         d="m 188.148,402.153 c 0,-34.16 27.692,-61.852 61.852,-61.852 v 0 c 34.161,0 61.853,27.692 61.853,61.852 v 0 c 0,34.161 -27.692,61.853 -61.853,61.853 v 0 c -34.16,0 -61.852,-27.692 -61.852,-61.853"
         id="path3183" />
    </clipPath>
    <clipPath
       clipPathUnits="userSpaceOnUse"
       id="clipPath12571">
      <path
         d="m -461.9866,97.847 h 500 v -500 h -500 z"
         id="path12573"
         style="stroke-width:0.999998" />
    </clipPath>
    <clipPath
       clipPathUnits="userSpaceOnUse"
       id="clipPath3533">
      <path
         d="m 338.281,402.153 c 0,-34.16 27.692,-61.852 61.853,-61.852 v 0 c 34.16,0 61.852,27.692 61.852,61.852 v 0 c 0,34.161 -27.692,61.853 -61.852,61.853 v 0 c -34.161,0 -61.853,-27.692 -61.853,-61.853"
         id="path3531" />
    </clipPath>
    <clipPath
       clipPathUnits="userSpaceOnUse"
       id="clipPath3609">
      <path
         d="m 370.232,358.302 h 14.005 v -17.261 h -14.005 z"
         id="path3607" />
    </clipPath>
    <clipPath
       clipPathUnits="userSpaceOnUse"
       id="clipPath3625">
      <path
         d="m 378.264,345.649 h 10.426 v -12.95 h -10.426 z"
         id="path3623" />
    </clipPath>
    <clipPath
       clipPathUnits="userSpaceOnUse"
       id="clipPath3641">
      <path
         d="M 368.258,311.851 H 378.79 V 288.93 h -10.532 z"
         id="path3639" />
    </clipPath>
    <clipPath
       clipPathUnits="userSpaceOnUse"
       id="clipPath3661">
      <path
         d="m 370.39,358.2 h 13.847 V 341.041 H 370.39 Z"
         id="path3659" />
    </clipPath>
    <clipPath
       clipPathUnits="userSpaceOnUse"
       id="clipPath3677">
      <path
         d="m 378.254,345.648 h 10.509 v -12.945 h -10.509 z"
         id="path3675" />
    </clipPath>
    <clipPath
       clipPathUnits="userSpaceOnUse"
       id="clipPath3693">
      <path
         d="m 387.457,316.052 h 10.509 v -12.945 h -10.509 z"
         id="path3691" />
    </clipPath>
    <clipPath
       clipPathUnits="userSpaceOnUse"
       id="clipPath3709">
      <path
         d="m 422.49,355.84 h 10.943 v -8.884 H 422.49 Z"
         id="path3707" />
    </clipPath>
    <clipPath
       clipPathUnits="userSpaceOnUse"
       id="clipPath3725">
      <path
         d="m 403.506,358.544 h 24.455 V 328.6 h -24.455 z"
         id="path3723" />
    </clipPath>
    <clipPath
       clipPathUnits="userSpaceOnUse"
       id="clipPath3741">
      <path
         d="m 368.256,311.853 h 24.456 v -29.945 h -24.456 z"
         id="path3739" />
    </clipPath>
    <clipPath
       clipPathUnits="userSpaceOnUse"
       id="clipPath3757">
      <path
         d="m 402.97,365.665 h 11.114 V 352.399 H 402.97 Z"
         id="path3755" />
    </clipPath>
    <clipPath
       clipPathUnits="userSpaceOnUse"
       id="clipPath3773">
      <path
         d="m 422.404,304.81 h 11.114 v -13.266 h -11.114 z"
         id="path3771" />
    </clipPath>
    <clipPath
       clipPathUnits="userSpaceOnUse"
       id="clipPath3849">
      <path
         d="m 387.459,311.51 h 10.391 v -8.401 h -10.391 z"
         id="path3847" />
    </clipPath>
    <clipPath
       clipPathUnits="userSpaceOnUse"
       id="clipPath3865">
      <path
         d="m 422.49,355.84 h 10.943 v -8.884 H 422.49 Z"
         id="path3863" />
    </clipPath>
    <clipPath
       clipPathUnits="userSpaceOnUse"
       id="clipPath3881">
      <path
         d="m 413.34,358.54 h 14.622 V 328.599 H 413.34 Z"
         id="path3879" />
    </clipPath>
    <clipPath
       clipPathUnits="userSpaceOnUse"
       id="clipPath3897">
      <path
         d="m 378.28,311.1 h 14.435 V 281.904 H 378.28 Z"
         id="path3895" />
    </clipPath>
    <clipPath
       clipPathUnits="userSpaceOnUse"
       id="clipPath3913">
      <path
         d="m 412.49,364.64 h 1.589 v -8.74 h -1.589 z"
         id="path3911" />
    </clipPath>
    <clipPath
       clipPathUnits="userSpaceOnUse"
       id="clipPath3929">
      <path
         d="m 422.404,304.81 h 11.114 v -13.266 h -11.114 z"
         id="path3927" />
    </clipPath>
    <clipPath
       clipPathUnits="userSpaceOnUse"
       id="clipPath4509">
      <path
         d="m 188.148,97.847 c 0,-34.16 27.692,-61.852 61.852,-61.852 v 0 c 34.161,0 61.853,27.692 61.853,61.852 v 0 c 0,34.16 -27.692,61.853 -61.853,61.853 v 0 c -34.16,0 -61.852,-27.693 -61.852,-61.853"
         id="path4507" />
    </clipPath>
    <clipPath
       clipPathUnits="userSpaceOnUse"
       id="clipPath12551">
      <path
         d="m -311.8526,402.153 h 500 v -500 h -500 z"
         id="path12553"
         style="stroke-width:0.999998" />
    </clipPath>
    <clipPath
       clipPathUnits="userSpaceOnUse"
       id="clipPath12547">
      <path
         d="m -461.9866,402.153 h 500 v -500 h -500 z"
         id="path12549"
         style="stroke-width:0.999998" />
    </clipPath>
    <clipPath
       clipPathUnits="userSpaceOnUse"
       id="clipPath4289">
      <path
         d="m 338.281,97.847 c 0,-34.16 27.692,-61.852 61.853,-61.852 v 0 c 34.16,0 61.852,27.692 61.852,61.852 v 0 c 0,34.16 -27.692,61.853 -61.852,61.853 v 0 c -34.161,0 -61.853,-27.693 -61.853,-61.853"
         id="path4287" />
    </clipPath>
    <clipPath
       clipPathUnits="userSpaceOnUse"
       id="clipPath4461">
      <path
         d="m 411.287,122.855 h 3.234 v -3.577 h -3.234 z"
         id="path4459" />
    </clipPath>
    <clipPath
       clipPathUnits="userSpaceOnUse"
       id="clipPath4481">
      <path
         d="m 414.553,120.557 h 2.492 v -3.675 h -2.492 z"
         id="path4479" />
    </clipPath>
    <clipPath
       clipPathUnits="userSpaceOnUse"
       id="clipPath12559">
      <path
         d="m -461.9866,250 h 500 v -500 h -500 z"
         id="path12561"
         style="stroke-width:0.999998" />
    </clipPath>
    <clipPath
       clipPathUnits="userSpaceOnUse"
       id="clipPath1909">
      <path
         d="m 338.281,250 c 0,-34.16 27.692,-61.852 61.853,-61.852 v 0 c 34.16,0 61.852,27.692 61.852,61.852 v 0 c 0,34.161 -27.692,61.853 -61.852,61.853 v 0 c -34.161,0 -61.853,-27.692 -61.853,-61.853"
         id="path1907" />
    </clipPath>
    <clipPath
       clipPathUnits="userSpaceOnUse"
       id="clipPath2001">
      <path
         d="m 378.783,231.372 h 45.306 v -29.375 h -45.306 z"
         id="path1999" />
    </clipPath>
    <clipPath
       clipPathUnits="userSpaceOnUse"
       id="clipPath2089">
      <path
         d="m 393.47,206.633 h 7.35 v -32.752 h -7.35 z"
         id="path2087" />
    </clipPath>
    <clipPath
       clipPathUnits="userSpaceOnUse"
       id="clipPath2117">
      <path
         d="m 380.559,207.88 h 4.889 v -29.926 h -4.889 z"
         id="path2115" />
    </clipPath>
    <clipPath
       clipPathUnits="userSpaceOnUse"
       id="clipPath12555">
      <path
         d="m -161.7186,402.153 h 500 v -500 h -500 z"
         id="path12557"
         style="stroke-width:0.999998" />
    </clipPath>
    <clipPath
       clipPathUnits="userSpaceOnUse"
       id="clipPath4081">
      <path
         d="m 38.013,97.847 c 0,-34.16 27.692,-61.852 61.853,-61.852 v 0 c 34.16,0 61.852,27.692 61.852,61.852 v 0 c 0,34.16 -27.692,61.853 -61.852,61.853 v 0 c -34.161,0 -61.853,-27.693 -61.853,-61.853"
         id="path4079" />
    </clipPath>
    <clipPath
       clipPathUnits="userSpaceOnUse"
       id="clipPath12567">
      <path
         d="m -161.7186,250 h 500 v -500 h -500 z"
         id="path12569"
         style="stroke-width:0.999998" />
    </clipPath>
    <clipPath
       clipPathUnits="userSpaceOnUse"
       id="clipPath2133">
      <path
         d="m 38.013,250 c 0,-34.16 27.692,-61.852 61.853,-61.852 v 0 c 34.16,0 61.852,27.692 61.852,61.852 v 0 c 0,34.161 -27.692,61.853 -61.852,61.853 v 0 C 65.705,311.853 38.013,284.161 38.013,250"
         id="path2131" />
    </clipPath>
    <clipPath
       clipPathUnits="userSpaceOnUse"
       id="clipPath12563">
      <path
         d="m -311.8526,250 h 500 v -500 h -500 z"
         id="path12565"
         style="stroke-width:0.999998" />
    </clipPath>
    <clipPath
       clipPathUnits="userSpaceOnUse"
       id="clipPath2449">
      <path
         d="m 188.148,250 c 0,-34.16 27.692,-61.852 61.852,-61.852 v 0 c 34.161,0 61.853,27.692 61.853,61.852 v 0 c 0,34.161 -27.692,61.853 -61.853,61.853 v 0 c -34.16,0 -61.852,-27.692 -61.852,-61.853"
         id="path2447" />
    </clipPath>
  </defs>
  <g
     inkscape:label="Layer 1"
     inkscape:groupmode="layer"
     id="layer1"
     transform="translate(-87.334836,-105.92978)">
    <g
       id="g1883"
       transform="matrix(0.35277777,0,0,-0.35277777,130.97521,127.75014)"
       clip-path="url(#clipPath12563)">
      <path
         d="m 0,0 c 0,-34.16 -27.692,-61.853 -61.853,-61.853 -34.16,0 -61.852,27.693 -61.852,61.853 0,34.16 27.692,61.853 61.852,61.853 C -27.692,61.853 0,34.16 0,0"
         style="fill:#dfdfdf;fill-opacity:1;fill-rule:nonzero;stroke:none"
         id="path1885" />
    </g>
    <g
       id="g2443"
       transform="matrix(0.35277777,0,0,-0.35277777,20.960531,215.94458)">
      <g
         id="g2445"
         clip-path="url(#clipPath2449)">
        <g
           id="g2451"
           transform="translate(332.823,107.0503)">
          <path
             d="M 0,0 C -0.036,0.254 -0.085,0.497 -0.133,0.751 -0.073,0.436 -0.012,0.133 0.024,-0.182 0.012,-0.121 0.012,-0.061 0,0"
             style="fill:#6585f4;fill-opacity:1;fill-rule:nonzero;stroke:none"
             id="path2453" />
        </g>
        <g
           id="g2455"
           transform="translate(291.0543,99.6608)">
          <path
             d="m 0,0 c 0.133,-0.085 0.279,-0.157 0.436,-0.23 l 0.061,0.109 0.012,0.012 C 0.363,-0.072 0.206,-0.048 0.061,-0.012 0.036,-0.012 0.024,-0.012 0,0"
             style="fill:#6585f4;fill-opacity:1;fill-rule:nonzero;stroke:none"
             id="path2457" />
        </g>
        <g
           id="g2459"
           transform="translate(224.7942,252.7673)">
          <path
             d="m 0,0 c -0.539,-5.527 -1.094,-11.077 -1.42,-16.632 -0.198,-3.394 -0.186,-6.749 -0.079,-10.117 0.996,-1.167 2.205,-2.306 3.671,-3.384 -0.035,0.856 -0.061,1.708 -0.089,2.543 -0.142,4.033 0.051,8.005 0.282,12.021 0.005,0.136 0.186,0.098 0.18,-0.037 -0.102,-4.132 0.085,-8.318 0.31,-12.455 0.05,-0.9 0.125,-1.803 0.208,-2.699 1.173,-0.794 2.489,-1.551 3.975,-2.257 -0.079,0.987 -0.138,1.976 -0.199,2.943 -0.15,2.283 -0.256,4.566 -0.299,6.856 -0.085,4.517 0.093,9.005 0.476,13.486 0.015,0.187 0.251,0.128 0.245,-0.053 -0.134,-4.624 -0.114,-9.272 0.046,-13.904 0.077,-2.191 0.184,-4.389 0.339,-6.577 0.075,-1.049 0.184,-2.1 0.285,-3.158 2.223,-0.983 4.792,-1.856 7.766,-2.581 7.578,-1.847 15.654,-0.876 23.11,1.076 6.379,1.676 12.541,4.792 17.626,9.646 -2.095,3.312 -3.643,7.238 -4.739,10.958 -0.033,0.126 0.113,0.186 0.164,0.073 1.06,-2.436 2.207,-4.812 3.446,-7.135 0.583,-1.092 1.211,-2.145 1.839,-3.204 0.076,0.075 0.146,0.15 0.221,0.226 0.486,0.494 0.999,1.02 1.501,1.59 -1.228,2.171 -2.256,4.527 -3.242,6.819 -1.418,3.287 -2.642,6.64 -3.512,10.153 -0.058,0.23 0.208,0.353 0.299,0.132 1.347,-3.216 2.615,-6.468 4.003,-9.663 0.978,-2.248 2.09,-4.432 3.123,-6.652 1.441,1.792 2.606,3.926 2.407,6.497 -0.167,2.119 -1.175,3.999 -2.002,5.841 -0.939,2.067 -1.771,4.19 -2.51,6.356 -1.53,4.462 -2.64,9.108 -3.298,13.83 -0.608,4.378 -0.559,8.83 -1.243,13.194 -0.581,3.746 -1.932,7.192 -4.479,9.631 -2.166,2.074 -4.774,3.275 -7.439,3.897 -0.046,0.108 -13.788,12.279 -30.389,3.49 -13.553,-7.174 -16.981,-52.566 -16.521,-57.083 0.278,-2.664 1.127,-5.937 3.43,-9.132 -0.077,2.847 0.036,5.704 0.203,8.471 0.343,5.753 1.183,11.39 2.06,17.047 C -0.215,0.23 0.02,0.182 0,0"
             style="fill:#2d1635;fill-opacity:1;fill-rule:nonzero;stroke:none"
             id="path2461" />
        </g>
        <g
           id="g2463"
           transform="translate(231.3848,216.4196)">
          <path
             d="m 0,0 c -26.215,-29.495 -57.961,-90.318 -50.848,-101.943 7.923,-12.949 45.746,29.052 44.446,30.954 -1.105,1.615 11.191,37.999 20.118,64.605 C 22.635,20.197 6.483,7.294 0,0"
             style="fill:#ffaba1;fill-opacity:1;fill-rule:nonzero;stroke:none"
             id="path2465" />
        </g>
        <g
           id="g2467"
           transform="translate(231.3848,216.4196)">
          <path
             d="m 0,0 c -26.215,-29.495 -57.961,-90.318 -50.848,-101.943 7.923,-12.949 45.746,29.052 44.446,30.954 -1.105,1.615 11.191,37.999 20.118,64.605 C 22.635,20.197 6.483,7.294 0,0"
             style="fill:#d74c9f;fill-opacity:1;fill-rule:nonzero;stroke:none"
             id="path2469" />
        </g>
        <g
           id="g2471"
           transform="translate(226.7822,184.4112)">
          <path
             d="M 0,0 C 0.199,0.337 0.424,0.656 0.667,0.962 0.916,1.276 1.18,1.572 1.472,1.845 1.61,1.974 1.76,2.093 1.907,2.211 1.981,2.27 2.058,2.327 2.135,2.382 2.167,2.405 2.202,2.427 2.231,2.453 2.203,2.463 2.181,2.484 2.186,2.521 2.232,2.826 2.683,2.721 2.689,2.43 2.694,2.197 2.492,1.973 2.376,1.785 2.246,1.576 2.121,1.357 2.013,1.136 1.806,0.715 1.638,0.268 1.512,-0.184 1.379,-0.662 1.317,-1.222 0.987,-1.603 0.91,-1.755 0.879,-1.823 0.826,-1.946 0.712,-2.216 0.478,-2.407 0.169,-2.353 c -0.293,0.052 -0.494,0.292 -0.497,0.592 -0.002,0.164 0.003,0.328 0.011,0.491 C -0.404,-0.834 -0.221,-0.374 0,0"
             style="fill:#3c3278;fill-opacity:1;fill-rule:nonzero;stroke:none"
             id="path2473" />
        </g>
        <g
           id="g2475"
           transform="translate(223.1187,183.4914)">
          <path
             d="M 0,0 C 0.418,0.56 0.888,1.115 1.485,1.49 1.677,1.611 1.844,1.369 1.761,1.2 1.482,0.629 1.171,0.099 0.957,-0.493 0.85,-0.788 0.74,-1.081 0.655,-1.383 0.554,-1.744 0.434,-2.084 0.249,-2.411 -0.05,-2.942 -0.862,-2.655 -0.857,-2.083 -0.851,-1.335 -0.439,-0.589 0,0"
             style="fill:#3c3278;fill-opacity:1;fill-rule:nonzero;stroke:none"
             id="path2477" />
        </g>
        <g
           id="g2479"
           transform="translate(218.2203,167.0782)">
          <path
             d="M 0,0 C 0.034,0.16 0.12,0.322 0.185,0.471 0.257,0.637 0.468,0.602 0.505,0.46 0.508,0.461 0.512,0.462 0.516,0.463 0.537,0.316 0.58,0.18 0.615,0.036 0.647,-0.096 0.667,-0.223 0.713,-0.35 0.769,-0.502 0.785,-0.666 0.834,-0.822 0.87,-0.937 0.92,-1.031 0.983,-1.176 1.233,-1.757 1.632,-2.25 1.861,-2.84 1.93,-3.015 1.815,-3.247 1.675,-3.346 1.508,-3.464 1.315,-3.464 1.136,-3.37 c -0.34,0.176 -0.609,0.488 -0.782,0.826 -0.159,0.31 -0.294,0.664 -0.363,1.007 -0.035,0.175 -0.048,0.357 -0.06,0.535 -0.011,0.16 -0.035,0.323 -0.026,0.483 C -0.086,-0.352 -0.035,-0.163 0,0"
             style="fill:#3c3278;fill-opacity:1;fill-rule:nonzero;stroke:none"
             id="path2481" />
        </g>
        <g
           id="g2483"
           transform="translate(243.4223,209.9423)">
          <path
             d="M 0,0 C 0.048,0.264 0.15,0.529 0.258,0.774 0.377,1.045 0.499,1.313 0.645,1.571 0.712,1.689 0.778,1.808 0.85,1.923 0.887,1.982 0.923,2.031 0.973,2.08 0.984,2.093 0.999,2.101 1.011,2.112 1.012,2.125 0.999,2.136 1.007,2.147 1.065,2.222 1.117,2.213 1.203,2.234 1.293,2.256 1.366,2.212 1.416,2.141 1.574,1.918 1.523,1.628 1.512,1.372 1.501,1.097 1.467,0.828 1.425,0.557 1.378,0.25 1.326,-0.076 1.206,-0.365 1.151,-0.498 1.115,-0.585 1.015,-0.69 0.973,-0.745 0.921,-0.789 0.858,-0.82 0.814,-0.854 0.81,-0.853 0.847,-0.817 0.787,-0.856 0.747,-0.912 0.683,-0.947 0.575,-0.978 0.549,-0.99 0.606,-0.985 0.592,-1.006 0.579,-1.027 0.566,-1.049 0.454,-1.232 0.165,-1.143 0.169,-0.931 c 0,0.024 0,0.048 0.001,0.072 0.045,-0.033 0.03,-0.009 -0.044,0.073 -0.037,0.065 -0.04,0.132 -0.07,0.199 0.014,-0.052 0.011,-0.052 -0.009,0.001 -0.034,0.052 -0.054,0.109 -0.06,0.169 C -0.048,-0.266 -0.027,-0.149 0,0"
             style="fill:#3c3278;fill-opacity:1;fill-rule:nonzero;stroke:none"
             id="path2485" />
        </g>
        <g
           id="g2487"
           transform="translate(241.2429,207.1222)">
          <path
             d="M 0,0 C 0.005,0.012 0.01,0.024 0.015,0.035 0.028,0.062 0.029,0.064 0,0"
             style="fill:#3c3278;fill-opacity:1;fill-rule:nonzero;stroke:none"
             id="path2489" />
        </g>
        <g
           id="g2491"
           transform="translate(240.5817,208.6327)">
          <path
             d="M 0,0 C 0.138,0.207 0.273,0.417 0.416,0.621 0.574,0.848 0.74,1.102 0.988,1.238 1.164,1.335 1.363,1.2 1.367,1.009 1.373,0.741 1.251,0.478 1.166,0.229 1.086,-0.006 1.013,-0.243 0.955,-0.484 0.893,-0.743 0.841,-1.007 0.767,-1.262 0.745,-1.337 0.709,-1.406 0.676,-1.476 0.649,-1.534 0.564,-1.719 0.581,-1.691 0.408,-1.97 0.005,-2.102 -0.284,-1.923 -0.99,-1.486 -0.32,-0.48 0,0"
             style="fill:#3c3278;fill-opacity:1;fill-rule:nonzero;stroke:none"
             id="path2493" />
        </g>
        <g
           id="g2495"
           transform="translate(224.8043,200.2422)">
          <path
             d="M 0,0 C -0.061,0.39 0.344,0.698 0.581,0.96 0.666,1.053 0.749,1.149 0.833,1.244 0.872,1.289 0.911,1.334 0.949,1.38 0.907,1.329 0.964,1.4 0.973,1.411 1.005,1.451 1.036,1.48 1.071,1.504 1.141,1.57 1.207,1.641 1.276,1.708 1.377,1.807 1.515,1.717 1.527,1.597 1.532,1.541 1.544,1.489 1.543,1.432 1.542,1.378 1.538,1.323 1.538,1.269 1.527,1.318 1.515,1.367 1.503,1.415 1.583,1.246 1.522,1.053 1.484,0.877 1.455,0.74 1.417,0.607 1.369,0.475 1.238,0.113 1.036,-0.432 0.595,-0.468 0.554,-0.479 0.516,-0.487 0.474,-0.488 0.434,-0.495 0.395,-0.505 0.354,-0.504 0.271,-0.502 0.199,-0.473 0.137,-0.422 0.035,-0.339 0.019,-0.235 0.011,-0.119 0.002,-0.079 0,-0.041 0,0"
             style="fill:#3c3278;fill-opacity:1;fill-rule:nonzero;stroke:none"
             id="path2497" />
        </g>
        <g
           id="g2499"
           transform="translate(206.0917,101.028)">
          <path
             d="m 0,0 6.584,44.613 c 0,0 -10.554,18.426 -4.431,31.65 3.091,6.698 24.283,39.431 35.7,47.717 10.71,7.773 25.379,0.684 30.369,-6.078 C 82.568,98.461 89.558,63.467 97.568,0 Z"
             style="fill:#d74c9f;fill-opacity:1;fill-rule:nonzero;stroke:none"
             id="path2501" />
        </g>
        <g
           id="g2503"
           transform="translate(286.2677,127.378)">
          <path
             d="m 0,0 c 0.049,0.459 0.086,0.921 0.107,1.382 0.01,0.211 0.005,0.421 0.021,0.631 0.007,0.106 -0.014,0.254 0.009,0.354 0,0 0,0 0,10e-4 C 0.15,2.352 0.175,2.339 0.22,2.338 0.186,2.339 0.164,2.361 0.137,2.376 0.155,2.475 0.108,2.424 0.132,2.378 0.068,2.415 0.019,2.473 0.017,2.551 0.011,2.779 0.212,2.916 0.426,2.9 0.721,2.879 0.84,2.649 0.987,2.43 1.34,1.907 1.614,1.321 1.732,0.695 1.862,0.003 1.912,-0.719 1.754,-1.413 1.71,-1.607 1.636,-1.802 1.544,-1.979 1.517,-2.032 1.488,-2.081 1.457,-2.131 1.521,-2.028 1.279,-2.468 1.338,-2.369 1.169,-2.652 0.897,-2.903 0.577,-2.992 0.378,-3.048 0.205,-2.938 0.096,-2.783 c -0.148,0.21 -0.202,0.496 -0.214,0.758 -0.013,0.269 -0.016,0.327 -0.02,0.638 C -0.144,-0.928 -0.049,-0.456 0,0"
             style="fill:#3c3278;fill-opacity:1;fill-rule:nonzero;stroke:none"
             id="path2505" />
        </g>
        <g
           id="g2507"
           transform="translate(286.4043,129.7458)">
          <path
             d="M 0,0 C -0.003,0.003 -0.003,0.006 -0.005,0.01 -0.003,0.009 -0.001,0.009 0,0.008 0,0.004 0.001,0.005 0,0"
             style="fill:#3c3278;fill-opacity:1;fill-rule:nonzero;stroke:none"
             id="path2509" />
        </g>
        <g
           id="g2511"
           transform="translate(283.1456,130.6142)">
          <path
             d="M 0,0 C 0.016,0.238 0.124,0.454 0.189,0.681 0.238,0.85 0.268,1.023 0.309,1.194 0.329,1.277 0.356,1.359 0.374,1.444 0.382,1.481 0.389,1.518 0.396,1.555 0.436,1.884 0.483,2.23 0.474,2.562 0.47,2.723 0.466,2.893 0.443,3.05 0.43,3.136 0.409,3.222 0.403,3.309 0.398,3.368 0.425,3.456 0.405,3.512 0.355,3.653 0.556,3.701 0.628,3.6 0.657,3.561 0.75,3.526 0.791,3.487 0.852,3.428 0.901,3.356 0.951,3.288 1.072,3.123 1.186,2.973 1.284,2.792 1.481,2.427 1.645,2.07 1.743,1.663 1.844,1.25 1.892,0.837 1.863,0.412 1.847,0.167 1.831,-0.118 1.744,-0.346 1.689,-0.488 1.616,-0.628 1.504,-0.735 1.443,-0.78 1.381,-0.826 1.319,-0.871 1.31,-0.874 1.301,-0.878 1.292,-0.882 1.287,-0.886 1.29,-0.884 1.285,-0.889 1.223,-0.947 1.149,-1 1.073,-1.04 0.666,-1.252 0.264,-1.023 0.119,-0.624 0.099,-0.576 0.099,-0.523 0.094,-0.471 0.027,-0.319 -0.01,-0.151 0,0"
             style="fill:#3c3278;fill-opacity:1;fill-rule:nonzero;stroke:none"
             id="path2513" />
        </g>
        <g
           id="g2515"
           transform="translate(236.1026,139.4808)">
          <path
             d="M 0,0 C 0.073,0.727 0.295,1.489 0.667,2.138 0.591,2.133 0.545,2.226 0.62,2.276 0.747,2.361 0.852,2.446 0.941,2.574 1.054,2.735 1.367,2.684 1.342,2.455 1.255,1.664 1.213,0.898 1.33,0.106 1.39,-0.302 1.492,-0.704 1.61,-1.098 1.667,-1.285 1.718,-1.469 1.756,-1.661 1.784,-1.807 1.815,-1.958 1.816,-2.107 1.832,-2.198 1.825,-2.288 1.793,-2.378 1.698,-2.564 1.684,-2.605 1.749,-2.5 1.65,-2.895 1.16,-3.043 0.832,-2.847 0.963,-2.925 0.726,-2.797 0.711,-2.788 0.601,-2.72 0.529,-2.622 0.455,-2.52 0.39,-2.429 0.331,-2.341 0.284,-2.239 0.173,-1.998 0.083,-1.752 0.044,-1.489 -0.031,-0.993 -0.05,-0.498 0,0"
             style="fill:#3c3278;fill-opacity:1;fill-rule:nonzero;stroke:none"
             id="path2517" />
        </g>
        <g
           id="g2519"
           transform="translate(233.5147,142.8863)">
          <path
             d="M 0,0 C 0.131,0.538 0.37,1.065 0.659,1.535 0.802,1.767 0.974,1.973 1.152,2.177 1.307,2.355 1.466,2.498 1.698,2.558 1.924,2.616 2.044,2.455 2.081,2.259 2.103,2.144 2.079,2.05 1.965,2.007 1.961,1.988 1.959,1.968 1.954,1.948 1.922,1.764 1.903,1.58 1.874,1.395 1.88,1.434 1.878,1.417 1.867,1.347 1.862,1.303 1.856,1.259 1.851,1.215 1.833,1.09 1.809,0.965 1.789,0.84 1.809,0.965 1.771,0.708 1.77,0.684 1.766,0.637 1.719,0.243 1.74,0.381 1.748,0.437 1.747,0.426 1.735,0.347 1.729,0.302 1.722,0.257 1.717,0.211 1.705,0.12 1.695,0.029 1.687,-0.062 1.669,-0.246 1.649,-0.429 1.624,-0.612 1.59,-0.853 1.531,-1.073 1.435,-1.295 1.386,-1.408 1.347,-1.542 1.283,-1.646 1.31,-1.601 1.058,-1.903 1.117,-1.828 0.867,-2.144 0.483,-2.132 0.247,-1.807 0.299,-1.878 0.202,-1.759 0.201,-1.758 0.11,-1.642 0.057,-1.53 0.014,-1.387 -0.018,-1.282 -0.047,-1.174 -0.066,-1.066 -0.128,-0.709 -0.085,-0.35 0,0"
             style="fill:#3c3278;fill-opacity:1;fill-rule:nonzero;stroke:none"
             id="path2521" />
        </g>
        <g
           id="g2523"
           transform="translate(232.2737,134.7632)">
          <path
             d="M 0,0 C 0.036,0.219 0.124,0.421 0.207,0.627 0.294,0.843 0.354,1.064 0.455,1.275 0.645,1.672 0.81,2.121 1.141,2.426 1.191,2.472 1.272,2.434 1.272,2.367 1.277,1.958 1.169,1.553 1.187,1.141 1.196,0.935 1.196,0.723 1.244,0.523 1.289,0.335 1.351,0.155 1.389,-0.034 1.471,-0.447 1.595,-0.857 1.709,-1.263 1.819,-1.653 1.96,-2.162 1.842,-2.576 1.835,-2.646 1.833,-2.716 1.813,-2.784 1.696,-3.193 1.254,-3.294 0.91,-3.126 0.882,-3.113 0.864,-3.088 0.839,-3.071 0.332,-2.866 0.062,-2.13 -0.022,-1.65 -0.121,-1.085 -0.092,-0.563 0,0"
             style="fill:#3c3278;fill-opacity:1;fill-rule:nonzero;stroke:none"
             id="path2525" />
        </g>
        <g
           id="g2527"
           transform="translate(218.2257,122.7843)">
          <path
             d="M 0,0 C 0.007,0.043 0.014,0.086 0.021,0.13 0.03,0.172 0.043,0.213 0.054,0.255 0.08,0.348 0.1,0.443 0.125,0.537 0.174,0.724 0.251,0.902 0.308,1.086 0.364,1.266 0.399,1.451 0.454,1.631 0.465,1.669 0.473,1.712 0.488,1.749 0.49,1.754 0.49,1.751 0.491,1.754 0.491,1.758 0.49,1.756 0.49,1.76 0.491,1.842 0.5,1.941 0.524,2.019 0.529,2.038 0.561,2.102 0.544,2.046 0.592,2.208 0.582,2.438 0.573,2.605 0.564,2.777 0.534,2.947 0.525,3.118 0.521,3.195 0.492,3.378 0.62,3.381 0.764,3.385 0.921,3.219 1.009,3.118 1.135,2.971 1.241,2.802 1.348,2.641 1.406,2.555 1.461,2.466 1.512,2.374 1.532,2.339 1.552,2.303 1.571,2.266 1.593,2.23 1.59,2.23 1.562,2.266 L 1.655,2.139 C 1.695,2.066 1.719,1.977 1.744,1.898 1.746,1.891 1.761,1.845 1.767,1.824 1.771,1.815 1.771,1.813 1.777,1.8 1.799,1.742 1.822,1.684 1.845,1.627 1.864,1.577 1.883,1.528 1.898,1.477 2.024,1.012 2.056,0.426 1.924,-0.04 1.856,-0.28 1.766,-0.526 1.623,-0.73 1.445,-0.984 1.137,-1.269 0.832,-1.337 0.438,-1.426 0.129,-1.192 -0.004,-0.835 -0.092,-0.599 -0.033,-0.241 0,0"
             style="fill:#3c3278;fill-opacity:1;fill-rule:nonzero;stroke:none"
             id="path2529" />
        </g>
        <g
           id="g2531"
           transform="translate(218.2258,122.7852)">
          <path
             d="M 0,0 C 0,0 0,-0.001 0,-0.001 -0.006,-0.039 -0.012,-0.078 -0.019,-0.116 -0.012,-0.077 -0.006,-0.039 0,0"
             style="fill:#3c3278;fill-opacity:1;fill-rule:nonzero;stroke:none"
             id="path2533" />
        </g>
        <g
           id="g2535"
           transform="translate(256.5085,121.1535)">
          <path
             d="M 0,0 C 0.024,0.238 0.065,0.47 0.103,0.705 0.12,0.815 0.118,0.93 0.147,1.038 0.175,1.147 0.23,1.244 0.259,1.353 0.3,1.508 0.508,1.479 0.552,1.345 0.582,1.257 0.625,1.189 0.663,1.106 0.712,0.997 0.72,0.883 0.753,0.771 0.817,0.549 0.907,0.328 0.981,0.108 1.122,-0.312 1.264,-0.723 1.385,-1.15 1.506,-1.574 1.642,-1.996 1.742,-2.425 1.856,-2.915 2.036,-3.804 1.307,-3.897 0.655,-3.98 0.411,-3.188 0.252,-2.706 0.114,-2.288 0.055,-1.839 0.006,-1.403 -0.023,-1.139 -0.062,-0.875 -0.048,-0.609 -0.038,-0.406 -0.02,-0.203 0,0"
             style="fill:#3c3278;fill-opacity:1;fill-rule:nonzero;stroke:none"
             id="path2537" />
        </g>
        <g
           id="g2539"
           transform="translate(276.859,178.1617)">
          <path
             d="M 0,0 C -0.04,0.092 0.097,0.168 0.137,0.076 0.179,-0.023 0.215,-0.128 0.271,-0.22 0.333,-0.32 0.421,-0.4 0.49,-0.494 0.61,-0.656 0.701,-0.846 0.792,-1.025 0.977,-1.392 1.111,-1.783 1.206,-2.183 1.306,-2.609 1.414,-3.026 1.434,-3.465 1.447,-3.751 1.349,-3.969 1.265,-4.19 1.18,-4.41 1.081,-4.638 0.898,-4.793 0.695,-4.963 0.401,-4.93 0.262,-4.695 0.164,-4.529 0.131,-4.349 0.102,-4.161 0.069,-3.945 0,-3.73 0.016,-3.512 0.045,-3.102 0.151,-2.741 0.162,-2.338 0.172,-1.966 0.16,-1.593 0.15,-1.222 0.141,-0.821 0.16,-0.367 0,0"
             style="fill:#3c3278;fill-opacity:1;fill-rule:nonzero;stroke:none"
             id="path2541" />
        </g>
        <g
           id="g2543"
           transform="translate(273.8083,182.4884)">
          <path
             d="M 0,0 C 0.072,-0.116 0.146,-0.223 0.252,-0.309 0.255,-0.311 0.257,-0.311 0.275,-0.325 0.302,-0.346 0.333,-0.357 0.358,-0.382 0.409,-0.432 0.445,-0.509 0.483,-0.569 0.633,-0.811 0.744,-1.056 0.849,-1.322 0.95,-1.577 1.039,-1.837 1.122,-2.098 1.212,-2.382 1.239,-2.687 1.27,-2.982 1.286,-3.129 1.308,-3.278 1.285,-3.425 1.251,-3.632 1.155,-3.849 0.999,-3.997 0.811,-4.176 0.517,-4.218 0.297,-4.08 c -0.174,0.109 -0.295,0.336 -0.345,0.535 -0.036,0.145 -0.016,0.282 0.006,0.426 -0.018,-0.117 0.005,0.034 0.011,0.073 0.018,0.138 0.031,0.276 0.041,0.415 0.017,0.262 0.043,0.528 0.038,0.791 -0.006,0.304 -0.063,0.595 -0.088,0.896 -0.011,0.134 -0.068,0.29 -0.047,0.423 0.005,0.031 0.032,0.068 0.033,0.097 -0.002,-0.046 -0.018,0.037 -0.019,0.043 -0.004,0.027 0.005,0.069 0.002,0.096 -0.008,0.076 -0.037,0.137 -0.066,0.209 C -0.173,0.016 -0.054,0.088 0,0"
             style="fill:#3c3278;fill-opacity:1;fill-rule:nonzero;stroke:none"
             id="path2545" />
        </g>
        <g
           id="g2547"
           transform="translate(245.2818,173.744)">
          <path
             d="M 0,0 C 0.057,0.34 0.155,0.698 0.283,1.018 0.415,1.35 0.548,1.692 0.778,1.97 0.867,2.077 1.073,2.011 1.094,1.878 1.145,1.549 1.119,1.214 1.132,0.882 1.146,0.549 1.162,0.218 1.178,-0.116 1.183,-0.202 1.186,-0.289 1.195,-0.375 1.187,-0.304 1.212,-0.5 1.211,-0.495 1.228,-0.628 1.237,-0.762 1.25,-0.896 1.239,-0.783 1.262,-0.996 1.263,-1.004 1.309,-1.362 1.39,-1.826 1.202,-2.161 1.195,-2.179 1.188,-2.197 1.181,-2.215 1.052,-2.553 0.54,-2.782 0.274,-2.431 0.223,-2.374 0.225,-2.367 0.28,-2.413 0.181,-2.35 0.102,-2.268 0.045,-2.165 c -0.07,0.117 -0.102,0.242 -0.126,0.375 -0.037,0.211 -0.055,0.418 -0.049,0.632 C -0.119,-0.734 -0.063,-0.377 0,0"
             style="fill:#3c3278;fill-opacity:1;fill-rule:nonzero;stroke:none"
             id="path2549" />
        </g>
        <g
           id="g2551"
           transform="translate(226.7822,184.4112)">
          <path
             d="M 0,0 C 0.199,0.337 0.424,0.656 0.667,0.962 0.916,1.276 1.18,1.572 1.472,1.845 1.61,1.974 1.76,2.093 1.907,2.211 1.981,2.27 2.058,2.327 2.135,2.382 2.167,2.405 2.202,2.427 2.231,2.453 2.203,2.463 2.181,2.484 2.186,2.521 2.232,2.826 2.683,2.721 2.689,2.43 2.694,2.197 2.492,1.973 2.376,1.785 2.246,1.576 2.121,1.357 2.013,1.136 1.806,0.715 1.638,0.268 1.512,-0.184 1.379,-0.662 1.317,-1.222 0.987,-1.603 0.91,-1.755 0.879,-1.823 0.826,-1.946 0.712,-2.216 0.478,-2.407 0.169,-2.353 c -0.293,0.052 -0.494,0.292 -0.497,0.592 -0.002,0.164 0.003,0.328 0.011,0.491 C -0.404,-0.834 -0.221,-0.374 0,0"
             style="fill:#3c3278;fill-opacity:1;fill-rule:nonzero;stroke:none"
             id="path2553" />
        </g>
        <g
           id="g2555"
           transform="translate(223.1187,183.4914)">
          <path
             d="M 0,0 C 0.418,0.56 0.888,1.115 1.485,1.49 1.677,1.611 1.844,1.369 1.761,1.2 1.482,0.629 1.171,0.099 0.957,-0.493 0.85,-0.788 0.74,-1.081 0.655,-1.383 0.554,-1.744 0.434,-2.084 0.249,-2.411 -0.05,-2.942 -0.862,-2.655 -0.857,-2.083 -0.851,-1.335 -0.439,-0.589 0,0"
             style="fill:#3c3278;fill-opacity:1;fill-rule:nonzero;stroke:none"
             id="path2557" />
        </g>
        <g
           id="g2559"
           transform="translate(218.2203,167.0782)">
          <path
             d="M 0,0 C 0.034,0.16 0.12,0.322 0.185,0.471 0.257,0.637 0.468,0.602 0.505,0.46 0.508,0.461 0.512,0.462 0.516,0.463 0.537,0.316 0.58,0.18 0.615,0.036 0.647,-0.096 0.667,-0.223 0.713,-0.35 0.769,-0.502 0.785,-0.666 0.834,-0.822 0.87,-0.937 0.92,-1.031 0.983,-1.176 1.233,-1.757 1.632,-2.25 1.861,-2.84 1.93,-3.015 1.815,-3.247 1.675,-3.346 1.508,-3.464 1.315,-3.464 1.136,-3.37 c -0.34,0.176 -0.609,0.488 -0.782,0.826 -0.159,0.31 -0.294,0.664 -0.363,1.007 -0.035,0.175 -0.048,0.357 -0.06,0.535 -0.011,0.16 -0.035,0.323 -0.026,0.483 C -0.086,-0.352 -0.035,-0.163 0,0"
             style="fill:#3c3278;fill-opacity:1;fill-rule:nonzero;stroke:none"
             id="path2561" />
        </g>
        <g
           id="g2563"
           transform="translate(243.4223,209.9423)">
          <path
             d="M 0,0 C 0.048,0.264 0.15,0.529 0.258,0.774 0.377,1.045 0.499,1.313 0.645,1.571 0.712,1.689 0.778,1.808 0.85,1.923 0.887,1.982 0.923,2.031 0.973,2.08 0.984,2.093 0.999,2.101 1.011,2.112 1.012,2.125 0.999,2.136 1.007,2.147 1.065,2.222 1.117,2.213 1.203,2.234 1.293,2.256 1.366,2.212 1.416,2.141 1.574,1.918 1.523,1.628 1.512,1.372 1.501,1.097 1.467,0.828 1.425,0.557 1.378,0.25 1.326,-0.076 1.206,-0.365 1.151,-0.498 1.115,-0.585 1.015,-0.69 0.973,-0.745 0.921,-0.789 0.858,-0.82 0.814,-0.854 0.81,-0.853 0.847,-0.817 0.787,-0.856 0.747,-0.912 0.683,-0.947 0.575,-0.978 0.549,-0.99 0.606,-0.985 0.592,-1.006 0.579,-1.027 0.566,-1.049 0.454,-1.232 0.165,-1.143 0.169,-0.931 c 0,0.024 0,0.048 0.001,0.072 0.045,-0.033 0.03,-0.009 -0.044,0.073 -0.037,0.065 -0.04,0.132 -0.07,0.199 0.014,-0.052 0.011,-0.052 -0.009,0.001 -0.034,0.052 -0.054,0.109 -0.06,0.169 C -0.048,-0.266 -0.027,-0.149 0,0"
             style="fill:#3c3278;fill-opacity:1;fill-rule:nonzero;stroke:none"
             id="path2565" />
        </g>
        <g
           id="g2567"
           transform="translate(241.2429,207.1222)">
          <path
             d="M 0,0 C 0.005,0.012 0.01,0.024 0.015,0.035 0.028,0.062 0.029,0.064 0,0"
             style="fill:#3c3278;fill-opacity:1;fill-rule:nonzero;stroke:none"
             id="path2569" />
        </g>
        <g
           id="g2571"
           transform="translate(240.5817,208.6327)">
          <path
             d="M 0,0 C 0.138,0.207 0.273,0.417 0.416,0.621 0.574,0.848 0.74,1.102 0.988,1.238 1.164,1.335 1.363,1.2 1.367,1.009 1.373,0.741 1.251,0.478 1.166,0.229 1.086,-0.006 1.013,-0.243 0.955,-0.484 0.893,-0.743 0.841,-1.007 0.767,-1.262 0.745,-1.337 0.709,-1.406 0.676,-1.476 0.649,-1.534 0.564,-1.719 0.581,-1.691 0.408,-1.97 0.005,-2.102 -0.284,-1.923 -0.99,-1.486 -0.32,-0.48 0,0"
             style="fill:#3c3278;fill-opacity:1;fill-rule:nonzero;stroke:none"
             id="path2573" />
        </g>
        <g
           id="g2575"
           transform="translate(243.3006,203.0667)">
          <path
             d="M 0,0 C 0.107,0.337 0.262,0.654 0.429,0.965 0.575,1.238 0.755,1.459 0.98,1.671 1.092,1.777 1.19,1.888 1.326,1.966 1.468,2.046 1.608,2.078 1.768,2.095 1.936,2.112 2.041,1.912 2.001,1.773 1.971,1.664 1.94,1.558 1.898,1.453 1.88,1.405 1.857,1.359 1.835,1.313 1.833,1.308 1.82,1.281 1.814,1.27 1.808,1.254 1.785,1.198 1.785,1.2 1.776,1.172 1.771,1.143 1.765,1.115 1.763,1.108 1.758,1.092 1.754,1.076 c 0,-0.004 0,-0.011 -0.003,-0.029 0,-0.004 -0.002,-0.009 -0.002,-0.014 0,-10e-4 -0.001,-0.004 -0.001,-0.005 0,0 0,10e-4 0,0.002 C 1.732,0.932 1.714,0.836 1.693,0.74 1.664,0.613 1.63,0.488 1.602,0.362 1.543,0.086 1.496,-0.186 1.397,-0.451 1.312,-0.683 1.196,-0.875 1.033,-1.058 1.011,-1.083 0.99,-1.108 0.967,-1.131 0.958,-1.141 0.866,-1.223 0.907,-1.186 0.93,-1.154 0.92,-1.167 0.875,-1.224 0.856,-1.248 0.837,-1.272 0.817,-1.294 0.772,-1.34 0.718,-1.38 0.66,-1.406 c -0.229,-0.1 -0.494,-0.051 -0.625,0.181 -0.039,0.07 -0.064,0.14 -0.073,0.22 0.001,-0.008 -0.003,0.066 -0.005,0.097 0.006,-0.027 0.005,-0.02 -0.001,0.005 0,0.009 0,0.007 0,0.001 -0.001,0.007 -0.001,0.008 -0.004,0.019 -0.005,0.053 -0.011,0.105 -0.017,0.158 -0.003,0.035 -0.006,0.071 -0.009,0.106 C -0.092,-0.414 -0.062,-0.196 0,0"
             style="fill:#3c3278;fill-opacity:1;fill-rule:nonzero;stroke:none"
             id="path2577" />
        </g>
        <g
           id="g2579"
           transform="translate(243.2574,202.159)">
          <path
             d="M 0,0 C 0,0.001 0,0 0,0.001 -0.001,0.007 0,0.003 0,0.006 0,0.005 0,0.005 0,0.005 0,0.004 0,0.001 0,0"
             style="fill:#3c3278;fill-opacity:1;fill-rule:nonzero;stroke:none"
             id="path2581" />
        </g>
        <g
           id="g2583"
           transform="translate(224.8043,200.2422)">
          <path
             d="M 0,0 C -0.061,0.39 0.344,0.698 0.581,0.96 0.666,1.053 0.749,1.149 0.833,1.244 0.872,1.289 0.911,1.334 0.949,1.38 0.907,1.329 0.964,1.4 0.973,1.411 1.005,1.451 1.036,1.48 1.071,1.504 1.141,1.57 1.207,1.641 1.276,1.708 1.377,1.807 1.515,1.717 1.527,1.597 1.532,1.541 1.544,1.489 1.543,1.432 1.542,1.378 1.538,1.323 1.538,1.269 1.527,1.318 1.515,1.367 1.503,1.415 1.583,1.246 1.522,1.053 1.484,0.877 1.455,0.74 1.417,0.607 1.369,0.475 1.238,0.113 1.036,-0.432 0.595,-0.468 0.554,-0.479 0.516,-0.487 0.474,-0.488 0.434,-0.495 0.395,-0.505 0.354,-0.504 0.271,-0.502 0.199,-0.473 0.137,-0.422 0.035,-0.339 0.019,-0.235 0.011,-0.119 0.002,-0.079 0,-0.041 0,0"
             style="fill:#3c3278;fill-opacity:1;fill-rule:nonzero;stroke:none"
             id="path2585" />
        </g>
        <g
           id="g2587"
           transform="translate(266.8221,210.6656)">
          <path
             d="M 0,0 C 0.574,-0.53 0.997,-1.244 1.41,-1.9 1.626,-2.243 1.786,-2.659 1.902,-3.046 1.961,-3.239 1.998,-3.445 2.023,-3.644 2.037,-3.758 2.059,-3.877 2.056,-3.992 2.052,-4.103 2,-4.187 1.978,-4.29 1.928,-4.526 1.611,-4.567 1.459,-4.414 c -0.016,0.016 -0.032,0.032 -0.048,0.048 0.05,-0.03 0.1,-0.061 0.15,-0.092 -0.379,0.136 -0.552,0.659 -0.697,1.004 -0.154,0.366 -0.294,0.76 -0.393,1.145 -0.093,0.364 -0.195,0.726 -0.291,1.09 -0.101,0.382 -0.236,0.758 -0.312,1.146 C -0.148,0.005 -0.058,0.053 0,0"
             style="fill:#3c3278;fill-opacity:1;fill-rule:nonzero;stroke:none"
             id="path2589" />
        </g>
        <g
           id="g2591"
           transform="translate(265.4108,206.5927)">
          <path
             d="M 0,0 C 0.027,0.361 0.017,0.731 0.071,1.089 0.082,1.157 0.18,1.202 0.218,1.124 0.371,0.809 0.478,0.472 0.63,0.154 0.792,-0.183 0.963,-0.537 1.098,-0.886 1.236,-1.243 1.306,-1.587 1.359,-1.965 1.399,-2.254 1.488,-2.913 1.079,-3.015 0.692,-3.112 0.43,-2.571 0.315,-2.298 0.148,-1.899 0.02,-1.515 -0.006,-1.08 -0.027,-0.728 -0.026,-0.352 0,0"
             style="fill:#3c3278;fill-opacity:1;fill-rule:nonzero;stroke:none"
             id="path2593" />
        </g>
        <g
           id="g2595"
           transform="translate(269.9795,155.0373)">
          <path
             d="M 0,0 C 0.197,-0.111 0.354,-0.297 0.493,-0.47 0.661,-0.679 0.83,-0.884 0.986,-1.104 1.302,-1.549 1.563,-2.022 1.71,-2.553 1.741,-2.663 1.756,-2.78 1.776,-2.893 1.794,-2.991 1.82,-3.105 1.819,-3.203 1.818,-3.244 1.783,-3.512 1.785,-3.418 1.781,-3.607 1.714,-3.917 1.647,-4.153 1.57,-4.426 1.237,-4.409 1.096,-4.211 c -0.108,0.15 -0.242,0.298 -0.331,0.458 -0.006,0.012 -0.051,0.105 -0.037,0.08 0.016,-0.028 -0.086,0.114 -0.08,0.105 -0.083,0.114 -0.121,0.255 -0.171,0.387 -0.006,0.017 -0.006,0.017 -0.008,0.022 -0.002,0.004 -10e-4,0.002 -0.003,0.008 -0.035,0.087 -0.074,0.173 -0.105,0.262 -0.029,0.087 -0.05,0.178 -0.076,0.266 -0.055,0.187 -0.127,0.37 -0.165,0.561 -0.074,0.368 -0.181,0.726 -0.27,1.089 -0.043,0.175 -0.113,0.338 -0.151,0.513 -0.004,0.022 -0.088,0.309 -0.132,0.245 C -0.471,-0.27 -0.557,-0.259 -0.575,-0.192 -0.661,0.122 -0.161,0.091 0,0"
             style="fill:#3c3278;fill-opacity:1;fill-rule:nonzero;stroke:none"
             id="path2597" />
        </g>
        <g
           id="g2599"
           transform="translate(268.3799,151.613)">
          <path
             d="M 0,0 C -0.022,0.078 0.078,0.125 0.132,0.073 0.238,-0.029 0.359,-0.119 0.466,-0.223 0.587,-0.34 0.683,-0.47 0.776,-0.61 0.946,-0.867 1.115,-1.132 1.228,-1.417 1.371,-1.776 1.482,-2.112 1.481,-2.503 1.48,-2.616 1.472,-2.731 1.438,-2.84 1.428,-2.872 1.424,-2.879 1.422,-2.879 1.42,-2.892 1.42,-2.896 1.416,-2.924 1.407,-2.981 1.399,-3.029 1.38,-3.082 1.312,-3.272 1.21,-3.419 1.07,-3.563 0.892,-3.746 0.608,-3.667 0.483,-3.472 0.302,-3.19 0.221,-2.861 0.194,-2.529 c -0.003,0.034 -0.005,0.046 -0.005,0.05 -0.007,0.06 -0.015,0.12 -0.02,0.18 -0.004,0.076 -0.003,0.153 -0.001,0.228 0.003,0.142 0.009,0.282 0.005,0.424 -0.007,0.265 0,0.52 -0.043,0.783 C 0.084,-0.583 0.076,-0.273 0,0"
             style="fill:#3c3278;fill-opacity:1;fill-rule:nonzero;stroke:none"
             id="path2601" />
        </g>
        <g
           id="g2603"
           transform="translate(265.1124,151.8756)">
          <path
             d="m 0,0 c 0.026,0.331 0.073,0.663 0.074,0.994 0,0.097 0.074,0.186 0.167,0.209 C 0.344,1.229 0.429,1.176 0.488,1.096 0.517,1.022 0.555,0.952 0.589,0.88 0.612,0.866 0.634,0.852 0.656,0.837 0.704,0.806 0.695,0.752 0.665,0.719 0.749,0.554 0.836,0.39 0.919,0.225 0.989,0.085 1.053,-0.056 1.126,-0.195 1.227,-0.385 1.252,-0.608 1.185,-0.815 1.172,-0.847 1.156,-0.879 1.142,-0.911 1.147,-0.935 1.112,-1.012 1.105,-1.035 1.015,-1.346 0.549,-1.498 0.33,-1.22 0.282,-1.159 0.234,-1.109 0.181,-1.054 0.037,-0.908 -0.049,-0.68 -0.035,-0.479 -0.023,-0.319 -0.012,-0.159 0,0"
             style="fill:#3c3278;fill-opacity:1;fill-rule:nonzero;stroke:none"
             id="path2605" />
        </g>
        <g
           id="g2607"
           transform="translate(282.901,199.0922)">
          <path
             d="M 0,0 C 0.005,0.097 -0.022,0.195 -0.016,0.292 -0.005,0.452 0.008,0.62 0.045,0.777 0.076,0.909 0.267,0.951 0.354,0.85 0.458,0.729 0.55,0.587 0.634,0.451 0.685,0.368 0.707,0.268 0.76,0.186 0.8,0.124 0.854,0.071 0.894,0.009 1.076,-0.281 1.198,-0.61 1.332,-0.924 1.483,-1.281 1.658,-1.635 1.766,-2.008 1.831,-2.234 1.962,-2.555 1.824,-2.773 1.816,-2.792 1.808,-2.812 1.8,-2.831 1.789,-2.737 1.778,-2.778 1.768,-2.953 1.75,-3.023 1.723,-3.081 1.689,-3.136 c 0,-0.003 0,-0.007 0,-0.011 C 1.686,-3.32 1.558,-3.479 1.39,-3.52 1.224,-3.562 1.086,-3.48 0.984,-3.358 c -0.085,0.042 -0.161,0.093 -0.243,0.161 0.043,-0.027 0.047,-0.029 0.012,-0.006 -0.061,0.04 -0.118,0.085 -0.171,0.135 -0.194,0.187 -0.255,0.434 -0.33,0.682 -0.101,0.338 -0.134,0.697 -0.183,1.045 -0.052,0.368 -0.124,0.751 -0.1,1.124 C -0.026,-0.144 -0.004,-0.073 0,0"
             style="fill:#3c3278;fill-opacity:1;fill-rule:nonzero;stroke:none"
             id="path2609" />
        </g>
        <g
           id="g2611"
           transform="translate(225.2969,204.437)">
          <path
             d="m 0,0 c -2.166,-2.972 -4.269,-5.989 -6.337,-9.031 0.564,1.184 1.132,2.365 1.688,3.552 0.04,0.085 -0.085,0.157 -0.13,0.071 -0.768,-1.487 -1.476,-2.995 -2.166,-4.513 -2.763,-4.092 -5.446,-8.238 -8.034,-12.441 -1.098,-1.783 -2.106,-3.6 -2.847,-5.564 -0.717,-1.9 -1.162,-3.902 -1.397,-5.918 -0.236,-2.019 -0.254,-4.048 -0.098,-6.075 0.161,-2.087 0.413,-4.154 0.881,-6.196 0.529,-2.303 1.249,-4.595 2.182,-6.767 0.459,-1.068 0.948,-2.128 1.475,-3.164 0.482,-0.945 1.462,-2.875 1.448,-2.95 -0.197,-1.068 -0.398,-1.818 -0.533,-2.716 -0.138,-0.916 -0.276,-1.831 -0.414,-2.746 -0.275,-1.832 -2.652,-19.65 -2.921,-21.482 -0.532,-3.638 -0.989,-7.279 -1.443,-10.928 -0.261,-2.093 -0.398,-4.205 -0.692,-6.293 -0.012,-0.084 0.116,-0.119 0.13,-0.032 0.301,1.819 0.752,3.614 1.083,5.428 0.331,1.817 0.667,3.632 1.007,5.447 0.688,3.668 3.337,23.356 3.912,27.043 0.159,1.02 0.318,2.04 0.477,3.06 0.158,1.012 0.428,2.375 0.389,3.402 0,0 -3.267,6.713 -4.536,11.42 -0.532,1.975 -1.078,4.03 -1.298,6.067 -0.216,2.003 -0.238,4.021 -0.074,6.029 0.165,2.007 0.542,3.998 1.158,5.917 0.635,1.98 1.546,3.823 2.563,5.632 2.133,3.79 4.4,7.511 6.699,11.202 2.607,4.186 5.244,8.355 7.94,12.484 C 0.158,0.008 0.047,0.065 0,0"
             style="fill:#3c3278;fill-opacity:1;fill-rule:nonzero;stroke:none"
             id="path2613" />
        </g>
        <g
           id="g2615"
           transform="translate(180.5371,114.4762)">
          <path
             d="M 0,0 C 6.693,-8.585 23.739,-9.401 66.466,-15.485 72.378,-16.327 89.545,23.799 83.277,25.023 75.382,26.564 44.412,30.834 42.108,30.86 22.674,31.082 -4.54,5.824 0,0"
             style="fill:#ffaba1;fill-opacity:1;fill-rule:nonzero;stroke:none"
             id="path2617" />
        </g>
        <g
           id="g2619"
           transform="translate(255.2535,140.9882)">
          <path
             d="m 0,0 c 0,0 18.059,-1.775 27.259,-5.645 12.318,-5.182 20.82,-14.727 24.142,-18.943 6.933,-8.799 17.612,-34.866 10.641,-39.252 -6.311,-3.971 -15.881,23.227 -15.881,23.227 0,0 14.333,-26.119 5.856,-29.503 -8.477,-3.383 -17.791,28.82 -17.791,28.82 0,0 14.126,-27.167 4.832,-29.273 -7.024,-1.591 -17.102,27.101 -17.102,27.101 0,0 11.979,-23.435 4.826,-25.383 -7.903,-2.153 -18.868,23.749 -18.868,23.749 -19.014,-1.891 -28.842,4.987 -35.25,10.712 C -28.887,-33.005 0,0 0,0"
             style="fill:#ffaba1;fill-opacity:1;fill-rule:nonzero;stroke:none"
             id="path2621" />
        </g>
        <g
           id="g2623"
           transform="translate(297.0357,109.7267)">
          <path
             d="m 0,0 c 1.795,-3.007 3.632,-6.039 5.153,-9.196 1.521,-3.156 2.934,-6.368 4.154,-9.652 2.994,-8.055 3.609,-13.566 3.534,-13.23 -1.776,7.954 -7.047,19.338 -8.569,22.496 -1.518,3.149 -2.878,6.376 -4.394,9.528 C -0.16,0.026 -0.043,0.072 0,0"
             style="fill:#3c3278;fill-opacity:1;fill-rule:nonzero;stroke:none"
             id="path2625" />
        </g>
        <g
           id="g2627"
           transform="translate(285.5382,104.4409)">
          <path
             d="m 0,0 c 2.125,-3.939 4.38,-7.772 6.332,-11.807 1.943,-4.014 3.434,-7.993 5.096,-12.13 0.128,-0.319 -0.086,-0.283 -0.227,0.032 -1.825,4.068 -3.826,7.688 -5.699,11.734 -1.866,4.032 -3.589,8.168 -5.6,12.128 C -0.129,0.018 -0.032,0.06 0,0"
             style="fill:#3c3278;fill-opacity:1;fill-rule:nonzero;stroke:none"
             id="path2629" />
        </g>
        <g
           id="g2631"
           transform="translate(274.8545,101.6783)">
          <path
             d="M 0,0 C 3.557,-5.854 6.029,-12.357 8.301,-18.793 8.414,-19.114 8.144,-19.037 8.01,-18.716 5.368,-12.417 3.34,-7.456 -0.204,-0.123 -0.259,-0.009 -0.075,0.124 0,0"
             style="fill:#3c3278;fill-opacity:1;fill-rule:nonzero;stroke:none"
             id="path2633" />
        </g>
        <g
           id="g2635"
           transform="translate(268.899,140.677)">
          <path
             d="m 0,0 -35.176,-41.393 c 0,0 -48.049,3.343 -53.581,16.001 -5.532,12.659 31.05,31.108 42.444,30.115 C -34.919,3.731 0,0 0,0"
             style="fill:#d74c9f;fill-opacity:1;fill-rule:nonzero;stroke:none"
             id="path2637" />
        </g>
        <g
           id="g2639"
           transform="translate(204.0779,139.9184)">
          <path
             d="M 0,0 C 2.762,1.887 10.605,6.368 18.508,5.482 18.596,5.472 18.6,5.347 18.51,5.344 12.031,5.146 2.893,1.497 0.068,-0.113 -0.007,-0.155 -0.069,-0.047 0,0"
             style="fill:#3c3278;fill-opacity:1;fill-rule:nonzero;stroke:none"
             id="path2641" />
        </g>
        <g
           id="g2643"
           transform="translate(226.2835,106.4382)">
          <path
             d="m 0,0 c 13.825,14.644 26.134,32.13 28.496,35.026 0.111,0.136 -0.122,0.301 -0.228,0.157 C 26.1,32.222 9.865,13.763 -0.25,0.173 -0.367,0.016 -0.133,-0.141 0,0"
             style="fill:#3c3278;fill-opacity:1;fill-rule:nonzero;stroke:none"
             id="path2645" />
        </g>
        <g
           id="g2647"
           transform="translate(281.3408,209.6879)">
          <path
             d="m 0,0 c 28.252,-35.953 38.911,-100.537 23.23,-105.571 -14.329,-4.6 -73.261,10.147 -90.814,16.11 -5.157,1.752 10.768,41.839 16.283,39.973 6.666,-2.256 43.115,-10.892 43.821,-10.908 1.514,-0.035 -6.585,39.728 -10.06,57.746 C -22.382,22.453 -10.609,13.501 0,0"
             style="fill:#ffaba1;fill-opacity:1;fill-rule:nonzero;stroke:none"
             id="path2649" />
        </g>
        <g
           id="g2651"
           transform="translate(182.9271,175.2612)">
          <path
             d="m 0,0 c -2.984,-3.385 -0.568,-7.384 -0.568,-7.384 0,0 -3.481,-0.929 -5.254,-3.902 -2.03,-3.404 2.417,-8.081 2.417,-8.081 0,0 -3.328,-1.67 -4.885,-4.998 -1.616,-3.454 2.199,-8.813 2.199,-8.813 0,0 -2.245,-3.259 -1.528,-7.101 1.227,-6.569 10.728,-10.297 16.743,-12.728 6.015,-2.431 25.354,-3.693 29.014,-4.306 l 15.936,38.471 c 0,0 -23.872,18.576 -31.35,20.43 C 16.425,3.15 3.349,3.799 0,0"
             style="fill:#ffaba1;fill-opacity:1;fill-rule:nonzero;stroke:none"
             id="path2653" />
        </g>
        <g
           id="g2655"
           transform="translate(182.8807,168.3856)">
          <path
             d="m 0,0 c 7.096,-0.054 13.79,-2.203 20.594,-3.968 0.151,-0.04 0.088,-0.276 -0.063,-0.235 -6.747,1.834 -13.77,2.306 -20.575,3.868 C -0.231,-0.292 -0.191,0.002 0,0"
             style="fill:#3c3278;fill-opacity:1;fill-rule:nonzero;stroke:none"
             id="path2657" />
        </g>
        <g
           id="g2659"
           transform="translate(179.8538,156.3469)">
          <path
             d="m 0,0 c 1.605,-0.061 3.185,-0.65 4.705,-1.126 1.636,-0.513 3.262,-1.055 4.881,-1.622 3.24,-1.134 6.454,-2.342 9.63,-3.644 0.141,-0.057 0.088,-0.287 -0.063,-0.234 -3.231,1.124 -6.479,2.2 -9.754,3.188 -1.639,0.494 -3.283,0.974 -4.929,1.444 -1.532,0.437 -3.184,0.77 -4.591,1.54 C -0.329,-0.34 -0.242,0.009 0,0"
             style="fill:#3c3278;fill-opacity:1;fill-rule:nonzero;stroke:none"
             id="path2661" />
        </g>
        <g
           id="g2663"
           transform="translate(176.974,142.0393)">
          <path
             d="m 0,0 c 1.397,0.004 2.89,-0.758 4.181,-1.24 1.465,-0.548 2.934,-1.087 4.405,-1.618 2.942,-1.062 5.885,-2.122 8.863,-3.082 0.148,-0.048 0.086,-0.282 -0.064,-0.234 -3.03,0.959 -6.073,1.876 -9.095,2.862 C 6.806,-2.829 5.325,-2.336 3.847,-1.836 2.59,-1.41 0.97,-1.022 -0.06,-0.145 -0.118,-0.096 -0.07,0 0,0"
             style="fill:#3c3278;fill-opacity:1;fill-rule:nonzero;stroke:none"
             id="path2665" />
        </g>
        <g
           id="g2667"
           transform="translate(273.3317,150.921)">
          <path
             d="m 0,0 c 0.456,0.273 -8.01,38.651 -10.85,58.677 -2.839,20.026 6.105,18.102 18.976,0.982 13.786,-18.339 38.333,-67.982 29.829,-104.742 -2.753,-11.904 -88.034,4.771 -88.034,4.771 l 11.492,49.016 c 0,0 37.882,-9.126 38.587,-8.704"
             style="fill:#d74c9f;fill-opacity:1;fill-rule:nonzero;stroke:none"
             id="path2669" />
        </g>
        <g
           id="g2671"
           transform="translate(286.2677,127.378)">
          <path
             d="m 0,0 c 0.049,0.459 0.086,0.921 0.107,1.382 0.01,0.211 0.005,0.421 0.021,0.631 0.007,0.106 -0.014,0.254 0.009,0.354 0,0 0,0 0,10e-4 C 0.15,2.352 0.175,2.339 0.22,2.338 0.186,2.339 0.164,2.361 0.137,2.376 0.155,2.475 0.108,2.424 0.132,2.378 0.068,2.415 0.019,2.473 0.017,2.551 0.011,2.779 0.212,2.916 0.426,2.9 0.721,2.879 0.84,2.649 0.987,2.43 1.34,1.907 1.614,1.321 1.732,0.695 1.862,0.003 1.912,-0.719 1.754,-1.413 1.71,-1.607 1.636,-1.802 1.544,-1.979 1.517,-2.032 1.488,-2.081 1.457,-2.131 1.521,-2.028 1.279,-2.468 1.338,-2.369 1.169,-2.652 0.897,-2.903 0.577,-2.992 0.378,-3.048 0.205,-2.938 0.096,-2.783 c -0.148,0.21 -0.202,0.496 -0.214,0.758 -0.013,0.269 -0.016,0.327 -0.02,0.638 C -0.144,-0.928 -0.049,-0.456 0,0"
             style="fill:#3c3278;fill-opacity:1;fill-rule:nonzero;stroke:none"
             id="path2673" />
        </g>
        <g
           id="g2675"
           transform="translate(286.4043,129.7458)">
          <path
             d="M 0,0 C -0.003,0.003 -0.003,0.006 -0.005,0.01 -0.003,0.009 -0.001,0.009 0,0.008 0,0.004 0.001,0.005 0,0"
             style="fill:#3c3278;fill-opacity:1;fill-rule:nonzero;stroke:none"
             id="path2677" />
        </g>
        <g
           id="g2679"
           transform="translate(283.1456,130.6142)">
          <path
             d="M 0,0 C 0.016,0.238 0.124,0.454 0.189,0.681 0.238,0.85 0.268,1.023 0.309,1.194 0.329,1.277 0.356,1.359 0.374,1.444 0.382,1.481 0.389,1.518 0.396,1.555 0.436,1.884 0.483,2.23 0.474,2.562 0.47,2.723 0.466,2.893 0.443,3.05 0.43,3.136 0.409,3.222 0.403,3.309 0.398,3.368 0.425,3.456 0.405,3.512 0.355,3.653 0.556,3.701 0.628,3.6 0.657,3.561 0.75,3.526 0.791,3.487 0.852,3.428 0.901,3.356 0.951,3.288 1.072,3.123 1.186,2.973 1.284,2.792 1.481,2.427 1.645,2.07 1.743,1.663 1.844,1.25 1.892,0.837 1.863,0.412 1.847,0.167 1.831,-0.118 1.744,-0.346 1.689,-0.488 1.616,-0.628 1.504,-0.735 1.443,-0.78 1.381,-0.826 1.319,-0.871 1.31,-0.874 1.301,-0.878 1.292,-0.882 1.287,-0.886 1.29,-0.884 1.285,-0.889 1.223,-0.947 1.149,-1 1.073,-1.04 0.666,-1.252 0.264,-1.023 0.119,-0.624 0.099,-0.576 0.099,-0.523 0.094,-0.471 0.027,-0.319 -0.01,-0.151 0,0"
             style="fill:#3c3278;fill-opacity:1;fill-rule:nonzero;stroke:none"
             id="path2681" />
        </g>
        <g
           id="g2683"
           transform="translate(236.1026,139.4808)">
          <path
             d="M 0,0 C 0.073,0.727 0.295,1.489 0.667,2.138 0.591,2.133 0.545,2.226 0.62,2.276 0.747,2.361 0.852,2.446 0.941,2.574 1.054,2.735 1.367,2.684 1.342,2.455 1.255,1.664 1.213,0.898 1.33,0.106 1.39,-0.302 1.492,-0.704 1.61,-1.098 1.667,-1.285 1.718,-1.469 1.756,-1.661 1.784,-1.807 1.815,-1.958 1.816,-2.107 1.832,-2.198 1.825,-2.288 1.793,-2.378 1.698,-2.564 1.684,-2.605 1.749,-2.5 1.65,-2.895 1.16,-3.043 0.832,-2.847 0.963,-2.925 0.726,-2.797 0.711,-2.788 0.601,-2.72 0.529,-2.622 0.455,-2.52 0.39,-2.429 0.331,-2.341 0.284,-2.239 0.173,-1.998 0.083,-1.752 0.044,-1.489 -0.031,-0.993 -0.05,-0.498 0,0"
             style="fill:#3c3278;fill-opacity:1;fill-rule:nonzero;stroke:none"
             id="path2685" />
        </g>
        <g
           id="g2687"
           transform="translate(233.5147,142.8863)">
          <path
             d="M 0,0 C 0.131,0.538 0.37,1.065 0.659,1.535 0.802,1.767 0.974,1.973 1.152,2.177 1.307,2.355 1.466,2.498 1.698,2.558 1.924,2.616 2.044,2.455 2.081,2.259 2.103,2.144 2.079,2.05 1.965,2.007 1.961,1.988 1.959,1.968 1.954,1.948 1.922,1.764 1.903,1.58 1.874,1.395 1.88,1.434 1.878,1.417 1.867,1.347 1.862,1.303 1.856,1.259 1.851,1.215 1.833,1.09 1.809,0.965 1.789,0.84 1.809,0.965 1.771,0.708 1.77,0.684 1.766,0.637 1.719,0.243 1.74,0.381 1.748,0.437 1.747,0.426 1.735,0.347 1.729,0.302 1.722,0.257 1.717,0.211 1.705,0.12 1.695,0.029 1.687,-0.062 1.669,-0.246 1.649,-0.429 1.624,-0.612 1.59,-0.853 1.531,-1.073 1.435,-1.295 1.386,-1.408 1.347,-1.542 1.283,-1.646 1.31,-1.601 1.058,-1.903 1.117,-1.828 0.867,-2.144 0.483,-2.132 0.247,-1.807 0.299,-1.878 0.202,-1.759 0.201,-1.758 0.11,-1.642 0.057,-1.53 0.014,-1.387 -0.018,-1.282 -0.047,-1.174 -0.066,-1.066 -0.128,-0.709 -0.085,-0.35 0,0"
             style="fill:#3c3278;fill-opacity:1;fill-rule:nonzero;stroke:none"
             id="path2689" />
        </g>
        <g
           id="g2691"
           transform="translate(232.2737,134.7632)">
          <path
             d="M 0,0 C 0.036,0.219 0.124,0.421 0.207,0.627 0.294,0.843 0.354,1.064 0.455,1.275 0.645,1.672 0.81,2.121 1.141,2.426 1.191,2.472 1.272,2.434 1.272,2.367 1.277,1.958 1.169,1.553 1.187,1.141 1.196,0.935 1.196,0.723 1.244,0.523 1.289,0.335 1.351,0.155 1.389,-0.034 1.471,-0.447 1.595,-0.857 1.709,-1.263 1.819,-1.653 1.96,-2.162 1.842,-2.576 1.835,-2.646 1.833,-2.716 1.813,-2.784 1.696,-3.193 1.254,-3.294 0.91,-3.126 0.882,-3.113 0.864,-3.088 0.839,-3.071 0.332,-2.866 0.062,-2.13 -0.022,-1.65 -0.121,-1.085 -0.092,-0.563 0,0"
             style="fill:#3c3278;fill-opacity:1;fill-rule:nonzero;stroke:none"
             id="path2693" />
        </g>
        <g
           id="g2695"
           transform="translate(256.5085,121.1535)">
          <path
             d="M 0,0 C 0.024,0.238 0.065,0.47 0.103,0.705 0.12,0.815 0.118,0.93 0.147,1.038 0.175,1.147 0.23,1.244 0.259,1.353 0.3,1.508 0.508,1.479 0.552,1.345 0.582,1.257 0.625,1.189 0.663,1.106 0.712,0.997 0.72,0.883 0.753,0.771 0.817,0.549 0.907,0.328 0.981,0.108 1.122,-0.312 1.264,-0.723 1.385,-1.15 1.506,-1.574 1.642,-1.996 1.742,-2.425 1.856,-2.915 2.036,-3.804 1.307,-3.897 0.655,-3.98 0.411,-3.188 0.252,-2.706 0.114,-2.288 0.055,-1.839 0.006,-1.403 -0.023,-1.139 -0.062,-0.875 -0.048,-0.609 -0.038,-0.406 -0.02,-0.203 0,0"
             style="fill:#3c3278;fill-opacity:1;fill-rule:nonzero;stroke:none"
             id="path2697" />
        </g>
        <g
           id="g2699"
           transform="translate(276.859,178.1617)">
          <path
             d="M 0,0 C -0.04,0.092 0.097,0.168 0.137,0.076 0.179,-0.023 0.215,-0.128 0.271,-0.22 0.333,-0.32 0.421,-0.4 0.49,-0.494 0.61,-0.656 0.701,-0.846 0.792,-1.025 0.977,-1.392 1.111,-1.783 1.206,-2.183 1.306,-2.609 1.414,-3.026 1.434,-3.465 1.447,-3.751 1.349,-3.969 1.265,-4.19 1.18,-4.41 1.081,-4.638 0.898,-4.793 0.695,-4.963 0.401,-4.93 0.262,-4.695 0.164,-4.529 0.131,-4.349 0.102,-4.161 0.069,-3.945 0,-3.73 0.016,-3.512 0.045,-3.102 0.151,-2.741 0.162,-2.338 0.172,-1.966 0.16,-1.593 0.15,-1.222 0.141,-0.821 0.16,-0.367 0,0"
             style="fill:#3c3278;fill-opacity:1;fill-rule:nonzero;stroke:none"
             id="path2701" />
        </g>
        <g
           id="g2703"
           transform="translate(273.8083,182.4884)">
          <path
             d="M 0,0 C 0.072,-0.116 0.146,-0.223 0.252,-0.309 0.255,-0.311 0.257,-0.311 0.275,-0.325 0.302,-0.346 0.333,-0.357 0.358,-0.382 0.409,-0.432 0.445,-0.509 0.483,-0.569 0.633,-0.811 0.744,-1.056 0.849,-1.322 0.95,-1.577 1.039,-1.837 1.122,-2.098 1.212,-2.382 1.239,-2.687 1.27,-2.982 1.286,-3.129 1.308,-3.278 1.285,-3.425 1.251,-3.632 1.155,-3.849 0.999,-3.997 0.811,-4.176 0.517,-4.218 0.297,-4.08 c -0.174,0.109 -0.295,0.336 -0.345,0.535 -0.036,0.145 -0.016,0.282 0.006,0.426 -0.018,-0.117 0.005,0.034 0.011,0.073 0.018,0.138 0.031,0.276 0.041,0.415 0.017,0.262 0.043,0.528 0.038,0.791 -0.006,0.304 -0.063,0.595 -0.088,0.896 -0.011,0.134 -0.068,0.29 -0.047,0.423 0.005,0.031 0.032,0.068 0.033,0.097 -0.002,-0.046 -0.018,0.037 -0.019,0.043 -0.004,0.027 0.005,0.069 0.002,0.096 -0.008,0.076 -0.037,0.137 -0.066,0.209 C -0.173,0.016 -0.054,0.088 0,0"
             style="fill:#3c3278;fill-opacity:1;fill-rule:nonzero;stroke:none"
             id="path2705" />
        </g>
        <g
           id="g2707"
           transform="translate(241.2429,207.1222)">
          <path
             d="M 0,0 C 0.005,0.012 0.01,0.024 0.015,0.035 0.028,0.062 0.029,0.064 0,0"
             style="fill:#3c3278;fill-opacity:1;fill-rule:nonzero;stroke:none"
             id="path2709" />
        </g>
        <g
           id="g2711"
           transform="translate(243.2574,202.159)">
          <path
             d="M 0,0 C 0,0.001 0,0 0,0.001 -0.001,0.007 0,0.003 0,0.006 0,0.005 0,0.005 0,0.005 0,0.004 0,0.001 0,0"
             style="fill:#3c3278;fill-opacity:1;fill-rule:nonzero;stroke:none"
             id="path2713" />
        </g>
        <g
           id="g2715"
           transform="translate(266.8221,210.6656)">
          <path
             d="M 0,0 C 0.574,-0.53 0.997,-1.244 1.41,-1.9 1.626,-2.243 1.786,-2.659 1.902,-3.046 1.961,-3.239 1.998,-3.445 2.023,-3.644 2.037,-3.758 2.059,-3.877 2.056,-3.992 2.052,-4.103 2,-4.187 1.978,-4.29 1.928,-4.526 1.611,-4.567 1.459,-4.414 c -0.016,0.016 -0.032,0.032 -0.048,0.048 0.05,-0.03 0.1,-0.061 0.15,-0.092 -0.379,0.136 -0.552,0.659 -0.697,1.004 -0.154,0.366 -0.294,0.76 -0.393,1.145 -0.093,0.364 -0.195,0.726 -0.291,1.09 -0.101,0.382 -0.236,0.758 -0.312,1.146 C -0.148,0.005 -0.058,0.053 0,0"
             style="fill:#3c3278;fill-opacity:1;fill-rule:nonzero;stroke:none"
             id="path2717" />
        </g>
        <g
           id="g2719"
           transform="translate(265.4108,206.5927)">
          <path
             d="M 0,0 C 0.027,0.361 0.017,0.731 0.071,1.089 0.082,1.157 0.18,1.202 0.218,1.124 0.371,0.809 0.478,0.472 0.63,0.154 0.792,-0.183 0.963,-0.537 1.098,-0.886 1.236,-1.243 1.306,-1.587 1.359,-1.965 1.399,-2.254 1.488,-2.913 1.079,-3.015 0.692,-3.112 0.43,-2.571 0.315,-2.298 0.148,-1.899 0.02,-1.515 -0.006,-1.08 -0.027,-0.728 -0.026,-0.352 0,0"
             style="fill:#3c3278;fill-opacity:1;fill-rule:nonzero;stroke:none"
             id="path2721" />
        </g>
        <g
           id="g2723"
           transform="translate(271.69,151.14)">
          <path
             d="m 0,0 c -0.02,-0.09 -0.04,-0.18 -0.06,-0.26 -0.08,-0.27 -0.41,-0.25 -0.55,-0.05 -0.11,0.15 -0.25,0.29 -0.34,0.45 0,0.01 0,0.02 -0.02,0.04 C -0.61,0.11 -0.29,0.05 0,0"
             style="fill:#3c3278;fill-opacity:1;fill-rule:nonzero;stroke:none"
             id="path2725" />
        </g>
        <g
           id="g2727"
           transform="translate(268.3799,151.613)">
          <path
             d="M 0,0 C -0.022,0.078 0.078,0.125 0.132,0.073 0.238,-0.029 0.359,-0.119 0.466,-0.223 0.587,-0.34 0.683,-0.47 0.776,-0.61 0.946,-0.867 1.115,-1.132 1.228,-1.417 1.371,-1.776 1.482,-2.112 1.481,-2.503 1.48,-2.616 1.472,-2.731 1.438,-2.84 1.428,-2.872 1.424,-2.879 1.422,-2.879 1.42,-2.892 1.42,-2.896 1.416,-2.924 1.407,-2.981 1.399,-3.029 1.38,-3.082 1.312,-3.272 1.21,-3.419 1.07,-3.563 0.892,-3.746 0.608,-3.667 0.483,-3.472 0.302,-3.19 0.221,-2.861 0.194,-2.529 c -0.003,0.034 -0.005,0.046 -0.005,0.05 -0.007,0.06 -0.015,0.12 -0.02,0.18 -0.004,0.076 -0.003,0.153 -0.001,0.228 0.003,0.142 0.009,0.282 0.005,0.424 -0.007,0.265 0,0.52 -0.043,0.783 C 0.084,-0.583 0.076,-0.273 0,0"
             style="fill:#3c3278;fill-opacity:1;fill-rule:nonzero;stroke:none"
             id="path2729" />
        </g>
        <g
           id="g2731"
           transform="translate(266.3,151.06)">
          <path
             d="m 0,0 c -0.02,-0.03 -0.03,-0.06 -0.05,-0.1 0.01,-0.02 -0.03,-0.1 -0.03,-0.12 -0.09,-0.31 -0.56,-0.46 -0.78,-0.18 -0.05,0.06 -0.09,0.11 -0.15,0.16 -0.14,0.15 -0.23,0.38 -0.21,0.58 0.01,0.16 0.02,0.32 0.03,0.48 0.02,0.21 0.05,0.42 0.06,0.63 C -0.88,1.39 -0.64,1.34 -0.4,1.29 -0.35,1.21 -0.31,1.13 -0.27,1.04 -0.2,0.9 -0.13,0.76 -0.06,0.62 0.04,0.43 0.06,0.21 0,0"
             style="fill:#3c3278;fill-opacity:1;fill-rule:nonzero;stroke:none"
             id="path2733" />
        </g>
        <g
           id="g2735"
           transform="translate(282.901,199.0922)">
          <path
             d="M 0,0 C 0.005,0.097 -0.022,0.195 -0.016,0.292 -0.005,0.452 0.008,0.62 0.045,0.777 0.076,0.909 0.267,0.951 0.354,0.85 0.458,0.729 0.55,0.587 0.634,0.451 0.685,0.368 0.707,0.268 0.76,0.186 0.8,0.124 0.854,0.071 0.894,0.009 1.076,-0.281 1.198,-0.61 1.332,-0.924 1.483,-1.281 1.658,-1.635 1.766,-2.008 1.831,-2.234 1.962,-2.555 1.824,-2.773 1.816,-2.792 1.808,-2.812 1.8,-2.831 1.789,-2.737 1.778,-2.778 1.768,-2.953 1.75,-3.023 1.723,-3.081 1.689,-3.136 c 0,-0.003 0,-0.007 0,-0.011 C 1.686,-3.32 1.558,-3.479 1.39,-3.52 1.224,-3.562 1.086,-3.48 0.984,-3.358 c -0.085,0.042 -0.161,0.093 -0.243,0.161 0.043,-0.027 0.047,-0.029 0.012,-0.006 -0.061,0.04 -0.118,0.085 -0.171,0.135 -0.194,0.187 -0.255,0.434 -0.33,0.682 -0.101,0.338 -0.134,0.697 -0.183,1.045 -0.052,0.368 -0.124,0.751 -0.1,1.124 C -0.026,-0.144 -0.004,-0.073 0,0"
             style="fill:#3c3278;fill-opacity:1;fill-rule:nonzero;stroke:none"
             id="path2737" />
        </g>
        <g
           id="g2739"
           transform="translate(234.4158,115.6506)">
          <path
             d="M 0,0 C 5.186,17.066 8.048,35.789 8.779,39.016 8.813,39.169 8.563,39.207 8.536,39.052 7.985,35.848 2.393,14.806 -0.267,0.038 -0.298,-0.132 -0.05,-0.164 0,0"
             style="fill:#3c3278;fill-opacity:1;fill-rule:nonzero;stroke:none"
             id="path2741" />
        </g>
        <g
           id="g2743"
           transform="translate(289.3652,145.2494)">
          <path
             d="m 0,0 c -1.645,0.283 -45.184,12.543 -54.704,14.02 -0.15,0.023 -0.017,0.523 0.142,0.495 C -25.307,9.355 -1.272,1.533 0.57,0.798 2.754,-0.072 3.066,-0.527 0,0"
             style="fill:#3c3278;fill-opacity:1;fill-rule:nonzero;stroke:none"
             id="path2745" />
        </g>
        <g
           id="g2747"
           transform="translate(272.9104,150.5284)">
          <path
             d="m 0,0 c 0.032,0.085 -5.413,27.691 -5.927,28.608 -0.527,0.95 -1.667,3.062 -2.135,4.047 -0.942,1.986 -1.76,4.016 -2.628,6.027 -0.072,0.166 0.179,0.295 0.251,0.128 0.938,-1.945 2.043,-3.811 3.157,-5.653 0.555,-0.905 1.109,-1.818 1.665,-2.715 0.042,-0.059 -2.679,14.359 -3.06,16.892 -0.031,0.186 0.173,0.239 0.231,0.082 C -7.628,44.867 0.621,3.071 1.403,-0.129 1.403,-0.129 0.862,-0.12 0,0"
             style="fill:#3c3278;fill-opacity:1;fill-rule:nonzero;stroke:none"
             id="path2749" />
        </g>
        <g
           id="g2751"
           transform="translate(240.8146,107.5654)">
          <path
             d="m 0,0 c -2.841,0.785 -14.235,2.628 -17.007,3.026 0.272,1.005 1.081,5.082 1.006,6.231 -0.006,0.109 -0.169,0.174 -0.236,0.076 -0.648,-0.95 -1.757,-5.964 -2.089,-7.148 C -18.389,1.96 -2.976,0.024 -0.025,-0.132 0.061,-0.137 0.085,-0.024 0,0"
             style="fill:#3c3278;fill-opacity:1;fill-rule:nonzero;stroke:none"
             id="path2753" />
        </g>
        <g
           id="g2755"
           transform="translate(263.8446,224.5928)">
          <path
             d="m 0,0 c -0.5,-1.694 -9.332,-12.371 -17.159,-11.555 -2.549,0.271 -1.694,14.247 -1.694,14.247 l -0.173,1.047 -2.408,14.646 17.61,9.93 2.538,1.302 c 0,0 0.394,-4.051 0.835,-9.099 0.022,-0.234 0.043,-0.468 0.063,-0.719 0.033,-0.285 0.067,-0.554 0.084,-0.821 0.076,-0.753 0.15,-1.523 0.207,-2.291 0.047,-0.584 0.094,-1.152 0.12,-1.768 C 0.066,14.302 0.094,13.703 0.136,13.086 0.42,6.997 0.202,0.72 0,0"
             style="fill:#ffaba1;fill-opacity:1;fill-rule:nonzero;stroke:none"
             id="path2757" />
        </g>
        <g
           id="g2759"
           transform="translate(263.3936,245.1108)">
          <path
             d="m 0,0 c -4.801,-11.273 -14.263,-15.44 -18.575,-16.779 l -2.408,14.646 17.611,9.93 2.537,1.302 c 0,0 0.394,-4.051 0.835,-9.099"
             style="fill:#000000;fill-opacity:0.8;fill-rule:nonzero;stroke:none"
             id="path2761" />
        </g>
        <g
           id="g2763"
           transform="translate(222.9811,263.3976)">
          <path
             d="M 0,0 C -1.739,-25.992 13.633,-29.969 19.238,-30.337 24.326,-30.672 41.695,-31.166 46.11,-5.492 50.525,20.181 38.99,29.206 27.393,30.587 15.796,31.969 1.739,25.993 0,0"
             style="fill:#ffaba1;fill-opacity:1;fill-rule:nonzero;stroke:none"
             id="path2765" />
        </g>
        <g
           id="g2767"
           transform="translate(230.8795,270.0093)">
          <path
             d="M 0,0 C 0.613,0.049 1.171,0.196 1.773,0.307 2.452,0.431 3.005,0.461 3.521,0.964 3.798,1.234 3.798,1.801 3.561,2.095 3.01,2.778 2.14,2.832 1.317,2.714 0.423,2.587 -0.233,2.26 -0.844,1.599 -1.437,0.957 -0.809,-0.064 0,0"
             style="fill:#000000;fill-opacity:1;fill-rule:nonzero;stroke:none"
             id="path2769" />
        </g>
        <g
           id="g2771"
           transform="translate(249.1554,268.7162)">
          <path
             d="m 0,0 c -0.61,0.083 -1.159,0.262 -1.753,0.406 -0.671,0.163 -1.222,0.224 -1.709,0.755 -0.261,0.285 -0.228,0.852 0.024,1.131 0.589,0.652 1.46,0.656 2.276,0.493 C -0.277,2.607 0.36,2.244 0.933,1.549 1.488,0.875 0.804,-0.109 0,0"
             style="fill:#000000;fill-opacity:1;fill-rule:nonzero;stroke:none"
             id="path2773" />
        </g>
        <g
           id="g2775"
           transform="translate(244.8957,262.0866)">
          <path
             d="M 0,0 C 0.016,0.067 0.135,-0.09 0.13,-0.163 -0.003,-1.932 0.143,-3.981 1.721,-4.639 1.77,-4.659 1.76,-4.748 1.702,-4.737 -0.243,-4.377 -0.409,-1.656 0,0"
             style="fill:#000000;fill-opacity:1;fill-rule:nonzero;stroke:none"
             id="path2777" />
        </g>
        <g
           id="g2779"
           transform="translate(246.5575,263.869)">
          <path
             d="M 0,0 C 2.86,0.094 2.836,-5.632 0.187,-5.719 -2.42,-5.804 -2.396,-0.078 0,0"
             style="fill:#000000;fill-opacity:1;fill-rule:nonzero;stroke:none"
             id="path2781" />
        </g>
        <g
           id="g2783"
           transform="translate(247.6807,263.5617)">
          <path
             d="m 0,0 c 0.499,-0.326 0.987,-0.9 1.589,-0.962 0.697,-0.072 1.227,0.526 1.685,1.1 0.047,0.06 0.097,0.01 0.098,-0.066 C 3.383,-1.025 2.957,-2.149 1.78,-2.308 0.707,-2.453 -0.06,-1.478 -0.329,-0.374 -0.379,-0.169 -0.201,0.132 0,0"
             style="fill:#000000;fill-opacity:1;fill-rule:nonzero;stroke:none"
             id="path2785" />
        </g>
        <g
           id="g2787"
           transform="translate(234.0737,263.3945)">
          <path
             d="m 0,0 c -0.013,0.068 -0.14,-0.082 -0.139,-0.155 0.034,-1.774 -0.228,-3.812 -1.84,-4.379 -0.05,-0.018 -0.046,-0.107 0.014,-0.099 C -0.004,-4.384 0.315,-1.675 0,0"
             style="fill:#3c3278;fill-opacity:1;fill-rule:nonzero;stroke:none"
             id="path2789" />
        </g>
        <g
           id="g2791"
           transform="translate(232.5145,265.2677)">
          <path
             d="M 0,0 C -2.85,0.254 -3.149,-5.464 -0.509,-5.699 2.089,-5.931 2.389,-0.213 0,0"
             style="fill:#000000;fill-opacity:1;fill-rule:nonzero;stroke:none"
             id="path2793" />
        </g>
        <g
           id="g2795"
           transform="translate(231.3027,264.9542)">
          <path
             d="m 0,0 c -0.468,-0.28 -0.944,-0.806 -1.485,-0.814 -0.628,-0.008 -1.058,0.634 -1.427,1.248 -0.038,0.064 -0.085,0.018 -0.091,-0.057 -0.088,-1.092 0.214,-2.249 1.253,-2.514 0.947,-0.241 1.7,0.66 2.017,1.735 C 0.327,-0.203 0.188,0.112 0,0"
             style="fill:#000000;fill-opacity:1;fill-rule:nonzero;stroke:none"
             id="path2797" />
        </g>
        <g
           id="g2799"
           transform="translate(243.1466,248.3281)">
          <path
             d="m 0,0 c -0.407,-0.433 -0.807,-1.021 -1.448,-1.102 -0.615,-0.077 -1.349,0.171 -1.923,0.367 -0.057,0.02 -0.111,-0.042 -0.073,-0.094 0.488,-0.661 1.473,-1.047 2.289,-0.869 0.796,0.173 1.165,0.883 1.329,1.624 C 0.197,0.031 0.059,0.063 0,0"
             style="fill:#000000;fill-opacity:1;fill-rule:nonzero;stroke:none"
             id="path2801" />
        </g>
        <g
           id="g2803"
           transform="translate(235.8334,254.8559)">
          <path
             d="m 0,0 c 0,0 -0.408,-2.643 -0.428,-3.893 -0.001,-0.116 0.3,-0.177 0.724,-0.208 0.02,-0.007 0.031,-0.015 0.049,-0.002 2.2,-0.38 4.434,0.347 5.804,2.126 C 6.237,-1.856 6.08,-1.724 5.965,-1.8 4.299,-2.984 2.474,-3.267 0.517,-3.268 0.434,-2.921 1.367,1.235 1.169,1.253 0.486,1.322 -0.866,0.879 -1.679,0.655 -0.989,6.185 0.582,11.56 1.187,17.076 1.205,17.274 0.923,17.337 0.862,17.162 -1.183,11.646 -2.117,5.299 -2.976,-0.393 -3.09,-1.102 -0.503,-0.205 0,0"
             style="fill:#000000;fill-opacity:1;fill-rule:nonzero;stroke:none"
             id="path2805" />
        </g>
        <g
           id="g2807"
           transform="translate(238.3534,288.7589)">
          <path
             d="m 0,0 c 0,0 -0.693,-4.076 0.938,-6.83 3.354,-5.66 10.342,-3.469 12.987,-5.59 2.479,-1.988 2.087,-6.601 4.351,-8.61 3.134,-2.781 6.923,-1.256 7.578,-3.258 0.655,-2.002 2.593,-8.39 5.273,-8.985 2.68,-0.595 10.775,43.752 -23.165,39.354 0,0 -4.845,1.491 -11.769,-2.806 -7.642,-4.744 -9.949,-18.213 -9.949,-18.213 0,0 0.154,0.195 1.227,1.325 1.515,1.596 2.03,2.994 3.151,4.04 1.761,1.644 2.85,1.178 4.689,2.79 C -1.886,-4.327 0,0 0,0"
             style="fill:#2d1635;fill-opacity:1;fill-rule:nonzero;stroke:none"
             id="path2809" />
        </g>
        <g
           id="g2811"
           transform="translate(238.704,290.688)">
          <path
             d="m 0,0 c -0.376,-1.745 -0.566,-3.53 -0.53,-5.296 0.02,-1.749 0.273,-3.562 1.178,-4.998 0.91,-1.394 2.54,-2.254 4.18,-2.691 1.674,-0.452 3.475,-0.462 5.28,-1.004 0.886,-0.301 1.776,-0.736 2.436,-1.511 0.646,-0.764 0.962,-1.675 1.235,-2.528 0.517,-1.714 1.04,-3.402 2.31,-4.545 1.25,-1.144 3.004,-1.744 4.737,-1.51 1.716,0.15 3.57,0.801 5.312,0.196 -1.786,0.462 -3.482,-0.308 -5.262,-0.605 -1.816,-0.333 -3.778,0.22 -5.215,1.431 -1.514,1.219 -2.075,3.149 -2.611,4.794 -0.277,0.834 -0.59,1.644 -1.117,2.242 -0.508,0.59 -1.286,0.978 -2.082,1.232 -1.618,0.52 -3.447,0.568 -5.223,1.066 -0.888,0.245 -1.761,0.606 -2.546,1.112 -0.772,0.491 -1.542,1.135 -1.991,1.981 -0.937,1.661 -1.094,3.553 -1.037,5.344 C -0.842,-3.486 -0.51,-1.713 0,0"
             style="fill:#3c3278;fill-opacity:1;fill-rule:nonzero;stroke:none"
             id="path2813" />
        </g>
        <g
           id="g2815"
           transform="translate(238.191,289.0794)">
          <path
             d="m 0,0 c -0.182,-1.655 -0.609,-3.275 -1.231,-4.842 -0.609,-1.564 -1.637,-3.06 -3.082,-4.058 -0.722,-0.509 -1.569,-0.812 -2.274,-1.124 -0.674,-0.31 -1.373,-0.813 -1.73,-1.397 -0.385,-0.668 -0.733,-1.497 -1.301,-2.142 -0.57,-0.644 -1.282,-1.139 -2.049,-1.453 0.674,0.482 1.297,1.024 1.718,1.705 0.469,0.656 0.699,1.402 1.06,2.201 0.435,0.881 1.182,1.364 1.955,1.797 0.789,0.385 1.516,0.64 2.143,1.102 1.286,0.899 2.232,2.195 2.941,3.652 C -1.116,-3.113 -0.545,-1.566 0,0"
             style="fill:#3c3278;fill-opacity:1;fill-rule:nonzero;stroke:none"
             id="path2817" />
        </g>
        <g
           id="g2819"
           transform="translate(239.6645,261.3594)">
          <path
             d="M 0,0 0.861,0.891 C -0.4,2.229 -3.42,4.162 -5.841,1.913 L -5.037,0.964 C -2.87,2.982 -0.116,0.121 0,0"
             style="fill:#6585f4;fill-opacity:1;fill-rule:nonzero;stroke:none"
             id="path2821" />
        </g>
        <g
           id="g2823"
           transform="translate(276.8096,254.9761)">
          <path
             d="m 0,0 1.176,0.474 c -0.222,0.549 -2.242,5.38 -5.018,6.104 -2.597,0.668 -14.076,0.675 -14.801,0.674 l 0.001,-1.269 C -13.746,5.987 -6.167,5.872 -4.163,5.35 -2.329,4.873 -0.537,1.326 0,0"
             style="fill:#6585f4;fill-opacity:1;fill-rule:nonzero;stroke:none"
             id="path2825" />
        </g>
        <g
           id="g2827"
           transform="translate(241.2108,262.9848)">
          <path
             d="m 0,0 c -1.213,-1.146 -0.497,-4.728 0.365,-5.657 1.798,-1.942 10.116,-2.796 12.761,-0.842 1.961,1.451 3.628,6.672 4.324,9.385 C 12.709,2.843 2.423,2.288 0,0 M -0.624,-6.573 C -1.866,-5.232 -2.807,-0.798 -0.925,0.98 2.574,4.286 17.669,4.239 18.31,4.234 L 19.147,4.229 18.963,3.413 C 18.882,3.057 16.961,-5.338 13.927,-7.581 12.822,-8.399 10.903,-8.831 8.794,-8.925 5.137,-9.087 0.91,-8.228 -0.624,-6.573"
             style="fill:#6585f4;fill-opacity:1;fill-rule:nonzero;stroke:none"
             id="path2829" />
        </g>
        <g
           id="g2831"
           transform="translate(224.5996,259.9783)">
          <path
             d="m 0,0 c 0.399,-0.798 1.523,-1.409 3.007,-1.634 1.812,-0.277 3.64,0.108 4.431,0.932 C 8.213,0.107 9.266,2.699 8.515,4.773 7.674,7.093 1.811,8.724 -1.206,9.334 -1.136,6.717 -0.837,1.674 0,0 m 2.805,-2.965 c -1.944,0.294 -3.406,1.156 -4.01,2.363 C -2.47,1.93 -2.564,9.807 -2.568,10.141 l -0.009,0.806 0.795,-0.135 C -0.741,10.635 8.426,8.972 9.781,5.232 10.701,2.691 9.554,-0.44 8.41,-1.634 7.48,-2.604 5.994,-2.995 4.59,-3.058 3.96,-3.086 3.346,-3.047 2.805,-2.965"
             style="fill:#6585f4;fill-opacity:1;fill-rule:nonzero;stroke:none"
             id="path2833" />
        </g>
        <g
           id="g2835"
           transform="translate(263.9289,257.015)">
          <path
             d="M 0,0 C 0,0 5.523,8.242 9.253,6.288 12.981,4.333 8.94,-7.536 4.641,-9.233 c -4.299,-1.698 -5.948,2.251 -5.948,2.251 z"
             style="fill:#ffaba1;fill-opacity:1;fill-rule:nonzero;stroke:none"
             id="path2837" />
        </g>
        <g
           id="g2839"
           transform="translate(271.9383,259.9292)">
          <path
             d="m 0,0 c 0.07,0.008 0.085,-0.09 0.025,-0.115 -3.012,-1.291 -4.555,-4.137 -5.617,-7.079 0.881,1.141 2.098,1.781 3.625,0.736 0.08,-0.055 0.007,-0.18 -0.079,-0.164 -1.249,0.242 -2.142,0.009 -2.963,-1.004 -0.581,-0.717 -0.97,-1.617 -1.38,-2.44 -0.137,-0.274 -0.63,-0.139 -0.533,0.176 0.007,0.023 0.017,0.047 0.024,0.07 C -7.051,-5.949 -4.149,-0.472 0,0"
             style="fill:#000000;fill-opacity:1;fill-rule:nonzero;stroke:none"
             id="path2841" />
        </g>
        <g
           id="g2843"
           transform="translate(266.119,225.5734)">
          <path
             d="m 0,0 c 0,0 0.05,7.819 -0.607,8.648 -0.658,0.83 -10.543,-5.854 -13.775,-6.201 -3.233,-0.347 -7.86,0.674 -8.634,0.374 -0.775,-0.3 -0.993,-7.646 -0.955,-8.05 0.038,-0.404 2.023,-7.989 4.302,-8.349 C -17.39,-13.939 -7.107,-12.289 0,0"
             style="fill:#d74c9f;fill-opacity:1;fill-rule:nonzero;stroke:none"
             id="path2845" />
        </g>
        <g
           id="g2847"
           transform="translate(264.0588,232.1324)">
          <path
             d="m 0,0 c -0.207,-0.903 -0.198,-1.668 -0.186,-2.466 0.046,-0.795 0.111,-1.574 0.411,-2.447 0.548,0.759 0.684,1.636 0.665,2.49 C 0.843,-1.572 0.62,-0.695 0,0"
             style="fill:#3c3278;fill-opacity:1;fill-rule:nonzero;stroke:none"
             id="path2849" />
        </g>
        <g
           id="g2851"
           transform="translate(261.5838,230.4927)">
          <path
             d="m 0,0 c -0.259,-1.007 -0.275,-1.916 -0.275,-2.848 0.035,-0.93 0.1,-1.849 0.422,-2.835 0.529,0.903 0.66,1.888 0.655,2.858 C 0.767,-1.857 0.581,-0.867 0,0"
             style="fill:#3c3278;fill-opacity:1;fill-rule:nonzero;stroke:none"
             id="path2853" />
        </g>
        <g
           id="g2855"
           transform="translate(258.9329,228.7466)">
          <path
             d="m 0,0 c -0.214,-1.122 -0.206,-2.138 -0.198,-3.18 0.042,-1.039 0.101,-2.066 0.399,-3.166 0.553,1.009 0.691,2.111 0.678,3.195 C 0.836,-2.068 0.623,-0.963 0,0"
             style="fill:#3c3278;fill-opacity:1;fill-rule:nonzero;stroke:none"
             id="path2857" />
        </g>
        <g
           id="g2859"
           transform="translate(256.3705,227.0882)">
          <path
             d="m 0,0 c -0.216,-1.24 -0.21,-2.385 -0.205,-3.554 0.04,-1.166 0.097,-2.322 0.393,-3.544 0.555,1.139 0.695,2.361 0.684,3.568 C 0.832,-2.325 0.623,-1.099 0,0"
             style="fill:#3c3278;fill-opacity:1;fill-rule:nonzero;stroke:none"
             id="path2861" />
        </g>
        <g
           id="g2863"
           transform="translate(242.9516,219.8219)">
          <path
             d="M 0,0 C 0.183,1.214 0.221,2.369 0.281,3.54 0.315,4.712 0.351,5.876 0.235,7.096 -0.281,5.976 -0.469,4.771 -0.526,3.571 -0.562,2.37 -0.45,1.146 0,0"
             style="fill:#3c3278;fill-opacity:1;fill-rule:nonzero;stroke:none"
             id="path2865" />
        </g>
        <g
           id="g2867"
           transform="translate(253.1899,225.8387)">
          <path
             d="m 0,0 c -0.333,-1.215 -0.338,-2.406 -0.266,-3.59 0.106,-1.182 0.292,-2.358 0.808,-3.507 0.336,1.216 0.341,2.406 0.266,3.59 C 0.7,-2.326 0.514,-1.151 0,0"
             style="fill:#3c3278;fill-opacity:1;fill-rule:nonzero;stroke:none"
             id="path2869" />
        </g>
        <g
           id="g2871"
           transform="translate(245.3001,226.2445)">
          <path
             d="m 0,0 c -0.388,-1.362 -0.531,-2.736 -0.614,-4.114 -0.059,-1.379 -0.056,-2.761 0.193,-4.155 0.39,1.363 0.533,2.737 0.614,4.114 C 0.25,-2.776 0.247,-1.395 0,0"
             style="fill:#3c3278;fill-opacity:1;fill-rule:nonzero;stroke:none"
             id="path2873" />
        </g>
        <g
           id="g2875"
           transform="translate(250.1866,225.8908)">
          <path
             d="m 0,0 c -0.313,-1.5 -0.327,-2.964 -0.297,-4.428 0.06,-1.465 0.178,-2.915 0.547,-4.399 0.256,0.727 0.378,1.47 0.455,2.21 0.082,0.742 0.089,1.484 0.075,2.224 C 0.712,-2.914 0.535,-1.437 0,0"
             style="fill:#3c3278;fill-opacity:1;fill-rule:nonzero;stroke:none"
             id="path2877" />
        </g>
        <g
           id="g2879"
           transform="translate(247.3063,226.1938)">
          <path
             d="m 0,0 c -0.552,-1.618 -0.698,-3.3 -0.692,-4.966 0.037,-1.665 0.212,-3.338 0.795,-4.948 0.269,1.685 0.288,3.32 0.282,4.962 C 0.344,-3.31 0.296,-1.681 0,0"
             style="fill:#3c3278;fill-opacity:1;fill-rule:nonzero;stroke:none"
             id="path2881" />
        </g>
        <g
           id="g2883"
           transform="translate(291.1148,99.6488)">
          <path
             d="m 0,0 c 0.145,-0.036 0.291,-0.073 0.436,-0.109 l 0.012,0.012 C 0.303,-0.061 0.145,-0.036 0,0"
             style="fill:#ed776a;fill-opacity:1;fill-rule:nonzero;stroke:none"
             id="path2885" />
        </g>
        <g
           id="g2887"
           transform="translate(332.6897,107.8014)">
          <path
             d="M 0,0 C 0.061,-0.315 0.121,-0.618 0.157,-0.933 0.145,-0.872 0.145,-0.812 0.133,-0.751 0.097,-0.497 0.048,-0.254 0,0"
             style="fill:#6585f4;fill-opacity:1;fill-rule:nonzero;stroke:none"
             id="path2889" />
        </g>
        <g
           id="g2891"
           transform="translate(332.6897,107.8014)">
          <path
             d="M 0,0 C 0.061,-0.315 0.121,-0.618 0.157,-0.933 0.145,-0.872 0.145,-0.812 0.133,-0.751 0.097,-0.497 0.048,-0.254 0,0"
             style="fill:#6585f4;fill-opacity:1;fill-rule:nonzero;stroke:none"
             id="path2893" />
        </g>
        <g
           id="g2895"
           transform="translate(289.1403,95.1183)">
          <path
             d="M 0,0 V -0.012 C 0.46,-0.121 0.909,-0.23 1.357,-0.327 0.909,-0.218 0.448,-0.109 0,0"
             style="fill:#6585f4;fill-opacity:1;fill-rule:nonzero;stroke:none"
             id="path2897" />
        </g>
        <g
           id="g2899"
           transform="translate(332.6897,107.8014)">
          <path
             d="M 0,0 C 0.061,-0.315 0.121,-0.618 0.157,-0.933 0.145,-0.872 0.145,-0.812 0.133,-0.751 0.097,-0.497 0.048,-0.254 0,0"
             style="fill:#ffffff;fill-opacity:1;fill-rule:nonzero;stroke:none"
             id="path2901" />
        </g>
      </g>
    </g>
  </g>
</svg>
